<svg width="86" height="83" viewBox="0 0 86 83" fill="none" xmlns="http://www.w3.org/2000/svg">
<path opacity="0.2" d="M85.1031 76.8616C85.1031 80.0557 66.1876 82.6276 42.875 82.6276C19.5625 82.6276 0.646973 80.0557 0.646973 76.8616C0.646973 73.6676 19.5625 71.0957 42.875 71.0957C66.2291 71.0957 85.1031 73.6676 85.1031 76.8616Z" fill="url(#paint0_radial_2006_591)"/>
<path d="M9.98096 79.2287C9.98096 58.1976 30.1409 51.7265 37.1098 70.6421C45.4475 58.9443 52.5409 70.6421 52.5409 70.6421C52.5409 65.4154 73.5719 51.4776 73.5719 79.2287H9.98096Z" fill="#694B30"/>
<path d="M12.9671 74.9958C12.9671 74.9958 12.9256 74.6639 12.8426 74.0417C12.8012 73.7513 12.8012 73.378 12.8426 72.9217C12.8426 72.4654 12.8841 72.0091 13.0086 71.4698C13.0915 70.9306 13.2575 70.3913 13.4234 69.8106C13.6723 69.2298 13.8382 68.6076 14.2115 68.0269C14.5019 67.4461 14.8752 66.8239 15.29 66.2432C15.4975 65.9528 15.7049 65.7039 15.9537 65.4135C16.0782 65.2476 16.1197 65.1647 16.3271 64.9572L16.7004 64.5839C17.1567 64.0861 17.8204 63.6298 18.4012 63.215C19.0234 62.8417 19.6041 62.4684 20.2678 62.2609C20.89 62.0121 21.5123 61.7632 22.1345 61.6387C22.4248 61.5558 22.7152 61.4728 23.0056 61.4313C23.2959 61.4313 23.5863 61.3898 23.8352 61.3898C24.3745 61.3069 24.8723 61.3898 25.3286 61.4728C25.7848 61.5143 26.1167 61.5972 26.4071 61.7632C26.9878 62.0121 27.2782 62.178 27.2782 62.178C27.2782 62.178 26.9463 62.1365 26.3241 62.095C26.0337 62.0535 25.7019 62.095 25.2871 62.1365C24.8722 62.178 24.4574 62.2195 23.9596 62.3854C23.5033 62.5098 23.0056 62.6758 22.4663 62.8832C21.9271 63.0491 21.4293 63.3809 20.89 63.6298C20.3508 63.8787 19.853 64.2935 19.3137 64.6254C18.8575 64.9987 18.3597 65.3306 17.9034 65.8698L17.53 66.2432C17.4885 66.2847 17.3226 66.4506 17.2397 66.575C17.0323 66.8239 16.8249 67.0728 16.6175 67.3217C16.2441 67.8609 15.8293 68.3172 15.4975 68.8565C14.8338 69.8935 14.2945 70.8891 13.9212 71.8432C13.5478 72.7558 13.3404 73.5439 13.1745 74.1661C13.05 74.6639 12.9671 74.9958 12.9671 74.9958Z" fill="white"/>
<path d="M55.4022 74.591C55.4022 74.591 55.2777 74.3421 55.1533 73.8858C55.0703 73.6784 55.0288 73.388 54.9874 73.0147C54.9044 72.6413 54.9459 72.268 54.9874 71.8117C55.0288 71.3554 55.1533 70.9406 55.2777 70.4428C55.4436 69.9865 55.6096 69.4887 55.8999 69.0324C56.1488 68.5347 56.4807 68.0784 56.8125 67.6635C57.1444 67.2487 57.6007 66.7509 57.974 66.4191C58.3473 66.0458 58.8866 65.7139 59.3429 65.3821C59.8407 65.0917 60.3384 64.8013 60.8362 64.6354C61.8318 64.1791 62.8273 64.0132 63.6569 63.9717C64.0718 63.8887 64.4451 63.9717 64.8184 63.9717C65.1503 63.9717 65.4407 64.0132 65.6895 64.0546C66.1873 64.1376 66.4362 64.1791 66.4362 64.1791C66.4362 64.1791 66.1873 64.2621 65.6895 64.3865C65.4821 64.428 65.1918 64.5109 64.8599 64.5939C64.5696 64.7184 64.1962 64.7598 63.8229 64.9258C63.4496 65.0502 63.0762 65.1746 62.6614 65.3821C62.2466 65.548 61.8733 65.7554 61.4584 66.0043C61.0436 66.2117 60.6703 66.5435 60.2555 66.7924C59.8821 67.0828 59.5088 67.3317 59.1355 67.7465C58.7207 68.1198 58.4303 68.4102 58.057 68.7835C57.7666 69.1569 57.3933 69.4887 57.1444 69.9035C56.854 70.2769 56.6466 70.6502 56.3977 71.0235C56.2318 71.3969 55.9829 71.7702 55.8999 72.1021C55.7755 72.4754 55.6511 72.8073 55.6096 73.0976C55.5681 73.388 55.4436 73.6784 55.4436 73.9273C55.4436 74.3006 55.4022 74.591 55.4022 74.591Z" fill="white"/>
<path d="M25.4535 74.587C22.9231 75.707 18.4432 75.4996 17.9869 72.0152C17.655 69.3604 20.3513 66.5396 22.5913 65.5441C25.3705 64.2996 29.2698 63.7189 30.2653 67.3693C31.1365 70.6048 28.1083 73.3841 25.4535 74.587Z" fill="#785A30"/>
<path d="M48.351 70.8111C48.3095 71.0185 48.185 71.2259 48.0606 71.4334C46.4843 74.3371 38.7687 74.5445 40.7184 70.1474C42.2117 66.9119 49.4295 67.3682 48.351 70.8111Z" fill="#785A30"/>
<path d="M66.6025 74.709C64.321 75.912 60.961 76.0365 59.924 74.0453C59.0114 72.3446 59.7166 69.9387 61.0025 68.6527C62.2884 67.3253 64.321 66.6616 66.0632 67.5742C67.4321 68.2794 69.1743 70.6439 68.8425 72.2616C68.6351 73.2157 67.764 74.0868 66.6025 74.709Z" fill="#785A30"/>
<path d="M36.5694 44.8447C36.5694 41.6921 36.1132 38.8713 35.6154 35.9262C35.3665 34.4328 35.1176 32.9395 34.9517 31.4047L36.6524 31.1973C36.8598 32.7321 37.0672 34.2254 37.3161 35.6773C37.7724 38.581 38.2702 41.6091 38.3117 44.8862L36.5694 44.8447Z" fill="url(#paint1_linear_2006_591)"/>
<path d="M71.7462 17.8361C61.8322 20.9472 36.1552 20.2005 36.0308 49.7768V71.3887H38.2707V49.9013C72.0781 48.6568 69.5477 20.0346 71.7462 17.8361Z" fill="url(#paint2_linear_2006_591)"/>
<path d="M10.644 25.6794C15.5803 26.5506 29.9744 26.5506 33.7077 49.9046C17.6959 50.9832 10.644 25.6794 10.644 25.6794Z" fill="url(#paint3_linear_2006_591)"/>
<path d="M22.4666 0.050415C22.4666 0.050415 15.6636 24.8978 34.994 31.7008C35.1599 31.7423 35.3258 31.8253 35.4918 31.8667C35.4918 31.8253 35.4917 31.7838 35.4503 31.7423C35.4503 31.7423 35.4503 31.7838 35.4918 31.7838C35.7821 32.1156 36.031 31.8667 36.1969 31.6178C36.1969 31.6593 36.1969 31.6593 36.1969 31.7008C45.7791 9.42524 28.0251 2.9956 22.4666 0.050415Z" fill="url(#paint4_linear_2006_591)"/>
<path d="M37.814 47.3348C37.814 47.3348 37.9799 46.7126 38.3117 45.5926C38.6851 44.514 39.1414 42.8963 39.888 41.0711C40.2199 40.1585 40.7177 39.1629 41.2154 38.1259C41.7547 37.1303 42.2939 36.0518 43.0406 35.0148C43.7043 33.9362 44.5339 32.9407 45.4051 31.9451C45.8614 31.4888 46.3177 30.9911 46.8154 30.4933C47.3547 29.954 47.8525 29.6222 48.3502 29.1659C49.3043 28.2948 50.5488 27.6311 51.6688 26.8844C52.8302 26.2622 53.9917 25.6814 55.1532 25.1836C57.4347 24.1881 59.6332 23.4829 61.4998 22.8192C62.4124 22.4874 63.2835 22.197 64.0302 21.9481C64.7769 21.6992 65.4406 21.4503 65.9383 21.2014C67.0169 20.7451 67.6391 20.5377 67.6391 20.5377C67.6391 20.5377 67.0998 20.9111 66.1043 21.4918C65.6065 21.7822 65.0258 22.1555 64.2791 22.5288C63.5739 22.9022 62.7858 23.3585 61.8732 23.7318C60.0895 24.6029 57.9739 25.474 55.8169 26.5525C54.6969 27.0503 53.6599 27.714 52.5399 28.2948C51.5028 28.9999 50.4658 29.5807 49.4702 30.4933C48.9724 30.9081 48.3917 31.3229 48.0184 31.6962C47.5621 32.1525 47.1058 32.6088 46.691 33.0237C45.8614 33.9777 45.0317 34.8488 44.3265 35.8444C43.5799 36.7985 42.9991 37.794 42.3769 38.7066C41.8377 39.6607 41.2569 40.5733 40.8421 41.4444C39.9295 43.1866 39.1828 44.6385 38.6851 45.6755C38.1043 46.754 37.814 47.3348 37.814 47.3348Z" fill="#3C6400"/>
<path d="M40.4277 41.7758C40.4277 41.7758 40.5522 41.5269 40.7596 41.0707C40.8425 40.8218 41.0914 40.6144 41.3403 40.324C41.5892 39.9921 41.9626 39.8262 42.3359 39.5773C42.7507 39.3699 43.207 39.121 43.7048 39.0381C44.2026 38.8721 44.7418 38.7477 45.2811 38.7062C45.8203 38.6647 46.4011 38.5818 46.9818 38.6232H47.4381L47.8944 38.6647L48.724 38.7892C49.2633 38.8721 49.844 38.9966 50.3833 39.1625C50.964 39.3284 51.4618 39.4944 51.9596 39.6188C52.4573 39.7847 52.9551 39.9506 53.3699 40.0336C53.8262 40.1166 54.241 40.324 54.6144 40.3655C55.0292 40.4484 55.4025 40.5314 55.7344 40.5729C56.0662 40.6144 56.3566 40.6144 56.6055 40.6558C57.1033 40.6973 57.3936 40.7388 57.3936 40.7388C57.3936 40.7388 57.1448 40.8218 56.647 40.9877C56.3981 41.0707 56.1077 41.1536 55.7344 41.2366C55.4025 41.2781 54.9877 41.3195 54.5314 41.3195C54.0751 41.361 53.6188 41.3195 53.1211 41.2781C52.5818 41.2366 52.084 41.1536 51.5862 41.0707C51.047 40.9462 50.5077 40.8632 50.01 40.7388C49.5122 40.6144 48.9729 40.4899 48.3922 40.4484L47.5625 40.324L47.1892 40.241L46.8159 40.1995C46.3181 40.1581 45.7788 40.1166 45.2811 40.1166C44.7833 40.1166 44.327 40.1166 43.8707 40.1995C43.4144 40.241 42.9996 40.3655 42.6262 40.407C42.2944 40.5729 41.8796 40.6144 41.6307 40.7803C41.3818 40.9462 41.0914 41.0292 40.9255 41.1951C40.6351 41.5684 40.4277 41.7758 40.4277 41.7758Z" fill="#3C6400"/>
<path d="M45.4883 33.9409C45.4883 33.9409 45.7372 33.7335 46.152 33.4017C46.3594 33.2357 46.6083 32.9868 46.9401 32.8209C47.272 32.6135 47.6453 32.4061 48.0601 32.1572C48.4749 31.9498 48.9727 31.7424 49.4705 31.5765C50.0097 31.4105 50.5075 31.2446 51.2127 31.1202C51.7934 31.0787 52.3742 30.9957 52.9964 30.9957C53.6601 31.0372 54.3238 31.0787 54.946 31.1617C55.5683 31.2861 56.149 31.3691 56.7712 31.4935C57.0616 31.535 57.352 31.618 57.6423 31.7009L58.0157 31.7839L58.4305 31.8668C58.9697 31.9498 59.5505 32.1157 60.0068 32.1157C60.5045 32.1157 60.9608 32.2402 61.3757 32.1987C61.7905 32.1572 62.2053 32.1572 62.5786 32.1572C62.952 32.1157 63.2423 32.0742 63.5327 32.0328C64.0719 31.9498 64.3623 31.9083 64.3623 31.9083C64.3623 31.9083 64.1134 32.0742 63.6157 32.3231C63.3668 32.4476 63.0764 32.6135 62.7445 32.7794C62.3712 32.9039 61.9564 33.0283 61.5001 33.1528C61.0438 33.3187 60.5045 33.3187 59.9238 33.3602C59.3431 33.4431 58.8038 33.3602 58.2231 33.3187L57.8083 33.2772L57.3105 33.2357C57.0201 33.1942 56.7297 33.1528 56.3979 33.1113C55.8171 33.0283 55.2364 32.9454 54.6142 32.8209C54.0334 32.6965 53.4942 32.6965 52.9549 32.6135C52.3742 32.6135 51.752 32.6135 51.2127 32.572C50.7149 32.6135 50.1757 32.6965 49.7194 32.738C49.2216 32.8624 48.7653 32.9454 48.309 33.0283C47.8942 33.1528 47.4794 33.2772 47.1475 33.3602C46.7742 33.4431 46.4838 33.5676 46.2349 33.6505C45.8201 33.8165 45.4883 33.9409 45.4883 33.9409Z" fill="#3C6400"/>
<path d="M55.6924 26.0549C55.6924 26.0549 56.4391 25.8475 57.5176 25.6816C57.8079 25.6401 58.0983 25.5986 58.3887 25.5571C58.7205 25.5571 59.0109 25.4327 59.3428 25.3912C60.0065 25.2667 60.7117 25.1838 61.4168 25.1008C62.122 24.9349 62.7857 24.769 63.4494 24.686C63.7813 24.603 64.1131 24.603 64.4035 24.5201C64.6938 24.4371 64.9842 24.3541 65.2331 24.3127C66.2701 24.0638 67.0583 23.9393 67.0583 23.9393C67.0583 23.9393 66.4776 24.3956 65.482 24.9764C65.2331 25.1423 64.9842 25.2667 64.6939 25.4327C64.4035 25.5986 64.0716 25.6816 63.7398 25.806C63.0761 26.0134 62.3294 26.2208 61.6242 26.3867C60.8776 26.4697 60.1309 26.5112 59.4257 26.5527C58.7205 26.5941 58.0983 26.5112 57.5176 26.4282C56.4391 26.2623 55.6924 26.0549 55.6924 26.0549Z" fill="#3C6400"/>
<path d="M37.4409 46.1318C37.4409 46.1318 37.4409 45.5096 37.4824 44.3896C37.4824 43.8503 37.5654 43.1866 37.6898 42.3985C37.7728 41.6103 37.9802 40.7392 38.2705 39.8266C38.478 38.8725 38.9343 37.9185 39.3491 36.8814C39.8469 35.8859 40.3446 34.8074 41.0498 33.8118C41.672 32.7748 42.4602 31.7792 43.2483 30.7837C43.6631 30.2859 44.1194 29.8296 44.5343 29.3733C44.7831 29.1244 44.9491 28.917 45.2394 28.6681L45.9446 28.0459C46.8157 27.2162 48.0187 26.4281 49.0557 25.7229C49.595 25.3911 50.1757 25.1007 50.715 24.7688C51.2957 24.5199 51.835 24.2296 52.4157 23.9807C53.6187 23.4829 54.6557 23.234 55.6927 22.8607C56.6883 22.5288 57.7668 22.197 58.6794 21.9896C60.5046 21.4918 62.0809 21.1599 63.1594 20.9111C64.2379 20.6622 64.8601 20.5377 64.8601 20.5377C64.8601 20.5377 64.2794 20.7866 63.2424 21.2014C62.2053 21.6162 60.7535 22.2385 58.9698 22.9022C58.0572 23.234 57.1861 23.6074 56.149 24.0222C55.1535 24.437 53.992 24.8518 53.0379 25.3081C52.5402 25.557 52.0009 25.8474 51.4616 26.0962C50.9639 26.4281 50.4661 26.7185 49.9268 27.0503C48.9313 27.7555 47.9772 28.3777 47.0646 29.2488L46.3594 29.8711C46.152 29.9955 45.9446 30.2859 45.7372 30.4933C45.3224 30.9496 44.8661 31.3644 44.4928 31.8207C43.7046 32.7333 42.9165 33.6459 42.2942 34.6C41.5891 35.5125 41.0498 36.5081 40.5106 37.3792C40.0543 38.3333 39.515 39.2044 39.2246 40.0755C38.8513 40.9466 38.5609 41.7348 38.3535 42.44C38.1461 43.1451 37.9387 43.8089 37.8557 44.3481C37.6068 45.5096 37.4409 46.1318 37.4409 46.1318Z" fill="#78AA00"/>
<path d="M23.9585 2.07246C23.9585 2.07246 24.0415 2.15542 24.2074 2.27986C24.3733 2.44579 24.6637 2.61172 24.9541 2.77764C25.6592 3.15098 26.6963 3.73172 27.8992 4.4369C28.48 4.81024 29.1437 5.18357 29.8074 5.63987C30.4711 6.13764 31.1348 6.63542 31.84 7.21617C32.1718 7.50654 32.5452 7.79691 32.9185 8.0458C33.3333 8.46061 33.5407 8.75098 33.8726 9.08283C34.4948 9.70506 34.9926 10.6176 35.5318 11.4473C36.0711 12.3184 36.32 13.1895 36.7348 14.0606C37.0666 14.9317 37.274 15.8443 37.4814 16.7154C37.6474 17.5865 37.7718 18.4577 37.8548 19.2458C37.8962 20.0754 37.9377 20.8221 37.9377 21.5273C37.8963 22.2325 37.8548 22.8962 37.8133 23.4354C37.7718 24.0162 37.6474 24.514 37.6059 24.8873C37.44 25.6754 37.357 26.1317 37.357 26.1317C37.357 26.1317 37.3155 25.6754 37.3155 24.8458C37.3155 24.431 37.3155 23.9747 37.2325 23.394C37.1496 22.8547 37.1081 22.2325 37.0251 21.5273C36.9007 20.8636 36.7763 20.1169 36.6518 19.3702C36.4859 18.6236 36.2785 17.8354 36.0711 17.0058C35.7807 16.2177 35.5318 15.388 35.2414 14.5584C34.8681 13.7702 34.5777 12.8991 34.1214 12.1939C33.6651 11.4473 33.3333 10.7006 32.6696 10.0369C32.3792 9.70505 32.1303 9.3732 31.8815 9.04135C31.5496 8.75098 31.2592 8.46061 30.9274 8.17024C30.3052 7.63098 29.7244 7.05024 29.1437 6.51098C28.5215 6.0132 27.9407 5.51542 27.4429 5.10061C26.4059 4.18801 25.4933 3.44135 24.9126 2.90209C24.1244 2.48727 23.9585 2.03098 23.9585 2.07246Z" fill="#78AA00"/>
<path d="M12.7178 27.0443C12.7178 27.0443 13.1741 27.1273 13.9622 27.2932C14.7504 27.4591 15.8704 27.6665 17.1978 27.9984C17.3637 28.0399 17.5296 28.0813 17.6955 28.1228C17.9859 28.2058 18.0689 28.2473 18.2763 28.3302C18.6081 28.4547 18.9815 28.6206 19.3133 28.7865C19.6867 28.9525 20.06 29.0769 20.4333 29.2428C20.8066 29.4088 21.18 29.6991 21.5533 29.9065C22.3 30.4043 23.1296 30.8191 23.7933 31.4828C24.457 32.1051 25.2451 32.6443 25.8259 33.391C26.4066 34.1376 27.0703 34.7599 27.6096 35.5895C28.1074 36.3362 28.5637 37.0828 29.02 37.788C29.4348 38.5762 29.7666 39.3643 30.14 40.0695C30.5133 40.7747 30.6792 41.5214 30.8866 42.1851C31.094 42.8488 31.3015 43.4295 31.3429 44.0102C31.4259 44.5495 31.5089 45.0473 31.5503 45.4621C31.6748 46.2502 31.6748 46.7065 31.6748 46.7065C31.6748 46.7065 31.5088 46.2917 31.2185 45.5451C31.094 45.1717 30.9281 44.7154 30.7207 44.2177C30.5548 43.6784 30.2229 43.1806 29.9326 42.5584C29.6007 41.9777 29.3933 41.2725 28.9785 40.6502C28.6052 40.028 28.1488 39.3228 27.7755 38.6177C27.2777 37.9125 26.78 37.2073 26.2407 36.5021C25.7844 35.8384 25.1207 35.2162 24.5814 34.5525C24.0422 33.8473 23.337 33.3495 22.7148 32.7273C22.0926 32.1051 21.4289 31.6488 20.7652 31.1925C20.4333 30.9436 20.1429 30.6947 19.8111 30.4873C19.4377 30.2799 19.1059 30.0725 18.774 29.9065C18.4422 29.6991 18.1104 29.5332 17.7785 29.3673C17.6541 29.2843 17.4052 29.1599 17.3637 29.1184C17.1978 29.0354 17.0318 28.9939 16.8659 28.911C15.6215 28.4132 14.5844 27.9154 13.8792 27.5836C13.1326 27.2517 12.7178 27.0443 12.7178 27.0443Z" fill="#78AA00"/>
<path d="M23.4613 4.56201C23.4613 4.56201 18.8983 22.1917 34.122 29.1191C33.7071 16.4257 23.4613 4.56201 23.4613 4.56201Z" fill="#5E8800"/>
<path d="M25.6606 5.89111C25.6606 5.89111 25.9925 6.22297 26.4903 6.80371C26.988 7.42593 27.7347 8.21408 28.5643 9.2926C29.394 10.3711 30.3066 11.6156 31.1777 13.0674C31.5925 13.7726 32.1317 14.4778 32.5051 15.3074C32.9199 16.0956 33.2932 16.9252 33.708 17.7133C34.0399 18.5845 34.3303 19.4141 34.6621 20.2437C35.0354 21.0733 35.1184 21.9445 35.3258 22.7741C35.5332 23.6037 35.6991 24.3919 35.7821 25.18C35.8651 25.9682 35.9065 26.6734 35.9895 27.3371C36.0725 28.0008 35.9895 28.623 35.9895 29.1622C35.948 29.7015 35.948 30.1993 35.9066 30.5726C35.8651 31.3608 35.8236 31.7756 35.8236 31.7756C35.8236 31.7756 35.7406 31.3193 35.6162 30.5726C35.5747 30.1993 35.4917 29.743 35.4088 29.2037C35.3258 28.6645 35.2843 28.0837 35.0769 27.42C34.911 26.7978 34.7451 26.0926 34.6206 25.3459C34.4962 24.5993 34.2058 23.8526 33.9984 23.1059C33.7495 22.3178 33.5421 21.5296 33.2103 20.7415C32.9199 19.9533 32.588 19.1652 32.2562 18.3356C31.5095 16.7593 30.8043 15.183 30.0162 13.7311C29.6014 13.0259 29.311 12.2793 28.8962 11.657C28.5229 10.9933 28.191 10.3711 27.8592 9.79038C27.2369 8.62889 26.6977 7.63334 26.3243 6.96963C25.8266 6.26445 25.6606 5.89111 25.6606 5.89111Z" fill="#3C6400"/>
<path d="M26.2822 21.6923C26.2822 21.6923 26.4067 21.8582 26.6141 22.0656C26.8215 22.273 27.2363 22.4389 27.6926 22.6463C27.9415 22.7293 28.1904 22.8537 28.4807 22.9782C28.7711 23.1026 29.0615 23.1856 29.3518 23.31C29.9741 23.5589 30.6378 23.8493 31.26 24.1397C31.5918 24.2641 31.8822 24.43 32.2141 24.5545C32.5459 24.6789 32.8363 24.8863 33.1681 25.0523C33.7489 25.4256 34.2881 25.7989 34.6615 26.2552C34.8689 26.4626 34.9933 26.67 35.1178 26.9189C35.2422 27.1263 35.3252 27.2923 35.3666 27.4582C35.4496 27.79 35.4911 27.956 35.4911 27.956C35.4911 27.956 35.3666 27.8315 35.1592 27.5826C34.9518 27.3337 34.62 27.0849 34.2052 26.836C33.7903 26.5456 33.2511 26.3382 32.6703 26.0893C32.0481 25.8404 31.3844 25.5915 30.7207 25.3012C30.0985 24.9693 29.4348 24.6789 28.8541 24.3471C28.5637 24.1812 28.2733 24.0152 28.0245 23.8493C27.7756 23.6834 27.5267 23.476 27.3193 23.31C26.9044 22.9367 26.6141 22.5634 26.4481 22.2315C26.2822 21.8582 26.2822 21.6923 26.2822 21.6923Z" fill="#3C6400"/>
<path d="M23.4614 7.05408C23.4614 7.05408 23.5029 7.17852 23.5858 7.42741C23.6273 7.55186 23.7103 7.6763 23.7932 7.80074C23.8762 7.92519 24.0006 8.09112 24.1251 8.25704C24.374 8.58889 24.7473 8.87926 25.1621 9.21111C25.3695 9.37704 25.5769 9.54297 25.7843 9.70889C26.0332 9.87482 26.1991 10.0407 26.448 10.1652C26.9043 10.497 27.4021 10.7459 27.8584 11.0778C28.3147 11.3682 28.7295 11.7 29.0614 12.0319C29.3932 12.3637 29.6006 12.6956 29.6836 12.903C29.808 13.1519 29.8495 13.2763 29.8495 13.2763C29.8495 13.2763 29.725 13.1933 29.5591 12.9859C29.3932 12.7785 29.1028 12.6126 28.7295 12.3637C28.3976 12.1148 27.9413 11.9074 27.4851 11.7C27.0288 11.4511 26.448 11.2022 25.9503 10.8704C24.9547 10.2067 24.0836 9.33556 23.6688 8.50593C23.5443 8.29852 23.4614 8.1326 23.4199 7.92519C23.3784 7.71778 23.3369 7.59334 23.3369 7.46889C23.4614 7.17852 23.4614 7.05408 23.4614 7.05408Z" fill="#3C6400"/>
<path d="M24.0005 14.0667C24.0005 14.0667 24.1249 14.1911 24.3738 14.44C24.6227 14.6889 24.996 14.9792 25.4523 15.3111C26.4064 15.9748 27.8583 16.4311 29.3101 17.1363C30.7205 17.8 32.2138 18.5467 33.002 19.5422C33.2094 19.7496 33.3753 19.9985 33.4997 20.2474C33.6242 20.4548 33.7071 20.6622 33.7486 20.8281C33.8316 21.16 33.9145 21.3674 33.9145 21.3674C33.9145 21.3674 33.7901 21.2015 33.6242 20.9111C33.4583 20.6207 33.1264 20.2474 32.7116 19.9155C31.8405 19.1689 30.4301 18.5881 28.9783 17.9244C27.5679 17.2607 26.0745 16.597 25.2034 15.7259C24.7471 15.3111 24.4568 14.8963 24.2909 14.6059C24.0835 14.2326 24.0005 14.0667 24.0005 14.0667Z" fill="#3C6400"/>
<path d="M37.6893 56.7892L35.9886 56.7477C36.03 55.2958 35.2834 53.8025 34.7441 52.8069C34.4123 52.1847 33.9975 51.5625 33.5412 50.9403C33.2923 50.6084 33.0434 50.3181 32.753 50.0692C32.5041 49.8203 32.2552 49.5299 32.0063 49.2395L33.3338 48.161C33.5412 48.4099 33.7486 48.6588 33.9974 48.8662C34.3293 49.198 34.6197 49.5299 34.91 49.9032C35.4078 50.5669 35.8641 51.2721 36.2375 51.9773C36.9012 53.1388 37.7723 54.9225 37.6893 56.7892Z" fill="url(#paint5_linear_2006_591)"/>
<path d="M38.5605 48.665C38.5605 48.665 39.0583 48.5821 39.9294 48.4162C40.3857 48.3332 40.8835 48.2917 41.5057 48.1673C42.128 48.1258 42.7917 47.9184 43.4968 47.7524C44.202 47.5865 44.9487 47.4206 45.7783 47.2132C46.6079 46.9228 47.4791 46.6324 48.3502 46.3006C49.2628 46.0517 50.0924 45.5954 51.005 45.2221C51.4613 45.0561 51.9176 44.8487 52.3738 44.6828L53.7013 44.0606C54.6553 43.6873 55.402 43.148 56.2731 42.6917C57.0613 42.111 57.8909 41.6961 58.5961 41.0739C59.3427 40.5347 60.0479 39.9539 60.6701 39.4147C61.3338 38.8754 61.9146 38.2947 62.4538 37.7969C62.9931 37.2991 63.4494 36.8013 63.9057 36.345C64.362 35.9302 64.6938 35.5154 65.0257 35.1835C65.6479 34.5198 65.9798 34.188 65.9798 34.188C65.9798 34.188 65.7309 34.6443 65.2746 35.3909C65.0257 35.7643 64.7768 36.2206 64.4035 36.7184C64.0301 37.2161 63.6983 37.8384 63.159 38.4191C62.6612 38.9998 62.1635 39.6635 61.5413 40.2858C61.2509 40.6176 60.919 40.9495 60.5872 41.2813C60.2553 41.5717 59.882 41.9035 59.5087 42.2354C58.8035 42.8991 57.9324 43.4384 57.1442 44.0606C56.2316 44.5584 55.319 45.1806 54.4064 45.5539L52.9961 46.1761C52.4983 46.3421 52.042 46.5495 51.5857 46.7154C50.6316 47.0887 49.719 47.4621 48.8065 47.6695C47.8939 47.9184 47.0227 48.1258 46.1516 48.3747C45.1976 48.5406 44.4094 48.5821 43.6213 48.665C42.8331 48.748 42.1694 48.831 41.5472 48.748C40.925 48.7065 40.3857 48.7065 39.9709 48.665C39.0583 48.7065 38.5605 48.665 38.5605 48.665Z" fill="#3C6400"/>
<path d="M19.147 39.7844C19.147 39.7844 19.9766 40.3652 21.1381 41.4022C21.7188 41.9 22.341 42.5637 23.0462 43.1859C23.3781 43.5178 23.7514 43.8081 24.0833 44.1815C24.4151 44.5133 24.8299 44.8037 25.2032 45.0941L25.784 45.5504L25.9084 45.6748C25.9084 45.6748 25.9914 45.7578 25.9499 45.7163L26.0329 45.7578L26.3647 45.9652C26.7796 46.2141 27.1944 46.5044 27.6092 46.7118C28.3973 47.0852 29.1855 47.4585 29.8907 47.7074C30.5958 47.9978 31.1766 48.2467 31.5914 48.4126C32.0062 48.5785 32.2551 48.7029 32.2551 48.7029C32.2551 48.7029 31.2181 48.6615 29.7247 48.4126C28.9781 48.3296 28.0655 48.0392 27.1114 47.7074C26.6551 47.5415 26.2403 47.2926 25.784 47.0437L25.4521 46.8778L25.3692 46.8363C25.2447 46.7533 25.2862 46.7948 25.2447 46.7533L25.0788 46.6289L24.4566 46.1311C24.0418 45.7992 23.627 45.4674 23.2536 45.0941C22.8803 44.7207 22.5899 44.3474 22.2581 43.9741C21.5944 43.2689 21.0966 42.5222 20.6403 41.9415C19.6862 40.6555 19.147 39.7844 19.147 39.7844Z" fill="#3C6400"/>
<path d="M50.9628 37.3842C50.0917 37.1768 49.1791 37.0109 48.225 37.0939C47.188 37.1768 45.9435 37.799 44.948 37.7576C44.1598 37.7161 43.8695 37.3842 44.5747 36.6376C47.8932 33.1531 52.705 34.0242 56.9361 34.439C58.305 34.5635 60.4206 35.0198 60.0887 36.8865C59.8813 37.9235 58.7198 38.3798 57.7657 38.5872C55.3183 39.0435 53.2028 37.9235 50.9628 37.3842Z" fill="#5E8800"/>
<path d="M62.9519 30.8269C62.3297 30.9513 61.666 30.9513 61.0852 30.9098C59.9652 30.8684 58.9282 30.6195 57.8497 30.4121C56.5638 30.1632 55.1949 29.8728 53.8675 29.9143C53.4941 29.9143 51.8349 30.3706 52.0423 29.541C52.1667 29.0017 53.826 28.421 54.2823 28.2135C55.2364 27.8402 56.2319 27.6743 57.2275 27.5913C58.8452 27.4254 60.5045 27.4254 62.1223 27.2595C62.8274 27.1765 63.8645 27.0521 64.5282 27.3839C65.5652 27.8817 65.0675 29.541 64.3208 30.1217C63.906 30.578 63.4497 30.7439 62.9519 30.8269Z" fill="#5E8800"/>
<path d="M51.0465 42.3615C51.8761 42.6519 52.4984 42.9837 52.0835 43.3156C51.5443 43.8133 50.7146 43.5645 50.0924 43.6474C49.5117 43.7304 49.0554 43.8548 48.4747 43.8963C46.8984 43.9793 45.2806 44.1867 43.7873 44.6845C43.0406 44.9333 39.9295 47.3393 39.7221 45.6385C39.5561 44.1037 42.5013 42.0711 43.6628 41.5733C45.1561 40.9511 46.6909 41.283 48.2258 41.6563C48.4746 41.6978 49.968 41.9882 51.0465 42.3615Z" fill="#5E8800"/>
<path d="M14.2949 29.8241C17.0742 30.6122 24.8727 31.2345 30.1823 46.7071C21.6786 46.7486 14.2949 29.8241 14.2949 29.8241Z" fill="#5E8800"/>
<path d="M40.0135 75.3727C39.3498 77.986 36.1557 79.4379 32.8787 78.6082C29.6017 77.7786 27.4861 74.9579 28.1913 72.3445C28.855 69.7312 32.0491 68.2793 35.3261 69.109C38.5617 69.9386 40.6772 72.7179 40.0135 75.3727Z" fill="#5A4130"/>
<path d="M74.6494 79.2732C72.0361 79.3562 68.1368 77.6555 70.7087 74.5858C71.9117 73.1755 73.5294 72.2214 75.3961 72.0555C77.9265 71.8481 81.5354 72.1799 80.4154 75.4984C79.5442 78.1947 77.3457 79.2318 74.6494 79.2732Z" fill="#5A4130"/>
<path d="M10.022 79.0582C7.78204 79.0997 3.88279 77.8552 5.16871 74.9515C6.37167 72.2967 9.77316 71.3841 12.262 73.1263C13.382 73.9145 14.585 75.3249 14.3361 76.7767C13.9213 78.7263 11.6398 79.0167 10.022 79.0582Z" fill="#5A4130"/>
<path d="M52.4991 78.4057C48.6413 79.4427 48.4754 74.9212 51.4621 73.8012C52.8309 73.262 54.7391 73.5524 55.0709 75.1701C55.4857 76.9953 54.0339 77.9909 52.4991 78.4057Z" fill="#5A4130"/>
<path d="M60.0068 77.1486C60.0068 77.1486 60.2143 77.1486 60.5876 77.1486C60.9609 77.1486 61.4587 77.19 62.0394 77.1486C62.3298 77.1486 62.6202 77.1486 62.952 77.1071C63.2839 77.0656 63.6157 77.0656 63.9476 77.0241C64.2794 76.9412 64.6113 76.8582 64.9431 76.8167C65.192 76.7337 65.7313 76.6093 65.9802 76.4434C66.6024 76.1945 67.2661 75.8626 67.8053 75.4893C68.0957 75.3234 68.3031 75.0745 68.552 74.9086C68.7594 74.7012 68.9668 74.4523 69.1742 74.2863C69.3401 74.0374 69.4646 73.83 69.6305 73.6641C69.7965 73.4567 69.8379 73.2908 69.9209 73.1249C70.0868 72.793 70.1698 72.6271 70.1698 72.6271C70.1698 72.6271 70.2113 72.8345 70.2527 73.2078C70.2527 73.3737 70.2942 73.6226 70.2527 73.8715C70.2113 74.1204 70.1698 74.4523 70.0453 74.7426C69.9209 75.033 69.7964 75.4063 69.5476 75.7382C69.2987 76.0286 69.0913 76.4019 68.7594 76.6923C68.1372 77.3145 67.3905 77.7708 66.5194 78.1026C66.0631 78.2686 65.7728 78.31 65.275 78.476C64.8187 78.5589 64.4039 78.5589 63.989 78.6004C63.5742 78.6419 63.1594 78.5175 62.8276 78.476C62.4542 78.4345 62.1224 78.31 61.832 78.1856C61.2098 77.9782 60.795 77.7293 60.4631 77.5634C60.1728 77.273 60.0068 77.1486 60.0068 77.1486Z" fill="#5A4130"/>
<path d="M40.4282 74.6226C40.4282 74.5812 40.5527 74.8715 40.8845 75.0375C41.1749 75.2449 41.6727 75.3693 42.2534 75.4523C42.8756 75.4938 43.5808 75.4523 44.3275 75.3693C44.7008 75.3278 45.0742 75.2034 45.4475 75.1204C45.8623 74.996 46.1112 74.913 46.443 74.7056C46.8578 74.4982 47.1897 74.2908 47.4801 74.0419C47.7704 73.8345 48.1023 73.5856 48.3927 73.3367C48.6415 73.0463 48.9734 72.8389 49.1393 72.5901C49.3882 72.3412 49.5541 72.0923 49.7201 71.8019C49.886 71.553 49.9689 71.3041 50.0934 71.0552C50.2178 70.8063 50.2593 70.5989 50.2593 70.433C50.3423 70.0182 50.3838 69.8108 50.3838 69.8108C50.3838 69.8108 50.4667 70.0182 50.6327 70.3915C50.7156 70.5989 50.7986 70.8478 50.7571 71.1382C50.7571 71.4286 50.7986 71.8019 50.6741 72.1338C50.6327 72.2997 50.5912 72.5071 50.5082 72.7145C50.4252 72.8804 50.3423 73.0878 50.2178 73.2538C50.0519 73.6686 49.7615 74.0004 49.4712 74.3738C49.1393 74.7056 48.849 75.0789 48.4756 75.3693C48.0608 75.7012 47.6875 75.9501 47.3142 76.1575C46.8579 76.4064 46.2771 76.6138 45.8208 76.6967C45.323 76.7797 44.8667 76.8212 44.4105 76.8212C43.4979 76.8212 42.6682 76.6552 41.963 76.3649C41.2579 76.0745 40.7601 75.6182 40.5527 75.2449C40.3867 74.8715 40.4697 74.6226 40.4282 74.6226Z" fill="#5A4130"/>
<path d="M17.9448 76.1145C17.9448 76.1145 18.1937 76.1975 18.65 76.3634C18.8574 76.4879 19.1478 76.5294 19.4382 76.5708C19.7285 76.6123 20.0604 76.6953 20.4337 76.6953C21.1804 76.7368 22.093 76.7782 23.0056 76.6538C23.4619 76.6538 23.9596 76.5294 24.4574 76.4464C24.9552 76.4049 25.4115 76.239 25.9093 76.1145C26.3656 75.9486 26.7804 75.8656 27.2781 75.6168C27.7759 75.4094 28.1493 75.2434 28.5641 74.9945C29.4352 74.5382 30.1404 74.0405 30.8041 73.6256C31.0944 73.3768 31.4263 73.2108 31.6337 72.9619C31.8411 72.7545 32.09 72.5886 32.2559 72.4227C32.5878 72.0908 32.7537 71.8834 32.7537 71.8834C32.7537 71.8834 32.6707 72.1323 32.5048 72.5886C32.3389 73.0449 31.9656 73.6671 31.4678 74.3308C30.9285 74.9531 30.2233 75.6582 29.3522 76.2805C28.9374 76.5708 28.3982 76.9027 27.9419 77.1101C27.4856 77.359 26.8633 77.5664 26.3241 77.7738C25.7433 77.8568 25.2041 78.0227 24.6648 78.0642C24.1256 78.1471 23.5448 78.1471 23.0471 78.1056C22.01 78.1056 21.0144 77.8982 20.2263 77.6079C19.8115 77.5249 19.4382 77.276 19.1478 77.1101C18.8159 76.9442 18.6085 76.7782 18.4426 76.6123C18.1108 76.3219 17.9448 76.1145 17.9448 76.1145Z" fill="#5A4130"/>
<defs>
<radialGradient id="paint0_radial_2006_591" cx="0" cy="0" r="1" gradientUnits="userSpaceOnUse" gradientTransform="translate(42.8829 76.8561) scale(42.239 5.77311)">
<stop offset="0.0913978"/>
<stop offset="0.3324" stop-color="#4B4B4B"/>
<stop offset="0.6611" stop-color="#ABABAB"/>
<stop offset="0.891" stop-color="#E7E7E7"/>
<stop offset="1" stop-color="white"/>
</radialGradient>
<linearGradient id="paint1_linear_2006_591" x1="34.9271" y1="38.0162" x2="38.2614" y2="38.0162" gradientUnits="userSpaceOnUse">
<stop stop-color="#467800"/>
<stop offset="1" stop-color="#5E8800"/>
</linearGradient>
<linearGradient id="paint2_linear_2006_591" x1="43.9717" y1="27.4243" x2="61.57" y2="57.9053" gradientUnits="userSpaceOnUse">
<stop stop-color="#467800"/>
<stop offset="1" stop-color="#5E8800"/>
</linearGradient>
<linearGradient id="paint3_linear_2006_591" x1="22.2003" y1="49.9109" x2="22.2003" y2="25.666" gradientUnits="userSpaceOnUse">
<stop stop-color="#467800"/>
<stop offset="1" stop-color="#5E8800"/>
</linearGradient>
<linearGradient id="paint4_linear_2006_591" x1="23.6875" y1="25.5992" x2="34.5809" y2="6.73129" gradientUnits="userSpaceOnUse">
<stop stop-color="#467800"/>
<stop offset="1" stop-color="#5E8800"/>
</linearGradient>
<linearGradient id="paint5_linear_2006_591" x1="32.0132" y1="52.4487" x2="37.699" y2="52.4487" gradientUnits="userSpaceOnUse">
<stop stop-color="#467800"/>
<stop offset="1" stop-color="#5E8800"/>
</linearGradient>
</defs>
</svg>
