<svg width="85" height="84" viewBox="0 0 85 84" fill="none" xmlns="http://www.w3.org/2000/svg">
<path opacity="0.2" d="M84.9097 77.3919C84.9097 80.586 65.9942 83.1578 42.6817 83.1578C19.3691 83.1578 0.453613 80.586 0.453613 77.3919C0.453613 74.1978 19.3691 71.626 42.6817 71.626C66.0357 71.626 84.9097 74.1978 84.9097 77.3919Z" fill="url(#paint0_radial_152_237)"/>
<path d="M9.78735 79.7591C9.78735 58.728 29.9473 52.2569 36.9162 71.1725C45.2539 59.4747 52.3473 71.1725 52.3473 71.1725C52.3473 65.9458 73.3783 52.008 73.3783 79.7591H9.78735Z" fill="#694B30"/>
<path d="M12.7732 75.526C12.7732 75.526 12.7317 75.1942 12.6488 74.572C12.6073 74.2816 12.6073 73.9083 12.6488 73.452C12.6488 72.9957 12.6903 72.5394 12.8147 72.0001C12.8977 71.4609 13.0636 70.9216 13.2295 70.3409C13.4784 69.7601 13.6443 69.1379 14.0177 68.5571C14.308 67.9764 14.6814 67.3542 15.0962 66.7734C15.3036 66.4831 15.511 66.2342 15.7599 65.9438C15.8843 65.7779 15.9258 65.6949 16.1332 65.4875L16.5066 65.1142C16.9628 64.6164 17.6266 64.1601 18.2073 63.7453C18.8295 63.372 19.4103 62.9986 20.074 62.7912C20.6962 62.5423 21.3184 62.2934 21.9406 62.169C22.231 62.086 22.5214 62.0031 22.8117 61.9616C23.1021 61.9616 23.3925 61.9201 23.6414 61.9201C24.1806 61.8371 24.6784 61.9201 25.1347 62.0031C25.591 62.0446 25.9228 62.1275 26.2132 62.2934C26.7939 62.5423 27.0843 62.7083 27.0843 62.7083C27.0843 62.7083 26.7525 62.6668 26.1302 62.6253C25.8399 62.5838 25.508 62.6253 25.0932 62.6668C24.6784 62.7083 24.2636 62.7497 23.7658 62.9157C23.3095 63.0401 22.8117 63.206 22.2725 63.4134C21.7332 63.5794 21.2354 63.9112 20.6962 64.1601C20.1569 64.409 19.6592 64.8238 19.1199 65.1557C18.6636 65.529 18.1658 65.8609 17.7095 66.4001L17.3362 66.7734C17.2947 66.8149 17.1288 66.9808 17.0458 67.1053C16.8384 67.3542 16.631 67.6031 16.4236 67.852C16.0503 68.3912 15.6355 68.8475 15.3036 69.3868C14.6399 70.4238 14.1007 71.4194 13.7273 72.3735C13.354 73.286 13.1466 74.0742 12.9806 74.6964C12.8562 75.1942 12.7732 75.526 12.7732 75.526Z" fill="white"/>
<path d="M55.2088 75.1213C55.2088 75.1213 55.0843 74.8725 54.9599 74.4162C54.8769 74.2088 54.8355 73.9184 54.794 73.545C54.711 73.1717 54.7525 72.7984 54.794 72.3421C54.8355 71.8858 54.9599 71.471 55.0843 70.9732C55.2503 70.5169 55.4162 70.0191 55.7066 69.5628C55.9555 69.065 56.2873 68.6088 56.6192 68.1939C56.951 67.7791 57.4073 67.2813 57.7806 66.9495C58.154 66.5762 58.6932 66.2443 59.1495 65.9125C59.6473 65.6221 60.1451 65.3317 60.6429 65.1658C61.6384 64.7095 62.634 64.5436 63.4636 64.5021C63.8784 64.4191 64.2517 64.5021 64.6251 64.5021C64.9569 64.5021 65.2473 64.5436 65.4962 64.585C65.994 64.668 66.2428 64.7095 66.2428 64.7095C66.2428 64.7095 65.994 64.7925 65.4962 64.9169C65.2888 64.9584 64.9984 65.0413 64.6666 65.1243C64.3762 65.2487 64.0029 65.2902 63.6295 65.4562C63.2562 65.5806 62.8829 65.705 62.4681 65.9125C62.0532 66.0784 61.6799 66.2858 61.2651 66.5347C60.8503 66.7421 60.4769 67.0739 60.0621 67.3228C59.6888 67.6132 59.3155 67.8621 58.9421 68.2769C58.5273 68.6502 58.2369 68.9406 57.8636 69.3139C57.5732 69.6873 57.1999 70.0191 56.951 70.4339C56.6606 70.8073 56.4532 71.1806 56.2043 71.5539C56.0384 71.9273 55.7895 72.3006 55.7066 72.6325C55.5821 73.0058 55.4577 73.3376 55.4162 73.628C55.3747 73.9184 55.2503 74.2088 55.2503 74.4576C55.2503 74.831 55.2088 75.1213 55.2088 75.1213Z" fill="white"/>
<path d="M25.2597 75.1174C22.7293 76.2374 18.2493 76.03 17.793 72.5456C17.4612 69.8908 20.1574 67.07 22.3974 66.0745C25.1767 64.83 29.0759 64.2493 30.0715 67.8996C30.9426 71.1352 27.9145 73.9145 25.2597 75.1174Z" fill="#785A30"/>
<path d="M48.1574 71.3414C48.1159 71.5488 47.9914 71.7562 47.867 71.9636C46.2907 74.8673 38.5751 75.0747 40.5248 70.6777C42.0181 67.4421 49.2359 67.8984 48.1574 71.3414Z" fill="#785A30"/>
<path d="M66.4089 75.2394C64.1274 76.4424 60.7674 76.5668 59.7304 74.5757C58.8178 72.875 59.523 70.4691 60.8089 69.1831C62.0948 67.8557 64.1274 67.192 65.8696 68.1046C67.2385 68.8098 68.9807 71.1743 68.6489 72.792C68.4415 73.7461 67.5704 74.6172 66.4089 75.2394Z" fill="#785A30"/>
<path d="M36.3763 45.3751C36.3763 42.2225 35.92 39.4017 35.4223 36.4566C35.1734 34.9632 34.9245 33.4699 34.7585 31.9351L36.4593 31.7277C36.6667 33.2625 36.8741 34.7558 37.123 36.2077C37.5793 39.1114 38.0771 42.1395 38.1186 45.4166L36.3763 45.3751Z" fill="url(#paint1_linear_152_237)"/>
<path d="M71.5526 18.3665C61.6386 21.4776 35.9616 20.7309 35.8372 50.3072V71.9191H38.0771V50.4317C71.8845 49.1872 69.3541 20.565 71.5526 18.3665Z" fill="url(#paint2_linear_152_237)"/>
<path d="M10.4509 26.2098C15.3872 27.081 29.7812 27.0809 33.5146 50.435C17.5028 51.5136 10.4509 26.2098 10.4509 26.2098Z" fill="url(#paint3_linear_152_237)"/>
<path d="M22.2732 0.580872C22.2732 0.580872 15.4703 25.4283 34.8006 32.2313C34.9665 32.2727 35.1325 32.3557 35.2984 32.3972C35.2984 32.3557 35.2984 32.3142 35.2569 32.2727C35.2569 32.2727 35.2569 32.3142 35.2984 32.3142C35.5888 32.6461 35.8376 32.3972 36.0036 32.1483C36.0036 32.1898 36.0036 32.1898 36.0036 32.2313C45.5858 9.95569 27.8317 3.52606 22.2732 0.580872Z" fill="url(#paint4_linear_152_237)"/>
<path d="M37.6208 47.8651C37.6208 47.8651 37.7868 47.2429 38.1186 46.1229C38.492 45.0444 38.9483 43.4266 39.6949 41.6014C40.0268 40.6888 40.5246 39.6933 41.0223 38.6562C41.5616 37.6607 42.1008 36.5821 42.8475 35.5451C43.5112 34.4666 44.3408 33.471 45.2119 32.4755C45.6682 32.0192 46.1245 31.5214 46.6223 31.0236C47.1616 30.4844 47.6594 30.1525 48.1571 29.6962C49.1112 28.8251 50.3556 28.1614 51.4756 27.4147C52.6371 26.7925 53.7986 26.2118 54.9601 25.714C57.2415 24.7184 59.4401 24.0132 61.3067 23.3495C62.2193 23.0177 63.0904 22.7273 63.8371 22.4784C64.5838 22.2295 65.2475 21.9806 65.7452 21.7318C66.8237 21.2755 67.446 21.0681 67.446 21.0681C67.446 21.0681 66.9067 21.4414 65.9112 22.0221C65.4134 22.3125 64.8326 22.6858 64.086 23.0592C63.3808 23.4325 62.5926 23.8888 61.6801 24.2621C59.8964 25.1332 57.7808 26.0044 55.6238 27.0829C54.5038 27.5807 53.4667 28.2444 52.3467 28.8251C51.3097 29.5303 50.2727 30.111 49.2771 31.0236C48.7793 31.4384 48.1986 31.8532 47.8253 32.2266C47.369 32.6829 46.9127 33.1392 46.4979 33.554C45.6683 34.5081 44.8386 35.3792 44.1334 36.3747C43.3868 37.3288 42.806 38.3244 42.1838 39.237C41.6445 40.191 41.0638 41.1036 40.649 41.9747C39.7364 43.717 38.9897 45.1688 38.4919 46.2059C37.9112 47.2844 37.6208 47.8651 37.6208 47.8651Z" fill="#3C6400"/>
<path d="M40.2341 42.3062C40.2341 42.3062 40.3586 42.0573 40.566 41.601C40.6489 41.3522 40.8978 41.1448 41.1467 40.8544C41.3956 40.5225 41.769 40.3566 42.1423 40.1077C42.5571 39.9003 43.0134 39.6514 43.5112 39.5685C44.0089 39.4025 44.5482 39.2781 45.0875 39.2366C45.6267 39.1951 46.2074 39.1122 46.7882 39.1536H47.2445L47.7008 39.1951L48.5304 39.3196C49.0697 39.4025 49.6504 39.527 50.1897 39.6929C50.7704 39.8588 51.2682 40.0247 51.766 40.1492C52.2637 40.3151 52.7615 40.481 53.1763 40.564C53.6326 40.647 54.0474 40.8544 54.4208 40.8959C54.8356 40.9788 55.2089 41.0618 55.5408 41.1033C55.8726 41.1448 56.163 41.1447 56.4119 41.1862C56.9097 41.2277 57.2 41.2692 57.2 41.2692C57.2 41.2692 56.9511 41.3522 56.4534 41.5181C56.2045 41.601 55.9141 41.684 55.5408 41.767C55.2089 41.8085 54.7941 41.8499 54.3378 41.8499C53.8815 41.8914 53.4252 41.8499 52.9275 41.8085C52.3882 41.767 51.8904 41.684 51.3926 41.601C50.8534 41.4766 50.3141 41.3936 49.8163 41.2692C49.3186 41.1448 48.7793 41.0203 48.1986 40.9788L47.3689 40.8544L46.9956 40.7714L46.6223 40.7299C46.1245 40.6885 45.5852 40.647 45.0875 40.647C44.5897 40.647 44.1334 40.647 43.6771 40.7299C43.2208 40.7714 42.806 40.8959 42.4326 40.9373C42.1008 41.1033 41.686 41.1448 41.4371 41.3107C41.1882 41.4766 40.8978 41.5596 40.7319 41.7255C40.4415 42.0988 40.2341 42.3062 40.2341 42.3062Z" fill="#3C6400"/>
<path d="M45.2952 34.4714C45.2952 34.4714 45.544 34.264 45.9589 33.9321C46.1663 33.7662 46.4152 33.5173 46.747 33.3514C47.0789 33.144 47.4522 32.9366 47.867 32.6877C48.2818 32.4803 48.7796 32.2729 49.2774 32.1069C49.8166 31.941 50.3144 31.7751 51.0196 31.6506C51.6003 31.6091 52.1811 31.5262 52.8033 31.5262C53.467 31.5677 54.1307 31.6091 54.7529 31.6921C55.3751 31.8166 55.9559 31.8995 56.5781 32.024C56.8685 32.0654 57.1588 32.1484 57.4492 32.2314L57.8226 32.3143L58.2374 32.3973C58.7766 32.4803 59.3574 32.6462 59.8137 32.6462C60.3114 32.6462 60.7677 32.7706 61.1825 32.7291C61.5973 32.6877 62.0122 32.6877 62.3855 32.6877C62.7588 32.6462 63.0492 32.6047 63.3396 32.5632C63.8788 32.4803 64.1692 32.4388 64.1692 32.4388C64.1692 32.4388 63.9203 32.6047 63.4225 32.8536C63.1737 32.978 62.8833 33.144 62.5514 33.3099C62.1781 33.4343 61.7633 33.5588 61.307 33.6832C60.8507 33.8492 60.3114 33.8492 59.7307 33.8906C59.1499 33.9736 58.6107 33.8906 58.03 33.8491L57.6151 33.8077L57.1174 33.7662C56.827 33.7247 56.5366 33.6832 56.2048 33.6417C55.624 33.5588 55.0433 33.4758 54.4211 33.3514C53.8403 33.2269 53.3011 33.2269 52.7618 33.144C52.1811 33.144 51.5589 33.144 51.0196 33.1025C50.5218 33.144 49.9826 33.2269 49.5263 33.2684C49.0285 33.3929 48.5722 33.4758 48.1159 33.5588C47.7011 33.6832 47.2863 33.8077 46.9544 33.8906C46.5811 33.9736 46.2907 34.098 46.0418 34.181C45.627 34.3469 45.2952 34.4714 45.2952 34.4714Z" fill="#3C6400"/>
<path d="M55.499 26.5852C55.499 26.5852 56.2457 26.3778 57.3242 26.2119C57.6146 26.1704 57.9049 26.1289 58.1953 26.0874C58.5272 26.0874 58.8176 25.963 59.1494 25.9215C59.8131 25.7971 60.5183 25.7141 61.2235 25.6311C61.9287 25.4652 62.5923 25.2993 63.256 25.2163C63.5879 25.1334 63.9197 25.1334 64.2101 25.0504C64.5005 24.9674 64.7909 24.8845 65.0397 24.843C66.0768 24.5941 66.8649 24.4697 66.8649 24.4697C66.8649 24.4697 66.2842 24.926 65.2886 25.5067C65.0398 25.6726 64.7909 25.7971 64.5005 25.963C64.2101 26.1289 63.8783 26.2119 63.5464 26.3363C62.8827 26.5437 62.1361 26.7511 61.4309 26.9171C60.6842 27 59.9375 27.0415 59.2323 27.083C58.5272 27.1245 57.905 27.0415 57.3242 26.9586C56.2457 26.7926 55.499 26.5852 55.499 26.5852Z" fill="#3C6400"/>
<path d="M37.2476 46.6622C37.2476 46.6622 37.2476 46.0399 37.2891 44.9199C37.2891 44.3807 37.372 43.717 37.4965 42.9288C37.5794 42.1407 37.7868 41.2696 38.0772 40.357C38.2846 39.4029 38.7409 38.4488 39.1557 37.4118C39.6535 36.4162 40.1513 35.3377 40.8564 34.3421C41.4787 33.3051 42.2668 32.3095 43.055 31.314C43.4698 30.8162 43.9261 30.3599 44.3409 29.9036C44.5898 29.6547 44.7557 29.4473 45.0461 29.1984L45.7512 28.5762C46.6224 27.7466 47.8253 26.9584 48.8623 26.2532C49.4016 25.9214 49.9823 25.631 50.5216 25.2992C51.1023 25.0503 51.6416 24.7599 52.2224 24.511C53.4253 24.0132 54.4623 23.7644 55.4994 23.391C56.4949 23.0592 57.5734 22.7273 58.486 22.5199C60.3112 22.0221 61.8875 21.6903 62.966 21.4414C64.0445 21.1925 64.6668 21.0681 64.6668 21.0681C64.6668 21.0681 64.086 21.3169 63.049 21.7318C62.012 22.1466 60.5601 22.7688 58.7764 23.4325C57.8638 23.7644 56.9927 24.1377 55.9557 24.5525C54.9601 24.9673 53.7987 25.3821 52.8446 25.8384C52.3468 26.0873 51.8075 26.3777 51.2683 26.6266C50.7705 26.9584 50.2727 27.2488 49.7335 27.5807C48.7379 28.2858 47.7838 28.9081 46.8712 29.7792L46.1661 30.4014C45.9587 30.5258 45.7512 30.8162 45.5438 31.0236C45.129 31.4799 44.6727 31.8947 44.2994 32.351C43.5112 33.2636 42.7231 34.1762 42.1009 35.1303C41.3957 36.0429 40.8565 37.0384 40.3172 37.9096C39.8609 38.8636 39.3216 39.7347 39.0313 40.6059C38.6579 41.477 38.3676 42.2651 38.1602 42.9703C37.9527 43.6755 37.7453 44.3392 37.6624 44.8784C37.4135 46.0399 37.2476 46.6622 37.2476 46.6622Z" fill="#78AA00"/>
<path d="M23.7654 2.60285C23.7654 2.60285 23.8484 2.68582 24.0143 2.81026C24.1802 2.97619 24.4706 3.14211 24.7609 3.30804C25.4661 3.68137 26.5032 4.26211 27.7061 4.9673C28.2869 5.34063 28.9506 5.71397 29.6143 6.17026C30.278 6.66804 30.9417 7.16582 31.6468 7.74656C31.9787 8.03693 32.352 8.3273 32.7254 8.57619C33.1402 8.99101 33.3476 9.28138 33.6794 9.61323C34.3017 10.2355 34.7994 11.148 35.3387 11.9777C35.878 12.8488 36.1269 13.7199 36.5417 14.591C36.8735 15.4621 37.0809 16.3747 37.2883 17.2458C37.4543 18.1169 37.5787 18.9881 37.6617 19.7762C37.7031 20.6058 37.7446 21.3525 37.7446 22.0577C37.7031 22.7629 37.6617 23.4266 37.6202 23.9658C37.5787 24.5466 37.4543 25.0443 37.4128 25.4177C37.2468 26.2058 37.1639 26.6621 37.1639 26.6621C37.1639 26.6621 37.1224 26.2058 37.1224 25.3762C37.1224 24.9614 37.1224 24.5051 37.0394 23.9243C36.9565 23.3851 36.915 22.7629 36.832 22.0577C36.7076 21.394 36.5831 20.6473 36.4587 19.9006C36.2928 19.154 36.0854 18.3658 35.878 17.5362C35.5876 16.748 35.3387 15.9184 35.0483 15.0888C34.675 14.3006 34.3846 13.4295 33.9283 12.7243C33.472 11.9777 33.1402 11.231 32.4765 10.5673C32.1861 10.2354 31.9372 9.9036 31.6883 9.57174C31.3565 9.28137 31.0661 8.991 30.7343 8.70063C30.1121 8.16137 29.5313 7.58063 28.9506 7.04137C28.3283 6.5436 27.7476 6.04582 27.2498 5.631C26.2128 4.71841 25.3002 3.97174 24.7195 3.43248C23.9313 3.01767 23.7654 2.56137 23.7654 2.60285Z" fill="#78AA00"/>
<path d="M12.5242 27.5746C12.5242 27.5746 12.9805 27.6576 13.7686 27.8235C14.5568 27.9895 15.6768 28.1969 17.0042 28.5287C17.1701 28.5702 17.336 28.6117 17.5019 28.6532C17.7923 28.7361 17.8753 28.7776 18.0827 28.8606C18.4145 28.985 18.7879 29.1509 19.1197 29.3169C19.4931 29.4828 19.8664 29.6072 20.2397 29.7732C20.613 29.9391 20.9864 30.2295 21.3597 30.4369C22.1064 30.9346 22.936 31.3495 23.5997 32.0132C24.2634 32.6354 25.0515 33.1746 25.6323 33.9213C26.213 34.668 26.8767 35.2902 27.416 36.1198C27.9138 36.8665 28.3701 37.6132 28.8264 38.3184C29.2412 39.1065 29.573 39.8947 29.9464 40.5998C30.3197 41.305 30.4856 42.0517 30.693 42.7154C30.9004 43.3791 31.1078 43.9598 31.1493 44.5406C31.2323 45.0798 31.3153 45.5776 31.3567 45.9924C31.4812 46.7806 31.4812 47.2369 31.4812 47.2369C31.4812 47.2369 31.3152 46.8221 31.0249 46.0754C30.9004 45.7021 30.7345 45.2458 30.5271 44.748C30.3612 44.2087 30.0293 43.711 29.739 43.0887C29.4071 42.508 29.1997 41.8028 28.7849 41.1806C28.4116 40.5584 27.9552 39.8532 27.5819 39.148C27.0841 38.4428 26.5864 37.7376 26.0471 37.0324C25.5908 36.3687 24.9271 35.7465 24.3878 35.0828C23.8486 34.3776 23.1434 33.8798 22.5212 33.2576C21.899 32.6354 21.2353 32.1791 20.5716 31.7228C20.2397 31.4739 19.9493 31.225 19.6175 31.0176C19.2441 30.8102 18.9123 30.6028 18.5804 30.4369C18.2486 30.2295 17.9168 30.0635 17.5849 29.8976C17.4605 29.8146 17.2116 29.6902 17.1701 29.6487C17.0042 29.5658 16.8382 29.5243 16.6723 29.4413C15.4279 28.9435 14.3908 28.4458 13.6856 28.1139C12.939 27.7821 12.5242 27.5746 12.5242 27.5746Z" fill="#78AA00"/>
<path d="M23.2681 5.09241C23.2681 5.09241 18.7052 22.722 33.9288 29.6495C33.514 16.9561 23.2681 5.09241 23.2681 5.09241Z" fill="#5E8800"/>
<path d="M25.4673 6.42157C25.4673 6.42157 25.7991 6.75342 26.2969 7.33416C26.7947 7.95639 27.5414 8.74454 28.371 9.82306C29.2006 10.9016 30.1132 12.146 30.9843 13.5979C31.3991 14.3031 31.9384 15.0082 32.3117 15.8379C32.7265 16.626 33.0998 17.4557 33.5147 18.2438C33.8465 19.1149 34.1369 19.9445 34.4688 20.7742C34.8421 21.6038 34.925 22.4749 35.1324 23.3045C35.3399 24.1342 35.5058 24.9223 35.5887 25.7105C35.6717 26.4986 35.7132 27.2038 35.7961 27.8675C35.8791 28.5312 35.7961 29.1534 35.7961 29.6927C35.7547 30.232 35.7547 30.7297 35.7132 31.1031C35.6717 31.8912 35.6302 32.306 35.6302 32.306C35.6302 32.306 35.5473 31.8497 35.4228 31.1031C35.3813 30.7297 35.2984 30.2734 35.2154 29.7342C35.1325 29.1949 35.091 28.6142 34.8836 27.9505C34.7176 27.3283 34.5517 26.6231 34.4273 25.8764C34.3028 25.1297 34.0124 24.3831 33.805 23.6364C33.5561 22.8482 33.3488 22.0601 33.0169 21.272C32.7265 20.4838 32.3947 19.6957 32.0628 18.866C31.3161 17.2897 30.611 15.7134 29.8228 14.2616C29.408 13.5564 29.1176 12.8097 28.7028 12.1875C28.3295 11.5238 27.9976 10.9016 27.6658 10.3208C27.0436 9.15935 26.5043 8.16379 26.131 7.50009C25.6332 6.7949 25.4673 6.42157 25.4673 6.42157Z" fill="#3C6400"/>
<path d="M26.0891 22.2227C26.0891 22.2227 26.2136 22.3886 26.421 22.5961C26.6284 22.8035 27.0432 22.9694 27.4995 23.1768C27.7484 23.2598 27.9973 23.3842 28.2876 23.5086C28.578 23.6331 28.8683 23.7161 29.1587 23.8405C29.7809 24.0894 30.4447 24.3798 31.0669 24.6701C31.3987 24.7946 31.6891 24.9605 32.0209 25.0849C32.3528 25.2094 32.6432 25.4168 32.975 25.5827C33.5558 25.9561 34.095 26.3294 34.4684 26.7857C34.6758 26.9931 34.8002 27.2005 34.9246 27.4494C35.0491 27.6568 35.132 27.8227 35.1735 27.9886C35.2565 28.3205 35.298 28.4864 35.298 28.4864C35.298 28.4864 35.1735 28.362 34.9661 28.1131C34.7587 27.8642 34.4269 27.6153 34.012 27.3664C33.5972 27.0761 33.058 26.8686 32.4772 26.6198C31.855 26.3709 31.1913 26.122 30.5276 25.8316C29.9054 25.4998 29.2417 25.2094 28.661 24.8775C28.3706 24.7116 28.0802 24.5457 27.8313 24.3798C27.5824 24.2138 27.3336 24.0064 27.1261 23.8405C26.7113 23.4672 26.4209 23.0938 26.255 22.762C26.0891 22.3886 26.0891 22.2227 26.0891 22.2227Z" fill="#3C6400"/>
<path d="M23.268 7.58453C23.268 7.58453 23.3095 7.70898 23.3925 7.95787C23.4339 8.08231 23.5169 8.20675 23.5999 8.3312C23.6828 8.45564 23.8073 8.62157 23.9317 8.7875C24.1806 9.11935 24.5539 9.40972 24.9687 9.74157C25.1762 9.9075 25.3836 10.0734 25.591 10.2394C25.8399 10.4053 26.0058 10.5712 26.2547 10.6956C26.711 11.0275 27.2087 11.2764 27.665 11.6082C28.1213 11.8986 28.5362 12.2305 28.868 12.5623C29.1999 12.8942 29.4073 13.226 29.4902 13.4334C29.6147 13.6823 29.6561 13.8068 29.6561 13.8068C29.6561 13.8068 29.5317 13.7238 29.3658 13.5164C29.1998 13.309 28.9095 13.1431 28.5361 12.8942C28.2043 12.6453 27.748 12.4379 27.2917 12.2305C26.8354 11.9816 26.2547 11.7327 25.7569 11.4008C24.7613 10.7371 23.8902 9.86602 23.4754 9.03639C23.351 8.82898 23.268 8.66305 23.2265 8.45564C23.185 8.24824 23.1436 8.12379 23.1436 7.99935C23.268 7.70898 23.268 7.58453 23.268 7.58453Z" fill="#3C6400"/>
<path d="M23.8069 14.597C23.8069 14.597 23.9313 14.7214 24.1802 14.9703C24.4291 15.2192 24.8024 15.5096 25.2587 15.8414C26.2128 16.5051 27.6646 16.9614 29.1165 17.6666C30.5269 18.3303 32.0202 19.077 32.8084 20.0725C33.0158 20.28 33.1817 20.5288 33.3061 20.7777C33.4306 20.9851 33.5135 21.1925 33.555 21.3585C33.638 21.6903 33.7209 21.8977 33.7209 21.8977C33.7209 21.8977 33.5965 21.7318 33.4306 21.4414C33.2646 21.1511 32.9328 20.7777 32.518 20.4459C31.6469 19.6992 30.2365 19.1185 28.7847 18.4548C27.3743 17.7911 25.8809 17.1274 25.0098 16.2562C24.5535 15.8414 24.2632 15.4266 24.0973 15.1362C23.8899 14.7629 23.8069 14.597 23.8069 14.597Z" fill="#3C6400"/>
<path d="M37.4959 57.3196L35.7952 57.2781C35.8367 55.8262 35.09 54.3329 34.5508 53.3373C34.2189 52.7151 33.8041 52.0929 33.3478 51.4707C33.0989 51.1388 32.85 50.8484 32.5596 50.5996C32.3108 50.3507 32.0619 50.0603 31.813 49.7699L33.1404 48.6914C33.3478 48.9403 33.5552 49.1892 33.8041 49.3966C34.1359 49.7284 34.4263 50.0603 34.7167 50.4336C35.2145 51.0973 35.6708 51.8025 36.0441 52.5077C36.7078 53.6692 37.5789 55.4529 37.4959 57.3196Z" fill="url(#paint5_linear_152_237)"/>
<path d="M38.3674 49.1955C38.3674 49.1955 38.8652 49.1125 39.7363 48.9466C40.1926 48.8636 40.6904 48.8222 41.3126 48.6977C41.9348 48.6562 42.5985 48.4488 43.3037 48.2829C44.0089 48.117 44.7556 47.951 45.5852 47.7436C46.4148 47.4533 47.2859 47.1629 48.1571 46.831C49.0696 46.5822 49.8993 46.1259 50.8119 45.7525C51.2681 45.5866 51.7244 45.3792 52.1807 45.2133L53.5081 44.591C54.4622 44.2177 55.2089 43.6785 56.08 43.2222C56.8681 42.6414 57.6978 42.2266 58.4029 41.6044C59.1496 41.0651 59.8548 40.4844 60.477 39.9451C61.1407 39.4059 61.7215 38.8251 62.2607 38.3273C62.8 37.8296 63.2563 37.3318 63.7126 36.8755C64.1689 36.4607 64.5007 36.0459 64.8326 35.714C65.4548 35.0503 65.7866 34.7184 65.7866 34.7184C65.7866 34.7184 65.5378 35.1747 65.0815 35.9214C64.8326 36.2947 64.5837 36.751 64.2103 37.2488C63.837 37.7466 63.5052 38.3688 62.9659 38.9496C62.4681 39.5303 61.9704 40.194 61.3481 40.8162C61.0578 41.1481 60.7259 41.4799 60.3941 41.8118C60.0622 42.1022 59.6889 42.434 59.3155 42.7659C58.6104 43.4296 57.7392 43.9688 56.9511 44.591C56.0385 45.0888 55.1259 45.711 54.2133 46.0844L52.803 46.7066C52.3052 46.8725 51.8489 47.0799 51.3926 47.2459C50.4385 47.6192 49.5259 47.9925 48.6133 48.1999C47.7008 48.4488 46.8296 48.6562 45.9585 48.9051C45.0044 49.071 44.2163 49.1125 43.4282 49.1955C42.64 49.2785 41.9763 49.3614 41.3541 49.2785C40.7319 49.237 40.1926 49.237 39.7778 49.1955C38.8652 49.237 38.3674 49.1955 38.3674 49.1955Z" fill="#3C6400"/>
<path d="M18.9534 40.3148C18.9534 40.3148 19.783 40.8956 20.9445 41.9326C21.5252 42.4304 22.1474 43.0941 22.8526 43.7163C23.1845 44.0482 23.5578 44.3385 23.8897 44.7119C24.2215 45.0437 24.6363 45.3341 25.0096 45.6245L25.5904 46.0807L25.7148 46.2052C25.7148 46.2052 25.7978 46.2882 25.7563 46.2467L25.8393 46.2882L26.1711 46.4956C26.586 46.7445 27.0008 47.0348 27.4156 47.2422C28.2037 47.6156 28.9919 47.9889 29.6971 48.2378C30.4022 48.5282 30.983 48.7771 31.3978 48.943C31.8126 49.1089 32.0615 49.2333 32.0615 49.2333C32.0615 49.2333 31.0245 49.1919 29.5311 48.943C28.7845 48.86 27.8719 48.5696 26.9178 48.2378C26.4615 48.0719 26.0467 47.823 25.5904 47.5741L25.2585 47.4082L25.1756 47.3667C25.0511 47.2837 25.0926 47.3252 25.0511 47.2837L24.8852 47.1593L24.263 46.6615C23.8482 46.3296 23.4334 45.9978 23.06 45.6245C22.6867 45.2511 22.3963 44.8778 22.0645 44.5044C21.4008 43.7993 20.903 43.0526 20.4467 42.4719C19.4926 41.1859 18.9534 40.3148 18.9534 40.3148Z" fill="#3C6400"/>
<path d="M50.7694 37.9146C49.8983 37.7072 48.9857 37.5413 48.0317 37.6243C46.9946 37.7072 45.7502 38.3294 44.7546 38.288C43.9665 38.2465 43.6761 37.9146 44.3813 37.168C47.6998 33.6835 52.5116 34.5546 56.7427 34.9694C58.1116 35.0939 60.2272 35.5502 59.8953 37.4169C59.6879 38.4539 58.5264 38.9102 57.5724 39.1176C55.125 39.5739 53.0094 38.4539 50.7694 37.9146Z" fill="#5E8800"/>
<path d="M62.7588 31.3573C62.1365 31.4817 61.4728 31.4817 60.8921 31.4402C59.7721 31.3988 58.7351 31.1499 57.6566 30.9425C56.3706 30.6936 55.0018 30.4032 53.6744 30.4447C53.301 30.4447 51.6418 30.901 51.8492 30.0713C51.9736 29.5321 53.6329 28.9513 54.0892 28.7439C55.0432 28.3706 56.0388 28.2047 57.0343 28.1217C58.6521 27.9558 60.3114 27.9558 61.9291 27.7899C62.6343 27.7069 63.6714 27.5825 64.3351 27.9143C65.3721 28.4121 64.8743 30.0713 64.1277 30.6521C63.7129 31.1084 63.2565 31.2743 62.7588 31.3573Z" fill="#5E8800"/>
<path d="M50.8531 42.8919C51.6828 43.1823 52.305 43.5141 51.8902 43.846C51.3509 44.3437 50.5213 44.0949 49.8991 44.1778C49.3183 44.2608 48.862 44.3852 48.2813 44.4267C46.705 44.5097 45.0872 44.7171 43.5939 45.2149C42.8472 45.4637 39.7361 47.8697 39.5287 46.1689C39.3628 44.6341 42.308 42.6015 43.4694 42.1037C44.9628 41.4815 46.4976 41.8134 48.0324 42.1867C48.2813 42.2282 49.7746 42.5186 50.8531 42.8919Z" fill="#5E8800"/>
<path d="M14.1013 30.3545C16.8806 31.1426 24.6791 31.7649 29.9887 47.2375C21.485 47.2789 14.1013 30.3545 14.1013 30.3545Z" fill="#5E8800"/>
<path d="M39.8197 75.903C39.156 78.5163 35.9619 79.9681 32.6849 79.1385C29.4078 78.3089 27.2923 75.4881 27.9975 72.8748C28.6612 70.2615 31.8552 68.8096 35.1323 69.6393C38.3678 70.4689 40.4834 73.2481 39.8197 75.903Z" fill="#5A4130"/>
<path d="M74.4558 79.8035C71.8425 79.8865 67.9432 78.1857 70.5151 75.1161C71.7181 73.7057 73.3358 72.7517 75.2025 72.5857C77.7329 72.3783 81.3417 72.7102 80.2217 76.0287C79.3506 78.725 77.1521 79.762 74.4558 79.8035Z" fill="#5A4130"/>
<path d="M9.82844 79.5886C7.58844 79.6301 3.68918 78.3856 4.97511 75.4819C6.17807 72.8271 9.57956 71.9145 12.0684 73.6567C13.1884 74.4449 14.3914 75.8553 14.1425 77.3071C13.7277 79.2567 11.4462 79.5471 9.82844 79.5886Z" fill="#5A4130"/>
<path d="M52.3057 78.936C48.448 79.973 48.282 75.4515 51.2687 74.3315C52.6376 73.7923 54.5457 74.0826 54.8776 75.7004C55.2924 77.5256 53.8405 78.5211 52.3057 78.936Z" fill="#5A4130"/>
<path d="M59.8132 77.6788C59.8132 77.6788 60.0206 77.6788 60.394 77.6788C60.7673 77.6788 61.2651 77.7203 61.8458 77.6788C62.1362 77.6788 62.4266 77.6788 62.7584 77.6374C63.0903 77.5959 63.4221 77.5959 63.754 77.5544C64.0858 77.4714 64.4177 77.3885 64.7495 77.347C64.9984 77.264 65.5377 77.1396 65.7866 76.9736C66.4088 76.7248 67.0725 76.3929 67.6117 76.0196C67.9021 75.8536 68.1095 75.6048 68.3584 75.4388C68.5658 75.2314 68.7732 74.9825 68.9806 74.8166C69.1465 74.5677 69.271 74.3603 69.4369 74.1944C69.6028 73.987 69.6443 73.8211 69.7273 73.6551C69.8932 73.3233 69.9762 73.1573 69.9762 73.1573C69.9762 73.1573 70.0177 73.3648 70.0591 73.7381C70.0591 73.904 70.1006 74.1529 70.0591 74.4018C70.0177 74.6507 69.9762 74.9825 69.8517 75.2729C69.7273 75.5633 69.6028 75.9366 69.354 76.2685C69.1051 76.5588 68.8976 76.9322 68.5658 77.2225C67.9436 77.8448 67.1969 78.3011 66.3258 78.6329C65.8695 78.7988 65.5792 78.8403 65.0814 79.0062C64.6251 79.0892 64.2103 79.0892 63.7954 79.1307C63.3806 79.1722 62.9658 79.0477 62.634 79.0062C62.2606 78.9648 61.9288 78.8403 61.6384 78.7159C61.0162 78.5085 60.6014 78.2596 60.2695 78.0936C59.9791 77.8033 59.8132 77.6788 59.8132 77.6788Z" fill="#5A4130"/>
<path d="M40.2344 75.153C40.2344 75.1116 40.3588 75.4019 40.6907 75.5679C40.9811 75.7753 41.4788 75.8997 42.0596 75.9827C42.6818 76.0242 43.387 75.9827 44.1336 75.8997C44.507 75.8582 44.8803 75.7338 45.2536 75.6508C45.6685 75.5264 45.9173 75.4434 46.2492 75.236C46.664 75.0286 46.9958 74.8212 47.2862 74.5723C47.5766 74.3649 47.9084 74.116 48.1988 73.8671C48.4477 73.5767 48.7795 73.3693 48.9455 73.1204C49.1944 72.8716 49.3603 72.6227 49.5262 72.3323C49.6921 72.0834 49.7751 71.8345 49.8995 71.5856C50.024 71.3367 50.0655 71.1293 50.0655 70.9634C50.1484 70.5486 50.1899 70.3412 50.1899 70.3412C50.1899 70.3412 50.2729 70.5486 50.4388 70.9219C50.5218 71.1293 50.6047 71.3782 50.5633 71.6686C50.5633 71.959 50.6047 72.3323 50.4803 72.6642C50.4388 72.8301 50.3973 73.0375 50.3144 73.2449C50.2314 73.4108 50.1484 73.6182 50.024 73.7842C49.8581 74.199 49.5677 74.5308 49.2773 74.9042C48.9455 75.236 48.6551 75.6093 48.2818 75.8997C47.867 76.2316 47.4936 76.4805 47.1203 76.6879C46.664 76.9367 46.0833 77.1442 45.627 77.2271C45.1292 77.3101 44.6729 77.3516 44.2166 77.3516C43.304 77.3516 42.4744 77.1856 41.7692 76.8953C41.064 76.6049 40.5662 76.1486 40.3588 75.7753C40.1929 75.4019 40.2759 75.153 40.2344 75.153Z" fill="#5A4130"/>
<path d="M17.7512 76.6448C17.7512 76.6448 18.0001 76.7278 18.4564 76.8937C18.6638 77.0181 18.9542 77.0596 19.2446 77.1011C19.5349 77.1426 19.8668 77.2256 20.2401 77.2256C20.9868 77.267 21.8994 77.3085 22.812 77.1841C23.2683 77.1841 23.766 77.0596 24.2638 76.9767C24.7616 76.9352 25.2179 76.7693 25.7157 76.6448C26.1719 76.4789 26.5868 76.3959 27.0845 76.147C27.5823 75.9396 27.9557 75.7737 28.3705 75.5248C29.2416 75.0685 29.9468 74.5707 30.6105 74.1559C30.9008 73.907 31.2327 73.7411 31.4401 73.4922C31.6475 73.2848 31.8964 73.1189 32.0623 72.953C32.3942 72.6211 32.5601 72.4137 32.5601 72.4137C32.5601 72.4137 32.4771 72.6626 32.3112 73.1189C32.1453 73.5752 31.7719 74.1974 31.2742 74.8611C30.7349 75.4833 30.0297 76.1885 29.1586 76.8107C28.7438 77.1011 28.2045 77.433 27.7483 77.6404C27.292 77.8893 26.6697 78.0967 26.1305 78.3041C25.5497 78.387 25.0105 78.553 24.4712 78.5944C23.932 78.6774 23.3512 78.6774 22.8535 78.6359C21.8164 78.6359 20.8208 78.4285 20.0327 78.1381C19.6179 78.0552 19.2446 77.8063 18.9542 77.6404C18.6223 77.4744 18.4149 77.3085 18.249 77.1426C17.9172 76.8522 17.7512 76.6448 17.7512 76.6448Z" fill="#5A4130"/>
<defs>
<radialGradient id="paint0_radial_152_237" cx="0" cy="0" r="1" gradientUnits="userSpaceOnUse" gradientTransform="translate(42.6895 77.3864) scale(42.239 5.77311)">
<stop offset="0.0913978"/>
<stop offset="0.3324" stop-color="#4B4B4B"/>
<stop offset="0.6611" stop-color="#ABABAB"/>
<stop offset="0.891" stop-color="#E7E7E7"/>
<stop offset="1" stop-color="white"/>
</radialGradient>
<linearGradient id="paint1_linear_152_237" x1="34.7339" y1="38.5466" x2="38.0683" y2="38.5466" gradientUnits="userSpaceOnUse">
<stop stop-color="#467800"/>
<stop offset="1" stop-color="#5E8800"/>
</linearGradient>
<linearGradient id="paint2_linear_152_237" x1="43.7781" y1="27.9547" x2="61.3764" y2="58.4357" gradientUnits="userSpaceOnUse">
<stop stop-color="#467800"/>
<stop offset="1" stop-color="#5E8800"/>
</linearGradient>
<linearGradient id="paint3_linear_152_237" x1="22.0071" y1="50.4413" x2="22.0071" y2="26.1964" gradientUnits="userSpaceOnUse">
<stop stop-color="#467800"/>
<stop offset="1" stop-color="#5E8800"/>
</linearGradient>
<linearGradient id="paint4_linear_152_237" x1="23.4941" y1="26.1297" x2="34.3876" y2="7.26175" gradientUnits="userSpaceOnUse">
<stop stop-color="#467800"/>
<stop offset="1" stop-color="#5E8800"/>
</linearGradient>
<linearGradient id="paint5_linear_152_237" x1="31.8198" y1="52.9791" x2="37.5056" y2="52.9791" gradientUnits="userSpaceOnUse">
<stop stop-color="#467800"/>
<stop offset="1" stop-color="#5E8800"/>
</linearGradient>
</defs>
</svg>
