<svg width="69" height="69" viewBox="0 0 69 69" fill="none" xmlns="http://www.w3.org/2000/svg">
<path d="M11.88 37.1679H28.9811C30.5487 37.1679 31.8313 35.8853 31.8313 34.3177V11.5162C31.8313 9.9486 30.5487 8.66602 28.9811 8.66602H11.88C10.3124 8.66602 9.02979 9.9486 9.02979 11.5162V34.3177C9.02979 35.8853 10.3124 37.1679 11.88 37.1679ZM11.88 59.9695H28.9811C30.5487 59.9695 31.8313 58.6869 31.8313 57.1193V45.7185C31.8313 44.1509 30.5487 42.8683 28.9811 42.8683H11.88C10.3124 42.8683 9.02979 44.1509 9.02979 45.7185V57.1193C9.02979 58.6869 10.3124 59.9695 11.88 59.9695ZM40.3819 59.9695H57.4831C59.0507 59.9695 60.3332 58.6869 60.3332 57.1193V34.3177C60.3332 32.7501 59.0507 31.4676 57.4831 31.4676H40.3819C38.8143 31.4676 37.5317 32.7501 37.5317 34.3177V57.1193C37.5317 58.6869 38.8143 59.9695 40.3819 59.9695ZM37.5317 11.5162V22.917C37.5317 24.4846 38.8143 25.7672 40.3819 25.7672H57.4831C59.0507 25.7672 60.3332 24.4846 60.3332 22.917V11.5162C60.3332 9.9486 59.0507 8.66602 57.4831 8.66602H40.3819C38.8143 8.66602 37.5317 9.9486 37.5317 11.5162Z" fill="#002D3A"/>
</svg>
