<svg width="167" height="57" viewBox="0 0 167 57" fill="none" xmlns="http://www.w3.org/2000/svg">
<path d="M7.36493 0H159.525C163.23 0 166.26 3.00788 166.26 6.73504V49.3467C166.26 53.0521 163.252 56.0818 159.525 56.0818H7.36493C3.65957 56.0818 0.629883 53.0739 0.629883 49.3467V6.73504C0.629883 3.00788 3.65957 0 7.36493 0Z" fill="#002D3A"/>
<path d="M27.9628 17.5897C27.7448 15.7806 28.6385 13.8625 29.6411 12.6855C30.7745 11.3559 32.7579 10.3315 34.3273 10.2661C34.5234 12.1406 33.7824 13.9933 32.6926 15.3664C31.5592 16.696 29.7283 17.7204 27.9628 17.5897Z" fill="white"/>
<path d="M40.9311 33.5663C40.9093 33.6752 40.2773 35.8549 38.7297 38.0781C37.4219 40.0398 36.0706 41.936 33.891 41.9796C31.7767 42.0232 31.0793 40.7372 28.6599 40.7372C26.2187 40.7372 25.4558 41.9578 23.4506 42.0232C21.3799 42.1104 19.8106 39.9308 18.4592 38.0127C15.7565 34.0676 13.664 26.8966 16.4758 22.0143C17.8271 19.6167 20.3337 18.0691 22.9928 18.0255C25.0635 17.9819 26.9816 19.4205 28.2457 19.4205C29.4881 19.4205 31.8639 17.6986 34.3051 17.9601C35.3295 18.0037 38.2502 18.3743 40.1247 21.1206C39.9721 21.2078 36.6591 23.1695 36.7027 27.18C36.7245 31.9533 40.8658 33.5445 40.9311 33.5663Z" fill="white"/>
<path d="M59.1095 25.1748H55.8183L50.5 41.74H53.2463L54.7067 36.8794H60.0904L61.6379 41.74H64.4714L59.1095 25.1748ZM55.1644 34.8305L56.5376 30.5149C56.8863 29.1417 57.1479 28.0955 57.3222 27.398H57.3876C57.8017 29.0327 58.0633 30.0572 58.2159 30.5149L59.6108 34.8305H55.1644Z" fill="white"/>
<path d="M76.6991 31.2122C75.7618 30.1006 74.5848 29.5339 73.1681 29.5339C71.3808 29.5339 70.0294 30.2532 69.1358 31.67H69.0922L68.9396 29.7737H66.6074C66.6728 31.1251 66.7164 32.411 66.7164 33.697V46.5568H69.3755V40.2795C70.073 41.4129 71.2064 41.9796 72.7757 41.9796C74.2361 41.9796 75.4567 41.4565 76.4593 40.4103C77.5709 39.2333 78.1158 37.6203 78.1158 35.5933C78.1376 33.806 77.6799 32.3457 76.6991 31.2122ZM74.6066 38.7755C74.0399 39.5384 73.2771 39.9307 72.2744 39.9307C71.4244 39.9307 70.7269 39.6256 70.2038 39.0371C69.6807 38.4486 69.3973 37.7075 69.3973 36.8357V34.8304C69.3973 34.6125 69.4409 34.3509 69.5281 34.024C69.6807 33.3265 70.0512 32.7598 70.5743 32.3239C71.1192 31.8879 71.7077 31.67 72.3616 31.67C73.3207 31.67 74.1053 32.0623 74.672 32.847C75.1951 33.588 75.4567 34.5471 75.4567 35.7241C75.4349 36.9883 75.1515 37.9909 74.6066 38.7755Z" fill="white"/>
<path d="M90.4305 31.2122C89.4933 30.1006 88.3163 29.5339 86.8995 29.5339C85.1122 29.5339 83.7609 30.2532 82.8672 31.67H82.8236L82.6711 29.7737H80.3389C80.4043 31.1251 80.4478 32.411 80.4478 33.697V46.5568H83.107V40.2795C83.8045 41.4129 84.9379 41.9796 86.5072 41.9796C87.9675 41.9796 89.1881 41.4565 90.1908 40.4103C91.3024 39.2333 91.8473 37.6203 91.8473 35.5933C91.8691 33.806 91.3895 32.3457 90.4305 31.2122ZM88.3163 38.7755C87.7714 39.5384 86.9867 39.9307 85.9841 39.9307C85.134 39.9307 84.4366 39.6256 83.9135 39.0371C83.3903 38.4486 83.107 37.7075 83.107 36.8357V34.8304C83.107 34.6125 83.1506 34.3509 83.2378 34.024C83.4121 33.3265 83.7609 32.7598 84.284 32.3239C84.8289 31.8879 85.4174 31.67 86.0713 31.67C87.0303 31.67 87.815 32.0623 88.3817 32.847C88.9048 33.588 89.1663 34.5471 89.1663 35.7241C89.1663 36.9883 88.9048 37.9909 88.3163 38.7755Z" fill="white"/>
<path d="M106.211 34.2201C106.887 34.9829 107.236 35.9638 107.236 37.0972C107.236 38.5139 106.734 39.6473 105.775 40.541C104.707 41.5 103.203 41.9795 101.264 41.9795C99.4763 41.9795 98.0595 41.6308 96.9697 40.9551L97.58 38.7537C98.7352 39.4294 100.021 39.7781 101.416 39.7781C102.419 39.7781 103.203 39.5602 103.748 39.1024C104.315 38.6447 104.598 38.0562 104.598 37.2934C104.598 36.6177 104.359 36.051 103.923 35.5932C103.465 35.1355 102.702 34.6996 101.634 34.3073C98.7134 33.2175 97.2531 31.6481 97.2531 29.5557C97.2531 28.2043 97.7762 27.0927 98.7788 26.2209C99.8032 25.349 101.155 24.9131 102.855 24.9131C104.359 24.9131 105.623 25.1746 106.604 25.6977L105.928 27.8556C104.991 27.3543 103.923 27.0927 102.746 27.0927C101.808 27.0927 101.067 27.3325 100.544 27.7684C100.108 28.1825 99.8904 28.6838 99.8904 29.2723C99.8904 29.9262 100.152 30.4711 100.653 30.8853C101.089 31.2776 101.896 31.7135 103.073 32.1712C104.489 32.7597 105.536 33.4354 106.211 34.2201Z" fill="white"/>
<path d="M113.099 29.7956H116.019V31.8008H113.099V37.5986C113.099 39.059 113.622 39.8001 114.646 39.8001C115.126 39.8001 115.518 39.7565 115.823 39.6693L115.91 41.6963C115.387 41.8925 114.69 41.9797 113.84 41.9797C112.793 41.9797 111.987 41.6528 111.377 41.0207C110.788 40.3886 110.483 39.2988 110.483 37.7948V31.7791H108.739V29.7956H110.483V27.616L113.077 26.8313V29.7956H113.099Z" fill="white"/>
<path d="M127.658 31.2994C126.59 30.1224 125.174 29.5557 123.43 29.5557C121.621 29.5557 120.16 30.1442 119.092 31.3212C118.024 32.4982 117.479 34.0021 117.479 35.8548C117.479 37.6203 118.003 39.1024 119.027 40.2576C120.073 41.4128 121.468 42.0013 123.212 42.0013C125.021 42.0013 126.481 41.391 127.593 40.1922C128.639 39.0152 129.162 37.5113 129.162 35.6804C129.184 33.8931 128.683 32.4328 127.658 31.2994ZM125.718 38.5793C125.13 39.5383 124.345 40.0179 123.321 40.0179C122.296 40.0179 121.49 39.5383 120.901 38.6011C120.422 37.8382 120.204 36.8792 120.204 35.7894C120.204 34.656 120.422 33.6969 120.901 32.9123C121.446 31.9533 122.275 31.4955 123.343 31.4955C124.367 31.4955 125.174 31.975 125.74 32.9123C126.22 33.6969 126.438 34.6342 126.438 35.724C126.438 36.8356 126.198 37.7728 125.718 38.5793Z" fill="white"/>
<path d="M137.815 29.5993V32.1276C137.554 32.084 137.27 32.0622 136.965 32.0622C136.028 32.0622 135.309 32.411 134.807 33.1084C134.372 33.7187 134.154 34.5252 134.154 35.4624V41.7398H131.494V33.5444C131.494 32.1712 131.473 30.907 131.407 29.7954H133.718L133.827 32.084H133.914C134.197 31.2994 134.633 30.6673 135.243 30.1878C135.832 29.7518 136.486 29.5557 137.161 29.5557C137.401 29.5557 137.619 29.5775 137.815 29.5993Z" fill="white"/>
<path d="M149.673 35.201C149.673 33.7189 149.325 32.4547 148.605 31.4303C147.733 30.1443 146.426 29.5122 144.704 29.5122C142.96 29.5122 141.565 30.1443 140.541 31.4303C139.56 32.6291 139.059 34.133 139.059 35.9203C139.059 37.7512 139.582 39.2115 140.65 40.3014C141.696 41.3912 143.156 41.9361 145.009 41.9361C146.556 41.9361 147.886 41.6963 149.019 41.195L148.605 39.3641C147.646 39.7347 146.557 39.9308 145.38 39.9308C144.311 39.9308 143.461 39.6475 142.786 39.1026C142.045 38.4923 141.674 37.5768 141.631 36.3998H149.586C149.652 36.0729 149.673 35.6805 149.673 35.201ZM141.631 34.5036C141.718 33.6971 141.979 33.0214 142.415 32.4329C142.96 31.7136 143.658 31.3649 144.529 31.3649C145.467 31.3649 146.186 31.7354 146.644 32.4765C146.992 33.0432 147.189 33.7407 147.167 34.5253L141.631 34.5036Z" fill="white"/>
<path d="M56.2538 11.2031C59.0001 11.2031 60.6349 12.9032 60.6349 15.8021C60.6349 18.7228 59.0219 20.4447 56.2538 20.4447H52.9844V11.2031H56.2538ZM54.4447 19.2024H56.1448C58.1065 19.2024 59.1963 18.0036 59.1963 15.8239C59.1963 13.6443 58.1065 12.4455 56.1448 12.4455H54.4447V19.2024Z" fill="white"/>
<path d="M61.5508 17.0665C61.5508 14.9087 62.8368 13.5791 64.7548 13.5791C66.6729 13.5791 67.9589 14.9087 67.9589 17.0665C67.9589 19.2461 66.6947 20.5757 64.7548 20.5757C62.815 20.5757 61.5508 19.2461 61.5508 17.0665ZM66.5203 17.0665C66.5203 15.5626 65.8229 14.7125 64.7331 14.7125C63.6432 14.7125 62.9457 15.5626 62.9457 17.0665C62.9457 18.5704 63.6432 19.4205 64.7331 19.4205C65.8229 19.4205 66.5203 18.5704 66.5203 17.0665Z" fill="white"/>
<path d="M76.0232 20.4448H74.5847L73.1679 15.388H73.1462L71.7512 20.4448H70.3126L68.46 13.7097H69.8549L71.0755 19.028H71.0973L72.4923 13.7097H73.8218L75.2386 19.028H75.2604L76.481 13.7097H77.8541L76.0232 20.4448Z" fill="white"/>
<path d="M78.7262 13.6881H80.0558V14.8215H80.0776C80.4481 14.0586 81.1674 13.5791 82.1918 13.5791C83.674 13.5791 84.524 14.5381 84.524 16.0639V20.4231H83.129V16.3254C83.129 15.3228 82.6495 14.7561 81.6905 14.7561C80.7097 14.7561 80.0776 15.4536 80.0776 16.4998V20.4231H78.6826V13.6881H78.7262Z" fill="white"/>
<path d="M85.9189 11.2031H87.3139V20.4447H85.9189V11.2031Z" fill="white"/>
<path d="M88.4248 17.0665C88.4248 14.9087 89.7108 13.5791 91.6288 13.5791C93.5469 13.5791 94.8329 14.9087 94.8329 17.0665C94.8329 19.2461 93.5687 20.5757 91.6288 20.5757C89.689 20.5757 88.4248 19.2461 88.4248 17.0665ZM93.4162 17.0665C93.4162 15.5626 92.7187 14.7125 91.6288 14.7125C90.539 14.7125 89.8416 15.5626 89.8416 17.0665C89.8416 18.5704 90.539 19.4205 91.6288 19.4205C92.7187 19.4205 93.4162 18.5704 93.4162 17.0665Z" fill="white"/>
<path d="M95.6396 18.5268C95.6396 17.3498 96.5333 16.6306 98.1462 16.5434L99.9989 16.4344V15.9113C99.9989 15.1702 99.4976 14.7125 98.6475 14.7125C97.8411 14.7125 97.3398 15.1048 97.2308 15.6933H95.923C96.0102 14.4727 97.0346 13.5791 98.7129 13.5791C100.348 13.5791 101.394 14.4509 101.394 15.8023V20.4449H100.064V19.3333H100.043C99.6502 20.0744 98.8001 20.5539 97.9065 20.5539C96.5551 20.5539 95.6396 19.7474 95.6396 18.5268ZM99.9771 17.9166V17.3934L98.3206 17.5024C97.4923 17.5678 97.0346 17.9166 97.0346 18.505C97.0346 19.0935 97.5141 19.4859 98.2552 19.4859C99.236 19.4641 99.9771 18.7884 99.9771 17.9166Z" fill="white"/>
<path d="M102.396 17.0664C102.396 14.9304 103.53 13.579 105.208 13.579C106.167 13.579 106.952 14.0585 107.322 14.7996H107.344V11.1814H108.739V20.423H107.388V19.2678H107.366C106.974 20.0307 106.189 20.532 105.208 20.532C103.53 20.5538 102.396 19.2024 102.396 17.0664ZM103.813 17.0664C103.813 18.4831 104.489 19.3768 105.601 19.3768C106.669 19.3768 107.366 18.4831 107.366 17.0664C107.366 15.6714 106.647 14.756 105.601 14.756C104.511 14.756 103.813 15.6496 103.813 17.0664Z" fill="white"/>
<path d="M112.532 17.0665C112.532 14.9087 113.818 13.5791 115.736 13.5791C117.654 13.5791 118.94 14.9087 118.94 17.0665C118.94 19.2461 117.676 20.5757 115.736 20.5757C113.796 20.5757 112.532 19.2461 112.532 17.0665ZM117.524 17.0665C117.524 15.5626 116.826 14.7125 115.736 14.7125C114.646 14.7125 113.949 15.5626 113.949 17.0665C113.949 18.5704 114.646 19.4205 115.736 19.4205C116.826 19.4205 117.524 18.5704 117.524 17.0665Z" fill="white"/>
<path d="M119.986 13.6881H121.316V14.8215H121.337C121.708 14.0586 122.427 13.5791 123.452 13.5791C124.934 13.5791 125.784 14.5381 125.784 16.0639V20.4231H124.389V16.3254C124.389 15.3228 123.909 14.7561 122.95 14.7561C121.969 14.7561 121.337 15.4536 121.337 16.4998V20.4231H119.942V13.6881H119.986Z" fill="white"/>
<path d="M131.604 12.0969V13.6881H132.89V14.7779H131.604V18.505C131.604 19.0935 131.866 19.3551 132.432 19.3551C132.563 19.3551 132.803 19.3333 132.89 19.3333V20.4231C132.737 20.4667 132.432 20.4885 132.127 20.4885C130.754 20.4885 130.231 19.9654 130.231 18.6576V14.7779H129.25V13.6881H130.231V12.0969H131.604Z" fill="white"/>
<path d="M134.067 11.2031H135.44V14.8431H135.462C135.832 14.0584 136.573 13.6007 137.598 13.6007C139.08 13.6007 139.973 14.5815 139.973 16.1073V20.4447H138.579V16.3688C138.579 15.3662 138.077 14.7777 137.096 14.7777C136.072 14.7777 135.44 15.4752 135.44 16.5432V20.4447H134.045V11.2031H134.067Z" fill="white"/>
<path d="M147.079 18.4615C146.883 19.6821 145.728 20.5757 144.18 20.5757C142.197 20.5757 140.998 19.2461 140.998 17.1101C140.998 14.9959 142.219 13.5791 144.115 13.5791C145.989 13.5791 147.145 14.9087 147.145 16.9357V17.4152H142.371V17.5024C142.371 18.6794 143.069 19.4423 144.18 19.4423C144.965 19.4423 145.553 19.05 145.728 18.4615H147.079ZM142.415 16.4562H145.793C145.771 15.4318 145.118 14.6907 144.137 14.6907C143.156 14.6907 142.48 15.4318 142.415 16.4562Z" fill="white"/>
</svg>
