<svg width="149" height="52" viewBox="0 0 149 52" fill="none" xmlns="http://www.w3.org/2000/svg">
<path d="M6.92403 0.959961H142.805C146.114 0.959961 148.819 3.64604 148.819 6.97444V45.0272C148.819 48.3362 146.133 51.0417 142.805 51.0417H6.92403C3.61509 51.0417 0.909546 48.3556 0.909546 45.0272V6.97444C0.909546 3.64604 3.61509 0.959961 6.92403 0.959961Z" fill="#2E2C2F"/>
<path d="M25.3176 16.6679C25.123 15.0524 25.921 13.3395 26.8164 12.2885C27.8285 11.1011 29.5998 10.1863 31.0012 10.1279C31.1764 11.8019 30.5146 13.4563 29.5414 14.6826C28.5292 15.8699 26.8942 16.7847 25.3176 16.6679Z" fill="white"/>
<path d="M36.899 30.9352C36.8795 31.0326 36.315 32.979 34.9331 34.9643C33.7652 36.7161 32.5584 38.4095 30.612 38.4485C28.724 38.4874 28.1011 37.339 25.9406 37.339C23.7606 37.339 23.0793 38.429 21.2886 38.4874C19.4395 38.5653 18.038 36.6188 16.8312 34.906C14.4177 31.3829 12.5491 24.9791 15.06 20.6191C16.2668 18.478 18.5052 17.0961 20.8798 17.0572C22.7289 17.0182 24.4418 18.3029 25.5707 18.3029C26.6802 18.3029 28.8018 16.7652 30.9818 16.9988C31.8966 17.0377 34.5049 17.3686 36.1788 19.8211C36.0425 19.8989 33.084 21.6507 33.1229 25.2322C33.1423 29.4949 36.8406 30.9158 36.899 30.9352Z" fill="white"/>
<path d="M53.132 23.4414H50.1929L45.4436 38.2343H47.8961L49.2002 33.8938H54.0079L55.3899 38.2343H57.9202L53.132 23.4414ZM49.609 32.0641L50.8352 28.2102C51.1466 26.9839 51.3802 26.0496 51.536 25.4268H51.5943C51.9642 26.8866 52.1977 27.8014 52.334 28.2102L53.5797 32.0641H49.609Z" fill="white"/>
<path d="M68.8397 28.8327C68.0028 27.8401 66.9517 27.334 65.6865 27.334C64.0904 27.334 62.8837 27.9763 62.0856 29.2415H62.0467L61.9104 27.5481H59.8278C59.8862 28.7549 59.9251 29.9033 59.9251 31.0517V42.5356H62.2997V36.9299C62.9226 37.9421 63.9347 38.4481 65.3362 38.4481C66.6403 38.4481 67.7303 37.981 68.6256 37.0467C69.6183 35.9956 70.1049 34.5553 70.1049 32.7451C70.1244 31.149 69.7156 29.8449 68.8397 28.8327ZM66.9712 35.5869C66.4651 36.2681 65.7838 36.6185 64.8885 36.6185C64.1294 36.6185 63.5065 36.346 63.0394 35.8204C62.5722 35.2949 62.3192 34.6331 62.3192 33.8545V32.0638C62.3192 31.8692 62.3581 31.6356 62.436 31.3436C62.5722 30.7208 62.9031 30.2147 63.3703 29.8254C63.8569 29.4361 64.3824 29.2415 64.9664 29.2415C65.8228 29.2415 66.5235 29.5919 67.0296 30.2926C67.4967 30.9544 67.7303 31.8108 67.7303 32.8619C67.7108 33.9908 67.4578 34.8861 66.9712 35.5869Z" fill="white"/>
<path d="M81.1021 28.8327C80.2651 27.8401 79.214 27.334 77.9489 27.334C76.3528 27.334 75.146 27.9763 74.3479 29.2415H74.309L74.1728 27.5481H72.0901C72.1485 28.7549 72.1874 29.9033 72.1874 31.0517V42.5356H74.562V36.9299C75.1849 37.9421 76.1971 38.4481 77.5985 38.4481C78.9026 38.4481 79.9926 37.981 80.888 37.0467C81.8806 35.9956 82.3672 34.5553 82.3672 32.7451C82.3867 31.149 81.9585 29.8449 81.1021 28.8327ZM79.214 35.5869C78.7274 36.2681 78.0267 36.6185 77.1314 36.6185C76.3722 36.6185 75.7494 36.346 75.2822 35.8204C74.8151 35.2949 74.562 34.6331 74.562 33.8545V32.0638C74.562 31.8692 74.601 31.6356 74.6788 31.3436C74.8345 30.7208 75.146 30.2147 75.6131 29.8254C76.0997 29.4361 76.6253 29.2415 77.2092 29.2415C78.0656 29.2415 78.7664 29.5919 79.2724 30.2926C79.7396 30.9544 79.9731 31.8108 79.9731 32.8619C79.9731 33.9908 79.7396 34.8861 79.214 35.5869Z" fill="white"/>
<path d="M95.1945 31.5193C95.7979 32.2005 96.1094 33.0764 96.1094 34.0886C96.1094 35.3538 95.6617 36.3659 94.8052 37.1639C93.8515 38.0204 92.5085 38.4486 90.7761 38.4486C89.1801 38.4486 87.9149 38.1372 86.9417 37.5338L87.4867 35.5679C88.5183 36.1713 89.6667 36.4827 90.9124 36.4827C91.8077 36.4827 92.5085 36.288 92.9951 35.8793C93.5012 35.4705 93.7542 34.945 93.7542 34.2638C93.7542 33.6604 93.5401 33.1543 93.1508 32.7455C92.742 32.3368 92.0608 31.9475 91.107 31.5971C88.4988 30.6239 87.1947 29.2225 87.1947 27.3539C87.1947 26.1471 87.6618 25.1544 88.5572 24.3759C89.472 23.5973 90.6788 23.208 92.197 23.208C93.5401 23.208 94.669 23.4416 95.5449 23.9087L94.9415 25.8357C94.1045 25.388 93.1508 25.1544 92.0997 25.1544C91.2627 25.1544 90.601 25.3685 90.1338 25.7578C89.7445 26.1277 89.5499 26.5753 89.5499 27.1009C89.5499 27.6848 89.7834 28.1714 90.2311 28.5412C90.6204 28.8916 91.3406 29.2809 92.3917 29.6896C93.6568 30.2152 94.5911 30.8186 95.1945 31.5193Z" fill="white"/>
<path d="M101.345 27.5681H103.953V29.3588H101.345V34.5363C101.345 35.8404 101.812 36.5022 102.727 36.5022C103.155 36.5022 103.505 36.4633 103.778 36.3854L103.856 38.1956C103.389 38.3708 102.766 38.4486 102.007 38.4486C101.072 38.4486 100.352 38.1567 99.8072 37.5922C99.2817 37.0277 99.0092 36.0545 99.0092 34.7115V29.3393H97.452V27.5681H99.0092V25.6216L101.325 24.9209V27.5681H101.345Z" fill="white"/>
<path d="M114.348 28.9107C113.394 27.8596 112.129 27.3535 110.571 27.3535C108.956 27.3535 107.652 27.8791 106.698 28.9301C105.744 29.9812 105.258 31.3242 105.258 32.9787C105.258 34.5553 105.725 35.8789 106.64 36.9105C107.574 37.9421 108.82 38.4677 110.377 38.4677C111.992 38.4677 113.296 37.9227 114.289 36.8521C115.223 35.801 115.691 34.458 115.691 32.823C115.71 31.2269 115.262 29.9228 114.348 28.9107ZM112.615 35.4118C112.09 36.2682 111.389 36.6964 110.474 36.6964C109.559 36.6964 108.839 36.2682 108.314 35.4312C107.885 34.75 107.691 33.8935 107.691 32.9203C107.691 31.9082 107.885 31.0517 108.314 30.351C108.8 29.4946 109.54 29.0858 110.494 29.0858C111.408 29.0858 112.129 29.5141 112.635 30.351C113.063 31.0517 113.258 31.8887 113.258 32.8619C113.258 33.8546 113.043 34.6916 112.615 35.4118Z" fill="white"/>
<path d="M123.418 27.3924V29.6503C123.184 29.6114 122.931 29.5919 122.659 29.5919C121.822 29.5919 121.179 29.9033 120.732 30.5262C120.342 31.0712 120.148 31.7914 120.148 32.6284V38.2341H117.773V30.9155C117.773 29.6892 117.754 28.5603 117.695 27.5676H119.759L119.856 29.6114H119.934C120.187 28.9107 120.576 28.3462 121.121 27.918C121.647 27.5287 122.231 27.3535 122.834 27.3535C123.048 27.3535 123.243 27.373 123.418 27.3924Z" fill="white"/>
<path d="M134.006 32.3956C134.006 31.072 133.695 29.9431 133.053 29.0283C132.274 27.8799 131.106 27.3154 129.568 27.3154C128.011 27.3154 126.766 27.8799 125.851 29.0283C124.975 30.0988 124.527 31.4419 124.527 33.038C124.527 34.673 124.994 35.9771 125.948 36.9503C126.882 37.9235 128.187 38.4101 129.841 38.4101C131.223 38.4101 132.41 38.196 133.422 37.7483L133.053 36.1133C132.196 36.4442 131.223 36.6194 130.172 36.6194C129.218 36.6194 128.459 36.3663 127.856 35.8797C127.194 35.3347 126.863 34.5172 126.824 33.4662H133.928C133.987 33.1742 134.006 32.8238 134.006 32.3956ZM126.824 31.7728C126.902 31.0526 127.135 30.4492 127.525 29.9237C128.011 29.2813 128.634 28.9699 129.413 28.9699C130.25 28.9699 130.892 29.3008 131.301 29.9626C131.612 30.4687 131.787 31.0915 131.768 31.7922L126.824 31.7728Z" fill="white"/>
<path d="M50.582 10.9648C53.0345 10.9648 54.4943 12.4831 54.4943 15.0718C54.4943 17.68 53.054 19.2177 50.582 19.2177H47.6624V10.9648H50.582ZM48.9665 18.1083H50.4847C52.2365 18.1083 53.2097 17.0377 53.2097 15.0913C53.2097 13.1449 52.2365 12.0743 50.4847 12.0743H48.9665V18.1083Z" fill="white"/>
<path d="M55.3119 16.2002C55.3119 14.2733 56.4603 13.0859 58.1732 13.0859C59.886 13.0859 61.0344 14.2733 61.0344 16.2002C61.0344 18.1467 59.9055 19.334 58.1732 19.334C56.4408 19.334 55.3119 18.1467 55.3119 16.2002ZM59.7498 16.2002C59.7498 14.8572 59.1269 14.0981 58.1537 14.0981C57.1805 14.0981 56.5576 14.8572 56.5576 16.2002C56.5576 17.5433 57.1805 18.3024 58.1537 18.3024C59.1269 18.3024 59.7498 17.5433 59.7498 16.2002Z" fill="white"/>
<path d="M68.2364 19.2176H66.9518L65.6866 14.7019H65.6671L64.4214 19.2176H63.1368L61.4823 13.2031H62.728L63.818 17.9524H63.8375L65.0832 13.2031H66.2705L67.5357 17.9524H67.5552L68.6452 13.2031H69.8714L68.2364 19.2176Z" fill="white"/>
<path d="M70.6498 13.1833H71.8371V14.1954H71.8565C72.1874 13.5141 72.8298 13.0859 73.7446 13.0859C75.0682 13.0859 75.8273 13.9424 75.8273 15.3049V19.1977H74.5815V15.5384C74.5815 14.6431 74.1533 14.137 73.2969 14.137C72.421 14.137 71.8565 14.7599 71.8565 15.6942V19.1977H70.6108V13.1833H70.6498Z" fill="white"/>
<path d="M77.073 10.9648H78.3187V19.2177H77.073V10.9648Z" fill="white"/>
<path d="M79.3116 16.2002C79.3116 14.2733 80.46 13.0859 82.1729 13.0859C83.8858 13.0859 85.0342 14.2733 85.0342 16.2002C85.0342 18.1467 83.9052 19.334 82.1729 19.334C80.4406 19.334 79.3116 18.1467 79.3116 16.2002ZM83.769 16.2002C83.769 14.8572 83.1461 14.0981 82.1729 14.0981C81.1997 14.0981 80.5768 14.8572 80.5768 16.2002C80.5768 17.5433 81.1997 18.3024 82.1729 18.3024C83.1461 18.3024 83.769 17.5433 83.769 16.2002Z" fill="white"/>
<path d="M85.7542 17.5043C85.7542 16.4533 86.5522 15.8109 87.9925 15.7331L89.647 15.6358V15.1686C89.647 14.5068 89.1993 14.0981 88.4402 14.0981C87.7201 14.0981 87.2724 14.4484 87.1751 14.974H86.0072C86.0851 13.884 86.9999 13.0859 88.4986 13.0859C89.9584 13.0859 90.8927 13.8645 90.8927 15.0713V19.2172H89.7054V18.2245H89.686C89.3356 18.8863 88.5765 19.3145 87.7784 19.3145C86.5717 19.3145 85.7542 18.5943 85.7542 17.5043ZM89.6276 16.9593V16.4922L88.1483 16.5895C87.4086 16.6479 86.9999 16.9593 86.9999 17.4849C86.9999 18.0104 87.4281 18.3608 88.0899 18.3608C88.9658 18.3413 89.6276 17.7379 89.6276 16.9593Z" fill="white"/>
<path d="M91.7881 16.2007C91.7881 14.2932 92.8002 13.0864 94.299 13.0864C95.1554 13.0864 95.8561 13.5146 96.187 14.1764H96.2065V10.9453H97.4522V19.1982H96.2454V18.1666H96.226C95.8756 18.8478 95.1749 19.2955 94.299 19.2955C92.8002 19.315 91.7881 18.1082 91.7881 16.2007ZM93.0533 16.2007C93.0533 17.4659 93.6567 18.2639 94.6494 18.2639C95.6031 18.2639 96.226 17.4659 96.226 16.2007C96.226 14.955 95.5836 14.1375 94.6494 14.1375C93.6761 14.1375 93.0533 14.9355 93.0533 16.2007Z" fill="white"/>
<path d="M100.839 16.2002C100.839 14.2733 101.987 13.0859 103.7 13.0859C105.413 13.0859 106.562 14.2733 106.562 16.2002C106.562 18.1467 105.433 19.334 103.7 19.334C101.968 19.334 100.839 18.1467 100.839 16.2002ZM105.296 16.2002C105.296 14.8572 104.673 14.0981 103.7 14.0981C102.727 14.0981 102.104 14.8572 102.104 16.2002C102.104 17.5433 102.727 18.3024 103.7 18.3024C104.673 18.3024 105.296 17.5433 105.296 16.2002Z" fill="white"/>
<path d="M107.496 13.1833H108.683V14.1954H108.703C109.033 13.5141 109.676 13.0859 110.591 13.0859C111.914 13.0859 112.673 13.9424 112.673 15.3049V19.1977H111.428V15.5384C111.428 14.6431 110.999 14.137 110.143 14.137C109.267 14.137 108.703 14.7599 108.703 15.6942V19.1977H107.457V13.1833H107.496Z" fill="white"/>
<path d="M117.87 11.7627V13.1836H119.019V14.1568H117.87V17.4852C117.87 18.0107 118.104 18.2443 118.61 18.2443C118.727 18.2443 118.941 18.2249 119.019 18.2249V19.1981C118.882 19.237 118.61 19.2565 118.337 19.2565C117.111 19.2565 116.644 18.7893 116.644 17.6215V14.1568H115.768V13.1836H116.644V11.7627H117.87Z" fill="white"/>
<path d="M120.07 10.9648H121.296V14.2154H121.315C121.646 13.5147 122.308 13.1059 123.223 13.1059C124.546 13.1059 125.344 13.9818 125.344 15.3443V19.2177H124.099V15.5779C124.099 14.6825 123.651 14.157 122.775 14.157C121.86 14.157 121.296 14.7799 121.296 15.7336V19.2177H120.05V10.9648H120.07Z" fill="white"/>
<path d="M131.69 17.4459C131.515 18.536 130.483 19.334 129.101 19.334C127.33 19.334 126.259 18.1467 126.259 16.2392C126.259 14.3511 127.349 13.0859 129.043 13.0859C130.717 13.0859 131.748 14.2733 131.748 16.0834V16.5117H127.486V16.5895C127.486 17.6406 128.108 18.3218 129.101 18.3218C129.802 18.3218 130.327 17.9715 130.483 17.4459H131.69ZM127.524 15.6552H130.541C130.522 14.7404 129.938 14.0786 129.062 14.0786C128.186 14.0786 127.583 14.7404 127.524 15.6552Z" fill="white"/>
</svg>
