<svg width="93" height="111" viewBox="0 0 93 111" fill="none" xmlns="http://www.w3.org/2000/svg">
<path d="M27.8228 106.667C27.6228 108.767 25.8228 110.267 23.7228 110.167L23.0228 110.067C20.9228 109.867 19.4228 108.067 19.5228 105.967L27.6228 3.56697C27.8228 1.46697 29.6228 -0.0330257 31.7228 0.0669743L32.4228 0.16698C34.5228 0.36698 36.0228 2.16699 35.9228 4.26699L27.8228 106.667Z" fill="#D12E02"/>
<path d="M64.9226 106.667C65.1226 108.767 66.9226 110.267 69.0226 110.167L69.7226 110.067C71.8226 109.867 73.3226 108.067 73.2226 105.967L65.1226 3.56697C64.9226 1.46697 63.1226 -0.0330257 61.0226 0.0669743L60.3226 0.16698C58.2226 0.36698 56.7226 2.16699 56.8226 4.26699L64.9226 106.667Z" fill="#D12E02"/>
<path d="M92.0251 21.0671H0.725098V81.4672H92.0251V21.0671Z" fill="#F1F1F1"/>
<path d="M54.2259 49.5666C56.5259 51.9666 55.3259 44.3666 55.7259 43.7666C56.4259 42.5666 58.3259 42.3666 59.3259 43.3666C60.3259 44.4666 59.6259 46.0666 59.8259 47.3666C60.5259 51.2666 63.2259 46.5666 65.5259 47.4666C66.6259 47.8666 67.0259 49.4666 66.4259 50.4666C65.9259 51.2666 63.9259 51.2666 64.4259 52.6666C64.9259 53.8666 66.7259 52.9666 67.6259 53.5666C69.2259 54.6666 68.1259 55.7666 67.1259 56.2666C65.5259 57.0666 65.3259 56.8666 65.6259 58.8666C65.8259 60.0666 66.3259 61.3666 66.4259 62.4666C66.7259 65.5666 64.7259 67.2666 63.0259 63.9666C62.5259 63.0666 61.9259 61.3666 60.7259 62.6666C60.0259 63.3666 60.8259 65.6666 59.1259 65.6666C58.0259 65.6666 58.1259 63.1666 57.8259 62.1666C55.7259 61.6666 54.1259 66.0666 52.1259 66.7666C48.5259 67.8666 48.4259 64.1666 49.7259 62.0666C51.8259 58.5666 46.6259 61.2666 45.6259 58.8666C44.3259 55.7666 51.3259 56.3666 48.9259 53.3666C47.9259 52.1666 46.2259 52.1666 46.4259 50.1666C46.6259 48.2666 47.7259 48.3666 48.9259 49.0666C49.3259 49.2666 49.8259 50.0666 50.4259 49.9666C51.5259 49.8666 50.9259 49.1666 51.2259 48.3666C51.6259 47.3666 53.2259 46.1666 53.7259 48.0666L54.2259 49.5666Z" fill="#0E5FCB"/>
<path d="M53.3261 44.7666C53.2261 44.1666 52.6261 43.7666 52.0261 43.7666C51.8261 43.7666 51.6261 43.8666 51.5261 43.9666C51.4261 43.9666 51.2261 44.0666 51.1261 44.1666C50.8261 44.5666 50.6261 45.0666 50.8261 45.5666C51.0261 46.2666 51.8261 46.6666 52.4261 46.3666C52.7261 46.2666 53.0261 46.0666 53.1261 45.7666C53.3261 45.3666 53.3261 45.0666 53.3261 44.7666Z" fill="#0E5FCB"/>
<path d="M69.9259 47.1667C69.8259 46.9667 69.7259 46.8667 69.6259 46.6667C69.4259 46.4667 69.1259 46.3667 68.9259 46.2667C68.7259 46.2667 68.6259 46.2667 68.4259 46.2667C67.9259 46.1667 67.3259 46.4667 67.2259 46.9667C67.1259 47.2667 67.1259 47.5667 67.2259 47.8667C67.3259 48.1667 67.5259 48.4667 67.8259 48.6667C68.2259 48.9667 68.8259 48.8667 69.2259 48.6667C69.5259 48.5667 69.9259 48.1667 70.0259 47.7667C69.9259 47.4667 70.0259 47.3667 69.9259 47.1667Z" fill="#0E5FCB"/>
<path d="M55.8257 68.3665C55.7257 67.5665 55.2257 66.9666 54.4257 66.9666C54.4257 66.9666 54.4257 66.9666 54.3257 66.9666C54.1257 66.9666 54.0257 66.9665 53.9257 67.0665C53.9257 67.0665 53.9257 67.0665 53.8257 67.0665C53.2257 67.4665 52.9257 68.3665 53.1257 69.0665C53.3257 69.9665 54.3257 70.3665 55.1257 69.8665C55.5257 69.6665 55.9257 68.9665 55.8257 68.3665Z" fill="#0E5FCB"/>
<path d="M66.9259 65.6665C66.4259 65.6665 66.0259 66.0665 66.0259 66.5665V66.6665C66.0259 67.1665 66.4259 67.5665 66.9259 67.5665C67.4259 67.5665 67.8259 67.1665 67.8259 66.6665V66.5665C67.9259 66.0665 67.5259 65.6665 66.9259 65.6665Z" fill="#0E5FCB"/>
<path d="M36.3235 41.6666C35.9235 42.4666 37.0235 43.8666 37.9235 43.1666C38.5235 42.6666 38.4235 40.8666 38.4235 40.1666C38.6235 37.7666 38.3235 35.1666 38.9235 32.8666C39.4235 30.9666 41.6235 28.3666 43.4235 30.8666C44.8235 32.7666 43.4235 35.3666 42.5235 37.1666C42.0235 38.2666 40.1235 42.5666 41.9235 43.2666C43.6235 43.8666 45.4235 40.6666 46.6235 40.0666C47.3235 39.6666 49.0235 39.3666 49.5235 40.0666C50.0235 40.7666 49.3235 42.1666 48.9235 42.6666C48.3235 43.2666 47.1235 43.5666 46.9235 44.4666C46.6235 45.9666 47.8235 45.5666 48.8235 45.7666C49.8235 45.8666 50.7235 46.2666 50.7235 47.3666C50.7235 48.9666 49.6235 48.4666 48.5235 48.7666C45.5235 49.6666 49.9235 51.3666 51.0235 52.1666C52.3235 53.0666 54.7235 56.0666 53.0235 57.6666C51.0235 59.6666 49.1235 56.3666 48.1235 55.1666C46.9235 53.8666 44.3235 52.6666 43.9235 55.2666C43.6235 57.5666 45.3235 60.0666 45.2235 62.4666C45.0235 65.6666 42.0235 65.2666 41.3235 62.4666C40.9235 60.7666 41.8235 57.0666 40.7235 55.7666C38.6235 53.3666 39.3235 59.2666 39.0235 59.8666C38.4235 61.0666 37.5235 60.1666 37.2235 59.2666C37.0235 58.2666 37.7235 57.4666 37.6235 56.4666C37.2235 53.8666 34.4235 57.1666 33.5235 57.8666C31.1235 59.4666 27.6235 61.2666 25.0235 59.2666C22.8235 57.5666 22.3235 53.8666 24.9235 52.4666C27.1235 51.2666 29.6235 51.8666 31.7235 51.0666C33.8235 50.2666 35.0235 48.4666 32.2235 47.7666C31.2235 47.5666 26.7235 45.9666 29.3235 44.5666C30.5235 43.9666 34.0235 46.1666 33.6235 43.2666C33.3235 41.3666 30.5235 40.8666 30.4235 38.6666C30.3235 33.6666 39.1235 36.5666 36.5235 40.6666L36.3235 41.6666Z" fill="#FE4202"/>
<path d="M27.3235 44.3665C26.9235 43.5665 26.0235 43.2665 25.2235 43.4665C24.7235 43.5665 24.3235 43.8665 24.1235 44.3665C23.6235 44.8665 23.4235 45.5665 23.6235 46.2665C23.8235 47.1665 24.5235 47.7665 25.4235 47.8665C26.1235 47.9665 26.9235 47.4665 27.3235 46.8665C27.7235 46.0665 27.7235 45.1665 27.3235 44.3665Z" fill="#FE4202"/>
<path d="M54.4237 44.9665C53.8237 44.5665 53.1237 44.4665 52.5237 44.7665C52.3237 44.8665 52.1237 45.0665 52.0237 45.1665C51.9237 45.2665 51.9237 45.2665 51.8237 45.3665C51.2237 46.1665 51.1237 47.1665 51.5237 48.0665C51.9237 48.9665 53.1237 49.1665 53.9237 48.7665C55.6237 48.2665 55.8237 45.9665 54.4237 44.9665Z" fill="#FE4202"/>
<path d="M51.5233 36.9665C50.9233 36.7665 50.3233 37.0664 50.0233 37.5664C49.9233 37.6664 49.9233 37.7665 49.9233 37.9665C49.6233 38.4665 49.6233 39.1664 50.0233 39.5664C50.3233 39.9664 50.7233 40.2664 51.2233 40.2664C51.7233 40.2664 52.1233 40.0664 52.4233 39.6664C53.0233 38.7664 52.7233 37.3665 51.5233 36.9665Z" fill="#FE4202"/>
<path d="M29.3233 47.7667C29.0233 47.4667 28.5233 47.3667 28.1233 47.4667C27.7233 47.5667 27.4233 47.8667 27.3233 48.1667C27.2233 48.2667 27.1233 48.3667 27.1233 48.5667C27.0233 48.9667 27.0233 49.3667 27.2233 49.6667C27.4233 50.0667 27.8233 50.1667 28.2233 50.1667C28.9233 50.2667 29.5233 49.6667 29.6233 49.0667C29.7233 48.5667 29.6233 48.1667 29.3233 47.7667Z" fill="#FE4202"/>
<path d="M40.0237 62.9666C39.9237 62.1666 39.1237 61.2666 38.2237 61.2666C37.9237 61.2666 37.6237 61.3666 37.3237 61.4666H37.2237C36.2237 61.6666 35.6237 62.5666 35.7237 63.5666C35.8237 64.3666 36.4237 64.9666 37.1237 65.2666C37.8237 65.5666 38.5237 65.4666 39.1237 65.1666C39.9237 64.6666 40.1237 63.7666 40.0237 62.9666Z" fill="#FE4202"/>
<path d="M36.4237 32.6666C36.3237 32.2666 36.0237 31.9666 35.7237 31.7666C35.0237 31.0666 33.8237 31.2666 33.2237 31.9666C33.1237 32.0666 33.0237 32.2666 33.0237 32.3666C32.6237 33.0666 32.7237 33.9666 33.3237 34.5666C33.9237 35.1666 34.9237 35.2666 35.5237 34.7666C36.3237 34.3666 36.6237 33.5666 36.4237 32.6666Z" fill="#FE4202"/>
</svg>
