<svg width="71" height="74" viewBox="0 0 71 74" fill="none" xmlns="http://www.w3.org/2000/svg">
<path d="M30.3736 47.1914L19.9838 39.5461C19.3712 39.105 18.5135 39.2275 18.048 39.8401L0.52739 63.7318C0.0863133 64.3444 0.208838 65.2021 0.821445 65.6676L11.2113 73.2885C11.8239 73.7295 12.6815 73.607 13.1471 72.9944L30.6922 49.1027C31.1333 48.4901 30.9862 47.6325 30.3736 47.1914Z" fill="#5551AF"/>
<path d="M70.7565 61.6007L52.9174 40.9681C52.7949 40.8456 52.5989 40.8211 52.4763 40.9436L39.293 52.3381C39.1705 52.4606 39.146 52.6566 39.2685 52.7792L57.1322 73.4363C57.2057 73.5343 57.3282 73.5588 57.4507 73.5343C58.1368 73.3628 60.7098 72.5541 64.6305 69.148C68.6247 65.6929 70.389 62.7279 70.8301 61.9683C70.8546 61.8457 70.8301 61.6987 70.7565 61.6007Z" fill="#5551AF"/>
<path d="M49.0947 37.4639C49.2908 37.2924 49.3153 37.0228 49.1438 36.8268L43.4588 30.2351C43.2872 30.0391 43.0177 30.0146 42.8217 30.1861L30.0304 41.213C29.8344 41.3846 29.8099 41.6541 29.9814 41.8502L35.6664 48.4418C35.8379 48.6378 36.1075 48.6624 36.3035 48.4908L49.0947 37.4639Z" fill="#5551AF"/>
<path d="M29.0997 36.9736L25.424 41.9725C25.277 42.1931 25.3015 42.4871 25.522 42.6586L25.7671 42.8547C25.9876 43.0017 26.2817 42.9772 26.4532 42.7567L29.9328 38.0028L30.864 39.0565C30.9865 39.179 31.1825 39.2035 31.3051 39.081L40.5677 31.0926C40.6902 30.9701 40.7147 30.7741 40.5922 30.6515L37.7497 27.368L42.9201 20.3352L43.9738 21.1194C44.1453 21.2664 44.4149 21.2174 44.5619 21.0214L44.7334 20.7763C44.8804 20.6048 44.8314 20.3352 44.6354 20.1882L43.5817 19.4041L44.9049 17.5908L46.9633 19.11C47.1593 19.2571 47.4534 19.208 47.6004 19.012L47.7964 18.7425C47.9435 18.5464 47.8945 18.2524 47.6984 18.1053L45.6401 16.5861L47.2329 14.4297L50.0263 16.4881C50.2224 16.6351 50.5164 16.5861 50.6635 16.39L50.8595 16.1205C51.0065 15.9245 50.9575 15.6304 50.7615 15.4834L47.968 13.425L49.1442 11.8077L52.7953 14.5032C52.9914 14.6502 53.2854 14.6012 53.4324 14.4052L53.6285 14.1356C53.7755 13.9396 53.7265 13.6456 53.5305 13.4985L49.8793 10.8031L51.031 9.2593L53.8245 11.3177C54.0205 11.4647 54.3146 11.4157 54.4616 11.2196L54.6576 10.9501C54.8047 10.7541 54.7557 10.46 54.5596 10.313L51.7661 8.25462L53.0894 6.44131L55.1477 7.96058C55.3438 8.1076 55.6378 8.05859 55.7848 7.86256L55.9809 7.59301C56.1279 7.39698 56.0789 7.10292 55.8829 6.95589L53.8245 5.43663L55.1722 3.62332L56.3484 4.48097C56.52 4.62799 56.7895 4.57898 56.9365 4.38294L57.1081 4.16241C57.2551 3.99088 57.2061 3.72133 57.0101 3.57431L55.8339 2.71666L56.1524 2.27558C56.2994 2.05504 56.2749 1.76099 56.0544 1.58946L55.8094 1.39342C55.5888 1.24639 55.2948 1.2709 55.1232 1.49144L54.8047 1.93252L53.6285 1.07487C53.4569 0.927839 53.1874 0.976854 53.0404 1.17289L52.8688 1.39342C52.7218 1.56495 52.7708 1.8345 52.9668 1.98153L54.1431 2.83918L52.8198 4.677L50.7615 3.15773C50.5654 3.0107 50.2714 3.05972 50.1244 3.25575L49.9283 3.52529C49.7813 3.72133 49.8303 4.01539 50.0263 4.16241L52.0847 5.68167L50.7615 7.49499L47.968 5.43663C47.7719 5.2896 47.4779 5.33861 47.3309 5.53465L47.1348 5.80419C46.9878 6.00022 47.0368 6.29428 47.2329 6.44131L50.0263 8.49966L48.8746 10.0434L45.2235 7.34797C45.0275 7.20095 44.7334 7.24995 44.5864 7.44598L44.3903 7.71554C44.2433 7.91157 44.2923 8.20562 44.4884 8.35264L48.1395 11.0481L46.9633 12.6654L44.1698 10.607C43.9738 10.46 43.6797 10.509 43.5327 10.705L43.3367 10.9746C43.1896 11.1706 43.2387 11.4647 43.4347 11.6117L46.2282 13.6701L44.6354 15.8264L42.577 14.3072C42.381 14.1602 42.0869 14.2092 41.9399 14.4052L41.7439 14.6747C41.5969 14.8708 41.6459 15.1648 41.8419 15.3119L43.9003 16.8311L42.577 18.6444L41.5234 17.8603C41.3518 17.7133 41.0823 17.7623 40.9352 17.9583L40.7637 18.2034C40.6167 18.3749 40.6657 18.6444 40.8617 18.7915L41.9154 19.5756L36.9165 26.3878L20.0576 6.88238C19.8861 6.68635 19.5675 6.75986 19.5185 7.00491L15.7939 21.4134C15.7694 21.5114 15.7939 21.634 15.8674 21.7075L29.0997 36.9736Z" fill="#5551AF"/>
<path d="M52.0847 38.3707L51.7906 38.0276C51.374 37.562 50.6634 37.4885 50.1733 37.9051L36.6225 49.6181C36.1569 50.0347 36.0834 50.7453 36.4999 51.2354L36.794 51.5785C37.2105 52.0441 37.9212 52.1176 38.4113 51.701L51.9621 39.9879C52.4522 39.5714 52.5012 38.8363 52.0847 38.3707Z" fill="#5551AF"/>
</svg>
