<svg width="71" height="74" viewBox="0 0 71 74" fill="none" xmlns="http://www.w3.org/2000/svg">
<path d="M30.1971 47.0529L19.8073 39.4075C19.1947 38.9664 18.337 39.089 17.8714 39.7016L0.350877 63.5933C-0.0902003 64.2059 0.032324 65.0635 0.644931 65.5291L11.0348 73.1499C11.6474 73.591 12.505 73.4685 12.9706 72.8559L30.5157 48.9642C30.9567 48.3516 30.8097 47.4939 30.1971 47.0529Z" fill="#5551AF"/>
<path d="M70.5803 61.4622L52.7412 40.8295C52.6186 40.707 52.4226 40.6825 52.3001 40.805L39.1168 52.1995C38.9942 52.3221 38.9698 52.5181 39.0923 52.6406L56.9559 73.2977C57.0294 73.3957 57.1519 73.4202 57.2745 73.3957C57.9606 73.2242 60.5335 72.4156 64.4542 69.0095C68.4484 65.5544 70.2127 62.5893 70.6538 61.8297C70.6783 61.7072 70.6538 61.5602 70.5803 61.4622Z" fill="#5551AF"/>
<path d="M48.9185 37.3253C49.1145 37.1538 49.139 36.8843 48.9675 36.6882L43.2825 30.0966C43.111 29.9005 42.8414 29.876 42.6454 30.0476L29.8541 41.0745C29.6581 41.246 29.6336 41.5156 29.8051 41.7116L35.4901 48.3033C35.6617 48.4993 35.9312 48.5238 36.1272 48.3523L48.9185 37.3253Z" fill="#5551AF"/>
<path d="M28.9234 36.8351L25.2478 41.834C25.1007 42.0545 25.1252 42.3486 25.3458 42.5201L25.5908 42.7161C25.8114 42.8631 26.1054 42.8387 26.277 42.6181L29.7565 37.8643L30.6877 38.918C30.8102 39.0405 31.0063 39.065 31.1288 38.9425L40.3914 30.9541C40.5139 30.8315 40.5384 30.6355 40.4159 30.513L37.5734 27.2294L42.7438 20.1967L43.7975 20.9808C43.969 21.1278 44.2386 21.0788 44.3856 20.8828L44.5571 20.6378C44.7042 20.4662 44.6552 20.1967 44.4591 20.0497L43.4054 19.2655L44.7287 17.4522L46.787 18.9715C46.9831 19.1185 47.2771 19.0695 47.4241 18.8735L47.6202 18.6039C47.7672 18.4079 47.7182 18.1138 47.5222 17.9668L45.4638 16.4475L47.0566 14.2912L49.8501 16.3495C50.0461 16.4965 50.3402 16.4475 50.4872 16.2515L50.6832 15.982C50.8302 15.7859 50.7812 15.4919 50.5852 15.3448L47.7917 13.2865L48.9679 11.6692L52.6191 14.3647C52.8151 14.5117 53.1091 14.4627 53.2562 14.2667L53.4522 13.9971C53.5992 13.8011 53.5502 13.507 53.3542 13.36L49.703 10.6645L50.8547 9.12075L53.6482 11.1791C53.8443 11.3261 54.1383 11.2771 54.2853 11.0811L54.4814 10.8115C54.6284 10.6155 54.5794 10.3215 54.3834 10.1744L51.5899 8.11607L52.9131 6.30276L54.9715 7.82203C55.1675 7.96905 55.4615 7.92004 55.6086 7.72401L55.8046 7.45446C55.9516 7.25843 55.9026 6.96437 55.7066 6.81734L53.6482 5.29808L54.996 3.48477L56.1722 4.34242C56.3437 4.48944 56.6132 4.44043 56.7603 4.24439L56.9318 4.02386C57.0788 3.85233 57.0298 3.58278 56.8338 3.43576L55.6576 2.57811L55.9761 2.13703C56.1232 1.91649 56.0987 1.62244 55.8781 1.45091L55.6331 1.25487C55.4125 1.10784 55.1185 1.13235 54.947 1.35289L54.6284 1.79397L53.4522 0.936315C53.2807 0.78929 53.0111 0.838304 52.8641 1.03434L52.6926 1.25487C52.5455 1.4264 52.5945 1.69595 52.7906 1.84298L53.9668 2.70063L52.6436 4.53845L50.5852 3.01918C50.3892 2.87215 50.0951 2.92117 49.9481 3.1172L49.7521 3.38674C49.605 3.58278 49.654 3.87684 49.8501 4.02386L51.9084 5.54312L50.5852 7.35644L47.7917 5.29808C47.5957 5.15105 47.3016 5.20006 47.1546 5.3961L46.9586 5.66564C46.8115 5.86167 46.8605 6.15573 47.0566 6.30276L49.8501 8.36111L48.6984 9.90489L45.0472 7.20942C44.8512 7.0624 44.5571 7.1114 44.4101 7.30743L44.2141 7.57699C44.067 7.77302 44.1161 8.06707 44.3121 8.21409L47.9632 10.9096L46.787 12.5268L43.9935 10.4685C43.7975 10.3215 43.5035 10.3705 43.3564 10.5665L43.1604 10.8361C43.0134 11.0321 43.0624 11.3261 43.2584 11.4732L46.0519 13.5315L44.4591 15.6879L42.4008 14.1686C42.2047 14.0216 41.9107 14.0706 41.7636 14.2667L41.5676 14.5362C41.4206 14.7322 41.4696 15.0263 41.6656 15.1733L43.724 16.6926L42.4008 18.5059L41.3471 17.7218C41.1756 17.5747 40.906 17.6237 40.759 17.8198L40.5874 18.0648C40.4404 18.2363 40.4894 18.5059 40.6855 18.6529L41.7391 19.4371L36.7403 26.2492L19.8813 6.74383C19.7098 6.5478 19.3912 6.62131 19.3422 6.86636L15.6176 21.2749C15.5931 21.3729 15.6176 21.4954 15.6911 21.5689L28.9234 36.8351Z" fill="#5551AF"/>
<path d="M51.9086 38.2321L51.6146 37.8891C51.198 37.4235 50.4874 37.35 49.9973 37.7665L36.4464 49.4796C35.9808 49.8962 35.9073 50.6068 36.3239 51.0969L36.6179 51.4399C37.0345 51.9055 37.7452 51.979 38.2352 51.5625L51.7861 39.8494C52.2762 39.4328 52.3252 38.6977 51.9086 38.2321Z" fill="#5551AF"/>
</svg>
