<svg width="53" height="78" viewBox="0 0 53 78" fill="none" xmlns="http://www.w3.org/2000/svg">
<path d="M15.7775 19.7997C19.0142 18.6437 20.7481 14.9447 19.5922 11.7081C18.4362 8.47141 14.7372 6.73749 11.5006 7.89343C8.26391 9.04938 6.52997 12.7484 7.68591 15.9851C8.84186 19.3373 12.5409 20.9556 15.7775 19.7997ZM12.3097 11.2457C14.3904 10.4365 16.8179 11.5925 17.5115 13.6732C18.3206 15.7539 17.1647 18.1814 15.084 18.8749C13.0033 19.6841 10.5758 18.5281 9.88224 16.4474C9.07308 14.3667 10.1134 11.9392 12.3097 11.2457Z" fill="#0096C1"/>
<path d="M25.7187 19.2216C28.2618 20.6088 31.3828 19.684 32.77 17.1409C34.1571 14.5978 33.2323 11.4768 30.6893 10.0896C28.1462 8.7025 25.0251 9.62727 23.638 12.1703C22.2508 14.7134 23.1756 17.8345 25.7187 19.2216ZM24.5627 13.0951C25.6031 11.13 28.1462 10.3208 30.1113 11.4768C32.0764 12.5171 32.8856 15.0602 31.7296 17.0253C30.6893 18.9904 28.1462 19.7996 26.181 18.6436C24.1003 17.6033 23.4068 15.0602 24.5627 13.0951Z" fill="#0096C1"/>
<path d="M22.5982 22.1115C21.0955 21.8803 19.7084 22.805 19.4772 24.3078C19.246 25.8105 20.1707 27.1976 21.6735 27.4288C23.1762 27.66 24.5633 26.7352 24.7945 25.2325C25.1413 23.8454 24.101 22.3426 22.5982 22.1115ZM24.2166 25.0013C23.9854 26.1573 22.945 26.9664 21.6735 26.7352C20.5175 26.504 19.7084 25.4637 19.9395 24.1922C20.1707 23.0362 21.2111 22.227 22.4826 22.4582C23.6386 22.6894 24.4478 23.7298 24.2166 25.0013Z" fill="#0096C1"/>
<path d="M14.5065 25.5794C12.1946 24.3079 9.42031 25.1171 8.14877 27.4289C6.87723 29.7408 7.68637 32.5151 9.99826 33.7866C12.3102 35.0582 15.0844 34.249 16.356 31.9371C17.5119 29.6252 16.7028 26.7354 14.5065 25.5794ZM14.2753 29.8564C13.5817 31.2436 11.8478 31.7059 10.4607 31.0124C9.07353 30.3188 8.61115 28.5849 9.30472 27.1978C9.99829 25.8106 11.7322 25.3482 13.1193 26.0418C14.5065 26.851 15.0844 28.5849 14.2753 29.8564Z" fill="#0096C1"/>
<path d="M48.7225 30.5501L48.6069 30.4345L52.9995 22.3428L42.4804 16.6787L38.0878 24.7703L37.9722 24.6547C37.6254 24.4235 37.2786 24.4235 36.9319 24.5391C36.9319 24.5391 26.7595 28.2382 23.6385 29.5097C22.8293 29.8565 22.2513 30.6657 22.4825 31.5904L22.5981 31.8216C22.8293 32.7464 23.7541 33.2087 24.6788 32.9776C25.8348 32.6308 27.9155 32.0528 30.1118 31.3592C32.0769 30.7813 31.8457 32.6308 31.8457 32.6308L31.1521 33.9023L30.5741 34.9427L29.5338 36.7922L24.4476 46.2709C23.9852 47.0801 24.332 48.1205 25.1412 48.4672L25.3724 48.5828C26.1816 49.0452 27.2219 48.6984 27.5687 47.8893L31.0365 41.416L33.1172 37.4858L33.5796 37.7169L31.4989 41.5316L27.1063 49.6232C26.6439 50.4324 26.9907 51.4727 27.7999 51.8195L28.0311 51.9351C28.8402 52.3975 29.8806 52.0507 30.2273 51.2415L34.7356 42.8031L36.585 39.4509L37.0475 39.682L35.1979 43.1499L31.4989 50.0856C31.0365 50.8947 31.3833 51.9351 32.1925 52.2819L32.4237 52.3975C33.2328 52.8598 34.2732 52.5131 34.62 51.7039L38.0878 45.2306L40.1685 41.3004L40.6309 41.5316L36.4695 49.1608C36.0071 49.97 36.3539 51.0103 37.163 51.3571L37.3942 51.4727C38.2034 51.9351 39.2437 51.5883 39.5905 50.7791L44.7923 41.0692L49.0693 33.0931C49.7629 32.1684 49.5316 31.0124 48.7225 30.5501Z" fill="#FAA700"/>
<path d="M41.3244 49.8542C42.2491 51.7037 42.7115 53.9 42.7115 56.0963C42.7115 64.4191 36.007 71.1236 27.6842 71.1236C19.3614 71.1236 12.6569 64.4191 12.6569 56.0963C12.6569 48.3515 18.4366 42.1094 25.9503 41.1846L29.4181 34.7113C28.8402 34.7113 28.2622 34.5957 27.6842 34.5957C15.8936 34.5957 6.18359 44.1901 6.18359 56.0963C6.18359 67.887 15.778 77.5969 27.6842 77.5969C39.5905 77.5969 49.1848 68.0026 49.1848 56.0963C49.1848 51.2413 47.5665 46.8487 44.9078 43.2653L41.3244 49.8542Z" fill="#0096C1"/>
<path d="M6.29905 22.2272V21.996C3.52478 21.1868 3.64035 17.9502 3.64035 17.9502H3.52479H3.40919C3.40919 17.9502 3.52476 21.1868 0.750488 21.996V22.1116V22.2272C3.52476 23.0364 3.40919 26.273 3.40919 26.273H3.52479H3.64035C3.64035 26.273 3.52478 22.9208 6.29905 22.2272Z" fill="#0096C1"/>
<path d="M22.1359 53.7843V53.5531C19.3617 52.744 19.4773 49.5073 19.4773 49.5073H19.3617H19.2461C19.2461 49.5073 19.3617 52.744 16.5874 53.5531V53.6687V53.7843C19.3617 54.5935 19.2461 57.8301 19.2461 57.8301H19.3617H19.4773C19.4773 57.8301 19.3617 54.4779 22.1359 53.7843Z" fill="#0096C1"/>
<path d="M21.0946 7.54674H21.3258C21.3258 7.54674 21.2102 4.65687 23.6377 3.9633V3.84771V3.73211C21.2102 3.03855 21.3258 0.148682 21.3258 0.148682H21.2102H21.0946C21.0946 0.148682 21.2102 3.03855 18.7827 3.73211V3.84771V3.9633C21.2102 4.65687 21.0946 7.54674 21.0946 7.54674Z" fill="#0096C1"/>
</svg>
