<svg width="538" height="422" viewBox="0 0 538 422" fill="none" xmlns="http://www.w3.org/2000/svg">
<g opacity="0.7">
<mask id="mask0_87_14061" style="mask-type:luminance" maskUnits="userSpaceOnUse" x="167" y="111" width="171" height="172">
<path d="M167.3 282.703L167.1 229.503L337.2 111.038L337.3 164.239L167.3 282.703Z" fill="white"/>
</mask>
<g mask="url(#mask0_87_14061)">
<path d="M337.2 111.038L242.5 177.026V183.058L337.2 117.07V111.038Z" fill="#FF2C9C"/>
<path d="M312.6 139.508L242.5 188.245V194.277L312.6 145.54V139.508Z" fill="#42E8E0"/>
<path d="M299.8 160.378L242.6 200.188V206.22L299.8 166.41V160.378Z" fill="#FF2C9C"/>
<path d="M288.5 180.162L242.6 212.131V218.163L288.5 186.194V180.162Z" fill="#42E8E0"/>
<path d="M275.6 201.033L242.6 224.074V230.106L275.6 207.185V201.033Z" fill="#FF2C9C"/>
<path d="M167.1 229.503L167.3 282.703L232.2 237.465L232.1 193.553L167.2 238.792L167.1 229.503Z" fill="#6464DD"/>
<path d="M232.1 184.264L167.1 229.503L167.2 238.792L232.1 193.553V184.264Z" fill="#42E8E0"/>
</g>
</g>
<path d="M303.6 341.815C303.6 339.402 303.6 337.954 303.6 337.954L460.4 382.348V388.38C460.4 389.948 459.3 390.914 458.3 391.637L416 421.073C414.7 422.038 413.1 422.038 411.7 421.073L305.8 347.243C303.9 346.037 303.6 344.227 303.6 341.815Z" fill="#4343C4"/>
<path d="M305.7 333.37L348 303.935C349.3 302.97 350.9 302.97 352.3 303.935L458.2 377.764C461 379.694 461 384.64 458.2 386.691L415.9 416.126C414.6 417.092 413 417.092 411.6 416.126L305.7 342.297C302.9 340.367 302.9 335.421 305.7 333.37Z" fill="#6464DD"/>
<path d="M355.3 310.932V312.621C355.3 312.983 355.1 313.465 354.8 313.586L347.9 318.653C347.7 318.773 347.4 318.773 347.2 318.653L340.4 313.948C340.2 313.827 340.1 313.586 340.1 313.224V311.294L355.3 310.932Z" fill="#A5A5F2"/>
<path d="M365.3 318.049V319.376C365.3 319.738 365.1 320.221 364.8 320.341L357.9 325.529C357.7 325.649 357.4 325.649 357.2 325.529L350.4 320.945C350.2 320.824 350.1 320.583 350.1 320.221V317.929L365.3 318.049Z" fill="#A5A5F2"/>
<path d="M375.6 325.046V326.735C375.6 327.097 375.4 327.58 375.1 327.7L368.2 332.767C368 332.888 367.7 332.888 367.5 332.767L360.7 328.062C360.5 327.942 360.4 327.7 360.4 327.338V325.408L375.6 325.046Z" fill="#A5A5F2"/>
<path d="M385.701 332.043V333.732C385.701 334.094 385.501 334.577 385.201 334.697L378.3 339.764C378.1 339.885 377.8 339.885 377.6 339.764L370.8 334.938C370.6 334.818 370.5 334.577 370.5 334.215V332.284L385.701 332.043Z" fill="#A5A5F2"/>
<path d="M395.5 338.919V340.608C395.5 340.97 395.3 341.453 395 341.573L388.1 346.64C387.9 346.761 387.6 346.761 387.4 346.64L380.6 341.935C380.4 341.815 380.3 341.573 380.3 341.212V339.281L395.5 338.919Z" fill="#A5A5F2"/>
<path d="M405.6 345.916V347.605C405.6 347.967 405.4 348.45 405.1 348.57L398.1 353.516C397.9 353.637 397.6 353.637 397.4 353.516L390.7 348.812C390.5 348.691 390.4 348.45 390.4 348.088V346.158L405.6 345.916Z" fill="#A5A5F2"/>
<path d="M415.701 352.913V354.602C415.701 354.964 415.501 355.447 415.201 355.567L408.3 360.634C408.1 360.755 407.8 360.755 407.6 360.634L400.8 355.929C400.6 355.808 400.5 355.567 400.5 355.205V353.275L415.701 352.913Z" fill="#A5A5F2"/>
<path d="M426 360.151V361.84C426 362.202 425.8 362.685 425.5 362.805L418.6 367.872C418.4 367.993 418.1 367.993 417.9 367.872L411.1 363.167C410.9 363.047 410.8 362.805 410.8 362.443V360.513L426 360.151Z" fill="#A5A5F2"/>
<path d="M436.2 367.269V368.958C436.2 369.32 436 369.802 435.7 369.923L428.7 374.99C428.5 375.11 428.2 375.11 428 374.99L421.2 370.285C421 370.164 420.9 369.923 420.9 369.561V367.631L436.2 367.269Z" fill="#A5A5F2"/>
<path d="M446.1 374.145V375.834C446.1 376.196 445.9 376.679 445.6 376.799L438.7 381.866C438.5 381.986 438.2 381.986 438 381.866L431.2 377.161C431 377.04 430.9 376.799 430.9 376.437V374.507L446.1 374.145Z" fill="#A5A5F2"/>
<path d="M456.3 381.263V382.952C456.3 383.314 456.1 383.796 455.8 383.917L448.8 388.983C448.6 389.104 448.3 389.104 448.1 388.983L441.3 384.279C441.1 384.158 441 383.917 441 383.555V381.625L456.3 381.263Z" fill="#A5A5F2"/>
<path d="M347.2 316.602L340.2 311.776C340 311.656 340 311.173 340.2 311.053L347.3 305.745C347.5 305.624 347.8 305.624 348 305.745L355.1 310.811C355.3 310.932 355.3 311.414 355.1 311.535L347.8 316.722C347.7 316.843 347.4 316.843 347.2 316.602Z" fill="white"/>
<path d="M357.2 323.478L350.2 318.653C350 318.532 350 318.049 350.2 317.929L357.3 312.621C357.5 312.5 357.8 312.5 358 312.621L365.1 317.687C365.3 317.808 365.3 318.291 365.1 318.411L357.8 323.599C357.7 323.719 357.4 323.719 357.2 323.478Z" fill="white"/>
<path d="M367.4 330.716L360.4 325.891C360.2 325.77 360.2 325.288 360.4 325.167L367.5 319.859C367.7 319.738 368.001 319.738 368.201 319.859L375.3 324.926C375.5 325.046 375.5 325.529 375.3 325.649L368 330.837C367.9 330.837 367.6 330.837 367.4 330.716Z" fill="white"/>
<path d="M377.6 337.713L370.6 332.888C370.4 332.767 370.4 332.284 370.6 332.164L377.7 326.856C377.9 326.735 378.2 326.735 378.4 326.856L385.5 331.923C385.7 332.043 385.7 332.526 385.5 332.646L378.2 337.834C378.1 337.954 377.8 337.954 377.6 337.713Z" fill="white"/>
<path d="M387.4 344.589L380.4 339.764C380.2 339.643 380.2 339.161 380.4 339.04L387.5 333.732C387.7 333.611 388.001 333.611 388.201 333.732L395.3 338.799C395.5 338.919 395.5 339.402 395.3 339.523L388 344.71C387.9 344.71 387.6 344.71 387.4 344.589Z" fill="white"/>
<path d="M397.401 351.707L390.4 346.881C390.2 346.761 390.2 346.278 390.4 346.158L397.5 340.85C397.7 340.729 398.001 340.729 398.201 340.85L405.3 345.916C405.5 346.037 405.5 346.52 405.3 346.64L398 351.828C397.9 351.828 397.701 351.828 397.401 351.707Z" fill="white"/>
<path d="M407.5 358.704L400.5 353.878C400.3 353.758 400.3 353.275 400.5 353.154L407.6 347.846C407.8 347.726 408.1 347.726 408.3 347.846L415.4 352.913C415.6 353.034 415.6 353.516 415.4 353.637L408.1 358.824C408 358.824 407.7 358.824 407.5 358.704Z" fill="white"/>
<path d="M417.8 365.821L410.8 360.996C410.6 360.875 410.6 360.393 410.8 360.272L417.9 354.964C418.1 354.843 418.4 354.843 418.6 354.964L425.7 360.031C425.9 360.151 425.9 360.634 425.7 360.755L418.5 365.821C418.3 365.942 418 365.942 417.8 365.821Z" fill="white"/>
<path d="M428 372.939L421 368.113C420.8 367.993 420.8 367.51 421 367.39L428.1 362.082C428.3 361.961 428.6 361.961 428.8 362.082L435.9 367.148C436.1 367.269 436.1 367.751 435.9 367.872L428.6 373.059C428.5 373.059 428.3 373.059 428 372.939Z" fill="white"/>
<path d="M438 379.815L431 374.99C430.8 374.869 430.8 374.386 431 374.266L438.1 368.958C438.3 368.837 438.6 368.837 438.8 368.958L445.9 374.024C446.1 374.145 446.1 374.628 445.9 374.748L438.6 379.936C438.5 380.056 438.2 380.056 438 379.815Z" fill="white"/>
<path d="M448.1 386.812L441.1 381.987C440.9 381.866 440.9 381.383 441.1 381.263L448.2 375.955C448.4 375.834 448.7 375.834 448.9 375.955L456 381.021C456.2 381.142 456.2 381.625 456 381.745L448.7 386.933C448.6 386.933 448.3 386.933 448.1 386.812Z" fill="white"/>
<path d="M344 318.894V320.583C344 320.945 343.8 321.427 343.5 321.548L336.6 326.614C336.4 326.735 336.1 326.735 335.9 326.614L329.1 321.91C328.9 321.789 328.8 321.548 328.8 321.186V319.256L344 318.894Z" fill="#A5A5F2"/>
<path d="M354 325.891V327.218C354 327.58 353.8 328.062 353.5 328.183L346.6 333.37C346.4 333.491 346.1 333.491 345.9 333.37L339.1 328.786C338.9 328.665 338.8 328.424 338.8 328.062V325.77L354 325.891Z" fill="#A5A5F2"/>
<path d="M384.201 346.881V348.57C384.201 348.932 384.001 349.415 383.701 349.535L376.8 354.602C376.6 354.723 376.3 354.723 376.1 354.602L369.3 349.897C369.1 349.777 369 349.535 369 349.173V347.243L384.201 346.881Z" fill="#A5A5F2"/>
<path d="M394.301 353.878V355.567C394.301 355.929 394.101 356.412 393.801 356.532L386.801 361.478C386.601 361.599 386.301 361.599 386.101 361.478L379.401 356.774C379.201 356.653 379.101 356.412 379.101 356.05V354.12L394.301 353.878Z" fill="#A5A5F2"/>
<path d="M404.401 360.875V362.564C404.401 362.926 404.201 363.408 403.901 363.529L397.001 368.596C396.801 368.716 396.501 368.716 396.301 368.596L389.501 363.891C389.301 363.77 389.201 363.529 389.201 363.167V361.237L404.401 360.875Z" fill="#A5A5F2"/>
<path d="M414.7 367.993V369.682C414.7 370.044 414.5 370.526 414.2 370.647L410 377.523C409.8 377.644 409.5 377.644 409.3 377.523L399.7 370.888C399.5 370.767 399.4 370.526 399.4 370.164V368.234L414.7 367.993Z" fill="#A5A5F2"/>
<path d="M398.101 383.313V385.244C398.101 385.485 398.201 385.847 398.401 385.967L405.201 390.672C405.401 390.793 405.701 390.793 405.901 390.672L424.301 377.764C424.601 377.523 424.801 377.161 424.801 376.799V375.11L398.101 383.313Z" fill="#A5A5F2"/>
<path d="M434.801 382.107V383.796C434.801 384.158 434.601 384.64 434.301 384.761L427.401 389.828C427.201 389.948 426.901 389.948 426.701 389.828L419.901 385.123C419.701 385.002 419.601 384.761 419.601 384.399V382.469L434.801 382.107Z" fill="#A5A5F2"/>
<path d="M444.901 389.104V390.793C444.901 391.155 444.701 391.637 444.401 391.758L437.401 396.825C437.201 396.945 436.901 396.945 436.701 396.825L429.901 392.12C429.701 391.999 429.601 391.758 429.601 391.396V389.466L444.901 389.104Z" fill="#A5A5F2"/>
<path d="M335.9 324.564L328.9 319.738C328.7 319.618 328.7 319.135 328.9 319.014L336 313.706C336.2 313.586 336.501 313.586 336.701 313.706L343.8 318.773C344 318.894 344 319.376 343.8 319.497L336.5 324.684C336.4 324.684 336.1 324.684 335.9 324.564Z" fill="white"/>
<path d="M345.8 331.44L338.8 326.614C338.6 326.494 338.6 326.011 338.8 325.891L345.9 320.583C346.1 320.462 346.4 320.462 346.6 320.583L353.7 325.649C353.9 325.77 353.9 326.253 353.7 326.373L346.4 331.561C346.3 331.561 346.1 331.561 345.8 331.44Z" fill="white"/>
<path d="M364.1 333.25V334.577C364.1 334.938 363.9 335.421 363.6 335.542L356.7 340.729C356.5 340.85 356.2 340.85 356 340.729L349.2 336.145C349 336.024 348.9 335.783 348.9 335.421V333.25H364.1Z" fill="#A5A5F2"/>
<path d="M355.9 338.678L348.9 333.853C348.7 333.732 348.7 333.249 348.9 333.129L356 327.821C356.2 327.7 356.501 327.7 356.701 327.821L363.8 332.888C364 333.008 364 333.491 363.8 333.611L356.5 338.799C356.4 338.919 356.1 338.919 355.9 338.678Z" fill="white"/>
<path d="M373.9 340.608L374.1 341.573C374.1 341.935 373.9 342.418 373.6 342.538L366.7 347.726C366.5 347.846 366.2 347.846 366 347.726L359.2 343.142C359 343.021 358.9 342.78 358.9 342.418V340.126L373.9 340.608Z" fill="#A5A5F2"/>
<path d="M365.9 345.796L358.9 340.97C358.7 340.85 358.7 340.367 358.9 340.246L366 334.938C366.2 334.818 366.501 334.818 366.701 334.938L373.8 340.005C374 340.126 374 340.608 373.8 340.729L366.5 345.916C366.4 345.916 366.1 345.916 365.9 345.796Z" fill="white"/>
<path d="M376.101 352.431L369.101 347.605C368.901 347.485 368.901 347.002 369.101 346.881L376.201 341.573C376.401 341.453 376.701 341.453 376.901 341.573L384.001 346.64C384.201 346.761 384.201 347.243 384.001 347.364L376.701 352.551C376.601 352.672 376.301 352.672 376.101 352.431Z" fill="white"/>
<path d="M386.101 359.548L379.101 354.723C378.901 354.602 378.901 354.12 379.101 353.999L386.201 348.691C386.401 348.57 386.701 348.57 386.901 348.691L394.001 353.758C394.201 353.878 394.201 354.361 394.001 354.481L386.701 359.669C386.601 359.669 386.301 359.669 386.101 359.548Z" fill="white"/>
<path d="M396.2 366.545L389.2 361.72C389 361.599 389 361.116 389.2 360.996L396.3 355.688C396.5 355.567 396.8 355.567 397 355.688L404.1 360.754C404.3 360.875 404.3 361.358 404.1 361.478L396.8 366.666C396.7 366.666 396.4 366.666 396.2 366.545Z" fill="white"/>
<path d="M424.7 374.869L407.4 362.685C407.2 362.564 406.9 362.564 406.7 362.685L399.6 367.993C399.4 368.113 399.4 368.596 399.6 368.717L409 375.351L398.3 382.952C398.1 383.072 398.1 383.555 398.3 383.675L405.3 388.501C405.5 388.621 405.8 388.621 406 388.501L424.7 375.593C424.9 375.472 424.9 375.11 424.7 374.869Z" fill="white"/>
<path d="M426.6 387.777L419.6 382.952C419.4 382.831 419.4 382.348 419.6 382.228L426.7 376.92C426.9 376.799 427.2 376.799 427.4 376.92L434.5 381.986C434.7 382.107 434.7 382.59 434.5 382.71L427.2 387.898C427.1 387.898 426.9 387.898 426.6 387.777Z" fill="white"/>
<path d="M436.8 394.774L429.8 389.948C429.6 389.828 429.6 389.345 429.8 389.225L436.9 383.917C437.1 383.796 437.4 383.796 437.6 383.917L444.7 388.983C444.9 389.104 444.9 389.587 444.7 389.707L437.5 394.774C437.3 394.895 437 394.895 436.8 394.774Z" fill="white"/>
<path d="M332.6 326.615V328.304C332.6 328.665 332.4 329.148 332.1 329.269L325.2 334.335C325 334.456 324.7 334.456 324.5 334.335L317.7 329.631C317.5 329.51 317.4 329.269 317.4 328.907V326.977L332.6 326.615Z" fill="#A5A5F2"/>
<path d="M342.6 333.732V335.059C342.6 335.421 342.4 335.904 342.1 336.024L335.2 341.212C335 341.332 334.7 341.332 334.5 341.212L327.7 336.627C327.5 336.507 327.4 336.265 327.4 335.904V333.611L342.6 333.732Z" fill="#A5A5F2"/>
<path d="M363 347.726V349.415C363 349.777 362.8 350.259 362.5 350.38L355.6 355.447C355.4 355.567 355.1 355.567 354.9 355.447L348.1 350.621C347.9 350.501 347.8 350.259 347.8 349.897V347.967L363 347.726Z" fill="#A5A5F2"/>
<path d="M372.801 354.602V356.291C372.801 356.653 372.601 357.136 372.301 357.256L365.401 362.323C365.201 362.444 364.901 362.444 364.701 362.323L357.901 357.618C357.701 357.497 357.601 357.256 357.601 356.894V354.964L372.801 354.602Z" fill="#A5A5F2"/>
<path d="M382.801 361.599V363.288C382.801 363.65 382.601 364.132 382.301 364.253L375.301 369.199C375.101 369.32 374.801 369.32 374.601 369.199L367.901 364.494C367.701 364.374 367.601 364.132 367.601 363.771V361.84L382.801 361.599Z" fill="#A5A5F2"/>
<path d="M392.901 368.596V370.285C392.901 370.647 392.701 371.129 392.401 371.25L385.501 376.317C385.301 376.437 385.001 376.437 384.801 376.317L378.001 371.612C377.801 371.491 377.701 371.25 377.701 370.888V368.958L392.901 368.596Z" fill="#A5A5F2"/>
<path d="M403.201 375.834V377.523C403.201 377.885 403.001 378.367 402.701 378.488L395.8 383.555C395.6 383.675 395.3 383.675 395.1 383.555L388.3 378.85C388.1 378.729 388 378.488 388 378.126V376.196L403.201 375.834Z" fill="#A5A5F2"/>
<path d="M423.301 389.828V391.517C423.301 391.879 423.101 392.361 422.801 392.482L415.901 397.549C415.701 397.669 415.401 397.669 415.201 397.549L408.401 392.844C408.201 392.723 408.101 392.482 408.101 392.12V390.19L423.301 389.828Z" fill="#A5A5F2"/>
<path d="M433.501 396.945V398.634C433.501 398.996 433.301 399.479 433.001 399.599L426.001 404.666C425.801 404.787 425.501 404.787 425.301 404.666L418.501 399.961C418.301 399.841 418.201 399.599 418.201 399.238V397.307L433.501 396.945Z" fill="#A5A5F2"/>
<path d="M324.4 332.285L317.4 327.459C317.2 327.338 317.2 326.856 317.4 326.735L324.5 321.427C324.7 321.307 325.001 321.307 325.201 321.427L332.3 326.494C332.5 326.615 332.5 327.097 332.3 327.218L325 332.405C324.9 332.526 324.6 332.526 324.4 332.285Z" fill="white"/>
<path d="M334.4 339.161L327.4 334.335C327.2 334.215 327.2 333.732 327.4 333.611L334.5 328.303C334.7 328.183 335.001 328.183 335.201 328.303L342.3 333.37C342.5 333.491 342.5 333.973 342.3 334.094L335 339.281C334.9 339.402 334.6 339.402 334.4 339.161Z" fill="white"/>
<path d="M352.801 340.97V342.297C352.801 342.659 352.601 343.142 352.301 343.262L345.401 348.45C345.201 348.57 344.901 348.57 344.701 348.45L337.901 343.866C337.701 343.745 337.601 343.504 337.601 343.142V340.85L352.801 340.97Z" fill="#A5A5F2"/>
<path d="M344.601 346.399L337.601 341.573C337.401 341.453 337.401 340.97 337.601 340.85L344.701 335.542C344.901 335.421 345.201 335.421 345.401 335.542L352.501 340.608C352.701 340.729 352.701 341.212 352.501 341.332L345.201 346.52C345.101 346.64 344.901 346.64 344.601 346.399Z" fill="white"/>
<path d="M354.8 353.396L347.8 348.57C347.6 348.45 347.6 347.967 347.8 347.847L354.9 342.539C355.1 342.418 355.4 342.418 355.6 342.539L362.7 347.605C362.9 347.726 362.9 348.208 362.7 348.329L355.4 353.516C355.3 353.637 355 353.637 354.8 353.396Z" fill="white"/>
<path d="M364.601 360.272L357.601 355.447C357.401 355.326 357.401 354.843 357.601 354.723L364.701 349.415C364.901 349.294 365.201 349.294 365.401 349.415L372.501 354.482C372.701 354.602 372.701 355.085 372.501 355.205L365.201 360.393C365.101 360.393 364.801 360.393 364.601 360.272Z" fill="white"/>
<path d="M374.7 367.39L367.7 362.564C367.5 362.444 367.5 361.961 367.7 361.84L374.8 356.532C375 356.412 375.3 356.412 375.5 356.532L382.6 361.599C382.8 361.72 382.8 362.202 382.6 362.323L375.3 367.51C375.2 367.51 374.9 367.51 374.7 367.39Z" fill="white"/>
<path d="M384.8 374.386L377.8 369.561C377.6 369.44 377.6 368.958 377.8 368.837L384.9 363.529C385.1 363.409 385.4 363.409 385.6 363.529L392.7 368.596C392.9 368.717 392.9 369.199 392.7 369.32L385.4 374.507C385.3 374.507 385 374.507 384.8 374.386Z" fill="white"/>
<path d="M395.101 381.504L388.101 376.679C387.901 376.558 387.901 376.075 388.101 375.955L395.201 370.647C395.401 370.526 395.701 370.526 395.901 370.647L403.001 375.713C403.201 375.834 403.201 376.317 403.001 376.437L395.701 381.625C395.601 381.745 395.301 381.745 395.101 381.504Z" fill="white"/>
<path d="M415.2 395.498L408.2 390.672C408 390.552 408 390.069 408.2 389.949L415.3 384.641C415.5 384.52 415.8 384.52 416 384.641L423.1 389.707C423.3 389.828 423.3 390.31 423.1 390.431L415.8 395.618C415.7 395.739 415.4 395.739 415.2 395.498Z" fill="white"/>
<path d="M425.3 402.495L418.3 397.669C418.1 397.549 418.1 397.066 418.3 396.945L425.4 391.637C425.6 391.517 425.9 391.517 426.1 391.637L433.2 396.704C433.4 396.825 433.4 397.307 433.2 397.428L425.9 402.615C425.8 402.736 425.6 402.736 425.3 402.495Z" fill="white"/>
<path d="M321.3 334.697V336.386C321.3 336.748 321.1 337.23 320.8 337.351L313.9 342.418C313.7 342.538 313.4 342.538 313.2 342.418L306.4 337.713C306.2 337.592 306.1 337.351 306.1 336.989V335.059L321.3 334.697Z" fill="#A5A5F2"/>
<path d="M331.3 341.815V343.142C331.3 343.504 331.1 343.986 330.8 344.107L323.9 349.294C323.7 349.415 323.4 349.415 323.2 349.294L316.4 344.71C316.2 344.589 316.1 344.348 316.1 343.986V341.694L331.3 341.815Z" fill="#A5A5F2"/>
<path d="M392 383.796V385.485C392 385.847 391.8 386.329 391.5 386.45L384.6 391.517C384.4 391.637 384.1 391.637 383.9 391.517L326.6 351.707C326.4 351.586 326.3 351.345 326.3 350.983V349.053L392 383.796Z" fill="#A5A5F2"/>
<path d="M402.2 391.034V392.723C402.2 393.085 402 393.568 401.7 393.688L394.7 398.755C394.5 398.876 394.2 398.876 394 398.755L387.2 394.05C387 393.929 386.9 393.688 386.9 393.326V391.396L402.2 391.034Z" fill="#A5A5F2"/>
<path d="M412.1 397.91V399.599C412.1 399.961 411.9 400.444 411.6 400.564L404.7 405.631C404.5 405.752 404.2 405.752 404 405.631L397.2 400.926C397 400.806 396.9 400.564 396.9 400.202V398.272L412.1 397.91Z" fill="#A5A5F2"/>
<path d="M422.2 404.907V406.596C422.2 406.958 422 407.441 421.7 407.561L414.7 412.628C414.5 412.749 414.2 412.749 414 412.628L407.2 407.923C407 407.803 406.9 407.561 406.9 407.199V405.269L422.2 404.907Z" fill="#A5A5F2"/>
<path d="M313.2 340.367L306.2 335.542C306 335.421 306 334.938 306.2 334.818L313.3 329.51C313.5 329.389 313.8 329.389 314 329.51L321.1 334.577C321.3 334.697 321.3 335.18 321.1 335.3L313.8 340.488C313.7 340.488 313.4 340.488 313.2 340.367Z" fill="white"/>
<path d="M323.1 347.243L316.1 342.418C315.9 342.297 315.9 341.815 316.1 341.694L323.2 336.386C323.4 336.265 323.7 336.265 323.9 336.386L331 341.453C331.2 341.573 331.2 342.056 331 342.177L323.7 347.364C323.6 347.364 323.3 347.364 323.1 347.243Z" fill="white"/>
<path d="M383.8 389.466L326.4 349.535C326.2 349.415 326.2 348.932 326.4 348.812L333.5 343.504C333.7 343.383 334.001 343.383 334.201 343.504L391.8 383.555C392 383.675 392 384.158 391.8 384.279L384.5 389.466C384.3 389.587 384 389.587 383.8 389.466Z" fill="white"/>
<path d="M394 396.704L387 391.879C386.8 391.758 386.8 391.275 387 391.155L394.1 385.847C394.3 385.726 394.6 385.726 394.8 385.847L401.9 390.914C402.1 391.034 402.1 391.517 401.9 391.637L394.6 396.825C394.5 396.825 394.2 396.825 394 396.704Z" fill="white"/>
<path d="M403.9 403.58L396.9 398.755C396.7 398.634 396.7 398.152 396.9 398.031L404 392.723C404.2 392.602 404.5 392.602 404.7 392.723L411.8 397.79C412 397.91 412 398.393 411.8 398.514L404.5 403.701C404.4 403.701 404.1 403.701 403.9 403.58Z" fill="white"/>
<path d="M414.1 410.577L407.1 405.752C406.9 405.631 406.9 405.149 407.1 405.028L414.2 399.72C414.4 399.599 414.7 399.599 414.9 399.72L422 404.787C422.2 404.907 422.2 405.39 422 405.511L414.7 410.698C414.6 410.698 414.3 410.698 414.1 410.577Z" fill="white"/>
<mask id="mask1_87_14061" style="mask-type:luminance" maskUnits="userSpaceOnUse" x="62" y="324" width="35" height="61">
<path d="M62.1 384.761L62 347.846L96.2 324.081L96.3 360.996L62.1 384.761Z" fill="white"/>
</mask>
<g mask="url(#mask1_87_14061)">
<path d="M63.1001 378.971C63.3001 379.091 63.5001 379.332 63.7001 379.332L63.1001 378.971ZM89.8001 328.545L66.3001 344.951C64.0001 346.64 62.1001 350.5 62.1001 353.758L62.2001 375.834C62.2001 377.04 62.5001 378.005 62.9001 378.609L64.4001 375.472V355.326C64.4001 352.069 66.3001 348.088 68.6001 346.519L92.1001 330.113L92.7001 328.183L93.1001 328.424C92.2001 327.7 91.0001 327.7 89.8001 328.545Z" fill="#FF2C9C"/>
<path d="M92.6 328.062L92 329.992C93 329.268 94 329.148 94.7 329.51L93 328.303L92.6 328.062Z" fill="#FF2C9C"/>
<path d="M64.3003 375.472L62.8003 378.609V378.729L63.1003 378.97L63.7003 379.332L65.2003 380.297C64.7003 379.694 64.3003 378.729 64.3003 377.402V375.472Z" fill="#FF2C9C"/>
<path d="M68.5003 349.535L92.0003 333.129C93.1003 332.405 94.0003 333.008 94.0003 334.577L94.1003 356.653C94.1003 358.221 93.2003 360.031 92.1003 360.875L68.5003 377.282C67.4003 378.126 66.5003 377.402 66.5003 375.834L66.4003 353.758C66.4003 352.189 67.3003 350.259 68.5003 349.535ZM92.0003 330.113L68.5003 346.519C66.2003 348.208 64.3003 352.069 64.3003 355.326V375.472V377.402C64.3003 378.729 64.6003 379.694 65.2003 380.298C66.0003 381.142 67.2003 381.263 68.6003 380.298L92.1003 363.891C94.4003 362.202 96.3003 358.342 96.3003 355.085L96.2003 333.008C96.2003 331.199 95.6003 329.992 94.7003 329.51C94.0003 329.269 93.0003 329.389 92.0003 330.113Z" fill="#FFAEE0"/>
<path d="M80.3 360.754C80 360.996 79.7 360.996 79.5 360.875C79.3 360.754 79.2 360.513 79.2 360.031C79.2 359.548 79.3 359.186 79.5 358.824C79.7 358.462 79.9 358.221 80.3 357.98C80.6 357.739 80.9 357.739 81.1 357.859C81.3 357.98 81.4 358.221 81.4 358.704C81.4 359.186 81.3 359.548 81.1 359.91C80.8 360.272 80.6 360.513 80.3 360.754ZM79.5 357.135L79.2 349.415L81.2 347.967L80.9 356.17L79.5 357.135ZM68.5 349.535C67.4 350.38 66.5 352.189 66.5 353.758L66.6 375.834C66.6 377.402 67.5 378.005 68.6 377.282L92.1 360.875C93.2 360.151 94.1 358.221 94.1 356.653C94 356.653 92.9 337.592 92.9 337.592C92.9 336.024 92 335.421 90.9 336.145C90.8 336.265 67.4 350.259 68.5 349.535Z" fill="#FF2C9C"/>
<path d="M92 333.129L68.5 349.535C67.4 350.259 90.8 336.265 90.8 336.265C91.9 335.421 92.8 336.145 92.8 337.713L94 356.773L93.9 334.697C94 333.008 93.1 332.405 92 333.129Z" fill="#D81A87"/>
<path d="M80.3002 357.98C80.0002 358.221 79.7002 358.462 79.5002 358.824C79.3002 359.186 79.2002 359.548 79.2002 360.031C79.2002 360.513 79.3002 360.754 79.5002 360.875C79.7002 360.996 79.9002 360.875 80.3002 360.754C80.6002 360.513 80.9002 360.272 81.1002 359.91C81.3002 359.548 81.4002 359.186 81.4002 358.704C81.4002 358.221 81.3002 357.98 81.1002 357.859C80.8002 357.739 80.6002 357.739 80.3002 357.98ZM81.3002 347.967L79.3002 349.415L79.6002 357.135L81.0002 356.17L81.3002 347.967Z" fill="white"/>
</g>
<mask id="mask2_87_14061" style="mask-type:luminance" maskUnits="userSpaceOnUse" x="0" y="310" width="35" height="62">
<path d="M0.0999985 371.25L0 334.456L34.2 310.57L34.3 347.485L0.0999985 371.25Z" fill="white"/>
</mask>
<g mask="url(#mask2_87_14061)">
<path d="M1.1001 365.459C1.3001 365.58 1.5001 365.701 1.7001 365.821L1.1001 365.459ZM27.8001 315.154L4.3001 331.561C2.0001 333.25 0.100098 337.11 0.100098 340.367L0.200096 362.444C0.200096 363.65 0.500101 364.615 0.900101 365.218L2.4001 362.082V341.935C2.4001 338.678 4.30011 334.697 6.60011 333.129L30.1001 316.722L30.7001 314.792L31.1001 315.034C30.3001 314.189 29.1001 314.189 27.8001 315.154Z" fill="#42E8E0"/>
<path d="M30.6 314.672L30 316.602C31 315.878 31.9 315.757 32.7 316.119L31 314.913L30.6 314.672Z" fill="#42E8E0"/>
<path d="M2.30029 361.961L0.800293 365.097V365.218L1.10029 365.459L1.70029 365.821L3.20029 366.786C2.70029 366.183 2.30029 365.218 2.30029 363.77V361.961Z" fill="#42E8E0"/>
<path d="M6.50029 336.024L30.0003 319.618C31.1003 318.773 32.0003 319.497 32.0003 321.065L32.1003 343.142C32.1003 344.71 31.2003 346.64 30.1003 347.364L6.6003 363.77C5.5003 364.494 4.60029 363.891 4.60029 362.323L4.50029 340.246C4.50029 338.678 5.40029 336.869 6.50029 336.024ZM30.0003 316.602L6.50029 333.008C4.20029 334.697 2.30029 338.558 2.30029 341.815V361.961V363.891C2.30029 365.218 2.60029 366.183 3.20029 366.907C4.00029 367.751 5.2003 367.872 6.6003 366.907L30.1003 350.501C32.4003 348.812 34.3003 344.951 34.3003 341.694L34.2003 319.618C34.2003 317.808 33.6003 316.602 32.6003 316.119C32.0003 315.757 31.0003 315.878 30.0003 316.602Z" fill="#CAFFF9"/>
<path d="M14.6 350.259L22.2 344.951V343.262C22.2 342.659 22.6 341.935 22.9 341.573C23.4 341.212 23.7 341.453 23.7 342.177V345.072C23.7 345.675 23.3 346.399 22.9 346.761L13.8 353.034C13.3 353.396 13 353.154 13 352.431V349.535C13 348.932 13.4 348.208 13.8 347.847C14.2 347.485 14.6 347.847 14.6 348.45V350.259ZM18.3 346.158C18.2 346.278 18.1 346.278 18.1 346.278L15.3 344.348C15.2 344.227 15.2 344.107 15.2 343.986C15.3 343.624 15.4 343.624 15.5 343.504L16.8 342.539V335.421C16.8 334.938 17.1 334.335 17.4 334.094L19.2 332.888C19.5 332.646 19.7 332.888 19.7 333.37V340.488L21 339.523C21.1 339.402 21.2 339.402 21.3 339.643C21.3 339.764 21.3 339.885 21.2 340.126L18.4 345.916C18.5 345.916 18.4 346.037 18.3 346.158ZM6.5 336.024C5.4 336.748 4.5 338.678 4.5 340.246L4.6 362.323C4.6 363.891 5.50001 364.494 6.60001 363.77L30.1 347.364C31.2 346.64 32.1 344.71 32.1 343.142C32 343.142 30.9 324.081 30.9 324.081C30.9 322.513 30 321.91 28.9 322.634C28.8 322.754 5.4 336.748 6.5 336.024Z" fill="#42E8E0"/>
<path d="M30 319.618L6.5 336.024C5.4 336.748 28.8 322.754 28.8 322.754C29.9 321.91 30.8 322.634 30.8 324.202L32 343.262L31.9 321.186C32.1 319.497 31.1 318.894 30 319.618Z" fill="#1FC1B5"/>
<path d="M22.7999 341.574C22.3999 341.815 22.0999 342.539 22.0999 343.262V344.951L14.4999 350.259V348.57C14.4999 347.967 14.0999 347.726 13.6999 347.967C13.1999 348.329 12.8999 349.053 12.8999 349.656V352.551C12.8999 353.155 13.2999 353.396 13.6999 353.155L22.7999 346.881C23.2999 346.52 23.5999 345.796 23.5999 345.193V342.297C23.6999 341.574 23.2999 341.332 22.7999 341.574ZM19.1999 332.888L17.3999 334.094C16.9999 334.335 16.7999 334.939 16.7999 335.421V342.539L15.4999 343.504C15.3999 343.624 15.2999 343.624 15.1999 343.986C15.1999 344.107 15.1999 344.228 15.2999 344.348L18.0999 346.278C18.0999 346.278 18.1999 346.278 18.2999 346.158C18.3999 346.037 18.4999 346.037 18.4999 345.916L21.2999 340.126C21.3999 339.885 21.3999 339.764 21.3999 339.643C21.2999 339.402 21.1999 339.523 21.0999 339.523L19.7999 340.488V333.37C19.7999 332.888 19.4999 332.646 19.1999 332.888Z" fill="#FEFEFE"/>
</g>
<mask id="mask3_87_14061" style="mask-type:luminance" maskUnits="userSpaceOnUse" x="81" y="239" width="35" height="62">
<path d="M81.4999 300.195L81.3999 263.401L115.6 239.515L115.7 276.43L81.4999 300.195Z" fill="white"/>
</mask>
<g mask="url(#mask3_87_14061)">
<path d="M82.5 294.405C82.7 294.525 82.9 294.646 83.1 294.767L82.5 294.405ZM109.2 243.979L85.7 260.385C83.4 262.074 81.5 265.935 81.5 269.192L81.6 291.268C81.6 292.475 81.9 293.44 82.3 294.043L83.8 290.906V270.76C83.8 267.503 85.7 263.522 88 261.954L111.5 245.547L112.1 243.617L112.5 243.858C111.6 243.134 110.5 243.134 109.2 243.979Z" fill="#A5A5F2"/>
<path d="M112 243.496L111.4 245.427C112.4 244.703 113.4 244.582 114.1 244.944L112.4 243.738L112 243.496Z" fill="#A5A5F2"/>
<path d="M83.7002 290.906L82.2002 294.043V294.163L82.5002 294.405L83.1002 294.767L84.6002 295.732C84.1002 295.129 83.7002 294.163 83.7002 292.716V290.906Z" fill="#A5A5F2"/>
<path d="M87.9002 264.97L111.4 248.563C112.5 247.719 113.4 248.442 113.4 250.011L113.5 272.087C113.5 273.655 112.6 275.586 111.5 276.309L88.0002 292.716C86.9002 293.56 86.0002 292.837 86.0002 291.268L85.9002 269.192C85.9002 267.624 86.8002 265.693 87.9002 264.97ZM111.4 245.547L87.9002 261.954C85.6002 263.643 83.7002 267.503 83.7002 270.76V290.906V292.837C83.7002 294.164 84.0002 295.129 84.6002 295.852C85.4002 296.697 86.6002 296.818 88.0002 295.852L111.5 279.446C113.8 277.757 115.7 273.897 115.7 270.639L115.6 248.563C115.6 247.115 115.2 246.15 114.6 245.547C114.4 245.427 114.3 245.306 114.1 245.185C113.4 244.703 112.5 244.823 111.4 245.547Z" fill="#DEDEFC"/>
<path d="M99.6999 275.947C99.4999 276.068 99.1999 275.947 99.1999 275.465V274.62C98.8999 274.62 98.5999 274.379 98.5999 273.776C98.5999 273.052 99.0999 271.966 99.5999 271.604C100.1 271.243 100.6 271.484 100.6 272.328C100.6 272.932 100.4 273.414 100.1 273.897V274.741C100.3 275.224 99.9999 275.706 99.6999 275.947ZM102.8 268.106L96.5999 272.449V279.566L102.8 275.224V268.106ZM99.6999 263.884C98.5999 264.608 97.5999 266.538 97.5999 268.227V270.277L101.7 267.382V265.331C101.7 263.643 100.9 263.039 99.6999 263.884ZM96.5999 281.014C95.9999 281.376 95.5999 281.135 95.5999 280.29V273.173C95.5999 272.449 96.0999 271.363 96.5999 271.001V268.951C96.5999 266.538 97.9999 263.643 99.6999 262.557C101.4 261.35 102.8 262.316 102.8 264.728V266.779C103.4 266.417 103.8 266.658 103.8 267.503V274.62C103.8 275.344 103.3 276.43 102.8 276.792L96.5999 281.014ZM87.8999 264.97C86.7999 265.814 85.8999 267.624 85.8999 269.192L85.9999 291.268C85.9999 292.836 86.8999 293.44 87.9999 292.716L111.5 276.309C112.6 275.585 113.5 273.655 113.5 272.087C113.4 272.087 112.3 253.027 112.3 253.027C112.3 251.458 111.4 250.855 110.3 251.579C110.2 251.7 86.7999 265.693 87.8999 264.97Z" fill="#A5A5F2"/>
<path d="M111.4 248.563L87.8999 264.97C86.7999 265.693 110.2 251.7 110.2 251.7C111.3 250.855 112.2 251.579 112.2 253.147L113.4 272.208L113.5 250.011C113.5 248.442 112.5 247.839 111.4 248.563Z" fill="#4343C4"/>
<path d="M99.7001 271.725C99.1001 272.087 98.7001 273.052 98.7001 273.897C98.7001 274.5 98.9001 274.741 99.3001 274.741V275.586C99.3001 276.068 99.5001 276.189 99.8001 276.068C100.1 275.827 100.3 275.344 100.3 274.862V274.017C100.6 273.535 100.8 273.052 100.8 272.449C100.7 271.605 100.2 271.243 99.7001 271.725ZM96.6001 279.567V272.449L102.8 268.106V275.224L96.6001 279.567ZM97.6001 270.278V268.227C97.6001 266.538 98.5001 264.728 99.7001 263.884C100.9 263.039 101.8 263.643 101.8 265.332V267.382L97.6001 270.278ZM99.7001 262.436C98.0001 263.643 96.6001 266.417 96.6001 268.83V270.881C96.0001 271.243 95.6001 272.208 95.6001 273.052V280.17C95.6001 280.894 96.1001 281.255 96.6001 280.894L102.8 276.551C103.4 276.189 103.8 275.224 103.8 274.379V267.262C103.8 266.538 103.3 266.176 102.8 266.538V264.487C102.8 262.195 101.4 261.23 99.7001 262.436Z" fill="white"/>
</g>
<mask id="mask4_87_14061" style="mask-type:luminance" maskUnits="userSpaceOnUse" x="297" y="0" width="225" height="408">
<path d="M297 251.338L297.6 0.414795L521.4 156.156L520.8 407.199L297 251.338Z" fill="white"/>
</mask>
<g mask="url(#mask4_87_14061)">
<path d="M448.5 113.571L350 44.9294C347 42.8786 341.5 49.0311 341.2 49.393C341.9 48.9104 342.9 48.9104 344.1 49.6343L448.5 122.498V113.571ZM517.4 161.584L474 131.305V140.232L510.7 165.807C512.9 167.375 514.6 170.994 514.6 174.01L514.3 314.913V331.319C514.3 333.25 513.6 334.456 512.5 334.697C513.3 334.577 521.1 333.973 521.1 331.078L521.5 169.908C521.3 166.772 519.6 163.032 517.4 161.584Z" fill="#A5A5F2"/>
<path d="M510.7 165.686L474 140.232V149.762L510.3 175.096L510 302.487L344.2 187.039L344.5 59.6471L448.5 132.029V122.498L344.1 49.7549C343 49.0311 342 48.9105 341.2 49.5136C340.5 49.9962 340.1 51.0819 340.1 52.5295L339.8 193.432L514.2 314.913L514.5 174.01C514.6 170.873 512.8 167.254 510.7 165.686Z" fill="#0F054C"/>
<path d="M452.4 293.56L448 290.544L450.8 316.843L450.6 316.964L424.3 336.145L378.8 304.418V308.278L426.3 341.332L454.7 318.653L452.4 293.56Z" fill="#6464DD"/>
<path d="M450.6 316.964L405.9 285.84L378.8 304.418L424.3 336.145L450.6 316.964Z" fill="#E6F5F9"/>
<path d="M448 290.544L410.7 264.608L406.1 285.719L405.9 285.84L450.6 316.964L450.8 316.843L448 290.544Z" fill="#A5A5F2"/>
<path d="M514.2 314.913L339.8 193.432V209.839C339.8 212.855 341.5 216.474 343.7 218.042L410.7 264.728L447.9 290.665L452.3 293.681L510.2 333.973C511 334.456 511.7 334.697 512.3 334.577C513.4 334.335 514.1 333.129 514.1 331.199L514.2 314.913Z" fill="#E6F5F9"/>
<path d="M350.1 184.626V179.68L353.7 182.213V187.159L350.1 184.626ZM357.7 189.934V184.988L371.5 194.639V199.585L357.7 189.934ZM350.1 176.785V171.839L353.7 174.372V179.318L350.1 176.785ZM357.7 182.093V177.147L380.7 193.191V198.137L357.7 182.093ZM350.1 168.943V163.997L353.7 166.531V171.477L350.1 168.943ZM364.2 178.715V173.769L417.8 211.045V215.991L364.2 178.715ZM350.2 161.102V156.156L353.8 158.689V163.635L350.2 161.102ZM357.7 166.41V161.464L400.5 191.261V196.207L357.7 166.41ZM350.2 153.261V148.315L353.8 150.848V155.794L350.2 153.261ZM364.2 163.032V158.086L391.8 177.388V182.334L364.2 163.032ZM350.2 140.473L353.8 143.007V147.953L350.2 145.419V140.473ZM357.8 150.727V145.781L371.6 155.432V160.378L357.8 150.727ZM350.2 137.578V132.632L353.8 135.165V140.111L350.2 137.578ZM357.8 142.886V137.94L380.8 153.984V158.931L357.8 142.886ZM350.2 129.857V124.911L353.8 127.445V132.391L350.2 129.857ZM364.3 139.629V134.683L417.9 171.959V176.905L364.3 139.629ZM350.3 122.016V117.07L353.9 119.603V124.549L350.3 122.016ZM357.8 127.324V122.378L400.6 152.175V157.121L357.8 127.324ZM350.3 114.175V109.229L353.9 111.762V116.708L350.3 114.175ZM364.3 123.946V119L391.9 138.302V143.248L364.3 123.946ZM350.3 106.333V101.387L353.9 103.921V108.867L350.3 106.333ZM357.9 111.641V106.695L426.7 154.588V159.534L357.9 111.641ZM437.6 166.41V154.588L446.1 160.499V172.321L437.6 166.41ZM350.3 98.4919V93.5459L353.9 96.0792V101.025L350.3 98.4919ZM357.9 103.8V98.8538L400.7 128.651V133.597L357.9 103.8ZM350.3 90.6506V85.7045L353.9 88.2379V93.1839L350.3 90.6506ZM364.4 100.422V95.476L410.5 127.565V132.511L364.4 100.422ZM350.3 82.8092V77.8632L353.9 80.3965V85.3426L350.3 82.8092ZM357.9 88.1172V83.1711L406.1 116.708V121.654L357.9 88.1172ZM425.6 137.216V122.74L436 129.978V144.454L425.6 137.216ZM350.4 74.9679V70.0218L354 72.5552V77.5013L350.4 74.9679ZM358 80.2759V75.3298L395.4 101.387V106.333L358 80.2759ZM510.3 174.975L474 149.642V158.448L448.5 140.835V132.029L344.5 59.5265L344.2 186.918L510 302.367L510.3 174.975Z" fill="#1C157A"/>
<path d="M353.9 72.5551L350.4 70.0217V74.9678L353.9 77.5012V72.5551Z" fill="#FF2C9C"/>
<path d="M395.4 101.387L358 75.3297V80.2758L395.4 106.333V101.387Z" fill="white"/>
<path d="M353.9 80.3965L350.4 77.8632L350.3 82.8092L353.9 85.3426V80.3965Z" fill="#FF2C9C"/>
<path d="M406.2 116.708L357.9 83.1711V88.1172L406.2 121.654V116.708Z" fill="#42E8E0"/>
<path d="M353.9 88.2378L350.3 85.7045V90.6505L353.9 93.1839V88.2378Z" fill="#FF2C9C"/>
<path d="M410.5 127.565L364.4 95.476V100.422L410.4 132.511L410.5 127.565Z" fill="white"/>
<path d="M353.9 96.0791L350.3 93.5458V98.4918L353.9 101.025V96.0791Z" fill="#FF2C9C"/>
<path d="M400.7 128.651L357.9 98.8538V103.8L400.7 133.597V128.651Z" fill="#42E8E0"/>
<path d="M353.9 103.8L350.3 101.387V106.333L353.9 108.867V103.8Z" fill="#FF2C9C"/>
<path d="M426.7 154.588L357.9 106.695V111.641L426.7 159.534V154.588Z" fill="white"/>
<path d="M353.9 111.641L350.3 109.229V114.175L353.8 116.587L353.9 111.641Z" fill="#FF2C9C"/>
<path d="M392 138.181L364.3 119V123.946L392 143.248V138.181Z" fill="#42E8E0"/>
<path d="M353.8 119.483L350.3 117.07V122.016L353.8 124.429V119.483Z" fill="#FF2C9C"/>
<path d="M400.7 152.175L357.9 122.257L357.8 127.324L400.7 157.121V152.175Z" fill="#42E8E0"/>
<path d="M353.8 127.324L350.2 124.911V129.857L353.8 132.27V127.324Z" fill="#FF2C9C"/>
<path d="M417.9 171.959L364.3 134.683V139.629L417.9 176.905V171.959Z" fill="white"/>
<path d="M353.8 135.165L350.2 132.632V137.578L353.8 140.111V135.165Z" fill="#FF2C9C"/>
<path d="M380.8 153.984L357.8 137.94V142.886L380.8 158.93V153.984Z" fill="#42E8E0"/>
<path d="M371.6 155.432L357.8 145.781V150.727L371.6 160.378V155.432Z" fill="white"/>
<path d="M353.8 143.007L350.2 140.473V145.419L353.8 147.953V143.007Z" fill="#FF2C9C"/>
<path d="M353.8 150.848L350.2 148.315V153.261L353.8 155.794V150.848Z" fill="#FF2C9C"/>
<path d="M391.9 177.388L364.2 158.086V163.032L391.9 182.334V177.388Z" fill="white"/>
<path d="M353.7 158.689L350.2 156.156V161.102L353.7 163.635V158.689Z" fill="#FF2C9C"/>
<path d="M400.6 191.261L357.8 161.464L357.7 166.41L400.6 196.207V191.261Z" fill="#42E8E0"/>
<path d="M353.7 166.531L350.2 163.997L350.1 168.943L353.7 171.477V166.531Z" fill="#FF2C9C"/>
<path d="M417.8 211.166L364.2 173.769V178.715L417.8 216.112V211.166Z" fill="white"/>
<path d="M353.7 174.251L350.1 171.839V176.785L353.7 179.318V174.251Z" fill="#FF2C9C"/>
<path d="M380.8 193.191L357.7 177.147V182.093L380.7 198.137L380.8 193.191Z" fill="#42E8E0"/>
<path d="M353.7 182.093L350.1 179.68V184.626L353.7 187.039V182.093Z" fill="#FF2C9C"/>
<path d="M371.5 194.518L357.7 184.988V189.934L371.5 199.464V194.518Z" fill="#42E8E0"/>
<path d="M333.8 81.7235L323.8 74.7266V88.7203L333.8 95.7172V81.7235Z" fill="white"/>
<path d="M315.2 55.6661L297.5 43.3612V67.8503L315.1 80.1552L315.2 55.6661Z" fill="#42E8E0"/>
<path d="M325.7 95.3553L308.7 83.533L308.6 107.057L325.6 118.879L325.7 95.3553Z" fill="#FF2C9C"/>
<path d="M436.1 129.978L425.7 122.74L425.6 137.216L436.1 144.454V129.978Z" fill="white"/>
<path d="M446.1 160.619L437.6 154.588V166.41L446.1 172.321V160.619Z" fill="#FF2C9C"/>
<path d="M474 123.222L448.6 105.489L448.5 113.571V122.498V132.029V140.835L473.9 158.448V149.762L474 140.232V131.305V123.222Z" fill="#42E8E0"/>
</g>
<mask id="mask5_87_14061" style="mask-type:luminance" maskUnits="userSpaceOnUse" x="502" y="91" width="36" height="62">
<path d="M502.9 128.651L503 91.7363L537.2 115.502L537.1 152.416L502.9 128.651Z" fill="white"/>
</mask>
<g mask="url(#mask5_87_14061)">
<path d="M536.1 146.626L535.5 146.988C535.7 146.867 535.9 146.746 536.1 146.626ZM532.9 112.606L509.4 96.1998C508.1 95.3554 506.9 95.2347 506.2 95.9585L506.6 95.7173L507.2 97.6474L530.7 114.054C533 115.743 534.9 119.603 534.9 122.86V143.007L536.4 146.143C536.9 145.54 537.1 144.575 537.1 143.369L537.2 121.292C537.2 118.156 535.3 114.295 532.9 112.606Z" fill="#6464DD"/>
<path d="M506.6 95.7173L506.2 95.9586L504.5 97.1649C505.2 96.803 506.2 96.9236 507.2 97.6475L506.6 95.7173Z" fill="#6464DD"/>
<path d="M534.9 143.127V145.057C534.9 146.384 534.6 147.349 534 148.073L535.5 147.108L536.1 146.746L536.4 146.505V146.384L534.9 143.127Z" fill="#6464DD"/>
<path d="M505.1 102.232C505.1 100.663 506 100.06 507.1 100.784L530.6 117.19C531.7 118.035 532.6 119.844 532.6 121.413L532.5 143.489C532.5 145.057 531.6 145.661 530.5 144.937L507 128.53C505.9 127.806 505 125.876 505 124.308L505.1 102.232ZM530.7 114.175L507.2 97.7681C506.2 97.0442 505.2 96.9236 504.5 97.2855C503.6 97.7681 503 98.9744 503 100.784L502.9 122.86C502.9 126.118 504.8 130.099 507.1 131.667L530.6 148.073C532 149.038 533.2 148.918 534 148.073C534.5 147.47 534.9 146.505 534.9 145.057V143.127V122.981C534.9 119.724 533.1 115.743 530.7 114.175Z" fill="#A5A5F2"/>
<path d="M517.4 128.41C516.7 127.927 516.2 127.445 515.9 127.083C515.6 126.6 515.5 126.118 515.5 125.514V123.705C515.5 123.343 515.4 122.981 515.2 122.74C515 122.378 514.7 122.137 514.4 121.895V120.448C514.8 120.689 515 120.81 515.2 120.81C515.4 120.81 515.5 120.568 515.5 120.206V118.276C515.5 117.673 515.6 117.311 515.9 117.311C516.2 117.311 516.7 117.432 517.4 117.914V119.241C517.1 119 516.9 119 516.8 119.121C516.7 119.121 516.6 119.362 516.6 119.603V121.413C516.6 122.137 516.2 122.378 515.6 122.016V122.137C516.3 122.74 516.6 123.343 516.6 124.067V125.876C516.6 126.118 516.6 126.359 516.8 126.6C516.9 126.841 517.1 126.962 517.4 127.203V128.41ZM520.4 130.46V129.133C520.7 129.375 520.9 129.375 521 129.375C521.1 129.375 521.2 129.133 521.2 128.892V127.083V126.962C521.2 126.6 521.3 126.359 521.5 126.359C521.7 126.238 521.9 126.359 522.2 126.479V126.359C521.6 125.756 521.2 125.152 521.2 124.308V122.498C521.2 122.257 521.2 122.016 521 121.775C520.9 121.533 520.7 121.413 520.4 121.171V119.844C520.9 120.206 521.2 120.448 521.5 120.81C521.8 121.051 522 121.413 522.1 121.654C522.2 121.895 522.3 122.378 522.3 122.74V124.67V124.791C522.3 125.152 522.4 125.394 522.6 125.756C522.8 125.997 523.1 126.359 523.4 126.6V128.048C523 127.806 522.8 127.686 522.6 127.686C522.4 127.686 522.3 127.927 522.3 128.289V130.099C522.3 130.581 522.2 130.822 522.1 130.943C522 131.064 521.8 131.064 521.5 131.064C521.2 130.943 520.9 130.822 520.4 130.46ZM530.7 117.19C531.8 117.914 508.4 103.921 508.4 103.921C507.3 103.076 506.4 103.8 506.4 105.368L505.2 124.429C505.2 125.997 506.1 127.806 507.2 128.651L530.7 145.057C531.8 145.902 532.7 145.178 532.7 143.61L532.8 121.533C532.7 119.844 531.8 117.914 530.7 117.19Z" fill="#6464DD"/>
<path d="M517.4 117.794C516.7 117.311 516.2 117.07 515.9 117.19C515.6 117.19 515.5 117.552 515.5 118.156V120.086C515.5 120.448 515.4 120.568 515.2 120.689C515 120.689 514.7 120.689 514.4 120.327V121.775C514.8 122.016 515 122.257 515.2 122.619C515.4 122.981 515.5 123.222 515.5 123.584V125.394C515.5 125.997 515.6 126.479 515.9 126.962C516.2 127.444 516.7 127.806 517.4 128.289V126.962C517.1 126.721 516.9 126.6 516.8 126.359C516.7 126.117 516.6 125.876 516.6 125.635V123.825C516.6 123.102 516.3 122.498 515.6 121.895V121.775C516.2 122.136 516.6 121.895 516.6 121.171V119.362C516.6 119.121 516.7 118.879 516.8 118.879C516.9 118.759 517.1 118.879 517.4 119V117.794Z" fill="white"/>
<path d="M520.4 119.844V121.171C520.7 121.413 520.9 121.533 521 121.775C521.1 122.016 521.2 122.257 521.2 122.498V124.308C521.2 125.032 521.5 125.756 522.2 126.359V126.479C521.9 126.359 521.6 126.238 521.5 126.359C521.3 126.479 521.2 126.721 521.2 126.962V127.083V128.892C521.2 129.133 521.1 129.375 521 129.375C520.9 129.495 520.7 129.375 520.4 129.133V130.46C520.9 130.822 521.2 130.943 521.5 131.064C521.8 131.184 522 131.064 522.1 130.943C522.2 130.822 522.3 130.46 522.3 130.099V128.289C522.3 127.927 522.4 127.686 522.6 127.686C522.8 127.686 523.1 127.806 523.4 128.048V126.6C523 126.359 522.7 126.118 522.6 125.756C522.4 125.514 522.3 125.152 522.3 124.791V124.67V122.74C522.3 122.257 522.2 121.895 522.1 121.654C522 121.292 521.8 121.051 521.5 120.81C521.2 120.568 520.9 120.206 520.4 119.844Z" fill="white"/>
<path d="M530.7 117.191L507.2 100.784C506.1 99.9396 505.2 100.663 505.2 102.232L505.1 124.308C505.2 124.308 506.3 105.248 506.3 105.248C506.3 103.679 507.2 103.076 508.3 103.8C508.4 103.921 531.8 117.914 530.7 117.191Z" fill="#4343C4"/>
</g>
<mask id="mask6_87_14061" style="mask-type:luminance" maskUnits="userSpaceOnUse" x="459" y="33" width="35" height="62">
<path d="M459 70.625L459.1 33.7103L493.4 57.5963L493.3 94.5109L459 70.625Z" fill="white"/>
</mask>
<g mask="url(#mask6_87_14061)">
<path d="M492.3 88.7204L491.7 89.0823C491.9 88.9617 492.1 88.841 492.3 88.7204ZM489.1 54.5804L465.5 38.1739C464.2 37.3294 463.1 37.3294 462.3 37.9326L462.7 37.6913L463.3 39.6215L486.9 56.028C489.2 57.7169 491.1 61.5773 491.1 64.8344V84.9807L492.6 88.1172C493.1 87.514 493.3 86.5489 493.3 85.3426L493.4 63.2662C493.4 60.2503 491.5 56.2693 489.1 54.5804Z" fill="#A5A5F2"/>
<path d="M462.7 37.6913L462.3 37.9326L460.6 39.1389C461.3 38.777 462.3 39.0183 463.3 39.6215L462.7 37.6913Z" fill="#A5A5F2"/>
<path d="M491.1 85.2219V87.1521C491.1 88.4791 490.8 89.5648 490.2 90.168L491.7 89.2029L492.3 88.841L492.6 88.5997V88.4791L491.1 85.2219Z" fill="#A5A5F2"/>
<path d="M461.3 44.2057C461.3 42.6374 462.2 42.0343 463.3 42.7581L486.9 59.1646C488 60.009 488.9 61.8186 488.9 63.3868L488.8 85.4632C488.8 87.0315 487.9 87.6347 486.8 86.9109L463.2 70.5044C462.1 69.7805 461.2 67.8504 461.2 66.2821L461.3 44.2057ZM486.9 56.1487L463.3 39.7422C462.3 39.0184 461.4 38.8977 460.6 39.2596C459.6 39.6215 459 40.9485 459 42.7581L458.9 64.8345C458.9 68.0916 460.8 72.0726 463.1 73.6409L486.7 90.0474C488.1 91.0125 489.3 90.8918 490.1 90.0474C490.7 89.4442 491 88.4791 491 87.0315V85.1013V64.9551C491.2 61.6979 489.3 57.7169 486.9 56.1487Z" fill="#DEDEFC"/>
<path d="M476.6 68.8155C477.1 69.1774 477.4 69.1774 477.4 68.6948C477.4 68.5742 477.4 68.3329 477.3 68.2123C477.2 68.0917 477.1 67.8504 476.9 67.6091C476.7 67.3678 476.5 67.0059 476.2 66.644C475.8 66.1615 475.5 65.6789 475.3 65.317C475.1 64.9551 475 64.5932 474.9 64.3519C474.8 63.99 474.8 63.6281 474.8 63.2662C474.8 62.5424 475 62.1805 475.4 62.0598C475.8 61.9392 476.3 62.1805 477 62.663C477.7 63.1456 478.3 63.7488 478.9 64.5932L478.4 65.7996C478.1 65.4377 477.9 65.1964 477.6 64.8345C477.4 64.5932 477.1 64.3519 476.9 64.2313C476.5 63.8694 476.2 63.99 476.2 64.2313C476.2 64.4726 476.3 64.5932 476.4 64.8345C476.5 65.0757 476.9 65.4377 477.3 66.0408C477.7 66.5234 478 67.0059 478.2 67.3678C478.4 67.7297 478.5 68.0917 478.6 68.3329C478.7 68.6948 478.7 69.0567 478.7 69.4186C478.7 70.1425 478.5 70.625 478.1 70.7456C477.7 70.8663 477.1 70.625 476.4 70.1425C476 69.9012 475.7 69.5393 475.4 69.298C475.1 69.0567 474.9 68.6948 474.6 68.4536V66.7647C474.9 67.1266 475.2 67.4885 475.5 67.8504C476 68.3329 476.3 68.6948 476.6 68.8155ZM470.9 67.3678C471.2 67.6091 471.5 67.6091 471.6 67.4885C471.7 67.2472 471.8 66.8853 471.8 66.2821V56.9931L473.3 58.0789V67.3678C473.3 68.5742 473.1 69.298 472.7 69.6599C472.3 70.0218 471.8 69.9012 471 69.4186C470.7 69.1774 470.4 68.9361 470.1 68.6948V67.0059C470.5 67.0059 470.7 67.2472 470.9 67.3678ZM486.9 59.1646C488 59.8884 464.5 45.8946 464.5 45.8946C463.4 45.0502 462.5 45.774 462.5 47.3423L461.3 66.4027C461.3 67.971 462.2 69.9012 463.3 70.625L486.9 87.0315C488 87.8759 488.9 87.1521 488.9 85.5839L489 63.5075C489 61.9392 488 60.009 486.9 59.1646Z" fill="#A5A5F2"/>
<path d="M473.4 58.0788L471.9 56.993V66.282C471.9 66.8852 471.8 67.2471 471.7 67.4884C471.6 67.7296 471.3 67.609 471 67.3677C470.8 67.2471 470.5 67.0058 470.3 66.7646V68.4535C470.6 68.6947 470.8 68.936 471.2 69.1773C471.9 69.6598 472.5 69.7805 472.9 69.4186C473.3 69.0566 473.5 68.3328 473.5 67.1265L473.4 58.0788Z" fill="white"/>
<path d="M476.9 62.663C476.2 62.1804 475.7 61.9392 475.3 62.0598C474.9 62.1804 474.7 62.5423 474.7 63.2662C474.7 63.6281 474.7 63.99 474.8 64.3519C474.9 64.7138 475 65.0757 475.2 65.317C475.4 65.6789 475.7 66.0408 476.1 66.644C476.4 67.0059 476.6 67.3678 476.8 67.6091C477 67.8503 477.1 68.0916 477.2 68.2122C477.3 68.3329 477.3 68.4535 477.3 68.6948C477.3 69.1773 477 69.1773 476.5 68.8154C476.2 68.5741 475.9 68.3329 475.6 67.971C475.2 67.6091 474.9 67.2471 474.7 66.8852V68.5741C474.9 68.936 475.2 69.1773 475.5 69.4186C475.8 69.6599 476.1 70.0218 476.5 70.263C477.3 70.7456 477.9 70.9869 478.2 70.8662C478.6 70.7456 478.8 70.263 478.8 69.5392C478.8 69.1773 478.8 68.8154 478.7 68.4535C478.6 68.0916 478.5 67.7297 478.3 67.4884C478.1 67.1265 477.8 66.644 477.4 66.1614C476.9 65.5582 476.6 65.1963 476.5 64.9551C476.4 64.7138 476.3 64.4725 476.3 64.3519C476.3 63.99 476.5 63.99 477 64.3519C477.2 64.4725 477.5 64.7138 477.7 64.9551C477.9 65.1963 478.2 65.5582 478.5 65.9202L479 64.7138C478.2 63.7487 477.5 63.1455 476.9 62.663Z" fill="white"/>
<path d="M486.9 59.1645L463.3 42.758C462.2 41.9136 461.3 42.6374 461.3 44.2057L461.2 66.282C461.3 66.282 462.4 47.2216 462.4 47.2216C462.4 45.6533 463.3 45.0501 464.4 45.7739C464.5 45.8946 488 59.8883 486.9 59.1645Z" fill="#4343C4"/>
</g>
<mask id="mask7_87_14061" style="mask-type:luminance" maskUnits="userSpaceOnUse" x="144" y="218" width="75" height="193">
<path d="M144.8 410.215L144.5 270.036L218.2 218.766L218.5 358.824L144.8 410.215Z" fill="white"/>
</mask>
<g mask="url(#mask7_87_14061)">
<path d="M147.3 348.329C147.1 348.45 147 348.208 147 347.847V336.627C147 336.265 147.1 335.783 147.3 335.662C147.5 335.542 147.6 335.783 147.6 336.145V347.364C147.6 347.726 147.5 348.208 147.3 348.329ZM147.3 334.456C147.1 334.577 147 334.335 147 333.973L146.9 295.732C146.9 295.37 147 294.887 147.2 294.767C147.4 294.646 147.5 294.887 147.5 295.249L147.6 333.491C147.6 333.973 147.4 334.335 147.3 334.456ZM210.7 223.953L146.7 268.589C145.5 269.433 144.5 271.605 144.5 273.293L144.8 397.307C144.8 398.996 149.4 406.114 150.6 405.269C150.2 405.028 150 404.425 150 403.58V393.085L149.7 279.567C149.7 277.878 150.7 275.706 151.9 274.862L215.9 230.226C216.6 229.744 217.3 229.744 217.7 230.226C217.7 228.538 212 223.109 210.7 223.953Z" fill="#2A2A9B"/>
<path d="M154.2 387.053C153.1 387.777 152.2 387.174 152.2 385.606L151.9 281.617C151.9 280.049 152.8 278.119 153.9 277.395L213.9 235.655C215 234.931 215.9 235.534 215.9 237.103L216.2 341.091C216.2 342.659 215.3 344.589 214.2 345.313L154.2 387.053ZM215.9 230.226L151.9 274.862C150.7 275.706 149.7 277.878 149.7 279.567L150 393.085L218.5 345.313L218.2 231.795C218.2 231.071 218 230.588 217.8 230.226C217.3 229.744 216.7 229.623 215.9 230.226Z" fill="#6464DD"/>
<path d="M167.9 371.129V368.958L180.4 360.272V362.443L167.9 371.129ZM181.5 361.72V359.548L204.3 343.624V345.796L181.5 361.72ZM205.5 344.951V342.78L210.6 339.161V341.332L205.5 344.951ZM157.7 374.507V372.336L160.4 370.405V372.577L157.7 374.507ZM161.6 371.732V369.561L176.3 359.307V361.478L161.6 371.732ZM177.5 360.755V358.583L185.5 353.034V355.205L177.5 360.755ZM186.5 354.481V352.31L210.6 335.542V337.713L186.5 354.481ZM173.3 356.532V354.361L182.3 348.088V350.259L173.3 356.532ZM183.4 349.535V347.364L196.5 338.196V340.367L183.4 349.535ZM197.7 339.523V337.351L210.5 328.424V330.596L197.7 339.523ZM170.4 354.843V352.672L175.8 348.932V351.104L170.4 354.843ZM177 350.259V348.088L179 346.64V348.812L177 350.259ZM180.1 348.088V345.916L182.1 344.469V346.64L180.1 348.088ZM183.3 345.796V343.624L185.3 342.177V344.348L183.3 345.796ZM186.5 343.624V341.453L194.5 335.904V338.075L186.5 343.624ZM195.6 337.351V335.18L203.6 329.63V331.802L195.6 337.351ZM204.7 330.957V328.786L210.6 324.684V326.856L204.7 330.957ZM167.9 352.793V350.621L180.4 341.935V344.107L167.9 352.793ZM181.5 343.262V341.091L188.3 336.386V338.558L181.5 343.262ZM189.5 337.713V335.542L193.5 332.767V334.938L189.5 337.713ZM194.6 334.215V332.043L204.2 325.288V327.459L194.6 334.215ZM205.4 326.615V324.443L210.5 320.824V322.995L205.4 326.615ZM157.6 356.17V353.999L160.3 352.069V354.24L157.6 356.17ZM161.6 353.396V351.224L176.3 340.97V343.142L161.6 353.396ZM177.5 342.418V340.246L185.5 334.697V336.869L177.5 342.418ZM186.6 336.024V333.853L198.4 325.649V327.821L186.6 336.024ZM199.6 326.976V324.805L204.5 321.427V323.599L199.6 326.976ZM205.7 322.754V320.583L210.6 317.205V319.376L205.7 322.754ZM167.9 341.935V339.764L180.4 331.078V333.25L167.9 341.935ZM181.5 332.526V330.354L204.3 314.43V316.602L181.5 332.526ZM205.4 315.878V313.706L210.5 310.087V312.259L205.4 315.878ZM157.6 345.434V343.262L160.3 341.332V343.504L157.6 345.434ZM161.6 342.659V340.488L176.3 330.234V332.405L161.6 342.659ZM177.4 331.561V329.389L185.4 323.84V326.011L177.4 331.561ZM186.4 325.288V323.116L210.5 306.348V308.519L186.4 325.288ZM173.1 327.58V325.408L196.6 309.122V311.294L173.1 327.58ZM197.7 310.329V308.157L210.5 299.23V301.402L197.7 310.329ZM170.7 325.408V323.237L175.8 319.738V321.91L170.7 325.408ZM176.9 321.065V318.894L178.9 317.446V319.618L176.9 321.065ZM180.1 318.894V316.722L182.1 315.275V317.446L180.1 318.894ZM183.2 316.722V314.551L185.2 313.103V315.275L183.2 316.722ZM186.4 314.43V312.259L194.4 306.71V308.881L186.4 314.43ZM195.5 308.157V305.986L203.5 300.437V302.608L195.5 308.157ZM204.6 301.764V299.592L210.5 295.49V297.662L204.6 301.764ZM167.8 323.719V321.548L180.3 312.862V315.033L167.8 323.719ZM181.5 314.189V312.018L188.3 307.313V309.484L181.5 314.189ZM189.5 308.64V306.468L193.5 303.694V305.865L189.5 308.64ZM194.6 305.021V302.849L204.2 296.094V298.265L194.6 305.021ZM205.4 297.541V295.37L210.5 291.751V293.922L205.4 297.541ZM157.5 327.097V324.926L160.2 322.995V325.167L157.5 327.097ZM161.5 324.322V322.151L176.2 311.897V314.068L161.5 324.322ZM177.4 313.224V311.053L181.7 308.037V310.208L177.4 313.224ZM182.3 309.846V307.675L188.6 303.332V305.503L182.3 309.846ZM189.2 305.021V302.849L191.8 301.04V303.211L189.2 305.021ZM192.8 302.487V300.316L205 291.871V294.043L192.8 302.487ZM205.6 293.56V291.389L210.5 288.011V290.182L205.6 293.56ZM167.8 312.862V310.691L175.7 305.141V307.313L167.8 312.862ZM176.9 306.468V304.297L203.5 285.84V288.011L176.9 306.468ZM204.6 287.167V284.995L210.5 280.894V283.065L204.6 287.167ZM167.8 309.122V306.951L193.4 289.097V291.268L167.8 309.122ZM194.5 290.424V288.252L204.1 281.497V283.668L194.5 290.424ZM205.3 282.944V280.773L210.4 277.154V279.325L205.3 282.944ZM157.5 312.5V310.329L160.2 308.399V310.57L157.5 312.5ZM161.5 309.726V307.554L176.2 297.3V299.471L161.5 309.726ZM177.4 298.627V296.456L185.4 290.906V293.078L177.4 298.627ZM186.5 292.233V290.062L198.3 281.859V284.03L186.5 292.233ZM199.5 283.186V281.014L204.4 277.636V279.808L199.5 283.186ZM205.6 279.084V276.912L210.5 273.535V275.706L205.6 279.084ZM167.8 298.265V296.094L180.3 287.408V289.579L167.8 298.265ZM181.4 288.855V286.684L204.2 270.76V272.932L181.4 288.855ZM205.3 272.087V269.916L210.4 266.297V268.468L205.3 272.087ZM157.5 301.643V299.471L160.2 297.541V299.713L157.5 301.643ZM161.5 298.868V296.697L176.2 286.443V288.614L161.5 298.868ZM177.3 287.89V285.719L185.3 280.17V282.341L177.3 287.89ZM186.3 281.617V279.446L210.4 262.677V264.849L186.3 281.617ZM173.1 283.668V281.497L182.1 275.224V277.395L173.1 283.668ZM183.3 276.671V274.5L196.4 265.331V267.503L183.3 276.671ZM197.6 266.658V264.487L210.4 255.56V257.731L197.6 266.658ZM170.2 281.979V279.808L175.6 276.068V278.239L170.2 281.979ZM176.8 277.395V275.224L178.8 273.776V275.947L176.8 277.395ZM180 275.103V272.932L182 271.484V273.655L180 275.103ZM183.1 272.932V270.76L185.1 269.312V271.484L183.1 272.932ZM186.3 270.76V268.589L194.3 263.039V265.211L186.3 270.76ZM195.4 264.366V262.195L203.4 256.646V258.817L195.4 264.366ZM204.5 258.093V255.922L210.4 251.82V253.992L204.5 258.093ZM167.7 279.928V277.757L180.2 269.071V271.243L167.7 279.928ZM181.4 270.398V268.227L188.2 263.522V265.693L181.4 270.398ZM189.4 264.849V262.677L193.4 259.903V262.074L189.4 264.849ZM194.5 261.35V259.179L204.1 252.423V254.595L194.5 261.35ZM205.3 253.75V251.579L210.4 247.96V250.131L205.3 253.75ZM157.4 283.306V281.135L160.1 279.205V281.376L157.4 283.306ZM161.4 280.532V278.36L176.1 268.106V270.278L161.4 280.532ZM177.3 269.554V267.382L185.3 261.833V264.004L177.3 269.554ZM186.5 263.16V260.989L198.3 252.785V254.957L186.5 263.16ZM199.4 254.112V251.941L204.3 248.563V250.735L199.4 254.112ZM205.5 249.89V247.719L210.4 244.341V246.512L205.5 249.89ZM213.9 235.534L153.9 277.274C152.8 277.998 151.9 279.928 151.9 281.497L152.2 385.485C152.2 387.053 153.1 387.656 154.2 386.933L214.2 345.192C215.3 344.469 216.2 342.539 216.2 340.97L215.9 236.982C215.9 235.414 215 234.811 213.9 235.534Z" fill="#0F054C"/>
<path d="M184.2 379.936C182.4 381.142 180.9 380.177 180.9 377.644C180.9 375.11 182.3 372.094 184.1 370.888C185.9 369.682 187.4 370.647 187.4 373.18C187.5 375.593 186 378.729 184.2 379.936ZM218.5 345.313L150 392.964V403.46C150 404.304 150.2 404.907 150.6 405.149C151 405.51 151.6 405.39 152.2 405.028L216.2 360.393C217.4 359.548 218.4 357.377 218.4 355.688L218.5 345.313Z" fill="#EEFFFD"/>
<path d="M184.2 370.888C182.4 372.094 181 375.11 181 377.644C181 380.177 182.5 381.142 184.3 379.936C186.1 378.729 187.5 375.713 187.5 373.18C187.5 370.647 186 369.682 184.2 370.888Z" fill="#6464DD"/>
<path d="M176.2 268.106L161.4 278.36V280.532L176.2 270.278V268.106Z" fill="#42E8E0"/>
<path d="M185.3 261.712L177.3 267.382V269.554L185.3 263.884V261.712Z" fill="#FF2C9C"/>
<path d="M160.1 279.325L157.4 281.135V283.306L160.2 281.497L160.1 279.325Z" fill="#FF2C9C"/>
<path d="M198.3 252.665L186.5 260.989V263.16L198.3 254.836V252.665Z" fill="#42E8E0"/>
<path d="M194.2 263.039L186.3 268.589V270.76L194.2 265.211V263.039Z" fill="#42E8E0"/>
<path d="M203.4 256.646L195.4 262.195V264.366L203.4 258.817V256.646Z" fill="white"/>
<path d="M182.1 275.224L173.1 281.497V283.668L182.1 277.395V275.224Z" fill="#FF2C9C"/>
<path d="M180.2 269.071L167.7 277.757V279.928L180.2 271.243V269.071Z" fill="white"/>
<path d="M188.2 263.522L181.4 268.227V270.398L188.2 265.693V263.522Z" fill="#42E8E0"/>
<path d="M210.4 248.081L205.3 251.579V253.75L210.4 250.252V248.081Z" fill="#42E8E0"/>
<path d="M204.1 252.423L194.5 259.179V261.351L204.1 254.595V252.423Z" fill="#42E8E0"/>
<path d="M193.3 259.903L189.3 262.677L189.4 264.849L193.3 262.074V259.903Z" fill="#FF2C9C"/>
<path d="M175.7 275.948L170.2 279.808V281.979L175.7 278.119V275.948Z" fill="#42E8E0"/>
<path d="M210.4 251.82L204.5 255.922V258.093L210.4 253.992V251.82Z" fill="#42E8E0"/>
<path d="M178.8 273.776L176.8 275.224V277.395L178.8 275.947V273.776Z" fill="#42E8E0"/>
<path d="M182 271.604L180 273.052V275.103L182 273.776V271.604Z" fill="#42E8E0"/>
<path d="M185.1 269.433L183.1 270.76V272.932L185.1 271.605V269.433Z" fill="#42E8E0"/>
<path d="M196.4 265.332L183.3 274.5V276.671L196.4 267.503V265.332Z" fill="#42E8E0"/>
<path d="M210.4 255.56L197.6 264.487V266.658L210.4 257.731V255.56Z" fill="#42E8E0"/>
<path d="M204.3 248.563L199.4 251.941V254.112L204.3 250.614V248.563Z" fill="#42E8E0"/>
<path d="M210.4 244.341L205.5 247.719V249.89L210.4 246.512V244.341Z" fill="#42E8E0"/>
<path d="M176.3 340.97L161.6 351.224V353.396L176.3 343.142V340.97Z" fill="#FF2C9C"/>
<path d="M185.5 334.697L177.5 340.246V342.418L185.5 336.748V334.697Z" fill="#42E8E0"/>
<path d="M160.3 352.189L157.6 354.12V356.17L160.3 354.361V352.189Z" fill="#FF2C9C"/>
<path d="M198.5 325.65L186.6 333.853V336.024L198.5 327.821V325.65Z" fill="#FF2C9C"/>
<path d="M194.4 335.904L186.4 341.453L186.5 343.624L194.4 338.075V335.904Z" fill="#FF2C9C"/>
<path d="M203.5 329.63L195.6 335.18V337.351L203.5 331.802V329.63Z" fill="#42E8E0"/>
<path d="M182.3 348.088L173.3 354.361V356.532L182.3 350.259V348.088Z" fill="#FF2C9C"/>
<path d="M180.4 341.935L167.9 350.621V352.793L180.4 344.107V341.935Z" fill="#42E8E0"/>
<path d="M188.4 336.386L181.5 341.212V343.262L188.4 338.558V336.386Z" fill="#FF2C9C"/>
<path d="M210.6 320.945L205.4 324.564V326.615L210.6 323.116V320.945Z" fill="#42E8E0"/>
<path d="M204.3 325.288L194.6 332.043V334.215L204.3 327.459V325.288Z" fill="white"/>
<path d="M193.5 332.767L189.5 335.542V337.713L193.5 334.939V332.767Z" fill="#42E8E0"/>
<path d="M175.8 348.932L170.4 352.672V354.843L175.8 351.104V348.932Z" fill="#42E8E0"/>
<path d="M210.6 324.684L204.7 328.786V330.958L210.6 326.856V324.684Z" fill="#FF2C9C"/>
<path d="M179 346.64L177 348.088V350.259L179 348.812V346.64Z" fill="#FF2C9C"/>
<path d="M182.1 344.469L180.1 345.916V348.088L182.1 346.64V344.469Z" fill="#42E8E0"/>
<path d="M185.3 342.297L183.3 343.624V345.796L185.3 344.469V342.297Z" fill="#42E8E0"/>
<path d="M196.6 338.196L183.4 347.364V349.535L196.6 340.367V338.196Z" fill="#42E8E0"/>
<path d="M210.6 328.424L197.7 337.351V339.523L210.6 330.596V328.424Z" fill="white"/>
<path d="M204.5 321.427L199.6 324.805V326.976L204.5 323.599V321.427Z" fill="#42E8E0"/>
<path d="M210.6 317.205L205.7 320.583V322.754L210.6 319.376V317.205Z" fill="#42E8E0"/>
<path d="M176.3 311.897L161.5 322.151V324.323L176.3 314.068V311.897Z" fill="#42E8E0"/>
<path d="M181.7 308.157L177.4 311.052V313.224L181.7 310.208V308.157Z" fill="white"/>
<path d="M160.2 322.995L157.5 324.926V327.097L160.3 325.167L160.2 322.995Z" fill="#FF2C9C"/>
<path d="M188.6 303.332L182.3 307.675V309.846L188.6 305.503V303.332Z" fill="#42E8E0"/>
<path d="M205 291.871L192.8 300.316V302.487L205 294.043V291.871Z" fill="#42E8E0"/>
<path d="M194.3 306.83L186.4 312.38V314.43L194.4 308.881L194.3 306.83Z" fill="white"/>
<path d="M203.5 300.437L195.5 305.986V308.157L203.5 302.608V300.437Z" fill="#FF2C9C"/>
<path d="M180.3 312.741L167.8 321.548V323.719L180.3 314.913V312.741Z" fill="#42E8E0"/>
<path d="M188.3 307.192L181.5 312.018V314.189L188.3 309.364V307.192Z" fill="#42E8E0"/>
<path d="M210.5 291.751L205.4 295.37V297.541L210.5 293.922V291.751Z" fill="#42E8E0"/>
<path d="M204.2 296.214L194.6 302.849V305.021L204.2 298.265V296.214Z" fill="#42E8E0"/>
<path d="M193.4 303.694L189.4 306.468L189.5 308.64L193.4 305.865V303.694Z" fill="#FF2C9C"/>
<path d="M175.8 319.738L170.7 323.237V325.408L175.8 321.91V319.738Z" fill="#42E8E0"/>
<path d="M210.5 295.49L204.6 299.592V301.764L210.5 297.662V295.49Z" fill="#42E8E0"/>
<path d="M178.9 317.567L176.9 318.894V321.065L178.9 319.738V317.567Z" fill="#FF2C9C"/>
<path d="M182.1 315.275L180.1 316.722V318.894L182.1 317.446V315.275Z" fill="#42E8E0"/>
<path d="M185.2 313.103L183.2 314.551V316.722L185.2 315.275V313.103Z" fill="#FF2C9C"/>
<path d="M196.5 309.002L173.1 325.408V327.58L196.5 311.173V309.002Z" fill="#42E8E0"/>
<path d="M210.5 299.23L197.7 308.278V310.329L210.5 301.402V299.23Z" fill="white"/>
<path d="M191.8 301.04L189.2 302.849V305.021L191.8 303.211V301.04Z" fill="#42E8E0"/>
<path d="M210.5 288.011L205.6 291.389V293.56L210.5 290.183V288.011Z" fill="#42E8E0"/>
<path d="M176.2 297.3L161.5 307.554V309.726L176.2 299.471V297.3Z" fill="#42E8E0"/>
<path d="M185.4 290.906L177.4 296.456V298.627L185.4 293.078V290.906Z" fill="#42E8E0"/>
<path d="M160.2 308.399L157.5 310.329V312.5L160.2 310.57V308.399Z" fill="#FF2C9C"/>
<path d="M198.4 281.859L186.5 290.062V292.233L198.4 284.03V281.859Z" fill="#42E8E0"/>
<path d="M193.4 289.097L167.8 306.951V309.122L193.4 291.268V289.097Z" fill="#FF2C9C"/>
<path d="M210.5 277.154L205.3 280.773V282.944L210.5 279.325V277.154Z" fill="#42E8E0"/>
<path d="M204.2 281.617L194.5 288.252V290.424L204.2 283.789V281.617Z" fill="white"/>
<path d="M175.7 305.141L167.8 310.691V312.862L175.7 307.313V305.141Z" fill="#42E8E0"/>
<path d="M210.5 280.894L204.6 285.116V287.167L210.5 283.065V280.894Z" fill="white"/>
<path d="M203.4 285.84L176.9 304.297V306.468L203.4 288.011V285.84Z" fill="#42E8E0"/>
<path d="M204.4 277.636L199.5 281.135V283.186L204.4 279.808V277.636Z" fill="#42E8E0"/>
<path d="M210.4 273.414L205.6 276.912V279.084L210.5 275.586L210.4 273.414Z" fill="#42E8E0"/>
<path d="M176.2 286.443L161.5 296.697V298.868L176.2 288.614V286.443Z" fill="#42E8E0"/>
<path d="M185.4 280.049L177.3 285.719V287.89L185.4 282.221V280.049Z" fill="#42E8E0"/>
<path d="M160.2 297.662L157.5 299.472V301.643L160.2 299.833V297.662Z" fill="#FF2C9C"/>
<path d="M180.3 287.408L167.8 296.094V298.265L180.3 289.579V287.408Z" fill="white"/>
<path d="M210.4 266.417L205.3 269.916V272.087L210.4 268.589V266.417Z" fill="#42E8E0"/>
<path d="M204.2 270.76L181.4 286.684V288.856L204.2 272.932V270.76Z" fill="#42E8E0"/>
<path d="M210.4 262.677L186.3 279.446V281.617L210.4 264.849V262.677Z" fill="#FF2C9C"/>
<path d="M176.4 359.307L161.6 369.561V371.732L176.4 361.478V359.307Z" fill="#42E8E0"/>
<path d="M185.5 353.034L177.5 358.583V360.755L185.5 355.085V353.034Z" fill="#FF2C9C"/>
<path d="M160.4 370.526L157.7 372.336V374.507L160.4 372.698V370.526Z" fill="#FF2C9C"/>
<path d="M180.4 360.272L167.9 368.958V371.129L180.4 362.443V360.272Z" fill="white"/>
<path d="M210.6 339.281L205.5 342.78V344.951L210.6 341.453V339.281Z" fill="#FF2C9C"/>
<path d="M204.3 343.624L181.5 359.548V361.72L204.3 345.796V343.624Z" fill="#42E8E0"/>
<path d="M210.6 335.542L186.5 352.31V354.481L210.6 337.713V335.542Z" fill="#42E8E0"/>
<path d="M176.3 330.234L161.6 340.488V342.659L176.3 332.405V330.234Z" fill="#42E8E0"/>
<path d="M185.5 323.84L177.4 329.389V331.561L185.5 326.011V323.84Z" fill="#FF2C9C"/>
<path d="M160.3 341.332L157.6 343.262V345.434L160.3 343.504V341.332Z" fill="#FF2C9C"/>
<path d="M180.4 331.078L167.9 339.885V341.935L180.4 333.25V331.078Z" fill="white"/>
<path d="M210.5 310.087L205.4 313.706V315.878L210.5 312.259V310.087Z" fill="#FF2C9C"/>
<path d="M204.3 314.43L181.5 330.354V332.526L204.3 316.602V314.43Z" fill="#42E8E0"/>
<path d="M210.5 306.348L186.4 323.116V325.288L210.5 308.519V306.348Z" fill="#42E8E0"/>
<path d="M147.2 294.767C147 294.887 146.9 295.249 146.9 295.732L147 333.973C147 334.335 147.1 334.577 147.3 334.456C147.5 334.335 147.6 333.973 147.6 333.491L147.5 295.249C147.5 294.887 147.3 294.646 147.2 294.767Z" fill="#6464DD"/>
<path d="M147.3 335.662C147.1 335.783 147 336.145 147 336.627V347.846C147 348.208 147.1 348.45 147.3 348.329C147.5 348.208 147.6 347.846 147.6 347.364V336.145C147.6 335.783 147.4 335.542 147.3 335.662Z" fill="#6464DD"/>
</g>
<mask id="mask8_87_14061" style="mask-type:luminance" maskUnits="userSpaceOnUse" x="150" y="174" width="36" height="55">
<path d="M150.2 228.899L150.1 199.223L185.1 174.854L185.2 204.531L150.2 228.899Z" fill="white"/>
</mask>
<g mask="url(#mask8_87_14061)">
<path d="M164 190.175C159.5 193.312 155.8 200.067 155.9 205.375V205.617C152.6 208.874 150.2 213.941 150.2 218.042C150.2 220.817 151.3 222.868 153 223.23C152.3 222.265 151.9 220.817 151.9 219.249C151.9 215.147 154.3 209.96 157.6 206.823V206.582C157.6 201.274 161.2 194.518 165.7 191.382C166.7 190.658 167.7 190.175 168.7 189.934C168.8 189.572 169 189.09 169.2 188.728C167.8 188.366 166 188.728 164 190.175Z" fill="#DEEFFF"/>
<path d="M165.7 191.261C161.2 194.398 157.6 201.153 157.6 206.461V206.702C154.3 209.96 151.9 215.026 151.9 219.128C151.9 220.817 152.3 222.264 153 223.109C154.1 224.557 155.8 224.918 157.9 223.471L173.1 212.855C176.8 210.321 179.6 204.169 179.6 199.706L169.9 206.461C168.3 207.547 167 207.185 166.3 205.979C164.9 205.858 164 204.41 164 202.239C164 199.344 165.7 195.725 168 193.553V193.432C168 192.347 168.2 191.14 168.7 189.813C167.8 190.055 166.8 190.537 165.7 191.261Z" fill="white"/>
<path d="M181 185.35C181.1 185.712 181.1 186.194 181.1 186.677V186.797C181.8 186.556 182.4 186.436 182.9 186.556C182.5 185.832 181.9 185.35 181 185.35ZM173.7 182.816C171.8 184.143 170.2 186.315 169.1 188.607C168.9 188.969 168.8 189.451 168.6 189.813C168.2 191.02 167.9 192.226 167.9 193.432V193.553C165.6 195.845 163.9 199.344 163.9 202.239C163.9 204.29 164.8 205.858 166.2 205.979C165.8 205.375 165.6 204.41 165.6 203.445C165.6 200.55 167.3 196.931 169.6 194.759V194.639C169.6 191.02 172.1 186.194 175.3 184.023C176.6 183.178 177.7 182.816 178.7 182.937C177.9 181.369 176 181.248 173.7 182.816Z" fill="#60BFFF"/>
<path d="M175.4 184.023C172.3 186.194 169.7 191.02 169.7 194.639V194.759C167.4 197.052 165.7 200.55 165.7 203.445C165.7 204.41 165.9 205.255 166.3 205.979C167 207.185 168.3 207.668 169.9 206.461L179.6 199.706L180.6 198.982C183.2 197.172 185.2 192.95 185.2 189.813C185.2 187.763 184.3 186.556 183 186.436C182.5 186.315 181.9 186.436 181.2 186.677V186.556C181.2 186.074 181.2 185.591 181.1 185.229C180.8 183.782 180 183.058 178.9 182.817C177.9 182.817 176.7 183.178 175.4 184.023Z" fill="#A6DFFF"/>
</g>
<path d="M514.3 405.149C514.9 405.028 520.3 404.184 525.7 394.412C528.3 389.828 530.3 381.383 529.1 374.748C528.5 371.491 527 368.958 525 367.51C519.3 363.529 514.2 367.872 512.4 370.647L515.9 373.904L514.1 372.215L515.8 373.904C516.1 373.421 518.9 369.44 522.7 372.094C523.7 372.818 524.4 374.024 524.7 375.834C525.6 380.539 524 387.656 522 391.275C517.8 398.876 513.9 399.599 513.9 399.599L514.3 405.149Z" fill="#A5A5F2"/>
<path d="M475.2 365.701L520.1 365.821L516 409.25C516 412.507 514.2 415.765 510.6 418.177C503.4 423.123 491.8 423.123 484.6 418.177C481 415.644 479.2 412.387 479.2 409.25L475.2 365.701Z" fill="#6464DD"/>
<path d="M513.5 353.878C522.3 360.031 522.3 369.923 513.5 376.075C504.7 382.228 490.5 382.228 481.7 376.075C472.9 369.923 472.9 360.031 481.7 353.878C490.5 347.726 504.8 347.726 513.5 353.878Z" fill="#A5A5F2"/>
<path d="M497.6 376.92C503.1 376.92 508.2 375.472 512 372.818C515.2 370.526 517.1 367.631 517.1 364.856C517.1 362.082 515.2 359.186 512 356.894C508.2 354.24 503.1 352.793 497.6 352.793C492.1 352.793 487 354.24 483.2 356.894C480 359.186 478.1 362.082 478.1 364.856C478.1 367.631 480 370.526 483.2 372.818C487 375.472 492.1 376.92 497.6 376.92Z" fill="#6464DD"/>
<mask id="mask9_87_14061" style="mask-type:luminance" maskUnits="userSpaceOnUse" x="478" y="352" width="40" height="25">
<path d="M497.6 376.92C503.1 376.92 508.2 375.472 512 372.818C515.2 370.526 517.1 367.631 517.1 364.856C517.1 362.082 515.2 359.186 512 356.894C508.2 354.24 503.1 352.793 497.6 352.793C492.1 352.793 487 354.24 483.2 356.894C480 359.186 478.1 362.082 478.1 364.856C478.1 367.631 480 370.526 483.2 372.818C487 375.472 492.1 376.92 497.6 376.92Z" fill="white"/>
</mask>
<g mask="url(#mask9_87_14061)">
<path d="M497.6 384.158C503.1 384.158 508.2 382.71 512 380.056C515.2 377.764 517.1 374.869 517.1 372.094C517.1 369.32 515.2 366.424 512 364.132C508.2 361.478 503.1 360.031 497.6 360.031C492.1 360.031 487 361.478 483.2 364.132C480 366.424 478.1 369.32 478.1 372.094C478.1 374.869 480 377.764 483.2 380.056C487 382.71 492.1 384.158 497.6 384.158Z" fill="#0F054C"/>
</g>
<mask id="mask10_87_14061" style="mask-type:luminance" maskUnits="userSpaceOnUse" x="265" y="135" width="35" height="62">
<path d="M265.6 172.442L265.7 135.648L299.9 159.413L299.8 196.328L265.6 172.442Z" fill="white"/>
</mask>
<g mask="url(#mask10_87_14061)">
<path d="M298.9 190.416L298.3 190.778C298.5 190.778 298.7 190.658 298.9 190.416ZM295.7 156.518L272.2 140.111C270.9 139.267 269.8 139.146 269 139.87L269.4 139.629L270 141.559L293.5 157.965C295.8 159.534 297.7 163.515 297.7 166.772V186.918L299.2 190.055C299.7 189.451 299.9 188.486 299.9 187.28L300 165.203C299.9 162.067 298 158.086 295.7 156.518Z" fill="#42E8E0"/>
<path d="M269.3 139.629L268.9 139.87L267.2 141.076C267.9 140.714 268.9 140.835 269.9 141.559L269.3 139.629Z" fill="#03F4D1"/>
<path d="M297.7 187.039V188.969C297.7 190.296 297.4 191.261 296.8 191.864L298.3 190.899L298.9 190.537L299.2 190.296V190.175L297.7 187.039Z" fill="#42E8E0"/>
<path d="M267.9 146.022C267.9 144.454 268.8 143.851 269.9 144.575L293.4 160.981C294.5 161.705 295.4 163.635 295.4 165.203L295.3 187.28C295.3 188.848 294.4 189.451 293.3 188.728L269.8 172.321C268.7 171.597 267.8 169.667 267.8 168.099L267.9 146.022ZM293.5 157.965L270 141.559C269 140.835 268 140.714 267.3 141.076C266.4 141.559 265.8 142.765 265.8 144.575L265.7 166.651C265.7 169.908 267.6 173.889 269.9 175.458L293.4 191.864C294.8 192.829 296 192.709 296.8 191.864C297.3 191.261 297.7 190.296 297.7 188.969V187.039V166.892C297.7 163.515 295.8 159.654 293.5 157.965Z" fill="#CAFFF9"/>
<path d="M277.5 160.861L276.8 160.378V166.048L277.4 166.41C278.7 167.254 279.3 166.772 279.3 164.842C279.2 163.032 278.6 161.705 277.5 160.861ZM281.8 170.994V164.359L283.1 165.324V171.959L281.8 170.994ZM286.2 172.683C286.2 172.321 286.3 171.959 286.4 171.477L287.3 168.34L288.7 169.305L286.9 174.613L285.6 173.648L283.8 165.807L285.2 166.772L286.1 171.115C286.1 171.718 286.2 172.2 286.2 172.683ZM274.3 164.6L270.1 159.051V158.207H274.3V159.654L271.4 159.534L274.3 163.273V164.6ZM289.1 174.975V173.527L292 173.889L289.1 170.029V168.581L293.3 174.492V175.337L289.1 174.975ZM275.4 166.651V158.086L277.4 159.413C278.4 160.137 279.2 160.981 279.8 162.188C280.4 163.273 280.6 164.6 280.6 165.927C280.6 167.375 280.3 168.219 279.7 168.581C279.1 168.943 278.3 168.702 277.2 167.978L275.4 166.651ZM282.4 164.118C281.9 163.756 281.7 163.394 281.7 162.791C281.7 162.188 281.9 162.067 282.4 162.429C282.9 162.791 283.1 163.273 283.1 163.756C283.1 163.997 283 164.238 282.9 164.238C282.9 164.238 282.7 164.238 282.4 164.118ZM293.5 160.981C294.6 161.705 271.1 147.711 271.1 147.711C270 146.987 269.1 147.591 269.1 149.159L267.9 168.219C267.9 169.788 268.8 171.597 269.9 172.442L293.4 188.848C294.5 189.572 295.4 188.969 295.4 187.401L295.5 165.324C295.5 163.756 294.6 161.826 293.5 160.981Z" fill="#42E8E0"/>
<path d="M274.3 158.207H270.1V159.051L274.3 164.6V163.153L271.4 159.534L274.3 159.654V158.207Z" fill="white"/>
<path d="M276.7 166.048V160.378L277.4 160.861C278.6 161.705 279.2 163.032 279.2 164.842C279.2 166.772 278.6 167.254 277.3 166.41L276.7 166.048ZM277.4 159.413L275.4 158.086V166.651L277.2 167.857C278.3 168.581 279.1 168.823 279.7 168.461C280.3 168.099 280.6 167.254 280.6 165.807C280.6 164.48 280.3 163.273 279.8 162.067C279.2 160.981 278.4 160.016 277.4 159.413Z" fill="white"/>
<path d="M283.1 165.324L281.8 164.359V170.994L283.1 171.959V165.324ZM282.4 162.308C281.9 161.946 281.7 162.067 281.7 162.67C281.7 163.273 281.9 163.756 282.4 163.997C282.6 164.118 282.8 164.238 282.9 164.118C283 163.997 283.1 163.876 283.1 163.635C283.2 163.153 282.9 162.67 282.4 162.308Z" fill="white"/>
<path d="M288.7 169.305L287.3 168.34L286.4 171.476C286.3 171.959 286.2 172.321 286.2 172.683C286.2 172.2 286.1 171.718 286 171.235L285.1 166.892L283.7 165.927L285.5 173.769L286.8 174.734L288.7 169.305Z" fill="white"/>
<path d="M289.1 168.581V170.029L292 173.889L289.1 173.527V174.975L293.3 175.337V174.492L289.1 168.581Z" fill="white"/>
<path d="M293.5 160.981L270 144.575C268.9 143.851 268 144.454 268 146.022L267.9 168.099C268 168.099 269.1 149.038 269.1 149.038C269.1 147.47 270 146.867 271.1 147.591C271.1 147.711 294.5 161.826 293.5 160.981Z" fill="#1FC1B5"/>
</g>
<mask id="mask11_87_14061" style="mask-type:luminance" maskUnits="userSpaceOnUse" x="290" y="211" width="35" height="61">
<path d="M290.3 248.201L290.4 211.286L324.6 235.172L324.5 271.966L290.3 248.201Z" fill="white"/>
</mask>
<g mask="url(#mask11_87_14061)">
<path d="M323.5 266.176L322.9 266.538C323.2 266.538 323.4 266.296 323.5 266.176ZM320.4 232.157L296.9 215.75C295.6 214.906 294.5 214.785 293.7 215.509L294.1 215.267L294.7 217.198L318.2 233.604C320.5 235.293 322.4 239.153 322.4 242.411V262.557L323.9 265.693C324.4 265.09 324.6 264.125 324.6 262.919L324.7 240.842C324.6 237.826 322.7 233.845 320.4 232.157Z" fill="#FF2C9C"/>
<path d="M294 215.388L293.6 215.629L291.9 216.836C292.6 216.474 293.6 216.715 294.6 217.318L294 215.388Z" fill="#FF2C9C"/>
<path d="M322.3 262.677V264.608C322.3 265.935 322 266.9 321.4 267.503L322.9 266.538L323.5 266.176L323.8 265.935V265.814L322.3 262.677Z" fill="#FF2C9C"/>
<path d="M292.6 221.782C292.6 220.214 293.5 219.61 294.6 220.334L318.1 236.741C319.2 237.585 320.1 239.395 320.1 240.963L320 263.039C320 264.608 319.1 265.211 318 264.487L294.5 248.08C293.4 247.357 292.5 245.426 292.5 243.858L292.6 221.782ZM318.2 233.725L294.7 217.318C293.7 216.594 292.8 216.474 292 216.836C291.1 217.198 290.4 218.525 290.4 220.334L290.3 242.411C290.3 245.668 292.2 249.649 294.5 251.217L318 267.623C319.4 268.589 320.6 268.468 321.4 267.623C321.9 267.02 322.3 266.055 322.3 264.728V262.798V242.652C322.4 239.274 320.5 235.293 318.2 233.725Z" fill="#FFAEE0"/>
<path d="M304.2 243.979L300 238.43V237.585H304.2V239.033L301.3 238.912L304.2 242.652V243.979ZM308.5 246.995V245.547L311.4 245.909L308.5 242.049V240.601L312.7 246.512V247.357L308.5 246.995ZM304.6 245.547L306.9 238.55L308.1 239.395L305.8 246.392L304.6 245.547ZM318.1 236.741C319.2 237.464 295.8 223.471 295.8 223.471C294.7 222.626 293.8 223.35 293.8 224.918L292.6 243.979C292.6 245.547 293.5 247.477 294.6 248.201L318.1 264.608C319.2 265.452 320.1 264.728 320.1 263.16L320.2 241.084C320.2 239.395 319.3 237.585 318.1 236.741Z" fill="#FF2C9C"/>
<path d="M304.2 237.585H300V238.43L304.2 243.979V242.531L301.3 238.912L304.2 239.033V237.585Z" fill="white"/>
<path d="M308.1 239.274L306.9 238.43L304.6 245.547L305.8 246.271L308.1 239.274Z" fill="white"/>
<path d="M308.5 240.722V242.049L311.4 246.03L308.5 245.668V246.995L312.8 247.357V246.512L308.5 240.722Z" fill="white"/>
<path d="M318.1 236.741L294.6 220.334C293.5 219.61 292.6 220.214 292.6 221.782L292.5 243.858C292.6 243.858 293.7 224.798 293.7 224.798C293.7 223.229 294.6 222.626 295.7 223.35C295.8 223.471 319.2 237.464 318.1 236.741Z" fill="#D81A87"/>
</g>
</svg>
