<svg width="51" height="51" viewBox="0 0 51 51" fill="none" xmlns="http://www.w3.org/2000/svg">
<path d="M12.6757 6.66406C11.2341 7.05016 9.91957 7.809 8.86428 8.86428C7.809 9.91957 7.05016 11.2341 6.66406 12.6757M38.3244 6.66406C39.766 7.05016 41.0806 7.809 42.1358 8.86428C43.1911 9.91957 43.95 11.2341 44.3361 12.6757" stroke="#0096C1" stroke-width="2" stroke-linecap="round"/>
<path fill-rule="evenodd" clip-rule="evenodd" d="M25.5 42.5C30.0087 42.5 34.3327 40.7089 37.5208 37.5208C40.7089 34.3327 42.5 30.0087 42.5 25.5C42.5 20.9913 40.7089 16.6673 37.5208 13.4792C34.3327 10.2911 30.0087 8.5 25.5 8.5C20.9913 8.5 16.6673 10.2911 13.4792 13.4792C10.2911 16.6673 8.5 20.9913 8.5 25.5C8.5 30.0087 10.2911 34.3327 13.4792 37.5208C16.6673 40.7089 20.9913 42.5 25.5 42.5ZM27.625 17C27.625 16.4364 27.4011 15.8959 27.0026 15.4974C26.6041 15.0989 26.0636 14.875 25.5 14.875C24.9364 14.875 24.3959 15.0989 23.9974 15.4974C23.5989 15.8959 23.375 16.4364 23.375 17V24.9688C23.375 26.435 24.565 27.625 26.0312 27.625H31.875C32.4386 27.625 32.9791 27.4011 33.3776 27.0026C33.7761 26.6041 34 26.0636 34 25.5C34 24.9364 33.7761 24.3959 33.3776 23.9974C32.9791 23.5989 32.4386 23.375 31.875 23.375H27.625V17Z" fill="#0096C1"/>
</svg>
