<svg width="130" height="115" viewBox="0 0 130 115" fill="none" xmlns="http://www.w3.org/2000/svg">
<mask id="mask0_87_14688" style="mask-type:luminance" maskUnits="userSpaceOnUse" x="4" y="1" width="126" height="99">
<path d="M4.07617 1.26453H129.961V99.0502H4.07617V1.26453Z" fill="white"/>
</mask>
<g mask="url(#mask0_87_14688)">
<mask id="mask1_87_14688" style="mask-type:luminance" maskUnits="userSpaceOnUse" x="0" y="-3" width="130" height="103">
<path d="M21.7786 -2.66931L5.19999 -0.702358L0.704102 11.0994C0.704102 11.0994 1.33634 25.5705 12.8571 44.6781C7.93968 60.7649 22.9026 74.3228 22.9026 74.3228L22.0596 99.3313H57.7457V90.6205L107.482 94.5544C107.482 94.5544 139.022 75.9827 127.432 33.2978C115.911 -9.13216 40.6051 8.42992 40.6051 8.42992L21.7786 -2.66931Z" fill="white"/>
</mask>
<g mask="url(#mask1_87_14688)">
<path d="M128.863 44.796C128.971 27.0458 118.564 12.8665 103.041 7.25127C85.986 1.08206 53.6216 6.58377 45.2213 6.72342C24.4086 7.0696 24.4143 -1.06529 12.5408 2.07354C3.95535 4.34313 6.20526 18.2205 9.82291 26.4836C17.8403 44.796 9.19208 45.2993 12.5408 57.6667C18.9607 81.3756 50.1176 88.0987 63.2045 90.0972C83.3174 93.1686 128.577 91.7708 128.863 44.796Z" fill="#B0CCFB"/>
<path d="M18.8805 56.3879C19.7952 56.3879 20.5261 55.6008 20.4331 54.6669C20.361 53.9453 19.7846 53.3609 19.0642 53.2773C18.8937 53.2575 18.728 53.2658 18.5708 53.2974C18.3672 52.305 17.489 51.5587 16.4364 51.5587C15.8702 51.5587 15.3544 51.7748 14.9671 52.1289C14.7447 51.1615 13.8788 50.4398 12.844 50.4398C12.4329 50.4398 12.0487 50.5538 11.7208 50.7516C11.3326 49.2131 10.0583 48.0841 8.54498 48.0841C7.24257 48.0841 6.11677 48.9203 5.58078 50.1338L4.38965 50.7055V56.4307L18.8805 56.3879Z" fill="#F8FAFF"/>
<path d="M102.317 30.5109C100.578 30.5109 99.1883 29.0144 99.3653 27.2388C99.5022 25.8669 100.598 24.7557 101.968 24.5968C102.292 24.5593 102.607 24.575 102.906 24.6351C103.293 22.7484 104.963 21.3295 106.964 21.3295C108.04 21.3295 109.021 21.7404 109.758 22.4135C110.18 20.5742 111.826 19.2021 113.794 19.2021C114.575 19.2021 115.306 19.4186 115.93 19.7948C116.668 16.8698 119.09 14.7234 121.968 14.7234C124.444 14.7234 126.584 16.313 127.603 18.6205L129.868 19.7072V30.5923L102.317 30.5109Z" fill="#F8FAFF"/>
<path d="M86.9088 16.1287H85.145V14.3649H86.9088V16.1287Z" fill="#C9DFFF"/>
<path d="M86.9088 18.7327H85.145V16.9689H86.9088V18.7327Z" fill="#C9DFFF"/>
<path d="M86.9088 21.3367H85.145V19.5729H86.9088V21.3367Z" fill="#C9DFFF"/>
<path d="M86.9088 24.9149H85.145V23.1511H86.9088V24.9149Z" fill="#C9DFFF"/>
<path d="M86.9088 27.8696H85.145V26.1058H86.9088V27.8696Z" fill="#C9DFFF"/>
<path d="M94.8112 9.44165H93.0474V7.67786H94.8112V9.44165Z" fill="#C9DFFF"/>
<path d="M94.8112 12.0457H93.0474V10.2819H94.8112V12.0457Z" fill="#C9DFFF"/>
<path d="M94.8112 14.6497H93.0474V12.8859H94.8112V14.6497Z" fill="#C9DFFF"/>
<path d="M94.8112 18.2278H93.0474V16.464H94.8112V18.2278Z" fill="#C9DFFF"/>
<path d="M94.8112 21.1825H93.0474V19.4187H94.8112V21.1825Z" fill="#C9DFFF"/>
<path d="M89.5426 11.8262H87.7788V10.0624H89.5426V11.8262Z" fill="#C9DFFF"/>
<path d="M89.5426 14.4303H87.7788V12.6665H89.5426V14.4303Z" fill="#C9DFFF"/>
<path d="M89.5426 17.0342H87.7788V15.2704H89.5426V17.0342Z" fill="#C9DFFF"/>
<path d="M89.5426 20.6124H87.7788V18.8486H89.5426V20.6124Z" fill="#C9DFFF"/>
<path d="M89.5426 23.5673H87.7788V21.8035H89.5426V23.5673Z" fill="#C9DFFF"/>
<path d="M92.1774 18.8529H90.4136V17.0891H92.1774V18.8529Z" fill="#C9DFFF"/>
<path d="M92.1774 15.5262H90.4136V13.7625H92.1774V15.5262Z" fill="#C9DFFF"/>
<path d="M92.1774 21.4568H90.4136V19.693H92.1774V21.4568Z" fill="#C9DFFF"/>
<path d="M92.1774 24.0608H90.4136V22.297H92.1774V24.0608Z" fill="#C9DFFF"/>
<path d="M92.1774 27.6389H90.4136V25.8751H92.1774V27.6389Z" fill="#C9DFFF"/>
<path d="M92.1774 30.5938H90.4136V28.83H92.1774V30.5938Z" fill="#C9DFFF"/>
<path d="M78.1237 5.09338H76.3599V3.32959H78.1237V5.09338Z" fill="#C9DFFF"/>
<path d="M78.1237 7.69739H76.3599V5.93359H78.1237V7.69739Z" fill="#C9DFFF"/>
<path d="M78.1237 10.3014H76.3599V8.5376H78.1237V10.3014Z" fill="#C9DFFF"/>
<path d="M78.1237 13.8795H76.3599V12.1157H78.1237V13.8795Z" fill="#C9DFFF"/>
<path d="M78.1237 16.8342H76.3599V15.0704H78.1237V16.8342Z" fill="#C9DFFF"/>
<path d="M86.027 3.61426H84.2632V1.85046H86.027V3.61426Z" fill="#C9DFFF"/>
<path d="M86.027 7.19226H84.2632V5.42847H86.027V7.19226Z" fill="#C9DFFF"/>
<path d="M86.027 10.1472H84.2632V8.38342H86.027V10.1472Z" fill="#C9DFFF"/>
<path d="M80.7584 3.3949H78.9946V1.6311H80.7584V3.3949Z" fill="#C9DFFF"/>
<path d="M80.7584 5.99878H78.9946V4.23499H80.7584V5.99878Z" fill="#C9DFFF"/>
<path d="M80.7584 9.57703H78.9946V7.81323H80.7584V9.57703Z" fill="#C9DFFF"/>
<path d="M80.7584 12.5317H78.9946V10.7679H80.7584V12.5317Z" fill="#C9DFFF"/>
<path d="M83.3922 7.81738H81.6284V6.05359H83.3922V7.81738Z" fill="#C9DFFF"/>
<path d="M83.3922 4.49072H81.6284V2.72693H83.3922V4.49072Z" fill="#C9DFFF"/>
<path d="M83.3922 10.4214H81.6284V8.65759H83.3922V10.4214Z" fill="#C9DFFF"/>
<path d="M83.3922 13.0255H81.6284V11.2617H83.3922V13.0255Z" fill="#C9DFFF"/>
<path d="M83.3922 16.6036H81.6284V14.8398H83.3922V16.6036Z" fill="#C9DFFF"/>
<path d="M83.3922 19.5584H81.6284V17.7946H83.3922V19.5584Z" fill="#C9DFFF"/>
</g>
</g>
<mask id="mask2_87_14688" style="mask-type:luminance" maskUnits="userSpaceOnUse" x="0" y="0" width="127" height="100">
<path d="M0.00195312 0H126.589V99.0501H0.00195312V0Z" fill="white"/>
</mask>
<g mask="url(#mask2_87_14688)">
<path d="M67.1962 26.4278C69.3389 26.4278 71.0951 24.6747 71.0988 22.532C71.0988 20.6528 69.4698 19.079 67.2802 18.662C67.3195 18.3269 67.3423 17.9863 67.3423 17.6403C67.3423 13.0361 63.7473 9.30364 59.3126 9.30364C58.7928 9.30364 58.2852 9.35674 57.7929 9.45467C55.9192 4.05974 49.9516 0.113892 42.8741 0.113892C36.3743 0.113892 30.8101 3.44184 28.493 8.16337C28.2691 8.14623 28.0434 8.1347 27.8151 8.1347C22.7586 8.1347 18.6595 12.3905 18.6595 17.6403C18.6595 18.4619 18.7598 19.2592 18.9487 20.0197C18.8528 20.0158 18.7567 20.0136 18.6595 20.0136C15.8278 20.0136 13.5322 21.6727 13.5322 23.7193C13.5322 23.7799 13.5345 23.8412 13.5387 23.9032C13.6372 25.3408 14.8904 26.4278 16.3313 26.4278H67.1962Z" fill="#E0EEFF"/>
<path d="M27.7366 18.1575C27.7366 18.8179 27.199 19.3553 26.5386 19.3553C25.8781 19.3553 25.3408 18.8179 25.3408 18.1575C25.3408 17.497 25.8781 16.9596 26.5386 16.9596C27.199 16.9596 27.7366 17.497 27.7366 18.1575ZM27.1837 18.1575C27.1837 17.8019 26.8942 17.5124 26.5386 17.5124C26.183 17.5124 25.8935 17.8019 25.8935 18.1575C25.8935 18.5131 26.183 18.8025 26.5386 18.8025C26.8942 18.8025 27.1837 18.5131 27.1837 18.1575Z" fill="#516FEC"/>
<path d="M26.8157 19.0791H26.2627V30.4815H26.8157V19.0791Z" fill="#516FEC"/>
<path d="M27.4253 32.2863H25.6533V30.7543C25.6533 30.3007 26.021 29.933 26.4745 29.933H26.6039C27.0576 29.933 27.4253 30.3007 27.4253 30.7543V32.2863Z" fill="#3838B9"/>
<path d="M25.6533 32.2863H27.425V31.9556H25.6533V32.2863Z" fill="#3838B9"/>
<path d="M34.429 11.6505H33.876V23.0529H34.429V11.6505Z" fill="#516FEC"/>
<path d="M35.3499 10.8307C35.3499 11.4912 34.8125 12.0286 34.152 12.0286C33.4915 12.0286 32.9541 11.4912 32.9541 10.8307C32.9541 10.1702 33.4915 9.63281 34.152 9.63281C34.8125 9.63281 35.3499 10.1702 35.3499 10.8307ZM34.797 10.8307C34.797 10.4749 34.5076 10.1857 34.152 10.1857C33.7964 10.1857 33.507 10.4749 33.507 10.8307C33.507 11.1864 33.7964 11.4757 34.152 11.4757C34.5076 11.4757 34.797 11.1864 34.797 10.8307Z" fill="#516FEC"/>
<path d="M31.7559 22.6577H34.4281V23.2106H32.3087V31.1642H31.7559V22.6577Z" fill="#516FEC"/>
<path d="M32.8169 32.2863H31.0449V30.7543C31.0449 30.3007 31.4126 29.933 31.8661 29.933H31.9955C32.4492 29.933 32.8169 30.3007 32.8169 30.7543V32.2863Z" fill="#3838B9"/>
<path d="M31.0449 32.2863H32.8166V31.9556H31.0449V32.2863Z" fill="#3838B9"/>
<path d="M38.7002 7.56982H39.2532V18.9722H38.7002V7.56982Z" fill="#516FEC"/>
<path d="M38.9761 5.72668C39.6365 5.72668 40.1738 6.26408 40.1738 6.92456C40.1738 7.58503 39.6365 8.12243 38.9761 8.12243C38.3156 8.12243 37.7783 7.58503 37.7783 6.92456C37.7783 6.26408 38.3156 5.72668 38.9761 5.72668ZM38.9761 7.56958C39.3317 7.56958 39.6211 7.28016 39.6211 6.92456C39.6211 6.56882 39.3317 6.27954 38.9761 6.27954C38.6205 6.27954 38.331 6.56882 38.331 6.92456C38.331 7.28016 38.6205 7.56958 38.9761 7.56958Z" fill="#516FEC"/>
<path d="M43.4914 18.7515H38.6724V19.3043H42.9384V30.2225H43.4914V18.7515Z" fill="#516FEC"/>
<path d="M44.1225 32.2863H42.3506V30.7543C42.3506 30.3007 42.7183 29.933 43.1718 29.933H43.3009C43.7547 29.933 44.1225 30.3007 44.1225 30.7543V32.2863Z" fill="#3838B9"/>
<path d="M42.3506 32.2863H44.1222V31.9556H42.3506V32.2863Z" fill="#3838B9"/>
<path d="M49.2063 13.618C49.2063 14.2785 48.6688 14.8159 48.0083 14.8159C47.3479 14.8159 46.8105 14.2785 46.8105 13.618C46.8105 12.9576 47.3479 12.4202 48.0083 12.4202C48.6688 12.4202 49.2063 12.9576 49.2063 13.618ZM48.6534 13.618C48.6534 13.2623 48.364 12.973 48.0083 12.973C47.6527 12.973 47.3633 13.2623 47.3633 13.618C47.3633 13.9736 47.6527 14.2631 48.0083 14.2631C48.364 14.2631 48.6534 13.9736 48.6534 13.618Z" fill="#516FEC"/>
<path d="M48.2844 14.5393H47.7314V32.3411H48.2844V14.5393Z" fill="#516FEC"/>
<path d="M48.894 32.2863H47.1221V30.7543C47.1221 30.3007 47.4898 29.933 47.9433 29.933H48.0727C48.5263 29.933 48.894 30.3007 48.894 30.7543V32.2863Z" fill="#3838B9"/>
<path d="M47.1221 32.2863H48.8937V31.9556H47.1221V32.2863Z" fill="#3838B9"/>
<path d="M57.2239 23.5257C57.2239 24.1862 56.6865 24.7235 56.026 24.7235C55.3655 24.7235 54.8281 24.1862 54.8281 23.5257C54.8281 22.8653 55.3655 22.328 56.026 22.328C56.6865 22.328 57.2239 22.8653 57.2239 23.5257ZM56.671 23.5257C56.671 23.17 56.3817 22.8809 56.026 22.8809C55.6704 22.8809 55.381 23.17 55.381 23.5257C55.381 23.8813 55.6704 24.1708 56.026 24.1708C56.3817 24.1708 56.671 23.8813 56.671 23.5257Z" fill="#516FEC"/>
<path d="M55.1974 23.22H52.5254V31.7265H53.0782V23.7728H55.1974V23.22Z" fill="#516FEC"/>
<path d="M53.686 32.2863H51.9141V30.7543C51.9141 30.3007 52.2817 29.933 52.7353 29.933H52.8647C53.3183 29.933 53.686 30.3007 53.686 30.7543V32.2863Z" fill="#3838B9"/>
<path d="M51.9141 32.2863H53.6857V31.9556H51.9141V32.2863Z" fill="#3838B9"/>
<path d="M57.2826 98.9688H23.6605C23.1142 98.9688 22.6714 98.526 22.6714 97.9797V32.6333C22.6714 32.087 23.1142 31.6442 23.6605 31.6442H57.2826C57.829 31.6442 58.2715 32.087 58.2715 32.6333V97.9797C58.2715 98.526 57.829 98.9688 57.2826 98.9688Z" fill="#544EDD"/>
<path d="M55.1109 95.6659H25.8321C25.3478 95.6659 24.9551 95.2734 24.9551 94.789V35.8236C24.9551 35.3393 25.3478 34.9467 25.8321 34.9467H55.1109C55.5951 34.9467 55.9877 35.3393 55.9877 35.8236V94.789C55.9877 95.2734 55.5951 95.6659 55.1109 95.6659Z" fill="#3838B9"/>
<path d="M54.5709 40.4125H26.3717C25.9107 40.4125 25.5371 40.0388 25.5371 39.578V36.109C25.5371 35.648 25.9107 35.2743 26.3717 35.2743H54.5709C55.0319 35.2743 55.4053 35.648 55.4053 36.109V39.578C55.4053 40.0388 55.0319 40.4125 54.5709 40.4125Z" fill="#796CF1"/>
<path d="M37.7344 38.9709H27.9983C27.6531 38.9709 27.373 38.691 27.373 38.346V37.3409C27.373 36.9957 27.6531 36.7159 27.9983 36.7159H37.7344C38.0795 36.7159 38.3593 36.9957 38.3593 37.3409V38.346C38.3593 38.691 38.0795 38.9709 37.7344 38.9709Z" fill="#C9DFFF"/>
<path d="M54.5394 36.3042C54.5394 36.5664 54.3255 36.7789 54.0617 36.7789C53.7978 36.7789 53.584 36.5664 53.584 36.3042C53.584 36.042 53.7978 35.8295 54.0617 35.8295C54.3255 35.8295 54.5394 36.042 54.5394 36.3042Z" fill="#A9C95A"/>
<path d="M54.5394 37.8436C54.5394 38.1058 54.3255 38.3184 54.0617 38.3184C53.7978 38.3184 53.584 38.1058 53.584 37.8436C53.584 37.5815 53.7978 37.3689 54.0617 37.3689C54.3255 37.3689 54.5394 37.5815 54.5394 37.8436Z" fill="#A9C95A"/>
<path d="M54.5394 39.3827C54.5394 39.6449 54.3255 39.8574 54.0617 39.8574C53.7978 39.8574 53.584 39.6449 53.584 39.3827C53.584 39.1205 53.7978 38.908 54.0617 38.908C54.3255 38.908 54.5394 39.1205 54.5394 39.3827Z" fill="#A9C95A"/>
<path d="M44.4844 36.4768H42.5332C42.3898 36.4768 42.2734 36.3606 42.2734 36.2172C42.2734 36.0737 42.3898 35.9575 42.5332 35.9575H44.4844C44.6279 35.9575 44.7442 36.0737 44.7442 36.2172C44.7442 36.3606 44.6279 36.4768 44.4844 36.4768Z" fill="#3838B9"/>
<path d="M44.4844 38.103H42.5332C42.3898 38.103 42.2734 37.9868 42.2734 37.8434C42.2734 37.7001 42.3898 37.5837 42.5332 37.5837H44.4844C44.6279 37.5837 44.7442 37.7001 44.7442 37.8434C44.7442 37.9868 44.6279 38.103 44.4844 38.103Z" fill="#3838B9"/>
<path d="M44.4844 39.7294H42.5332C42.3898 39.7294 42.2734 39.6132 42.2734 39.4697C42.2734 39.3264 42.3898 39.2101 42.5332 39.2101H44.4844C44.6279 39.2101 44.7442 39.3264 44.7442 39.4697C44.7442 39.6132 44.6279 39.7294 44.4844 39.7294Z" fill="#3838B9"/>
<path d="M48.1278 36.4768H46.1765C46.0332 36.4768 45.917 36.3606 45.917 36.2172C45.917 36.0737 46.0332 35.9575 46.1765 35.9575H48.1278C48.2713 35.9575 48.3875 36.0737 48.3875 36.2172C48.3875 36.3606 48.2713 36.4768 48.1278 36.4768Z" fill="#3838B9"/>
<path d="M48.1278 38.103H46.1765C46.0332 38.103 45.917 37.9868 45.917 37.8434C45.917 37.7001 46.0332 37.5837 46.1765 37.5837H48.1278C48.2713 37.5837 48.3875 37.7001 48.3875 37.8434C48.3875 37.9868 48.2713 38.103 48.1278 38.103Z" fill="#3838B9"/>
<path d="M48.1278 39.7294H46.1765C46.0332 39.7294 45.917 39.6132 45.917 39.4697C45.917 39.3264 46.0332 39.2101 46.1765 39.2101H48.1278C48.2713 39.2101 48.3875 39.3264 48.3875 39.4697C48.3875 39.6132 48.2713 39.7294 48.1278 39.7294Z" fill="#3838B9"/>
<path d="M51.7694 36.4768H49.8181C49.6748 36.4768 49.5586 36.3606 49.5586 36.2172C49.5586 36.0737 49.6748 35.9575 49.8181 35.9575H51.7694C51.9129 35.9575 52.0291 36.0737 52.0291 36.2172C52.0291 36.3606 51.9129 36.4768 51.7694 36.4768Z" fill="#3838B9"/>
<path d="M51.7694 38.103H49.8181C49.6748 38.103 49.5586 37.9868 49.5586 37.8434C49.5586 37.7001 49.6748 37.5837 49.8181 37.5837H51.7694C51.9129 37.5837 52.0291 37.7001 52.0291 37.8434C52.0291 37.9868 51.9129 38.103 51.7694 38.103Z" fill="#3838B9"/>
<path d="M51.7694 39.7294H49.8181C49.6748 39.7294 49.5586 39.6132 49.5586 39.4697C49.5586 39.3264 49.6748 39.2101 49.8181 39.2101H51.7694C51.9129 39.2101 52.0291 39.3264 52.0291 39.4697C52.0291 39.6132 51.9129 39.7294 51.7694 39.7294Z" fill="#3838B9"/>
<path d="M54.5709 47.0367H26.3717C25.9107 47.0367 25.5371 46.663 25.5371 46.2021V42.7331C25.5371 42.2722 25.9107 41.8984 26.3717 41.8984H54.5709C55.0319 41.8984 55.4053 42.2722 55.4053 42.7331V46.2021C55.4053 46.663 55.0319 47.0367 54.5709 47.0367Z" fill="#796CF1"/>
<path d="M37.7344 45.5949H27.9983C27.6531 45.5949 27.373 45.3151 27.373 44.9699V43.9649C27.373 43.6197 27.6531 43.34 27.9983 43.34H37.7344C38.0795 43.34 38.3593 43.6197 38.3593 43.9649V44.9699C38.3593 45.3151 38.0795 45.5949 37.7344 45.5949Z" fill="#C9DFFF"/>
<path d="M54.5394 42.9284C54.5394 43.1905 54.3255 43.4031 54.0617 43.4031C53.7978 43.4031 53.584 43.1905 53.584 42.9284C53.584 42.6662 53.7978 42.4536 54.0617 42.4536C54.3255 42.4536 54.5394 42.6662 54.5394 42.9284Z" fill="#A9C95A"/>
<path d="M54.5394 44.4677C54.5394 44.7298 54.3255 44.9424 54.0617 44.9424C53.7978 44.9424 53.584 44.7298 53.584 44.4677C53.584 44.2055 53.7978 43.9929 54.0617 43.9929C54.3255 43.9929 54.5394 44.2055 54.5394 44.4677Z" fill="#A9C95A"/>
<path d="M54.5394 46.0067C54.5394 46.2689 54.3255 46.4815 54.0617 46.4815C53.7978 46.4815 53.584 46.2689 53.584 46.0067C53.584 45.7446 53.7978 45.532 54.0617 45.532C54.3255 45.532 54.5394 45.7446 54.5394 46.0067Z" fill="#A9C95A"/>
<path d="M44.4844 43.1008H42.5332C42.3898 43.1008 42.2734 42.9845 42.2734 42.8412C42.2734 42.6977 42.3898 42.5815 42.5332 42.5815H44.4844C44.6279 42.5815 44.7442 42.6977 44.7442 42.8412C44.7442 42.9845 44.6279 43.1008 44.4844 43.1008Z" fill="#3838B9"/>
<path d="M44.4844 44.727H42.5332C42.3898 44.727 42.2734 44.6108 42.2734 44.4674C42.2734 44.324 42.3898 44.2078 42.5332 44.2078H44.4844C44.6279 44.2078 44.7442 44.324 44.7442 44.4674C44.7442 44.6108 44.6279 44.727 44.4844 44.727Z" fill="#3838B9"/>
<path d="M44.4844 46.3535H42.5332C42.3898 46.3535 42.2734 46.2373 42.2734 46.0939C42.2734 45.9504 42.3898 45.8342 42.5332 45.8342H44.4844C44.6279 45.8342 44.7442 45.9504 44.7442 46.0939C44.7442 46.2373 44.6279 46.3535 44.4844 46.3535Z" fill="#3838B9"/>
<path d="M48.1278 43.1008H46.1765C46.0332 43.1008 45.917 42.9845 45.917 42.8412C45.917 42.6977 46.0332 42.5815 46.1765 42.5815H48.1278C48.2713 42.5815 48.3875 42.6977 48.3875 42.8412C48.3875 42.9845 48.2713 43.1008 48.1278 43.1008Z" fill="#3838B9"/>
<path d="M48.1278 44.7272H46.1765C46.0332 44.7272 45.917 44.611 45.917 44.4675C45.917 44.3241 46.0332 44.2079 46.1765 44.2079H48.1278C48.2713 44.2079 48.3875 44.3241 48.3875 44.4675C48.3875 44.611 48.2713 44.7272 48.1278 44.7272Z" fill="#3838B9"/>
<path d="M48.1278 46.3535H46.1765C46.0332 46.3535 45.917 46.2373 45.917 46.0939C45.917 45.9504 46.0332 45.8342 46.1765 45.8342H48.1278C48.2713 45.8342 48.3875 45.9504 48.3875 46.0939C48.3875 46.2373 48.2713 46.3535 48.1278 46.3535Z" fill="#3838B9"/>
<path d="M51.7694 43.1008H49.8181C49.6748 43.1008 49.5586 42.9845 49.5586 42.8412C49.5586 42.6977 49.6748 42.5815 49.8181 42.5815H51.7694C51.9129 42.5815 52.0291 42.6977 52.0291 42.8412C52.0291 42.9845 51.9129 43.1008 51.7694 43.1008Z" fill="#3838B9"/>
<path d="M51.7694 44.7272H49.8181C49.6748 44.7272 49.5586 44.611 49.5586 44.4675C49.5586 44.3241 49.6748 44.2079 49.8181 44.2079H51.7694C51.9129 44.2079 52.0291 44.3241 52.0291 44.4675C52.0291 44.611 51.9129 44.7272 51.7694 44.7272Z" fill="#3838B9"/>
<path d="M51.7694 46.3535H49.8181C49.6748 46.3535 49.5586 46.2373 49.5586 46.0939C49.5586 45.9504 49.6748 45.8342 49.8181 45.8342H51.7694C51.9129 45.8342 52.0291 45.9504 52.0291 46.0939C52.0291 46.2373 51.9129 46.3535 51.7694 46.3535Z" fill="#3838B9"/>
<path d="M54.5709 53.6607H26.3717C25.9107 53.6607 25.5371 53.287 25.5371 52.8262V49.3572C25.5371 48.8962 25.9107 48.5225 26.3717 48.5225H54.5709C55.0319 48.5225 55.4053 48.8962 55.4053 49.3572V52.8262C55.4053 53.287 55.0319 53.6607 54.5709 53.6607Z" fill="#796CF1"/>
<path d="M37.7344 52.2191H27.9983C27.6531 52.2191 27.373 51.9392 27.373 51.594V50.589C27.373 50.2438 27.6531 49.9641 27.9983 49.9641H37.7344C38.0795 49.9641 38.3593 50.2438 38.3593 50.589V51.594C38.3593 51.9392 38.0795 52.2191 37.7344 52.2191Z" fill="#C9DFFF"/>
<path d="M54.5394 49.5525C54.5394 49.8147 54.3255 50.0272 54.0617 50.0272C53.7978 50.0272 53.584 49.8147 53.584 49.5525C53.584 49.2903 53.7978 49.0778 54.0617 49.0778C54.3255 49.0778 54.5394 49.2903 54.5394 49.5525Z" fill="#C9DFFF"/>
<path d="M54.5394 51.0917C54.5394 51.3538 54.3255 51.5664 54.0617 51.5664C53.7978 51.5664 53.584 51.3538 53.584 51.0917C53.584 50.8295 53.7978 50.6169 54.0617 50.6169C54.3255 50.6169 54.5394 50.8295 54.5394 51.0917Z" fill="#C9DFFF"/>
<path d="M54.5394 52.631C54.5394 52.8932 54.3255 53.1057 54.0617 53.1057C53.7978 53.1057 53.584 52.8932 53.584 52.631C53.584 52.3688 53.7978 52.1562 54.0617 52.1562C54.3255 52.1562 54.5394 52.3688 54.5394 52.631Z" fill="#C9DFFF"/>
<path d="M44.4844 49.7248H42.5332C42.3898 49.7248 42.2734 49.6087 42.2734 49.4652C42.2734 49.3219 42.3898 49.2056 42.5332 49.2056H44.4844C44.6279 49.2056 44.7442 49.3219 44.7442 49.4652C44.7442 49.6087 44.6279 49.7248 44.4844 49.7248Z" fill="#3838B9"/>
<path d="M44.4844 51.3513H42.5332C42.3898 51.3513 42.2734 51.235 42.2734 51.0917C42.2734 50.9482 42.3898 50.832 42.5332 50.832H44.4844C44.6279 50.832 44.7442 50.9482 44.7442 51.0917C44.7442 51.235 44.6279 51.3513 44.4844 51.3513Z" fill="#3838B9"/>
<path d="M44.4844 52.9776H42.5332C42.3898 52.9776 42.2734 52.8613 42.2734 52.718C42.2734 52.5746 42.3898 52.4584 42.5332 52.4584H44.4844C44.6279 52.4584 44.7442 52.5746 44.7442 52.718C44.7442 52.8613 44.6279 52.9776 44.4844 52.9776Z" fill="#3838B9"/>
<path d="M48.1278 49.7248H46.1765C46.0332 49.7248 45.917 49.6087 45.917 49.4652C45.917 49.3219 46.0332 49.2056 46.1765 49.2056H48.1278C48.2713 49.2056 48.3875 49.3219 48.3875 49.4652C48.3875 49.6087 48.2713 49.7248 48.1278 49.7248Z" fill="#3838B9"/>
<path d="M48.1278 51.3513H46.1765C46.0332 51.3513 45.917 51.235 45.917 51.0917C45.917 50.9482 46.0332 50.832 46.1765 50.832H48.1278C48.2713 50.832 48.3875 50.9482 48.3875 51.0917C48.3875 51.235 48.2713 51.3513 48.1278 51.3513Z" fill="#3838B9"/>
<path d="M48.1278 52.9776H46.1765C46.0332 52.9776 45.917 52.8613 45.917 52.718C45.917 52.5746 46.0332 52.4584 46.1765 52.4584H48.1278C48.2713 52.4584 48.3875 52.5746 48.3875 52.718C48.3875 52.8613 48.2713 52.9776 48.1278 52.9776Z" fill="#3838B9"/>
<path d="M51.7694 49.7248H49.8181C49.6748 49.7248 49.5586 49.6087 49.5586 49.4652C49.5586 49.3219 49.6748 49.2056 49.8181 49.2056H51.7694C51.9129 49.2056 52.0291 49.3219 52.0291 49.4652C52.0291 49.6087 51.9129 49.7248 51.7694 49.7248Z" fill="#3838B9"/>
<path d="M51.7694 51.3513H49.8181C49.6748 51.3513 49.5586 51.235 49.5586 51.0917C49.5586 50.9482 49.6748 50.832 49.8181 50.832H51.7694C51.9129 50.832 52.0291 50.9482 52.0291 51.0917C52.0291 51.235 51.9129 51.3513 51.7694 51.3513Z" fill="#3838B9"/>
<path d="M51.7694 52.9776H49.8181C49.6748 52.9776 49.5586 52.8613 49.5586 52.718C49.5586 52.5746 49.6748 52.4584 49.8181 52.4584H51.7694C51.9129 52.4584 52.0291 52.5746 52.0291 52.718C52.0291 52.8613 51.9129 52.9776 51.7694 52.9776Z" fill="#3838B9"/>
<path d="M54.5709 60.2848H26.3717C25.9107 60.2848 25.5371 59.9112 25.5371 59.4504V55.9814C25.5371 55.5204 25.9107 55.1469 26.3717 55.1469H54.5709C55.0319 55.1469 55.4053 55.5204 55.4053 55.9814V59.4504C55.4053 59.9112 55.0319 60.2848 54.5709 60.2848Z" fill="#796CF1"/>
<path d="M37.7344 58.8433H27.9983C27.6531 58.8433 27.373 58.5635 27.373 58.2184V57.2133C27.373 56.8681 27.6531 56.5884 27.9983 56.5884H37.7344C38.0795 56.5884 38.3593 56.8681 38.3593 57.2133V58.2184C38.3593 58.5635 38.0795 58.8433 37.7344 58.8433Z" fill="#C9DFFF"/>
<path d="M54.5394 56.1765C54.5394 56.4387 54.3255 56.6513 54.0617 56.6513C53.7978 56.6513 53.584 56.4387 53.584 56.1765C53.584 55.9144 53.7978 55.7018 54.0617 55.7018C54.3255 55.7018 54.5394 55.9144 54.5394 56.1765Z" fill="#C9DFFF"/>
<path d="M54.5394 57.7157C54.5394 57.9779 54.3255 58.1904 54.0617 58.1904C53.7978 58.1904 53.584 57.9779 53.584 57.7157C53.584 57.4535 53.7978 57.241 54.0617 57.241C54.3255 57.241 54.5394 57.4535 54.5394 57.7157Z" fill="#C9DFFF"/>
<path d="M54.5394 59.255C54.5394 59.5172 54.3255 59.7297 54.0617 59.7297C53.7978 59.7297 53.584 59.5172 53.584 59.255C53.584 58.9928 53.7978 58.7803 54.0617 58.7803C54.3255 58.7803 54.5394 58.9928 54.5394 59.255Z" fill="#C9DFFF"/>
<path d="M44.4844 56.3491H42.5332C42.3898 56.3491 42.2734 56.2329 42.2734 56.0895C42.2734 55.9462 42.3898 55.8298 42.5332 55.8298H44.4844C44.6279 55.8298 44.7442 55.9462 44.7442 56.0895C44.7442 56.2329 44.6279 56.3491 44.4844 56.3491Z" fill="#3838B9"/>
<path d="M44.4844 57.9753H42.5332C42.3898 57.9753 42.2734 57.8591 42.2734 57.7157C42.2734 57.5724 42.3898 57.4561 42.5332 57.4561H44.4844C44.6279 57.4561 44.7442 57.5724 44.7442 57.7157C44.7442 57.8591 44.6279 57.9753 44.4844 57.9753Z" fill="#3838B9"/>
<path d="M44.4844 59.6017H42.5332C42.3898 59.6017 42.2734 59.4855 42.2734 59.342C42.2734 59.1987 42.3898 59.0824 42.5332 59.0824H44.4844C44.6279 59.0824 44.7442 59.1987 44.7442 59.342C44.7442 59.4855 44.6279 59.6017 44.4844 59.6017Z" fill="#3838B9"/>
<path d="M48.1278 56.3491H46.1765C46.0332 56.3491 45.917 56.2329 45.917 56.0895C45.917 55.9462 46.0332 55.8298 46.1765 55.8298H48.1278C48.2713 55.8298 48.3875 55.9462 48.3875 56.0895C48.3875 56.2329 48.2713 56.3491 48.1278 56.3491Z" fill="#3838B9"/>
<path d="M48.1278 57.9753H46.1765C46.0332 57.9753 45.917 57.8591 45.917 57.7157C45.917 57.5724 46.0332 57.4561 46.1765 57.4561H48.1278C48.2713 57.4561 48.3875 57.5724 48.3875 57.7157C48.3875 57.8591 48.2713 57.9753 48.1278 57.9753Z" fill="#3838B9"/>
<path d="M48.1278 59.6017H46.1765C46.0332 59.6017 45.917 59.4855 45.917 59.342C45.917 59.1987 46.0332 59.0824 46.1765 59.0824H48.1278C48.2713 59.0824 48.3875 59.1987 48.3875 59.342C48.3875 59.4855 48.2713 59.6017 48.1278 59.6017Z" fill="#3838B9"/>
<path d="M51.7694 56.3491H49.8181C49.6748 56.3491 49.5586 56.2329 49.5586 56.0895C49.5586 55.9462 49.6748 55.8298 49.8181 55.8298H51.7694C51.9129 55.8298 52.0291 55.9462 52.0291 56.0895C52.0291 56.2329 51.9129 56.3491 51.7694 56.3491Z" fill="#3838B9"/>
<path d="M51.7694 57.9753H49.8181C49.6748 57.9753 49.5586 57.8591 49.5586 57.7157C49.5586 57.5724 49.6748 57.4561 49.8181 57.4561H51.7694C51.9129 57.4561 52.0291 57.5724 52.0291 57.7157C52.0291 57.8591 51.9129 57.9753 51.7694 57.9753Z" fill="#3838B9"/>
<path d="M51.7694 59.6017H49.8181C49.6748 59.6017 49.5586 59.4855 49.5586 59.342C49.5586 59.1987 49.6748 59.0824 49.8181 59.0824H51.7694C51.9129 59.0824 52.0291 59.1987 52.0291 59.342C52.0291 59.4855 51.9129 59.6017 51.7694 59.6017Z" fill="#3838B9"/>
<path d="M54.5709 66.9091H26.3717C25.9107 66.9091 25.5371 66.5354 25.5371 66.0746V62.6056C25.5371 62.1446 25.9107 61.7709 26.3717 61.7709H54.5709C55.0319 61.7709 55.4053 62.1446 55.4053 62.6056V66.0746C55.4053 66.5354 55.0319 66.9091 54.5709 66.9091Z" fill="#796CF1"/>
<path d="M37.7344 65.4674H27.9983C27.6531 65.4674 27.373 65.1875 27.373 64.8423V63.8373C27.373 63.4921 27.6531 63.2124 27.9983 63.2124H37.7344C38.0795 63.2124 38.3593 63.4921 38.3593 63.8373V64.8423C38.3593 65.1875 38.0795 65.4674 37.7344 65.4674Z" fill="#C9DFFF"/>
<path d="M54.5394 62.8007C54.5394 63.0628 54.3255 63.2754 54.0617 63.2754C53.7978 63.2754 53.584 63.0628 53.584 62.8007C53.584 62.5385 53.7978 62.3259 54.0617 62.3259C54.3255 62.3259 54.5394 62.5385 54.5394 62.8007Z" fill="#C9DFFF"/>
<path d="M54.5394 64.34C54.5394 64.6021 54.3255 64.8147 54.0617 64.8147C53.7978 64.8147 53.584 64.6021 53.584 64.34C53.584 64.0778 53.7978 63.8652 54.0617 63.8652C54.3255 63.8652 54.5394 64.0778 54.5394 64.34Z" fill="#C9DFFF"/>
<path d="M54.5394 65.879C54.5394 66.1412 54.3255 66.3538 54.0617 66.3538C53.7978 66.3538 53.584 66.1412 53.584 65.879C53.584 65.6169 53.7978 65.4043 54.0617 65.4043C54.3255 65.4043 54.5394 65.6169 54.5394 65.879Z" fill="#C9DFFF"/>
<path d="M44.4844 62.9733H42.5332C42.3898 62.9733 42.2734 62.8571 42.2734 62.7136C42.2734 62.5702 42.3898 62.454 42.5332 62.454H44.4844C44.6279 62.454 44.7442 62.5702 44.7442 62.7136C44.7442 62.8571 44.6279 62.9733 44.4844 62.9733Z" fill="#3838B9"/>
<path d="M44.4844 64.5996H42.5332C42.3898 64.5996 42.2734 64.4834 42.2734 64.34C42.2734 64.1965 42.3898 64.0803 42.5332 64.0803H44.4844C44.6279 64.0803 44.7442 64.1965 44.7442 64.34C44.7442 64.4834 44.6279 64.5996 44.4844 64.5996Z" fill="#3838B9"/>
<path d="M44.4844 66.2258H42.5332C42.3898 66.2258 42.2734 66.1096 42.2734 65.9662C42.2734 65.8229 42.3898 65.7065 42.5332 65.7065H44.4844C44.6279 65.7065 44.7442 65.8229 44.7442 65.9662C44.7442 66.1096 44.6279 66.2258 44.4844 66.2258Z" fill="#3838B9"/>
<path d="M48.1278 62.9733H46.1765C46.0332 62.9733 45.917 62.8571 45.917 62.7136C45.917 62.5702 46.0332 62.454 46.1765 62.454H48.1278C48.2713 62.454 48.3875 62.5702 48.3875 62.7136C48.3875 62.8571 48.2713 62.9733 48.1278 62.9733Z" fill="#3838B9"/>
<path d="M48.1278 64.5996H46.1765C46.0332 64.5996 45.917 64.4834 45.917 64.34C45.917 64.1965 46.0332 64.0803 46.1765 64.0803H48.1278C48.2713 64.0803 48.3875 64.1965 48.3875 64.34C48.3875 64.4834 48.2713 64.5996 48.1278 64.5996Z" fill="#3838B9"/>
<path d="M48.1278 66.2258H46.1765C46.0332 66.2258 45.917 66.1096 45.917 65.9662C45.917 65.8229 46.0332 65.7065 46.1765 65.7065H48.1278C48.2713 65.7065 48.3875 65.8229 48.3875 65.9662C48.3875 66.1096 48.2713 66.2258 48.1278 66.2258Z" fill="#3838B9"/>
<path d="M51.7694 62.9733H49.8181C49.6748 62.9733 49.5586 62.8571 49.5586 62.7136C49.5586 62.5702 49.6748 62.454 49.8181 62.454H51.7694C51.9129 62.454 52.0291 62.5702 52.0291 62.7136C52.0291 62.8571 51.9129 62.9733 51.7694 62.9733Z" fill="#3838B9"/>
<path d="M51.7694 64.5996H49.8181C49.6748 64.5996 49.5586 64.4834 49.5586 64.34C49.5586 64.1965 49.6748 64.0803 49.8181 64.0803H51.7694C51.9129 64.0803 52.0291 64.1965 52.0291 64.34C52.0291 64.4834 51.9129 64.5996 51.7694 64.5996Z" fill="#3838B9"/>
<path d="M51.7694 66.2258H49.8181C49.6748 66.2258 49.5586 66.1096 49.5586 65.9662C49.5586 65.8229 49.6748 65.7065 49.8181 65.7065H51.7694C51.9129 65.7065 52.0291 65.8229 52.0291 65.9662C52.0291 66.1096 51.9129 66.2258 51.7694 66.2258Z" fill="#3838B9"/>
<path d="M54.5709 73.5331H26.3717C25.9107 73.5331 25.5371 73.1594 25.5371 72.6986V69.2296C25.5371 68.7686 25.9107 68.3949 26.3717 68.3949H54.5709C55.0319 68.3949 55.4053 68.7686 55.4053 69.2296V72.6986C55.4053 73.1594 55.0319 73.5331 54.5709 73.5331Z" fill="#796CF1"/>
<path d="M37.7344 72.0915H27.9983C27.6531 72.0915 27.373 71.8116 27.373 71.4664V70.4615C27.373 70.1163 27.6531 69.8365 27.9983 69.8365H37.7344C38.0795 69.8365 38.3593 70.1163 38.3593 70.4615V71.4664C38.3593 71.8116 38.0795 72.0915 37.7344 72.0915Z" fill="#C9DFFF"/>
<path d="M54.5394 69.4248C54.5394 69.687 54.3255 69.8995 54.0617 69.8995C53.7978 69.8995 53.584 69.687 53.584 69.4248C53.584 69.1626 53.7978 68.9501 54.0617 68.9501C54.3255 68.9501 54.5394 69.1626 54.5394 69.4248Z" fill="#C9DFFF"/>
<path d="M54.5394 70.964C54.5394 71.2262 54.3255 71.4387 54.0617 71.4387C53.7978 71.4387 53.584 71.2262 53.584 70.964C53.584 70.7018 53.7978 70.4893 54.0617 70.4893C54.3255 70.4893 54.5394 70.7018 54.5394 70.964Z" fill="#C9DFFF"/>
<path d="M54.5394 72.5031C54.5394 72.7652 54.3255 72.9778 54.0617 72.9778C53.7978 72.9778 53.584 72.7652 53.584 72.5031C53.584 72.2409 53.7978 72.0283 54.0617 72.0283C54.3255 72.0283 54.5394 72.2409 54.5394 72.5031Z" fill="#C9DFFF"/>
<path d="M44.4844 69.5973H42.5332C42.3898 69.5973 42.2734 69.4809 42.2734 69.3376C42.2734 69.1942 42.3898 69.078 42.5332 69.078H44.4844C44.6279 69.078 44.7442 69.1942 44.7442 69.3376C44.7442 69.4809 44.6279 69.5973 44.4844 69.5973Z" fill="#3838B9"/>
<path d="M44.4844 71.2237H42.5332C42.3898 71.2237 42.2734 71.1074 42.2734 70.9641C42.2734 70.8207 42.3898 70.7045 42.5332 70.7045H44.4844C44.6279 70.7045 44.7442 70.8207 44.7442 70.9641C44.7442 71.1074 44.6279 71.2237 44.4844 71.2237Z" fill="#3838B9"/>
<path d="M44.4844 72.8498H42.5332C42.3898 72.8498 42.2734 72.7337 42.2734 72.5902C42.2734 72.4468 42.3898 72.3306 42.5332 72.3306H44.4844C44.6279 72.3306 44.7442 72.4468 44.7442 72.5902C44.7442 72.7337 44.6279 72.8498 44.4844 72.8498Z" fill="#3838B9"/>
<path d="M48.1278 69.5973H46.1765C46.0332 69.5973 45.917 69.4809 45.917 69.3376C45.917 69.1942 46.0332 69.078 46.1765 69.078H48.1278C48.2713 69.078 48.3875 69.1942 48.3875 69.3376C48.3875 69.4809 48.2713 69.5973 48.1278 69.5973Z" fill="#3838B9"/>
<path d="M48.1278 71.2237H46.1765C46.0332 71.2237 45.917 71.1074 45.917 70.9641C45.917 70.8207 46.0332 70.7045 46.1765 70.7045H48.1278C48.2713 70.7045 48.3875 70.8207 48.3875 70.9641C48.3875 71.1074 48.2713 71.2237 48.1278 71.2237Z" fill="#3838B9"/>
<path d="M48.1278 72.8498H46.1765C46.0332 72.8498 45.917 72.7337 45.917 72.5902C45.917 72.4468 46.0332 72.3306 46.1765 72.3306H48.1278C48.2713 72.3306 48.3875 72.4468 48.3875 72.5902C48.3875 72.7337 48.2713 72.8498 48.1278 72.8498Z" fill="#3838B9"/>
<path d="M51.7694 69.5973H49.8181C49.6748 69.5973 49.5586 69.4809 49.5586 69.3376C49.5586 69.1942 49.6748 69.078 49.8181 69.078H51.7694C51.9129 69.078 52.0291 69.1942 52.0291 69.3376C52.0291 69.4809 51.9129 69.5973 51.7694 69.5973Z" fill="#3838B9"/>
<path d="M51.7694 71.2237H49.8181C49.6748 71.2237 49.5586 71.1074 49.5586 70.9641C49.5586 70.8207 49.6748 70.7045 49.8181 70.7045H51.7694C51.9129 70.7045 52.0291 70.8207 52.0291 70.9641C52.0291 71.1074 51.9129 71.2237 51.7694 71.2237Z" fill="#3838B9"/>
<path d="M51.7694 72.8498H49.8181C49.6748 72.8498 49.5586 72.7337 49.5586 72.5902C49.5586 72.4468 49.6748 72.3306 49.8181 72.3306H51.7694C51.9129 72.3306 52.0291 72.4468 52.0291 72.5902C52.0291 72.7337 51.9129 72.8498 51.7694 72.8498Z" fill="#3838B9"/>
<path d="M54.5709 79.9055H26.3717C25.9107 79.9055 25.5371 79.5317 25.5371 79.0709V75.6019C25.5371 75.1409 25.9107 74.7672 26.3717 74.7672H54.5709C55.0319 74.7672 55.4053 75.1409 55.4053 75.6019V79.0709C55.4053 79.5317 55.0319 79.9055 54.5709 79.9055Z" fill="#796CF1"/>
<path d="M37.7344 78.4637H27.9983C27.6531 78.4637 27.373 78.1838 27.373 77.8388V76.8337C27.373 76.4885 27.6531 76.2087 27.9983 76.2087H37.7344C38.0795 76.2087 38.3593 76.4885 38.3593 76.8337V77.8388C38.3593 78.1838 38.0795 78.4637 37.7344 78.4637Z" fill="#C9DFFF"/>
<path d="M54.5394 75.7971C54.5394 76.0593 54.3255 76.2719 54.0617 76.2719C53.7978 76.2719 53.584 76.0593 53.584 75.7971C53.584 75.535 53.7978 75.3224 54.0617 75.3224C54.3255 75.3224 54.5394 75.535 54.5394 75.7971Z" fill="#C9DFFF"/>
<path d="M54.5394 77.3362C54.5394 77.5984 54.3255 77.8109 54.0617 77.8109C53.7978 77.8109 53.584 77.5984 53.584 77.3362C53.584 77.074 53.7978 76.8615 54.0617 76.8615C54.3255 76.8615 54.5394 77.074 54.5394 77.3362Z" fill="#C9DFFF"/>
<path d="M54.5394 78.8754C54.5394 79.1375 54.3255 79.3501 54.0617 79.3501C53.7978 79.3501 53.584 79.1375 53.584 78.8754C53.584 78.6132 53.7978 78.4006 54.0617 78.4006C54.3255 78.4006 54.5394 78.6132 54.5394 78.8754Z" fill="#C9DFFF"/>
<path d="M44.4844 75.9696H42.5332C42.3898 75.9696 42.2734 75.8534 42.2734 75.71C42.2734 75.5666 42.3898 75.4503 42.5332 75.4503H44.4844C44.6279 75.4503 44.7442 75.5666 44.7442 75.71C44.7442 75.8534 44.6279 75.9696 44.4844 75.9696Z" fill="#3838B9"/>
<path d="M44.4844 77.5959H42.5332C42.3898 77.5959 42.2734 77.4797 42.2734 77.3363C42.2734 77.193 42.3898 77.0767 42.5332 77.0767H44.4844C44.6279 77.0767 44.7442 77.193 44.7442 77.3363C44.7442 77.4797 44.6279 77.5959 44.4844 77.5959Z" fill="#3838B9"/>
<path d="M44.4844 79.2223H42.5332C42.3898 79.2223 42.2734 79.1061 42.2734 78.9626C42.2734 78.8193 42.3898 78.703 42.5332 78.703H44.4844C44.6279 78.703 44.7442 78.8193 44.7442 78.9626C44.7442 79.1061 44.6279 79.2223 44.4844 79.2223Z" fill="#3838B9"/>
<path d="M48.1278 75.9696H46.1765C46.0332 75.9696 45.917 75.8534 45.917 75.71C45.917 75.5666 46.0332 75.4503 46.1765 75.4503H48.1278C48.2713 75.4503 48.3875 75.5666 48.3875 75.71C48.3875 75.8534 48.2713 75.9696 48.1278 75.9696Z" fill="#3838B9"/>
<path d="M48.1278 77.5959H46.1765C46.0332 77.5959 45.917 77.4797 45.917 77.3363C45.917 77.193 46.0332 77.0767 46.1765 77.0767H48.1278C48.2713 77.0767 48.3875 77.193 48.3875 77.3363C48.3875 77.4797 48.2713 77.5959 48.1278 77.5959Z" fill="#3838B9"/>
<path d="M48.1278 79.2223H46.1765C46.0332 79.2223 45.917 79.1061 45.917 78.9626C45.917 78.8193 46.0332 78.703 46.1765 78.703H48.1278C48.2713 78.703 48.3875 78.8193 48.3875 78.9626C48.3875 79.1061 48.2713 79.2223 48.1278 79.2223Z" fill="#3838B9"/>
<path d="M51.7694 75.9696H49.8181C49.6748 75.9696 49.5586 75.8534 49.5586 75.71C49.5586 75.5666 49.6748 75.4503 49.8181 75.4503H51.7694C51.9129 75.4503 52.0291 75.5666 52.0291 75.71C52.0291 75.8534 51.9129 75.9696 51.7694 75.9696Z" fill="#3838B9"/>
<path d="M51.7694 77.5959H49.8181C49.6748 77.5959 49.5586 77.4797 49.5586 77.3363C49.5586 77.193 49.6748 77.0767 49.8181 77.0767H51.7694C51.9129 77.0767 52.0291 77.193 52.0291 77.3363C52.0291 77.4797 51.9129 77.5959 51.7694 77.5959Z" fill="#3838B9"/>
<path d="M51.7694 79.2223H49.8181C49.6748 79.2223 49.5586 79.1061 49.5586 78.9626C49.5586 78.8193 49.6748 78.703 49.8181 78.703H51.7694C51.9129 78.703 52.0291 78.8193 52.0291 78.9626C52.0291 79.1061 51.9129 79.2223 51.7694 79.2223Z" fill="#3838B9"/>
<path d="M54.5709 94.7387H26.3717C25.9107 94.7387 25.5371 94.365 25.5371 93.9042V81.7192C25.5371 81.2582 25.9107 80.8846 26.3717 80.8846H54.5709C55.0319 80.8846 55.4053 81.2582 55.4053 81.7192V93.9042C55.4053 94.365 55.0319 94.7387 54.5709 94.7387Z" fill="#796CF1"/>
<path d="M28.3135 82.0699V93.698C28.3135 93.9753 28.0886 94.2002 27.8114 94.2002H27.1738C26.8963 94.2002 26.6714 93.9753 26.6714 93.698V82.0699C26.6714 81.7926 26.8963 81.5676 27.1738 81.5676H27.8114C28.0886 81.5676 28.3135 81.7926 28.3135 82.0699Z" fill="#C9DFFF"/>
<path d="M30.687 82.0699V93.698C30.687 93.9753 30.4621 94.2002 30.1849 94.2002H29.5473C29.2699 94.2002 29.0449 93.9753 29.0449 93.698V82.0699C29.0449 81.7926 29.2699 81.5676 29.5473 81.5676H30.1849C30.4621 81.5676 30.687 81.7926 30.687 82.0699Z" fill="#C9DFFF"/>
<path d="M33.0601 82.0699V93.698C33.0601 93.9753 32.8353 94.2002 32.558 94.2002H31.9204C31.6429 94.2002 31.418 93.9753 31.418 93.698V82.0699C31.418 81.7926 31.6429 81.5676 31.9204 81.5676H32.558C32.8353 81.5676 33.0601 81.7926 33.0601 82.0699Z" fill="#C9DFFF"/>
<path d="M35.4341 82.0698V93.6978C35.4341 93.9752 35.2092 94.2001 34.9318 94.2001H34.2944C34.0169 94.2001 33.792 93.9752 33.792 93.6978V82.0698C33.792 81.7924 34.0169 81.5675 34.2944 81.5675H34.9318C35.2092 81.5675 35.4341 81.7924 35.4341 82.0698Z" fill="#C9DFFF"/>
<path d="M37.8072 82.0698V93.6978C37.8072 93.9752 37.5822 94.2001 37.3049 94.2001H36.6675C36.39 94.2001 36.165 93.9752 36.165 93.6978V82.0698C36.165 81.7924 36.39 81.5675 36.6675 81.5675H37.3049C37.5822 81.5675 37.8072 81.7924 37.8072 82.0698Z" fill="#C9DFFF"/>
<path d="M50.255 85.8625C50.5189 85.8625 50.7327 86.0751 50.7327 86.3373C50.7327 86.5995 50.5189 86.812 50.255 86.812C49.9913 86.812 49.7773 86.5995 49.7773 86.3373C49.7773 86.0751 49.9913 85.8625 50.255 85.8625Z" fill="#3838B9"/>
<path d="M51.805 85.8625C52.0687 85.8625 52.2825 86.0751 52.2825 86.3373C52.2825 86.5995 52.0687 86.812 51.805 86.812C51.5411 86.812 51.3271 86.5995 51.3271 86.3373C51.3271 86.0751 51.5411 85.8625 51.805 85.8625Z" fill="#3838B9"/>
<path d="M53.3538 85.8625C53.6175 85.8625 53.8314 86.0751 53.8314 86.3373C53.8314 86.5995 53.6175 86.812 53.3538 86.812C53.09 86.812 52.876 86.5995 52.876 86.3373C52.876 86.0751 53.09 85.8625 53.3538 85.8625Z" fill="#3838B9"/>
<path d="M50.255 83.8894C50.5189 83.8894 50.7327 84.102 50.7327 84.3641C50.7327 84.6264 50.5189 84.8389 50.255 84.8389C49.9913 84.8389 49.7773 84.6264 49.7773 84.3641C49.7773 84.102 49.9913 83.8894 50.255 83.8894Z" fill="#3838B9"/>
<path d="M51.805 83.8894C52.0687 83.8894 52.2825 84.102 52.2825 84.3641C52.2825 84.6264 52.0687 84.8389 51.805 84.8389C51.5411 84.8389 51.3271 84.6264 51.3271 84.3641C51.3271 84.102 51.5411 83.8894 51.805 83.8894Z" fill="#3838B9"/>
<path d="M53.3538 83.8894C53.6175 83.8894 53.8314 84.102 53.8314 84.3641C53.8314 84.6264 53.6175 84.8389 53.3538 84.8389C53.09 84.8389 52.876 84.6264 52.876 84.3641C52.876 84.102 53.09 83.8894 53.3538 83.8894Z" fill="#3838B9"/>
<path d="M50.255 81.9164C50.5189 81.9164 50.7327 82.129 50.7327 82.3911C50.7327 82.6533 50.5189 82.8659 50.255 82.8659C49.9913 82.8659 49.7773 82.6533 49.7773 82.3911C49.7773 82.129 49.9913 81.9164 50.255 81.9164Z" fill="#3838B9"/>
<path d="M51.805 81.9164C52.0687 81.9164 52.2825 82.129 52.2825 82.3911C52.2825 82.6533 52.0687 82.8659 51.805 82.8659C51.5411 82.8659 51.3271 82.6533 51.3271 82.3911C51.3271 82.129 51.5411 81.9164 51.805 81.9164Z" fill="#3838B9"/>
<path d="M53.3538 81.9164C53.6175 81.9164 53.8314 82.129 53.8314 82.3911C53.8314 82.6533 53.6175 82.8659 53.3538 82.8659C53.09 82.8659 52.876 82.6533 52.876 82.3911C52.876 82.129 53.09 81.9164 53.3538 81.9164Z" fill="#3838B9"/>
<path d="M45.6028 85.8625C45.8665 85.8625 46.0804 86.0751 46.0804 86.3373C46.0804 86.5995 45.8665 86.812 45.6028 86.812C45.339 86.812 45.125 86.5995 45.125 86.3373C45.125 86.0751 45.339 85.8625 45.6028 85.8625Z" fill="#3838B9"/>
<path d="M47.1507 85.8625C47.4145 85.8625 47.6282 86.0751 47.6282 86.3373C47.6282 86.5995 47.4145 86.812 47.1507 86.812C46.8868 86.812 46.6729 86.5995 46.6729 86.3373C46.6729 86.0751 46.8868 85.8625 47.1507 85.8625Z" fill="#3838B9"/>
<path d="M48.7003 85.8625C48.9642 85.8625 49.178 86.0751 49.178 86.3373C49.178 86.5995 48.9642 86.812 48.7003 86.812C48.4365 86.812 48.2227 86.5995 48.2227 86.3373C48.2227 86.0751 48.4365 85.8625 48.7003 85.8625Z" fill="#3838B9"/>
<path d="M45.6028 83.8894C45.8665 83.8894 46.0804 84.102 46.0804 84.3641C46.0804 84.6264 45.8665 84.8389 45.6028 84.8389C45.339 84.8389 45.125 84.6264 45.125 84.3641C45.125 84.102 45.339 83.8894 45.6028 83.8894Z" fill="#3838B9"/>
<path d="M47.1507 83.8894C47.4145 83.8894 47.6282 84.102 47.6282 84.3641C47.6282 84.6264 47.4145 84.8389 47.1507 84.8389C46.8868 84.8389 46.6729 84.6264 46.6729 84.3641C46.6729 84.102 46.8868 83.8894 47.1507 83.8894Z" fill="#3838B9"/>
<path d="M48.7003 83.8894C48.9642 83.8894 49.178 84.102 49.178 84.3641C49.178 84.6264 48.9642 84.8389 48.7003 84.8389C48.4365 84.8389 48.2227 84.6264 48.2227 84.3641C48.2227 84.102 48.4365 83.8894 48.7003 83.8894Z" fill="#3838B9"/>
<path d="M45.6028 81.9164C45.8665 81.9164 46.0804 82.129 46.0804 82.3911C46.0804 82.6533 45.8665 82.8659 45.6028 82.8659C45.339 82.8659 45.125 82.6533 45.125 82.3911C45.125 82.129 45.339 81.9164 45.6028 81.9164Z" fill="#3838B9"/>
<path d="M47.1507 81.9164C47.4145 81.9164 47.6282 82.129 47.6282 82.3911C47.6282 82.6533 47.4145 82.8659 47.1507 82.8659C46.8868 82.8659 46.6729 82.6533 46.6729 82.3911C46.6729 82.129 46.8868 81.9164 47.1507 81.9164Z" fill="#3838B9"/>
<path d="M48.7003 81.9164C48.9642 81.9164 49.178 82.129 49.178 82.3911C49.178 82.6533 48.9642 82.8659 48.7003 82.8659C48.4365 82.8659 48.2227 82.6533 48.2227 82.3911C48.2227 82.129 48.4365 81.9164 48.7003 81.9164Z" fill="#3838B9"/>
<path d="M42.2736 85.8625C42.5374 85.8625 42.7513 86.0751 42.7513 86.3373C42.7513 86.5995 42.5374 86.812 42.2736 86.812C42.0099 86.812 41.7959 86.5995 41.7959 86.3373C41.7959 86.0751 42.0099 85.8625 42.2736 85.8625Z" fill="#3838B9"/>
<path d="M43.8226 85.8625C44.0863 85.8625 44.3001 86.0751 44.3001 86.3373C44.3001 86.5995 44.0863 86.812 43.8226 86.812C43.5587 86.812 43.3447 86.5995 43.3447 86.3373C43.3447 86.0751 43.5587 85.8625 43.8226 85.8625Z" fill="#3838B9"/>
<path d="M42.2736 83.8894C42.5374 83.8894 42.7513 84.102 42.7513 84.3641C42.7513 84.6264 42.5374 84.8389 42.2736 84.8389C42.0099 84.8389 41.7959 84.6264 41.7959 84.3641C41.7959 84.102 42.0099 83.8894 42.2736 83.8894Z" fill="#3838B9"/>
<path d="M43.8226 83.8894C44.0863 83.8894 44.3001 84.102 44.3001 84.3641C44.3001 84.6264 44.0863 84.8389 43.8226 84.8389C43.5587 84.8389 43.3447 84.6264 43.3447 84.3641C43.3447 84.102 43.5587 83.8894 43.8226 83.8894Z" fill="#3838B9"/>
<path d="M42.2736 81.9164C42.5374 81.9164 42.7513 82.129 42.7513 82.3911C42.7513 82.6533 42.5374 82.8659 42.2736 82.8659C42.0099 82.8659 41.7959 82.6533 41.7959 82.3911C41.7959 82.129 42.0099 81.9164 42.2736 81.9164Z" fill="#3838B9"/>
<path d="M43.8226 81.9164C44.0863 81.9164 44.3001 82.129 44.3001 82.3911C44.3001 82.6533 44.0863 82.8659 43.8226 82.8659C43.5587 82.8659 43.3447 82.6533 43.3447 82.3911C43.3447 82.129 43.5587 81.9164 43.8226 81.9164Z" fill="#3838B9"/>
<path d="M42.3049 92.3306H54.1494C54.3885 92.3306 54.5822 92.5243 54.5822 92.7636V93.1102C54.5822 93.3492 54.3885 93.5431 54.1494 93.5431H42.3049C42.066 93.5431 41.8721 93.3492 41.8721 93.1102V92.7636C41.8721 92.5243 42.066 92.3306 42.3049 92.3306Z" fill="#3838B9"/>
<path d="M42.3049 90.5781H54.1494C54.3885 90.5781 54.5822 90.7719 54.5822 91.011V91.3577C54.5822 91.5967 54.3885 91.7906 54.1494 91.7906H42.3049C42.066 91.7906 41.8721 91.5967 41.8721 91.3577V91.011C41.8721 90.7719 42.066 90.5781 42.3049 90.5781Z" fill="#3838B9"/>
<path d="M42.3049 88.8256H54.1494C54.3885 88.8256 54.5822 89.0193 54.5822 89.2586V89.6052C54.5822 89.8442 54.3885 90.038 54.1494 90.038H42.3049C42.066 90.038 41.8721 89.8442 41.8721 89.6052V89.2586C41.8721 89.0193 42.066 88.8256 42.3049 88.8256Z" fill="#3838B9"/>
<path d="M86.9093 16.1284H85.1455V14.3646H86.9093V16.1284Z" fill="#C9DFFF"/>
<path d="M86.9093 18.7325H85.1455V16.9688H86.9093V18.7325Z" fill="#C9DFFF"/>
<path d="M86.9093 21.3365H85.1455V19.5728H86.9093V21.3365Z" fill="#C9DFFF"/>
<path d="M86.9093 24.9148H85.1455V23.151H86.9093V24.9148Z" fill="#C9DFFF"/>
<path d="M86.9093 27.8695H85.1455V26.1057H86.9093V27.8695Z" fill="#C9DFFF"/>
<path d="M94.8116 9.44141H93.0479V7.67761H94.8116V9.44141Z" fill="#C9DFFF"/>
<path d="M94.8116 12.0455H93.0479V10.2817H94.8116V12.0455Z" fill="#C9DFFF"/>
<path d="M94.8116 14.6495H93.0479V12.8857H94.8116V14.6495Z" fill="#C9DFFF"/>
<path d="M94.8116 18.2277H93.0479V16.4639H94.8116V18.2277Z" fill="#C9DFFF"/>
<path d="M94.8116 21.1825H93.0479V19.4187H94.8116V21.1825Z" fill="#C9DFFF"/>
<path d="M89.5431 11.8259H87.7793V10.0621H89.5431V11.8259Z" fill="#C9DFFF"/>
<path d="M89.5431 14.4301H87.7793V12.6663H89.5431V14.4301Z" fill="#C9DFFF"/>
<path d="M89.5431 17.0342H87.7793V15.2704H89.5431V17.0342Z" fill="#C9DFFF"/>
<path d="M89.5431 20.6123H87.7793V18.8485H89.5431V20.6123Z" fill="#C9DFFF"/>
<path d="M89.5431 23.5671H87.7793V21.8033H89.5431V23.5671Z" fill="#C9DFFF"/>
<path d="M92.1779 18.8527H90.4141V17.0889H92.1779V18.8527Z" fill="#C9DFFF"/>
<path d="M92.1779 15.5261H90.4141V13.7623H92.1779V15.5261Z" fill="#C9DFFF"/>
<path d="M92.1779 21.4567H90.4141V19.6929H92.1779V21.4567Z" fill="#C9DFFF"/>
<path d="M92.1779 24.0607H90.4141V22.2969H92.1779V24.0607Z" fill="#C9DFFF"/>
<path d="M92.1779 27.6388H90.4141V25.875H92.1779V27.6388Z" fill="#C9DFFF"/>
<path d="M92.1779 30.5935H90.4141V28.8297H92.1779V30.5935Z" fill="#C9DFFF"/>
<path d="M126.58 35.7145H124.816V33.9507H126.58V35.7145Z" fill="#C9DFFF"/>
<path d="M126.58 38.3184H124.816V36.5546H126.58V38.3184Z" fill="#C9DFFF"/>
<path d="M126.58 40.9226H124.816V39.1588H126.58V40.9226Z" fill="#C9DFFF"/>
<path d="M126.58 45.3824H124.816V43.6187H126.58V45.3824Z" fill="#C9DFFF"/>
<path d="M126.58 52.7533H124.816V50.9895H126.58V52.7533Z" fill="#C9DFFF"/>
<path d="M123.615 32.3795H121.852V30.6157H123.615V32.3795Z" fill="#C9DFFF"/>
<path d="M123.615 34.9836H121.852V33.2198H123.615V34.9836Z" fill="#C9DFFF"/>
<path d="M123.615 37.5878H121.852V35.824H123.615V37.5878Z" fill="#C9DFFF"/>
<path d="M123.615 41.1659H121.852V39.4021H123.615V41.1659Z" fill="#C9DFFF"/>
<path d="M123.615 44.1206H121.852V42.3568H123.615V44.1206Z" fill="#C9DFFF"/>
<path d="M118.018 32.1603H116.254V30.3965H118.018V32.1603Z" fill="#C9DFFF"/>
<path d="M118.018 34.7643H116.254V33.0005H118.018V34.7643Z" fill="#C9DFFF"/>
<path d="M118.018 37.3682H116.254V35.6044H118.018V37.3682Z" fill="#C9DFFF"/>
<path d="M118.018 40.9464H116.254V39.1826H118.018V40.9464Z" fill="#C9DFFF"/>
<path d="M118.018 43.9011H116.254V42.1373H118.018V43.9011Z" fill="#C9DFFF"/>
<path d="M120.651 39.1868H118.888V37.423H120.651V39.1868Z" fill="#C9DFFF"/>
<path d="M120.651 35.8602H118.888V34.0964H120.651V35.8602Z" fill="#C9DFFF"/>
<path d="M120.651 41.7908H118.888V40.027H120.651V41.7908Z" fill="#C9DFFF"/>
<path d="M120.651 44.3949H118.888V42.6311H120.651V44.3949Z" fill="#C9DFFF"/>
<path d="M120.651 48.8547H118.888V47.0909H120.651V48.8547Z" fill="#C9DFFF"/>
<path d="M120.651 54.5427H118.888V52.7789H120.651V54.5427Z" fill="#C9DFFF"/>
<path d="M8.32532 47.296C10.9055 47.2727 11.4252 36.6187 9.91406 32.0162C8.40274 27.4135 5.79821 23.8875 5.69677 27.0522C5.45048 34.7363 4.81965 32.1235 4.09609 34.8596C2.57676 40.6043 6.84336 47.3094 8.32532 47.296Z" fill="#B0CCFB"/>
<path d="M3.27325 23.5033C4.62778 22.7644 1.54936 14.1452 0.687554 16.3616C-0.174533 18.578 0.45447 25.0407 3.27325 23.5033Z" fill="#B0CCFB"/>
</g>
<mask id="mask3_87_14688" style="mask-type:luminance" maskUnits="userSpaceOnUse" x="50" y="24" width="64" height="90">
<path d="M50.5571 24.6202H113.661V113.021H50.5571V24.6202Z" fill="white"/>
</mask>
<g mask="url(#mask3_87_14688)">
<path d="M71.0686 96.621H67.8237V78.3806H71.0686V96.621Z" fill="#544EDD"/>
<path d="M73.3363 48.4897C73.3363 48.4897 68.1673 40.0073 64.3639 39.9264C60.5604 39.8457 58.9075 39.7219 57.468 42.0861C56.0286 44.4505 53.8436 48.0859 52.387 48.9745C50.9303 49.8632 53.2875 76.5223 54.658 81.0463C56.0286 85.5703 55.8186 83.9546 68.7907 84.1969C81.7628 84.4394 83.798 84.7191 83.8324 82.3576C83.8668 79.9961 81.9385 72.1016 81.9385 72.1016C81.9385 72.1016 73.8114 51.4788 73.3363 48.4897Z" fill="#3838B9"/>
<path d="M84.8638 81.222L79.6321 66.1713C77.1905 59.834 73.6456 50.4334 73.3365 48.4897C73.3365 48.4897 68.5349 40.6106 64.782 39.9685C64.7878 40.2002 64.7596 40.4044 64.6538 40.4636C64.3728 40.6207 63.257 40.4636 62.1414 42.0563C61.4404 43.057 61.3355 43.8827 61.3355 43.8827C61.3355 43.8827 58.9206 44.4744 57.8023 45.9423C56.7649 47.3041 55.6594 49.4566 56.4653 55.2137C56.7833 57.4855 57.1242 58.9378 57.3823 59.8161C57.6273 60.6502 57.6976 61.5243 57.5903 62.3869C57.1609 65.8391 56.5221 74.8002 61.6752 80.4086C64.5588 83.5467 84.8638 81.222 84.8638 81.222Z" fill="#003077"/>
<path d="M78.4642 63.7583L79.6996 63.4867C79.8154 60.6656 80.448 50.8584 76.9747 44.9433C75.123 43.7469 73.1431 43.252 73.1431 43.252L78.4642 63.7583Z" fill="#533D8A"/>
<path d="M88.2228 107.709C88.2228 109.232 79.8018 110.466 69.4141 110.466C59.0263 110.466 50.6055 109.232 50.6055 107.709C50.6055 106.186 59.0263 104.951 69.4141 104.951C79.8018 104.951 88.2228 106.186 88.2228 107.709Z" fill="#8BB6F4"/>
<path d="M73.3203 66.3076C73.3203 66.3076 61.7694 69.8202 61.3976 69.3326C61.0257 68.8449 59.662 53.6774 59.662 53.6774L58.3169 55.1081C58.4474 57.1765 58.7605 59.265 58.6185 61.0117C58.1719 66.5069 59.4795 73.5492 59.4795 73.5492C62.6429 72.2055 67.1762 70.4578 70.4138 68.9875L73.3203 66.3076Z" fill="#533D8A"/>
<path d="M74.8635 64.511H99.6674C100.15 64.511 100.541 64.1198 100.541 63.6372C100.541 63.1545 100.15 62.7634 99.6674 62.7634H74.8635C74.381 62.7634 73.9897 63.1545 73.9897 63.6372C73.9897 64.1198 74.381 64.511 74.8635 64.511Z" fill="#011135"/>
<path d="M69.4483 108.873H69.4436C67.9514 108.873 66.7417 107.663 66.7417 106.171V91.925H72.1502V106.171C72.1502 107.663 70.9405 108.873 69.4483 108.873Z" fill="#3838B9"/>
<path d="M60.4217 106.571C60.4217 107.842 59.3893 108.873 58.1159 108.873C56.8424 108.873 55.8101 107.842 55.8101 106.571C55.8101 105.3 56.8424 104.269 58.1159 104.269C59.3893 104.269 60.4217 105.3 60.4217 106.571Z" fill="#3838B9"/>
<path d="M82.783 106.571C82.783 107.842 81.7507 108.873 80.4772 108.873C79.2038 108.873 78.1714 107.842 78.1714 106.571C78.1714 105.3 79.2038 104.269 80.4772 104.269C81.7507 104.269 82.783 105.3 82.783 106.571Z" fill="#3838B9"/>
<path d="M80.6764 106.379H58.3355C57.3728 106.379 56.5923 105.599 56.5923 104.636C56.5923 103.673 57.3728 102.893 58.3355 102.893H80.6764C81.6392 102.893 82.4197 103.673 82.4197 104.636C82.4197 105.599 81.6392 106.379 80.6764 106.379Z" fill="#544EDD"/>
<path d="M103.992 95.0544L102.578 102.399C102.578 102.399 95.104 102.282 95.2121 101.935C95.3203 101.587 95.6473 100.613 95.6473 100.613C95.6473 100.613 95.8346 95.3848 95.8524 95.0544C95.8701 94.7239 103.992 95.0544 103.992 95.0544Z" fill="#F6AC83"/>
<path d="M80.4773 80.3195C80.4773 80.3195 95.3512 76.6412 96.1644 76.6068C96.9776 76.5725 95.6674 98.3454 95.6674 98.3454C96.8327 99.016 98.1093 99.4724 99.4363 99.6926L103.424 100.354C103.424 100.354 110.614 72.2263 107.019 69.8204C103.424 67.4145 74.2098 66.0674 73.3206 66.3078C72.4313 66.5482 59.1422 79.7351 80.4773 80.3195Z" fill="#544EDD"/>
<path d="M97.1444 72.9565C95.2187 73.363 91.8601 74.083 88.5759 74.8398C84.148 75.8602 71.3941 74.0709 68.4792 73.6396C68.4792 73.6398 68.4792 73.64 68.4792 73.64C68.4764 73.6583 68.4739 73.6776 68.4711 73.6964C68.0219 76.9221 70.3447 80.0419 80.4769 80.3195C80.4769 80.3195 95.3508 76.6412 96.164 76.6068C96.9772 76.5725 95.667 98.3454 95.667 98.3454C96.1615 98.7682 96.7513 99.0651 97.386 99.2104L97.9361 99.3365C98.2772 96.352 98.4534 91.4733 98.8781 87.267C99.3555 82.538 99.0896 76.9984 98.9048 74.285C98.8445 73.3998 98.014 72.7729 97.1444 72.9565Z" fill="#3838B9"/>
<path d="M83.1709 101.09C83.1709 101.09 84.7059 103.426 84.8644 104.691C85.0228 105.956 90.5067 105.295 90.5067 105.295L92.5611 103.671C92.5611 103.671 91.0253 101.659 90.6548 99.5029C90.2843 97.3473 83.1709 101.09 83.1709 101.09Z" fill="#F6AC83"/>
<path d="M59.0229 66.3077C59.0229 66.3077 58.4214 78.3738 63.2563 80.3195C68.0912 82.2652 77.3684 76.6068 77.3684 76.6068C77.3684 76.6068 78.7945 86.2673 80.4471 93.3107C82.0998 100.354 84.1873 102.685 84.1873 102.685L91.7928 102.314C91.7928 102.314 87.1551 70.388 84.9993 69.2725C82.8436 68.1569 59.0229 66.3077 59.0229 66.3077Z" fill="#796CF1"/>
<path d="M85.9698 102.598C85.3674 100.845 84.2192 97.6856 82.631 92.5585C80.7389 86.4498 78.7146 73.5494 78.7146 73.5494C78.7146 73.5494 67.4291 79.603 64.248 77.1689C61.6446 75.1767 61.3517 69.4995 61.9848 66.5476C60.1707 66.3969 59.0229 66.3077 59.0229 66.3077C59.0229 66.3077 58.4214 78.3738 63.2563 80.3195C68.0912 82.2653 77.3682 76.6069 77.3682 76.6069C77.3682 76.6069 78.7944 86.2673 80.447 93.3108C82.0997 100.354 84.1872 102.685 84.1872 102.685L85.9698 102.598Z" fill="#544EDD"/>
<path d="M100.877 99.7181C101.272 99.3597 101.764 99.1228 102.293 99.0551C102.781 98.9926 103.352 98.9823 103.77 99.165C104.661 99.5551 104.964 101.127 105.908 101.896C106.853 102.664 108.279 103.748 110.316 104.318C111.782 104.728 112.724 104.296 113.531 104.824C113.731 104.955 113.576 107.15 111.764 108.075C110.784 108.576 103.69 108.247 102.109 108.078C100.528 107.909 99.2469 108.294 98.3379 108.356C97.4288 108.418 94.3497 108.044 94.3871 106.011C94.4244 103.979 95.6479 100.613 95.6479 100.613C95.6479 100.613 96.0624 101.397 97.1866 101.494C98.1229 101.575 99.9777 100.534 100.877 99.7181Z" fill="#3838B9"/>
<path d="M113.531 104.824C113.448 104.77 113.365 104.727 113.279 104.691C113.208 105.142 113.006 105.6 112.55 105.929C111.273 106.85 110.529 107.498 108.55 107.569C106.571 107.64 103.598 107.212 101.591 107.097C99.5841 106.981 95.4916 106.991 94.9199 105.739C94.7794 105.431 94.6372 105.129 94.5029 104.847C94.4365 105.259 94.3936 105.656 94.3871 106.011C94.3498 108.044 97.4289 108.417 98.338 108.356C99.247 108.294 100.528 107.908 102.109 108.077C103.69 108.246 110.785 108.576 111.764 108.075C113.576 107.15 113.731 104.955 113.531 104.824Z" fill="#003077"/>
<path d="M104.469 103.587C104.496 103.623 104.533 103.648 104.573 103.661C104.636 103.681 104.708 103.671 104.765 103.628C104.778 103.619 105.724 102.911 106.745 102.544C106.605 102.442 106.472 102.342 106.346 102.244C105.377 102.643 104.559 103.254 104.511 103.291C104.418 103.361 104.399 103.494 104.469 103.587Z" fill="#003077"/>
<path d="M106.321 104.185C106.348 104.221 106.384 104.246 106.424 104.259C106.488 104.28 106.56 104.27 106.617 104.227C106.627 104.219 107.256 103.748 108.041 103.376C107.889 103.291 107.744 103.206 107.603 103.12C106.914 103.476 106.401 103.861 106.362 103.889C106.269 103.96 106.251 104.092 106.321 104.185Z" fill="#003077"/>
<path d="M105.231 101.09C103.95 101.373 102.641 102.352 102.579 102.399C102.486 102.469 102.467 102.602 102.538 102.695C102.565 102.731 102.601 102.756 102.641 102.769C102.705 102.789 102.777 102.779 102.834 102.736C102.849 102.725 104.262 101.669 105.497 101.469C105.402 101.349 105.314 101.221 105.231 101.09Z" fill="#003077"/>
<path d="M89.734 103.372C90.1682 103.062 90.6837 102.884 91.2171 102.878C91.7099 102.873 92.278 102.93 92.6713 103.16C93.511 103.651 93.6281 105.248 94.4759 106.121C95.3238 106.994 96.6135 108.237 98.5705 109.041C99.9782 109.619 100.964 109.3 101.703 109.918C101.887 110.071 101.476 112.233 99.5685 112.941C98.5371 113.324 91.53 112.17 89.9794 111.818C88.4286 111.465 87.1114 111.699 86.2013 111.655C85.2914 111.61 82.277 110.88 82.5518 108.865C82.8268 106.851 84.4357 103.651 84.4357 103.651C84.4357 103.651 84.7555 104.478 85.8608 104.705C86.7812 104.894 88.7451 104.078 89.734 103.372Z" fill="#3838B9"/>
<path d="M101.703 109.918C101.628 109.855 101.55 109.802 101.469 109.757C101.346 110.197 101.092 110.627 100.599 110.901C99.2239 111.667 98.4094 112.224 96.4356 112.064C94.462 111.904 91.5598 111.132 89.5798 110.783C87.6 110.434 83.5342 109.967 83.1129 108.657C83.0093 108.335 82.9035 108.018 82.803 107.722C82.6889 108.124 82.5999 108.513 82.5518 108.865C82.2769 110.88 85.2913 111.61 86.2014 111.655C87.1114 111.699 88.4286 111.465 89.9793 111.818C91.53 112.17 98.537 113.324 99.5685 112.941C101.476 112.233 101.887 110.071 101.703 109.918Z" fill="#003077"/>
<path d="M92.8502 107.633C92.873 107.672 92.9061 107.701 92.9442 107.718C93.0047 107.746 93.0776 107.745 93.1395 107.709C93.1528 107.701 94.1758 107.108 95.2318 106.863C95.1049 106.745 94.9851 106.63 94.8713 106.519C93.8621 106.801 92.9783 107.313 92.926 107.344C92.8252 107.403 92.7913 107.532 92.8502 107.633Z" fill="#003077"/>
<path d="M94.6159 108.443C94.6385 108.482 94.6719 108.511 94.7099 108.529C94.7705 108.556 94.8432 108.555 94.9051 108.519C94.916 108.512 95.5961 108.118 96.4185 107.84C96.2782 107.738 96.1438 107.636 96.0143 107.534C95.2884 107.808 94.7329 108.13 94.6917 108.154C94.5909 108.213 94.5569 108.343 94.6159 108.443Z" fill="#003077"/>
<path d="M93.8962 105.242C92.5909 105.374 91.1765 106.194 91.1097 106.233C91.0089 106.292 90.9749 106.421 91.0337 106.522C91.0565 106.561 91.0898 106.59 91.1279 106.607C91.1884 106.635 91.2612 106.634 91.3231 106.598C91.3394 106.588 92.8659 105.704 94.1163 105.649C94.0363 105.519 93.9638 105.382 93.8962 105.242Z" fill="#003077"/>
<path d="M73.3799 43.3505C73.3799 43.3505 76.6288 44.1873 78.6803 46.2647C80.7317 48.342 84.9161 55.7147 84.9161 55.7147L88.9706 62.8733L78.4357 63.3374L73.3799 43.3505Z" fill="#9952BC"/>
<path d="M59.7143 69.3388C59.464 69.3693 59.0823 69.161 59.0295 68.9147C58.6687 67.2309 58.6945 65.455 58.7262 61.0066C58.7636 55.7555 57.2847 47.527 59.9282 45.6362C62.5718 43.7454 73.1674 41.7426 76.4264 45.7537C79.6856 49.7648 79.8022 67.2405 79.8022 67.2405C79.8022 67.2405 67.9637 68.3333 59.7143 69.3388Z" fill="#9952BC"/>
<path d="M62.4743 46.0875C67.8841 47.8226 68.0208 47.8905 70.2251 48.6471C71.4833 49.079 72.3243 49.3084 72.3243 49.3084C72.3243 49.3084 71.5243 47.4214 71.3247 47.3508C71.171 47.2965 66.4097 45.2425 64.3329 44.0041C63.4411 44.2001 62.6148 44.4344 61.9014 44.6886C61.8793 45.2467 61.9647 45.9241 62.4743 46.0875Z" fill="#533D8A"/>
<path d="M74.8519 46.7411C75.0999 46.2835 75.9927 46.0563 76.2154 45.5145C75.9983 45.2845 75.7554 45.0762 75.4893 44.8888C75.4537 44.9266 75.4325 44.9538 75.4325 44.9538C75.4325 44.9538 73.3394 46.7803 73.1162 47.9251C72.893 49.07 72.3248 49.3084 72.3248 49.3084C72.3248 49.3084 73.0218 50.1189 74.8519 46.7411Z" fill="#533D8A"/>
<path d="M72.3261 49.3084C72.3261 49.3084 70.2634 48.2874 68.0499 47.5007C65.5173 46.6003 63.1622 46.2944 62.8891 44.8787C62.54 43.0698 62.7849 41.3346 67.1639 40.6533C71.5429 39.972 76.4856 42.2896 76.5755 43.5221C76.7231 45.5428 75.7473 44.9933 74.4485 46.7384C73.9286 47.4369 73.5421 49.0025 72.3261 49.3084Z" fill="#9952BC"/>
<path d="M72.3441 46.7233C72.3441 46.7233 75.3927 44.4105 75.1363 43.4326C74.7565 41.9838 73.3498 41.8959 71.3377 41.4534C69.3255 41.011 65.5427 41.0763 64.9314 42.1464C64.3201 43.2165 71.9196 45.9859 72.3441 46.7233Z" fill="#533D8A"/>
<path d="M73.5761 41.169C73.5761 41.169 73.0556 43.9859 73.696 44.8755C73.9157 45.1809 74.5968 45.6803 74.2892 46.1716C73.7004 47.1121 71.7347 48.0899 71.7347 48.0899L66.1648 43.8445C66.1648 43.8445 67.2101 42.4252 67.1684 40.8564C67.1252 39.2267 66.9636 37.2402 66.9636 37.2402L73.5761 41.169Z" fill="#F6AC83"/>
<path d="M67.1678 40.8564C67.1245 39.2267 66.9629 37.2402 66.9629 37.2402L73.5755 41.169C73.5755 41.169 73.3673 42.2969 73.3765 43.3506C72.6855 43.6012 71.9508 43.7118 71.197 43.6566C69.5788 43.5381 68.1614 42.6757 67.1438 41.359C67.162 41.1941 67.1724 41.0265 67.1678 40.8564Z" fill="#F49F76"/>
<path d="M74.0655 46.496C74.3276 46.8037 74.3959 47.1754 74.2182 47.3262C74.0407 47.4769 73.6844 47.3496 73.4223 47.042C73.1603 46.7343 73.0918 46.3627 73.2694 46.212C73.4469 46.0612 73.8034 46.1883 74.0655 46.496Z" fill="#443475"/>
<path d="M70.2274 47.0261C70.0016 47.4102 69.9983 47.8268 70.2199 47.9567C70.4417 48.0866 70.8044 47.8805 71.0301 47.4965C71.2559 47.1124 71.2592 46.6957 71.0375 46.5658C70.8158 46.436 70.4531 46.6421 70.2274 47.0261Z" fill="#443475"/>
<path d="M70.3367 58.9181C70.2479 58.9175 70.1671 58.8583 70.1429 58.7685C70.1366 58.7454 69.9895 58.1937 69.938 57.4946C69.9191 57.2351 69.9684 56.7438 70.0367 56.0638C70.159 54.8467 70.3438 53.0073 70.2874 50.97C70.1998 47.8096 70.4296 47.027 70.4394 46.9951C70.4724 46.8886 70.5858 46.8288 70.6924 46.8618C70.7987 46.8945 70.8586 47.0067 70.8266 47.1129C70.8221 47.1286 70.6077 47.9207 70.6918 50.9588C70.7491 53.022 70.5626 54.8767 70.4394 56.1041C70.3756 56.7391 70.3252 57.2406 70.3416 57.4652C70.3901 58.1262 70.5321 58.6584 70.5336 58.6636C70.5626 58.7713 70.4986 58.8822 70.3907 58.9112C70.3726 58.916 70.3545 58.9182 70.3367 58.9181Z" fill="#E4C3FF"/>
<path d="M75.8981 57.6678C75.8469 57.6674 75.796 57.6478 75.7569 57.609C74.8363 56.6956 73.9676 52.3255 73.931 50.1686C73.8932 47.9493 73.556 46.8399 73.5526 46.829C73.5196 46.7225 73.579 46.6093 73.6856 46.5762C73.7922 46.5431 73.9056 46.6023 73.9389 46.7087C73.9535 46.7553 74.2966 47.876 74.3355 50.1618C74.3736 52.4082 75.2793 56.5657 76.0421 57.3226C76.1213 57.4011 76.1216 57.529 76.043 57.6081C76.003 57.6482 75.9505 57.6681 75.8981 57.6678Z" fill="#E4C3FF"/>
<path d="M74.0904 28.8499C71.6333 28.302 69.1121 29.8512 67.8472 32.455C67.5172 32.2043 67.1194 32.1021 66.7433 32.2143C66.0367 32.4248 65.6764 33.3062 65.9385 34.1826C66.122 34.7961 66.562 35.2435 67.0519 35.3851C66.7942 38.5877 68.4758 41.4437 71.1397 42.0377C74.1177 42.7018 77.1925 40.2879 78.0072 36.6462C78.8221 33.0045 77.0683 29.514 74.0904 28.8499Z" fill="#F6AC83"/>
<path d="M73.975 37.9876C73.9694 37.9778 73.9635 37.9683 73.9572 37.959C73.9667 37.9728 73.9764 37.9868 73.9858 38.0006C73.9694 37.9776 73.9506 37.957 73.9294 37.9382C73.9422 37.9493 73.9549 37.9603 73.9677 37.9714C73.9437 37.9512 73.9181 37.9345 73.8901 37.9207C73.9055 37.9282 73.9209 37.9358 73.9363 37.9433C73.9106 37.9313 73.8841 37.9224 73.8563 37.9165C73.8738 37.9198 73.8912 37.9231 73.9087 37.9265C73.8803 37.9212 73.8522 37.9194 73.8235 37.921C73.8411 37.9197 73.859 37.9182 73.8766 37.9169C73.8446 37.9196 73.8138 37.9262 73.7836 37.9368C73.7998 37.931 73.8159 37.9252 73.8321 37.9195C73.8048 37.9298 73.7794 37.9428 73.7551 37.9588C73.769 37.9493 73.783 37.9398 73.7969 37.9302C73.773 37.9468 73.7516 37.9657 73.7322 37.9874L73.7654 37.9491C73.7599 37.9557 73.7545 37.9625 73.7493 37.9694C73.7179 38.0107 73.6775 38.0425 73.6257 38.0535C73.5775 38.0639 73.5148 38.0545 73.4743 38.0251C73.3918 37.9651 73.3515 37.839 73.4185 37.7506C73.5293 37.604 73.7065 37.511 73.8934 37.5259C74.0772 37.5405 74.238 37.6482 74.3282 37.8073C74.3793 37.8976 74.3364 38.0305 74.2418 38.0738C74.1407 38.12 74.0295 38.084 73.975 37.9876Z" fill="black"/>
<path d="M75.48 38.7551C75.4489 39.1183 75.7188 39.4379 76.0826 39.4689C76.4465 39.4999 76.7665 39.2305 76.7976 38.8673C76.8286 38.504 76.5588 38.1845 76.1949 38.1535C75.8311 38.1225 75.511 38.3919 75.48 38.7551Z" fill="#F18D77"/>
<path d="M70.0742 37.838C70.0431 38.2011 70.313 38.5208 70.6768 38.5518C71.0407 38.5827 71.3608 38.3134 71.3918 37.9502C71.4228 37.587 71.1531 37.2674 70.7892 37.2364C70.4254 37.2054 70.1053 37.4747 70.0742 37.838Z" fill="#F18D77"/>
<path d="M74.9857 36.7078C75.1261 37.2714 75.5819 37.7316 76.19 37.8454C77.0208 38.0008 77.8232 37.4525 77.9788 36.6232C78.1343 35.7939 77.5852 34.9929 76.7544 34.8374C75.9237 34.6822 75.1213 35.2304 74.9657 36.0597C74.9554 36.1144 74.9486 36.1689 74.9444 36.2232C74.9041 36.1206 74.8447 36.0248 74.7698 35.9393C74.9833 35.0373 75.8727 34.4502 76.7948 34.6227C77.7442 34.8002 78.3718 35.7156 78.194 36.6633C78.0162 37.6111 77.0992 38.2378 76.1498 38.0602C75.454 37.9301 74.9325 37.403 74.7728 36.7579C74.7905 36.7798 74.8139 36.7968 74.843 36.8023C74.9065 36.8141 74.9666 36.772 74.9857 36.7078Z" fill="black"/>
<path d="M74.7217 36.3545C74.7515 36.4425 74.7613 36.5355 74.747 36.6292C74.7317 36.5391 74.7224 36.4476 74.7217 36.3545Z" fill="black"/>
<path d="M71.9966 33.7807C72.9012 33.9499 73.5121 34.7893 73.4139 35.688C73.3165 35.7392 73.2292 35.8049 73.1562 35.8829C73.1648 35.8494 73.1741 35.8159 73.1806 35.7813C73.3363 34.952 72.787 34.151 71.9562 33.9957C71.1255 33.8403 70.3231 34.3886 70.1675 35.2179C70.0118 36.0472 70.5611 36.8482 71.3918 37.0035C72.0062 37.1184 72.6043 36.8479 72.9375 36.364C72.9478 36.4141 72.9851 36.4548 73.0358 36.4643C73.104 36.4771 73.1702 36.4288 73.1839 36.3564C73.2041 36.2486 73.2548 36.1529 73.3266 36.0735C73.0471 36.8767 72.2136 37.3797 71.3515 37.2185C70.4021 37.0409 69.7743 36.1254 69.9523 35.1776C70.1301 34.2299 71.0472 33.6032 71.9966 33.7807Z" fill="black"/>
<path d="M73.4141 35.6879C73.6223 35.5784 73.8761 35.535 74.1367 35.5837C74.3959 35.6321 74.6161 35.7634 74.7703 35.9394C74.764 35.9661 74.7563 35.9922 74.7512 36.0194C74.73 36.1321 74.721 36.244 74.7218 36.3546C74.6383 36.1088 74.3988 35.904 74.0876 35.8458C73.7853 35.7893 73.4961 35.8858 73.3268 36.0733C73.3551 35.992 73.3797 35.9088 73.396 35.8216C73.4043 35.777 73.4092 35.7324 73.4141 35.6879Z" fill="black"/>
<path d="M74.7703 35.9393C74.8452 36.0248 74.9047 36.1207 74.945 36.2232C74.932 36.3894 74.9474 36.5524 74.9862 36.7078C74.967 36.7721 74.907 36.8141 74.8435 36.8023C74.8144 36.7968 74.791 36.7797 74.7733 36.7579C74.7627 36.7155 74.7544 36.6725 74.747 36.6292C74.7613 36.5355 74.7516 36.4425 74.7218 36.3545C74.7209 36.244 74.7299 36.132 74.7511 36.0193C74.7562 35.9922 74.764 35.966 74.7703 35.9393Z" fill="black"/>
<path d="M73.0361 36.4641C72.9854 36.4546 72.9481 36.4139 72.9379 36.3639C73.0364 36.2208 73.1109 36.0588 73.1565 35.8827C73.2295 35.8047 73.3169 35.7393 73.4143 35.6879C73.4094 35.7325 73.4046 35.7769 73.3962 35.8216C73.3799 35.9087 73.3552 35.9919 73.327 36.0732C73.2551 36.1528 73.2045 36.2484 73.1842 36.3562C73.1706 36.4286 73.1043 36.4769 73.0361 36.4641Z" fill="black"/>
<path d="M68.4193 29.9725C70.0937 32.3373 72.0416 32.0023 74.6337 32.2803C77.8683 32.6274 76.8444 33.0616 78.6721 33.3603C80.4999 33.6591 82.9896 29.5144 77.1685 28.7444C75.5801 28.5342 75.0729 27.5978 72.6571 25.9643C70.5876 24.5649 66.1767 26.8052 68.4193 29.9725Z" fill="#002755"/>
<path d="M69.4718 29.8994C68.6559 28.9978 66.8156 27.9409 65.2613 30.1915C63.7072 32.4421 63.4327 37.1448 67.2314 39.2674C67.2314 39.2674 67.1531 36.9465 67.4988 35.4249C66.8476 35.496 66.1765 34.9794 65.938 34.1823C65.6759 33.3059 66.0363 32.4247 66.7429 32.2141C67.4495 32.0035 68.2349 32.5433 68.497 33.4196C68.5447 33.5787 68.571 33.7378 68.5793 33.8931C68.9201 33.6849 69.3389 33.3687 69.6007 32.9563C70.1024 32.1661 70.2878 30.8009 69.4718 29.8994Z" fill="#002755"/>
<path d="M68.5276 29.4458C68.5811 29.4585 68.6379 29.4325 68.6621 29.3808C68.9297 28.8097 69.9555 26.9889 71.9491 27.4626C71.9563 27.4643 71.9633 27.4661 71.9706 27.4678C73.412 27.821 74.9285 28.7057 76.0358 29.3518C76.4526 29.595 76.8126 29.805 77.0969 29.9455C78.0886 30.4359 79.3657 30.8187 79.6996 30.5818C79.7529 30.5442 79.7654 30.4703 79.7276 30.417C79.6899 30.3641 79.6158 30.3513 79.5625 30.389C79.3914 30.5103 78.3248 30.2886 77.2021 29.7337C76.925 29.5968 76.5683 29.3886 76.1552 29.1478C75.0354 28.4944 73.5019 27.5997 72.0271 27.2382C72.0192 27.2363 72.0112 27.2343 72.0033 27.2324C69.836 26.7175 68.7344 28.6685 68.4475 29.2807C68.4199 29.3399 68.4455 29.4102 68.5047 29.4379C68.5121 29.4414 68.5199 29.4439 68.5276 29.4458Z" fill="#064171"/>
<path d="M68.8126 29.6948C68.8538 29.7104 68.9016 29.6956 68.9259 29.657C69.1962 29.2309 70.1953 27.8895 71.7295 28.4671C71.735 28.4692 71.7404 28.4713 71.7459 28.4734C72.8541 28.8997 73.9679 29.7551 74.7811 30.3799C75.0873 30.6151 75.3516 30.8182 75.5631 30.9586C76.3003 31.448 77.275 31.881 77.564 31.7269C77.6102 31.7024 77.6277 31.6449 77.603 31.5988C77.5785 31.5529 77.5211 31.5353 77.4749 31.5599C77.3268 31.6388 76.5027 31.3551 75.668 30.8011C75.4621 30.6643 75.2001 30.463 74.8966 30.23C74.0742 29.5982 72.948 28.733 71.8141 28.2969C71.8081 28.2946 71.8019 28.2921 71.7959 28.2899C70.1281 27.6619 69.0556 29.099 68.766 29.5559C68.738 29.5999 68.7511 29.6583 68.7953 29.6863C68.8009 29.6898 68.8067 29.6926 68.8126 29.6948Z" fill="#064171"/>
<path d="M74.3704 39.7161C74.4149 39.6784 74.4585 39.6393 74.5007 39.5989L74.5262 39.5745C74.6054 39.4989 74.6083 39.3736 74.5325 39.2946C74.4569 39.2156 74.3366 39.209 74.2521 39.2882L74.2263 39.3129C73.8274 39.6951 73.3028 39.9384 72.7519 39.9966C72.6431 40.008 72.564 40.1055 72.5755 40.2144C72.587 40.3231 72.6846 40.402 72.7936 40.3903C73.3733 40.3291 73.9268 40.0915 74.3704 39.7161Z" fill="black"/>
<path d="M77.4297 34.4481C77.4867 34.4604 77.5485 34.4477 77.5972 34.4082C77.6822 34.3391 77.695 34.2144 77.6258 34.1296C77.1927 33.5988 76.6237 33.3001 75.8848 33.2156C75.776 33.2032 75.6778 33.2813 75.6654 33.39C75.653 33.4986 75.7311 33.5961 75.8399 33.6092C76.479 33.6821 76.9487 33.9271 77.3182 34.3797C77.3477 34.4158 77.3874 34.439 77.4297 34.4481Z" fill="black"/>
<path d="M70.6022 33.3359C70.5444 33.3289 70.49 33.2969 70.4568 33.2435C70.3992 33.1505 70.4279 33.0284 70.521 32.9709C71.1039 32.6103 71.7395 32.5134 72.4655 32.6742C72.5724 32.698 72.6398 32.8038 72.6161 32.9106C72.5922 33.0173 72.4864 33.084 72.3793 33.0609C71.7512 32.9216 71.2273 33 70.73 33.3076C70.6904 33.3321 70.6453 33.3409 70.6022 33.3359Z" fill="black"/>
<path d="M76.1265 37.0793C76.3777 37.1273 76.6202 36.9631 76.668 36.7125L76.7923 36.0641C76.8403 35.8135 76.6757 35.5714 76.4246 35.5235L76.4247 35.5234C76.1736 35.4756 75.9311 35.6399 75.883 35.8905L75.7589 36.5388C75.7109 36.7894 75.8754 37.0315 76.1265 37.0793Z" fill="black"/>
<path d="M71.7165 36.5098C71.9675 36.5577 72.2099 36.3935 72.2579 36.1429L72.3821 35.4946C72.4302 35.2439 72.2656 35.0018 72.0145 34.9539C71.7634 34.906 71.521 35.0703 71.4729 35.3209L71.3488 35.9692C71.3007 36.2198 71.4654 36.4619 71.7165 36.5098Z" fill="black"/>
<path d="M63.9311 62.2031L78.5891 60.4983C78.6055 59.5828 78.5987 59.0785 78.5823 58.0589C77.4064 57.9492 73.8836 57.9485 71.7253 58.2437C69.1363 58.5977 66.911 59.4122 66.911 59.4122C66.911 59.4122 67.3068 56.7677 66.8395 52.3521C66.3722 47.9366 65.4359 46.5574 62.9044 44.9049C62.8015 44.8378 62.6598 44.6918 62.5005 44.5154C61.3926 44.8452 60.4899 45.2286 59.9329 45.6132C58.8492 46.3615 58.425 48.1616 58.2953 50.3873L63.9311 62.2031Z" fill="#533D8A"/>
<path d="M74.5358 59.171C74.5358 59.171 75.5477 58.0268 79.4114 58.2072C83.275 58.3876 84.6466 60.3123 84.6466 60.3123L83.7194 62.6729C83.7194 62.6729 80.8926 62.6058 78.147 63.0335C75.256 63.484 74.5358 59.171 74.5358 59.171Z" fill="#F6AC83"/>
<path d="M84.0304 61.882C83.0805 61.7091 80.9922 61.3763 79.3083 61.4442C77.0534 61.535 76.5362 62.3805 76.5362 62.3805L76.6669 62.8071C77.0819 63.0236 77.5714 63.1233 78.1472 63.0335C80.8929 62.6057 83.7197 62.6729 83.7197 62.6729L84.0304 61.882Z" fill="#F49F76"/>
<path d="M78.2794 62.9338L76.7782 58.2687C76.7782 58.2687 68.8611 59.1947 66.0561 60.6962C66.0561 60.6962 66.2898 57.8132 65.9147 54.462C65.5396 51.1107 65.1048 45.8186 61.8959 45.6599C58.6871 45.5012 57.4795 47.6182 57.5304 54.1803C57.5812 60.7425 60.8504 65.3179 61.71 66.1636C62.5696 67.0093 74.3037 64.9932 78.2794 62.9338Z" fill="#9952BC"/>
<path d="M81.6772 65.0423H104.919C105.811 65.0423 106.658 64.3181 106.811 63.4248L109.099 50.0864C109.252 49.1932 108.653 48.469 107.761 48.469H84.5188C83.6271 48.469 82.7801 49.1932 82.6268 50.0864L80.3398 63.4248C80.1866 64.3181 80.7853 65.0423 81.6772 65.0423Z" fill="#003077"/>
</g>
<mask id="mask4_87_14688" style="mask-type:luminance" maskUnits="userSpaceOnUse" x="112" y="54" width="5" height="5">
<path d="M112.882 54.0883H116.62V58.1458H112.882V54.0883Z" fill="white"/>
</mask>
<g mask="url(#mask4_87_14688)">
<path d="M115.038 55.3903C114.309 55.2863 113.272 54.8568 113.148 55.7167C113.107 55.9996 113.256 56.1365 113.509 56.1922" stroke="white" stroke-width="0.480499" stroke-linecap="round"/>
</g>
<mask id="mask5_87_14688" style="mask-type:luminance" maskUnits="userSpaceOnUse" x="49" y="57" width="79" height="58">
<path d="M49.3149 57.3226H127.15V114.786H49.3149V57.3226Z" fill="white"/>
</mask>
<g mask="url(#mask5_87_14688)">
<path d="M58.1989 114.683H56.2962C55.7532 114.683 55.313 114.243 55.313 113.7V68.4826C55.313 67.9396 55.7532 67.4994 56.2962 67.4994H58.1989C58.7419 67.4994 59.1823 67.9396 59.1823 68.4826V113.7C59.1823 114.243 58.7419 114.683 58.1989 114.683Z" fill="#6D92F8"/>
<path d="M122.123 114.683H120.22C119.677 114.683 119.237 114.243 119.237 113.7V68.4826C119.237 67.9396 119.677 67.4994 120.22 67.4994H122.123C122.666 67.4994 123.106 67.9396 123.106 68.4826V113.7C123.106 114.243 122.666 114.683 122.123 114.683Z" fill="#6D92F8"/>
<path d="M51.8489 68.1718H124.634C125.966 68.1718 127.046 67.0921 127.046 65.7601C127.046 64.4279 125.966 63.348 124.634 63.348H51.8489C50.5169 63.348 49.437 64.4279 49.437 65.7601C49.437 67.0921 50.5169 68.1718 51.8489 68.1718Z" fill="#6D92F8"/>
<path d="M51.8489 66.4858H124.634C125.67 66.4858 126.549 65.8326 126.892 64.917C126.99 65.1797 127.046 65.4628 127.046 65.76C127.046 67.092 125.966 68.1717 124.634 68.1717H51.8489C50.5169 68.1717 49.437 67.092 49.437 65.76C49.437 65.4628 49.4932 65.1797 49.5916 64.917C49.9337 65.8326 50.8139 66.4858 51.8489 66.4858Z" fill="#544EDD"/>
<path d="M110.451 64.6656C110.451 65.0191 112.234 65.3057 114.433 65.3057C116.633 65.3057 118.416 65.0191 118.416 64.6656C118.416 64.312 116.633 64.0255 114.433 64.0255C112.234 64.0255 110.451 64.312 110.451 64.6656Z" fill="#544EDD"/>
<path d="M116.542 60.6671C116.542 59.5158 117.479 58.5792 118.63 58.5792C119.781 58.5792 120.718 59.5158 120.718 60.6671C120.718 61.8184 119.781 62.7551 118.63 62.7551C117.479 62.7551 116.542 61.8184 116.542 60.6671ZM117.033 60.6671C117.033 61.5475 117.75 62.2637 118.63 62.2637C119.51 62.2637 120.227 61.5475 120.227 60.6671C120.227 59.7867 119.51 59.0705 118.63 59.0705C117.75 59.0705 117.033 59.7867 117.033 60.6671Z" fill="#A9C95A"/>
<path d="M116.066 64.9169H113.035C112.065 64.9169 111.279 64.1309 111.279 63.1612V58.1779C111.279 57.7444 111.631 57.3931 112.064 57.3931H117.037C117.47 57.3931 117.822 57.7444 117.822 58.1779V63.1612C117.822 64.1309 117.036 64.9169 116.066 64.9169Z" fill="#A9C95A"/>
<path d="M117.036 57.3931H117.003V62.1799C117.003 63.1495 116.217 63.9356 115.248 63.9356H112.216C111.909 63.9356 111.621 63.8563 111.37 63.7179C111.603 64.4144 112.259 64.9169 113.034 64.9169H116.065C117.035 64.9169 117.821 64.1309 117.821 63.1613V58.1779C117.821 57.7444 117.47 57.3931 117.036 57.3931Z" fill="#13956A"/>
</g>
<mask id="mask6_87_14688" style="mask-type:luminance" maskUnits="userSpaceOnUse" x="3" y="70" width="38" height="41">
<path d="M40.2139 70.9287H3.24358V110.054H40.2139V70.9287Z" fill="white"/>
</mask>
<g mask="url(#mask6_87_14688)">
<path d="M23.4624 94.4546C23.4624 94.4546 23.8061 86.3324 26.6632 84.493C29.5204 82.6536 32.3997 82.9391 35.0639 84.1008C39.6992 86.1219 41.635 93.7493 38.9047 97.7255C36.1743 101.702 33.2101 96.7279 33.4093 93.2749C33.5678 90.5281 33.3954 85.8566 30.498 85.2153C26.6705 84.3681 25.7058 94.584 25.7058 94.584L23.4624 94.4546Z" fill="#13956A"/>
<path d="M35.0649 84.1008C39.7001 86.1219 41.636 93.7495 38.9057 97.7256C36.1753 101.702 33.211 96.728 33.4102 93.2749C33.4229 93.0543 33.4332 92.8201 33.4404 92.5778C33.6229 90.9915 33.692 89.309 33.4707 87.8921C33.0137 84.966 30.8883 83.8069 29.3611 83.3491C31.3124 82.9205 33.2392 83.3047 35.0649 84.1008Z" fill="#A9C95A"/>
<path d="M29.3609 83.349C29.9831 83.3262 30.5995 83.421 31.1878 83.5878C31.777 83.7542 32.3355 84.0137 32.8432 84.3448C32.9753 84.4196 33.0921 84.5178 33.2138 84.6077L33.3961 84.7431C33.4564 84.7887 33.51 84.843 33.5673 84.8924C33.6788 84.9949 33.7959 85.0911 33.9028 85.1983L34.2115 85.5322C34.3187 85.6393 34.4057 85.7647 34.5005 85.883C34.5914 86.0044 34.6926 86.1184 34.7754 86.2454L35.019 86.6291C35.0586 86.6936 35.1027 86.7554 35.1387 86.8222L35.2419 87.0253L35.4529 87.4293L35.6299 87.8507L35.7185 88.0615C35.7469 88.1322 35.7681 88.2059 35.7933 88.2779L35.9405 88.7122C36.115 89.2987 36.2606 89.8966 36.3568 90.5054C36.4566 91.1131 36.5293 91.7281 36.5628 92.3465C36.6013 92.9649 36.6146 93.5866 36.5913 94.2099C36.7012 93.5946 36.74 92.9684 36.7552 92.3422C36.7555 92.1856 36.7589 92.0287 36.7552 91.872L36.7408 91.4015C36.7352 91.2445 36.7186 91.0883 36.7074 90.9314L36.6884 90.6964L36.6595 90.4622C36.5976 89.835 36.4553 89.2179 36.2959 88.6059L36.1505 88.1534C36.1251 88.0784 36.1037 88.0019 36.0749 87.9279L35.985 87.7074L35.8044 87.2662L35.5873 86.8406C34.9943 85.7128 34.103 84.7322 33.0023 84.0847C32.4543 83.7595 31.8525 83.5289 31.2335 83.4017C30.6146 83.2819 29.9764 83.2398 29.3609 83.349Z" fill="#13956A"/>
<path d="M23.6554 93.5277C23.6554 93.5277 28.2038 75.6585 22.9194 75.1352C19.2167 74.7684 18.2075 78.6296 19.1888 84.3851C20.0867 89.6512 21.0337 93.5197 21.0337 93.5197L23.6554 93.5277Z" fill="#A9C95A"/>
<path d="M19.1892 84.385C18.9753 83.1305 18.8562 81.9663 18.8387 80.9159C21.9397 85.8915 22.0552 91.4206 21.9668 93.5225L21.0342 93.5197C21.0342 93.5197 20.087 89.6511 19.1892 84.385Z" fill="#13956A"/>
<path d="M22.2071 77.4814C22.0895 78.8165 22.0349 80.1555 22.0061 81.4942C21.9878 82.1637 21.9888 82.8331 21.9841 83.5027C21.9873 84.1723 21.9949 84.842 22.0075 85.5115C22.0225 86.1809 22.0475 86.8501 22.0719 87.5192C22.1087 88.188 22.1327 88.8571 22.1844 89.525C22.2693 90.8615 22.3968 92.1957 22.5677 93.5244C22.5522 92.1841 22.5064 90.8481 22.4764 89.5114L22.3816 85.5033L22.2971 81.4945C22.2709 80.1577 22.2444 78.8208 22.2071 77.4814Z" fill="#13956A"/>
<path d="M21.0073 95.6634C21.0073 95.6634 22.0091 88.1761 17.8741 81.7268C14.5767 76.584 4.88577 68.3724 5.10733 73.129C5.32905 77.8855 12.352 83.3836 15.1674 86.6836C17.9829 89.9835 19.5359 96.2638 19.5359 96.2638L21.0073 95.6634Z" fill="#A9C95A"/>
<path d="M19.5162 93.5118C19.3535 91.9056 19.0344 90.3157 18.6087 88.7542C18.4954 88.3657 18.39 87.9743 18.2568 87.5914C18.1919 87.3995 18.1323 87.2057 18.0627 87.0151L17.8526 86.444C17.5541 85.6895 17.2328 84.9408 16.8342 84.2283L16.688 83.9598L16.5289 83.6995C16.4217 83.5267 16.3181 83.3516 16.2079 83.1809C15.98 82.8448 15.7602 82.5028 15.5145 82.1801C15.0338 81.5265 14.5234 80.8962 13.9807 80.2961C12.9024 79.0905 11.7325 77.9676 10.4635 76.9725C11.6293 78.0848 12.7319 79.2568 13.7597 80.4877C14.0189 80.7934 14.2633 81.111 14.5146 81.4225C14.7548 81.7427 15.0014 82.0581 15.227 82.3882C15.4631 82.7112 15.6793 83.0467 15.9003 83.3793C16.0072 83.5478 16.1074 83.7202 16.2113 83.8903L16.3655 84.1466L16.5065 84.4095C17.2787 85.8027 17.8398 87.3113 18.3297 88.8369C18.8042 90.3697 19.2003 91.9301 19.5162 93.5118Z" fill="#13956A"/>
<path d="M11.6026 108.736C11.6026 109.457 16.3855 110.041 22.2854 110.041C28.1854 110.041 32.9683 109.457 32.9683 108.736C32.9683 108.016 28.1854 107.432 22.2854 107.432C16.3855 107.432 11.6026 108.016 11.6026 108.736Z" fill="#8BB6F4"/>
<path d="M19.0345 109.031H25.2839C26.906 109.031 28.2585 107.788 28.3978 106.169L29.3999 94.5243H14.9185L15.9207 106.169C16.0599 107.788 17.4124 109.031 19.0345 109.031Z" fill="#9952BC"/>
<path d="M17.0237 94.5243L17.9181 104.918C18.0575 106.537 19.4101 107.78 21.0322 107.78H27.2816C27.4639 107.78 27.6427 107.764 27.8169 107.733C27.2468 108.523 26.3207 109.031 25.284 109.031H19.0347C17.4126 109.031 16.0602 107.788 15.9208 106.169L14.9186 94.5243H17.0237Z" fill="#533D8A"/>
<path d="M13.6792 95.1497H30.3903C30.8777 95.1497 31.2729 94.7546 31.2729 94.2672V92.7809C31.2729 92.2934 30.8777 91.8983 30.3903 91.8983H13.6792C13.1917 91.8983 12.7966 92.2934 12.7966 92.7809V94.2672C12.7966 94.7546 13.1917 95.1497 13.6792 95.1497Z" fill="#E4C3FF"/>
</g>
</svg>
