<svg width="107" height="64" viewBox="0 0 107 64" fill="none" xmlns="http://www.w3.org/2000/svg">
<path d="M95.0979 36.2623C95.0979 36.2623 80.7979 38.5623 76.8979 41.7623C72.9979 44.9623 53.5979 33.9623 64.0979 28.7623C74.5979 23.5623 89.4979 21.3623 89.4979 21.3623L95.0979 36.2623Z" fill="#FF8D28"/>
<path d="M10.6982 29.0625C10.6982 29.0625 23.7982 40.8625 25.4982 43.4625C27.1982 46.0625 58.3983 71.4625 61.3983 58.4625C61.3983 58.4625 67.9982 58.6625 68.1982 52.7625C68.1982 52.7625 73.2982 51.9625 73.4982 46.0625C73.4982 46.0625 78.5983 45.2625 78.7982 40.2625C78.7982 40.2625 58.9982 32.5625 51.6982 14.4625C51.6982 14.4625 26.6983 11.4625 24.3983 10.0625L10.6982 29.0625Z" fill="#002D3A"/>
<path d="M72.2981 30.8624C72.2981 30.8624 62.1981 35.0624 55.2981 23.3624C55.2981 23.3624 44.298 33.6624 37.998 27.9624L52.1981 13.1624C52.1981 13.1624 56.3981 11.0624 62.1981 13.1624C70.7981 16.2624 85.998 10.9624 85.998 10.9624L91.3981 27.5624L72.2981 30.8624Z" fill="#FF8D28"/>
<path d="M33.8979 49.5623C32.9979 50.9623 30.7978 51.1623 29.0978 50.0623C27.3978 48.9623 26.6978 46.8623 27.5978 45.4623L31.1978 39.8623C32.0978 38.4623 34.2978 38.2623 35.9978 39.3623C37.6978 40.4623 38.3978 42.5623 37.4978 43.9623L33.8979 49.5623Z" fill="#FF8D28"/>
<path d="M52.3979 61.9625C51.4979 63.3625 49.2978 63.5625 47.5978 62.4625C45.8978 61.3625 45.1978 59.2625 46.0978 57.8625L49.6978 52.2625C50.5978 50.8625 52.7978 50.6625 54.4978 51.7625C56.1978 52.8625 56.8978 54.9625 55.9978 56.3625L52.3979 61.9625Z" fill="#FF8D28"/>
<path d="M39.6979 54.3624C38.5979 56.0624 36.2979 56.4624 34.5979 55.3624C32.8979 54.2624 32.2979 51.9623 33.3979 50.2623L37.6979 43.6624C38.7979 41.9624 41.0979 41.5624 42.7979 42.6624C44.4979 43.7624 45.0979 46.0623 43.9979 47.7623L39.6979 54.3624Z" fill="#FF8D28"/>
<path d="M45.9982 58.5623C44.8982 60.2623 42.5982 60.6623 40.8982 59.5623C39.1982 58.4623 38.5982 56.1623 39.6982 54.4623L43.9982 47.8623C45.0982 46.1623 47.3982 45.7623 49.0982 46.8623C50.7982 47.9623 51.3982 50.2623 50.2982 51.9623L45.9982 58.5623Z" fill="#FF8D28"/>
<path d="M84.8158 7.91093L80.4775 9.44043L90.9513 39.1481L95.2896 37.6186L84.8158 7.91093Z" fill="#002D3A"/>
<path d="M94.2827 2.29223L83.3462 6.15967L95.3152 40.0062L106.252 36.1387L94.2827 2.29223Z" fill="#0096C1"/>
<path d="M27.2012 7.94953L10.9062 34.9072L14.8429 37.2868L31.1379 10.3291L27.2012 7.94953Z" fill="#FF8D28"/>
<path d="M0.498047 31.2624L10.3981 37.2624L29.0981 6.56241L19.0981 0.462402L0.498047 31.2624Z" fill="#0096C1"/>
</svg>
