<svg width="91" height="77" viewBox="0 0 91 77" fill="none" xmlns="http://www.w3.org/2000/svg">
<path d="M76.5398 11.2722C80.0975 15.5435 79.5063 21.8944 75.235 25.4419L23.7654 68.2365C19.4941 71.7942 13.1432 71.2029 9.59573 66.9316L4.07055 60.2851C0.512833 56.0138 1.10409 49.6629 5.37539 46.1154L56.845 3.32091C61.1163 -0.236801 67.4672 0.354458 71.0147 4.62575L76.5398 11.2722Z" fill="#DBD7CE"/>
<path d="M20.646 70.4484C16.5175 71.8246 12.0525 70.5402 9.27971 67.1966L3.75456 60.5501C1.96041 58.3991 1.12449 55.6773 1.37934 52.8842C1.63419 50.091 2.95941 47.5731 5.12055 45.7891L56.5902 2.99463C57.5994 2.14852 58.7411 1.51649 59.9848 1.10873C64.1133 -0.257266 68.5681 1.01698 71.3511 4.36062L76.8763 11.0071C78.6704 13.1581 79.5063 15.8799 79.2515 18.673C78.9966 21.4662 77.6714 23.9841 75.5103 25.7681L24.0406 68.5625C23.0212 69.4086 21.8795 70.0407 20.646 70.4484ZM60.2294 1.90385C59.0877 2.28103 58.0377 2.87229 57.1101 3.64703L5.64045 46.4415C3.66281 48.0929 2.43953 50.407 2.20507 52.9759C1.97061 55.5448 2.74535 58.0423 4.39679 60.0302L9.92194 66.6767C12.4806 69.7552 16.5888 70.9276 20.381 69.6635C21.5227 69.2863 22.5727 68.6951 23.5004 67.9203L74.97 25.1259C76.9476 23.4744 78.1709 21.1604 78.4054 18.5915C78.6398 16.0226 77.8651 13.525 76.2137 11.5372L70.6885 4.8907C68.1298 1.8223 64.0318 0.639788 60.2294 1.90385Z" fill="white"/>
<path d="M25.0911 54.5048C27.3949 57.2775 27.0177 61.3857 24.2449 63.6794C21.4722 65.9832 17.364 65.6061 15.0703 62.8333L9.09663 55.6465C6.79278 52.8737 7.16997 48.7655 9.94274 46.4719C12.7155 44.168 16.8237 44.5452 19.1174 47.318L25.0911 54.5048Z" fill="#BCE2D5"/>
<path d="M36.4875 45.0243C38.7914 47.7971 38.4142 51.9053 35.6415 54.1989C32.8687 56.5028 28.7605 56.1256 26.4668 53.3528L20.4931 46.166C18.1893 43.4035 18.5664 39.2851 21.3392 36.9914C24.112 34.6876 28.2202 35.0647 30.5138 37.8375L36.4875 45.0243Z" fill="#A6DACB"/>
<path d="M70.6887 16.5931C72.9926 19.3557 72.6154 23.4741 69.8426 25.7678C67.0698 28.0716 62.9617 27.6945 60.668 24.9217L54.6943 17.7349C52.3904 14.9621 52.7676 10.8539 55.5404 8.56025C58.3132 6.2564 62.4213 6.63359 64.715 9.40636L70.6887 16.5931Z" fill="#7EC0B2"/>
<path d="M59.2917 26.0735C61.5956 28.8463 61.2184 32.9544 58.4456 35.2481C55.683 37.5519 51.5646 37.1748 49.271 34.402L43.2973 27.2152C40.9935 24.4425 41.3706 20.3343 44.1434 18.0406C46.906 15.7368 51.0244 16.1139 53.318 18.8867L59.2917 26.0735Z" fill="#85C8B8"/>
<path d="M47.8947 35.5539C50.1986 38.3267 49.8214 42.4349 47.0487 44.7286C44.2861 47.0324 40.1677 46.6553 37.874 43.8825L31.9003 36.6957C29.5965 33.9331 29.9737 29.8147 32.7465 27.5211C35.5192 25.2172 39.6274 25.5944 41.9211 28.3672L47.8947 35.5539Z" fill="#94D3C1"/>
<path d="M87.7238 30.2111C89.9563 35.2979 87.6423 41.2411 82.5453 43.4736L21.2486 70.3552C16.1618 72.5877 10.2187 70.2736 7.98617 65.1766L4.51 57.2558C2.27751 52.169 4.59156 46.2259 9.68857 43.9934L70.9852 17.1118C76.072 14.8793 82.0151 17.1933 84.2476 22.2904L87.7238 30.2111Z" fill="#DBD7CE"/>
<path d="M17.6299 71.6193C13.2873 71.7926 9.3524 69.3358 7.59903 65.3499L4.12285 57.4292C3.00151 54.8603 2.94036 52.0162 3.95976 49.4065C4.97917 46.7968 6.94661 44.7377 9.51551 43.6163L70.8122 16.7347C72.0151 16.2046 73.2893 15.9089 74.5942 15.858C78.9368 15.6847 82.8717 18.1414 84.6251 22.1273L88.1012 30.0481C89.2226 32.617 89.2837 35.4611 88.2643 38.0708C87.2449 40.6805 85.2775 42.7396 82.7086 43.861L21.4119 70.7426C20.209 71.2625 18.9348 71.5581 17.6299 71.6193ZM74.6451 16.6939C73.4422 16.7449 72.2699 17.0099 71.169 17.4992L9.8723 44.3809C7.51748 45.4105 5.69274 47.3065 4.76508 49.7021C3.82723 52.0977 3.8782 54.7176 4.91799 57.0826L8.39416 65.0034C10.0048 68.663 13.6237 70.9261 17.6198 70.7732C18.8226 70.7222 19.9949 70.4572 21.0959 69.9679L82.3926 43.0862C84.7474 42.0566 86.5721 40.1606 87.4997 37.765C88.4376 35.3694 88.3866 32.7495 87.3468 30.3844L83.8707 22.4637C82.2601 18.7939 78.6412 16.5308 74.6451 16.6939Z" fill="white"/>
<path d="M26.3248 57.5214C27.7723 60.814 26.2738 64.6572 22.9709 66.1048C19.6783 67.5523 15.8351 66.0537 14.3876 62.7509L10.6362 54.1879C9.18863 50.8952 10.6871 47.0521 13.99 45.6046C17.2827 44.157 21.1258 45.6555 22.5734 48.9584L26.3248 57.5214Z" fill="#7FB4C1"/>
<path d="M39.8931 51.568C41.3407 54.8607 39.8422 58.7038 36.5393 60.1513C33.2466 61.5989 29.4035 60.1004 27.956 56.7975L24.2045 48.2345C22.757 44.9419 24.2555 41.0886 27.5584 39.6512C30.851 38.2036 34.6942 39.7022 36.1418 43.005L39.8931 51.568Z" fill="#79A5B2"/>
<path d="M80.6285 33.7081C82.076 37.0008 80.5775 40.844 77.2747 42.2915C73.982 43.7391 70.1388 42.2406 68.6913 38.9377L64.9399 30.3747C63.4923 27.0821 64.9909 23.2389 68.2937 21.7913C71.5864 20.3438 75.4296 21.8423 76.8771 25.1452L80.6285 33.7081Z" fill="#59707C"/>
<path d="M67.0499 39.6613C68.4975 42.9539 66.9989 46.7971 63.696 48.2446C60.4034 49.6922 56.5603 48.1937 55.1127 44.8908L51.3613 36.3278C49.9137 33.0352 51.4123 29.192 54.7151 27.7445C58.0078 26.2969 61.8611 27.7954 63.2985 31.0983L67.0499 39.6613Z" fill="#647F8C"/>
<path d="M53.4713 45.6147C54.9188 48.9073 53.4203 52.7505 50.1174 54.198C46.8248 55.6456 42.9816 54.147 41.534 50.8442L37.7827 42.2812C36.3351 38.9885 37.8336 35.1454 41.1365 33.6978C44.4292 32.2503 48.2825 33.7488 49.7199 37.0517L53.4713 45.6147Z" fill="#6F919E"/>
<path d="M89.9453 48.4191C91.189 53.8321 87.8148 59.235 82.3916 60.4786L17.16 75.4842C11.747 76.7279 6.34415 73.3537 5.10048 67.9305L3.16362 59.5C1.91995 54.087 5.29418 48.6842 10.7174 47.4405L75.9489 32.4349C81.362 31.1912 86.7648 34.5654 88.0084 39.9886L89.9453 48.4191Z" fill="#DBD7CE"/>
<path d="M15.3146 76.1673C10.289 76.3712 5.81381 72.9562 4.68227 68.0427L2.74541 59.6122C2.11338 56.8802 2.5925 54.0769 4.07063 51.7016C5.55896 49.3264 7.87301 47.675 10.605 47.043L75.8467 32.0374C76.489 31.8947 77.1414 31.8029 77.7836 31.7723C82.8093 31.5685 87.2844 34.9835 88.4159 39.897L90.3528 48.3274C90.9848 51.0594 90.5057 53.8628 89.0276 56.238C87.5393 58.6132 85.2253 60.2646 82.4933 60.8865L17.2617 75.8921C16.6195 76.045 15.9671 76.1367 15.3146 76.1673ZM77.8142 32.6083C77.2127 32.6287 76.6215 32.7102 76.0302 32.8529L10.7987 47.8585C8.29096 48.4396 6.15021 49.9585 4.78421 52.14C3.41821 54.3215 2.97987 56.9108 3.56093 59.4185L5.49779 67.849C6.53758 72.3649 10.6458 75.5149 15.2739 75.3212C15.8651 75.3008 16.4666 75.2193 17.0578 75.0766L82.2894 60.0709C84.7971 59.4899 86.9379 57.971 88.3039 55.7895C89.6699 53.6079 90.1082 51.0187 89.5271 48.5109L87.5903 40.0805C86.5505 35.5645 82.4423 32.4248 77.8142 32.6083Z" fill="white"/>
<path d="M24.5299 63.8322C25.3352 67.3389 23.1435 70.8355 19.6368 71.6408C16.13 72.4461 12.6335 70.2544 11.8281 66.7477L9.72815 57.6444C8.92282 54.1377 11.1145 50.6411 14.6213 49.8358C18.128 49.0305 21.6246 51.2222 22.4299 54.7289L24.5299 63.8322Z" fill="#DDC5C4"/>
<path d="M38.9752 60.5089C39.7805 64.0157 37.5888 67.5122 34.082 68.3176C30.5753 69.1229 27.0788 66.9312 26.2734 63.4244L24.1735 54.3212C23.3681 50.8145 25.5599 47.3179 29.0666 46.5126C32.5733 45.7072 36.0699 47.899 36.8752 51.4057L38.9752 60.5089Z" fill="#CE9B9B"/>
<path d="M82.3199 50.5391C83.1253 54.0458 80.9335 57.5424 77.4268 58.3477C73.9201 59.1531 70.4235 56.9613 69.6182 53.4546L67.5182 44.3513C66.7129 40.8446 68.9046 37.3481 72.4113 36.5427C75.9181 35.7374 79.4146 37.9291 80.22 41.4359L82.3199 50.5391Z" fill="#D05E5B"/>
<path d="M67.8649 53.8624C68.6702 57.3691 66.4785 60.8657 62.9717 61.671C59.465 62.4763 55.9684 60.2846 55.1631 56.7779L53.0631 47.6746C52.2578 44.1679 54.4495 40.6713 57.9562 39.866C61.463 39.0606 64.9595 41.2524 65.7649 44.7591L67.8649 53.8624Z" fill="#CC7171"/>
<path d="M53.42 57.1855C54.2254 60.6923 52.0336 64.1888 48.5269 64.9941C45.0202 65.7994 41.5236 63.6077 40.7183 60.101L38.6183 50.9977C37.813 47.491 40.0047 43.9944 43.5114 43.1891C47.0182 42.3838 50.5147 44.5755 51.32 48.0822L53.42 57.1855Z" fill="#CE8282"/>
<path d="M87.6819 66.6352C87.6819 72.191 83.1762 76.6967 77.6204 76.6967H10.6865C5.13075 76.6967 0.625 72.191 0.625 66.6352V57.9907C0.625 52.435 5.13075 47.9292 10.6865 47.9292H77.6204C83.1762 47.9292 87.6819 52.435 87.6819 57.9907V66.6352Z" fill="#F0BC60"/>
<path d="M10.5846 63.5565C10.5846 65.2997 9.17779 66.7064 7.43461 66.7064C5.69143 66.7064 4.28467 65.2997 4.28467 63.5565C4.28467 61.8133 5.69143 60.4065 7.43461 60.4065C9.17779 60.4065 10.5846 61.8235 10.5846 63.5565Z" fill="#DBD7CE"/>
</svg>
