<svg width="77" height="79" viewBox="0 0 77 79" fill="none" xmlns="http://www.w3.org/2000/svg">
<path d="M51.0999 73.1305C50.4369 73.1305 49.8687 72.6222 49.8687 72.0292C49.8687 60.5088 56.7823 53.3085 58.9606 51.2754L44.8492 23.6602L30.8326 51.2754C33.1055 53.3085 39.9244 60.5088 39.9244 72.0292C39.9244 72.6222 39.3562 73.1305 38.6932 73.1305C38.0303 73.1305 37.4621 72.6222 37.4621 72.0292C37.4621 59.577 28.5596 52.4614 28.5596 52.3767C28.1808 52.0378 27.9914 51.5296 28.2755 51.106L43.8074 20.5259C43.9968 20.1024 44.4704 19.8483 44.9439 19.8483C45.4174 19.8483 45.891 20.1024 46.0804 20.5259L61.7071 51.106C61.8965 51.5296 61.8018 52.1225 61.4229 52.3767C61.3282 52.4614 52.5205 59.577 52.5205 72.0292C52.4258 72.6222 51.8575 73.1305 51.0999 73.1305Z" fill="black"/>
<path d="M44.9436 52.1282C44.3754 52.1282 43.9019 51.7046 43.9019 51.1963V20.8704C43.9019 20.3621 44.3754 19.9386 44.9436 19.9386C45.5119 19.9386 45.9854 20.3621 45.9854 20.8704V51.1963C45.8907 51.7046 45.5119 52.1282 44.9436 52.1282Z" fill="black"/>
<path d="M48.9217 51.1962C48.9217 53.1445 47.1223 54.754 44.944 54.754C42.7657 54.754 40.9663 53.1445 40.9663 51.1962C40.9663 49.2479 42.7657 47.6384 44.944 47.6384C47.1223 47.6384 48.9217 49.2479 48.9217 51.1962Z" fill="black"/>
<path d="M6.96756 36.6304C6.87286 36.6304 6.87286 36.6304 6.96756 36.6304C6.39932 36.6304 5.92578 36.2068 5.92578 35.6986C5.92578 35.4445 6.02049 29.3454 11.987 24.5169C17.5747 20.0273 26.3825 18.2485 37.9368 19.265C50.7222 20.3662 60.5718 18.5026 66.4436 13.9283C71.3684 10.1164 72.2207 5.45734 72.3154 3.08548C72.3154 2.57722 72.789 2.15368 73.3572 2.23839C73.9254 2.23839 74.3043 2.66193 74.3043 3.17019C74.2096 5.88089 73.1678 11.0482 67.6748 15.2836C61.3294 20.2815 50.9116 22.2298 37.6526 21.1286C26.6666 20.1968 18.4271 21.8062 13.2182 25.957C7.91463 30.1925 7.72522 35.7833 7.72522 35.7833C7.91463 36.2068 7.4411 36.6304 6.96756 36.6304Z" fill="black"/>
<path d="M76.7656 0.115356H67.3896V8.50158H76.7656V0.115356Z" fill="black"/>
<path d="M13.5022 29.8502H0.337891V41.6248H13.5022V29.8502Z" fill="black"/>
<path d="M68.4321 34.7615H68.3374L23.541 7.06149C23.4463 6.97679 23.4463 6.89208 23.4463 6.80737C23.541 6.72266 23.6357 6.72266 23.7304 6.72266L68.5268 34.4226C68.6216 34.5073 68.6215 34.592 68.6215 34.6767C68.5268 34.6767 68.5268 34.7615 68.4321 34.7615Z" fill="black"/>
<path d="M70.8952 34.5081C70.8952 35.694 69.7587 36.7105 68.4328 36.7105C67.1069 36.7105 65.9705 35.694 65.9705 34.5081C65.9705 33.3222 67.1069 32.3057 68.4328 32.3057C69.7587 32.3057 70.8952 33.3222 70.8952 34.5081Z" fill="black"/>
<path d="M26.6667 6.89653C26.6667 8.08246 25.5302 9.09898 24.2043 9.09898C22.8784 9.09898 21.7419 8.08246 21.7419 6.89653C21.7419 5.7106 22.8784 4.69409 24.2043 4.69409C25.6249 4.69409 26.6667 5.7106 26.6667 6.89653Z" fill="black"/>
<path d="M61.4236 72.0333H28.4656V78.5559H61.4236V72.0333Z" fill="black"/>
</svg>
