<svg width="103" height="103" viewBox="0 0 103 103" fill="none" xmlns="http://www.w3.org/2000/svg">
<path d="M23.0846 17.761C26.339 11.2932 35.5043 11.2932 38.7587 17.761L47.8474 35.8261C50.7901 41.6757 46.6008 48.6698 40.0104 48.6698H21.8279C15.2374 48.6698 11.0481 41.6706 13.9908 35.8261L23.0846 17.761ZM56.4661 23.1254C56.4661 21.0929 57.2735 19.1437 58.7106 17.7066C60.1478 16.2694 62.097 15.462 64.1294 15.462H79.4561C81.4885 15.462 83.4377 16.2694 84.8749 17.7066C86.312 19.1437 87.1194 21.0929 87.1194 23.1254V38.452C87.1194 40.4845 86.312 42.4337 84.8749 43.8708C83.4377 45.308 81.4885 46.1154 79.4561 46.1154H64.1294C62.097 46.1154 60.1478 45.308 58.7106 43.8708C57.2735 42.4337 56.4661 40.4845 56.4661 38.452V23.1254ZM69.2128 55.4697C69.9894 55.0213 70.8704 54.7853 71.7672 54.7853C72.664 54.7853 73.545 55.0213 74.3216 55.4697L84.4883 61.3449C85.2642 61.7929 85.9086 62.437 86.357 63.2127C86.8054 63.9883 87.0419 64.8682 87.0428 65.7641V77.5043C87.0427 78.4011 86.8067 79.2821 86.3583 80.0587C85.9099 80.8353 85.265 81.4803 84.4883 81.9286L74.3216 87.7988C73.545 88.2471 72.664 88.4832 71.7672 88.4832C70.8704 88.4832 69.9894 88.2471 69.2128 87.7988L59.0461 81.9235C58.2702 81.4756 57.6258 80.8315 57.1774 80.0558C56.7291 79.2802 56.4926 78.4003 56.4916 77.5043V65.7641C56.4917 64.8674 56.7277 63.9864 57.1761 63.2098C57.6245 62.4331 58.2695 61.7882 59.0461 61.3398L69.2128 55.4697ZM15.595 71.6598C15.595 67.5949 17.2098 63.6965 20.0841 60.8222C22.9584 57.9479 26.8568 56.3331 30.9217 56.3331C34.9866 56.3331 38.885 57.9479 41.7593 60.8222C44.6336 63.6965 46.2483 67.5949 46.2483 71.6598C46.2483 75.7247 44.6336 79.6231 41.7593 82.4974C38.885 85.3717 34.9866 86.9864 30.9217 86.9864C26.8568 86.9864 22.9584 85.3717 20.0841 82.4974C17.2098 79.6231 15.595 75.7247 15.595 71.6598Z" fill="#0096C1"/>
</svg>
