<svg width="75" height="77" viewBox="0 0 75 77" fill="none" xmlns="http://www.w3.org/2000/svg">
<path d="M10.0846 5.76104C13.339 -0.706806 22.5043 -0.706806 25.7587 5.76104L34.8474 23.8261C37.7901 29.6757 33.6008 36.6698 27.0104 36.6698H8.82786C2.2374 36.6698 -1.95189 29.6706 0.990831 23.8261L10.0846 5.76104ZM43.4661 11.1254C43.4661 9.09293 44.2735 7.14373 45.7106 5.70658C47.1478 4.26943 49.097 3.46204 51.1294 3.46204H66.4561C68.4885 3.46204 70.4377 4.26943 71.8749 5.70658C73.312 7.14373 74.1194 9.09293 74.1194 11.1254V26.452C74.1194 28.4845 73.312 30.4337 71.8749 31.8708C70.4377 33.308 68.4885 34.1154 66.4561 34.1154H51.1294C49.097 34.1154 47.1478 33.308 45.7106 31.8708C44.2735 30.4337 43.4661 28.4845 43.4661 26.452V11.1254ZM56.2128 43.4697C56.9894 43.0213 57.8704 42.7853 58.7672 42.7853C59.664 42.7853 60.545 43.0213 61.3216 43.4697L71.4883 49.3449C72.2642 49.7929 72.9086 50.437 73.357 51.2127C73.8054 51.9883 74.0419 52.8682 74.0428 53.7641V65.5043C74.0427 66.4011 73.8067 67.2821 73.3583 68.0587C72.9099 68.8353 72.265 69.4803 71.4883 69.9286L61.3216 75.7988C60.545 76.2471 59.664 76.4832 58.7672 76.4832C57.8704 76.4832 56.9894 76.2471 56.2128 75.7988L46.0461 69.9235C45.2702 69.4756 44.6258 68.8315 44.1774 68.0558C43.7291 67.2802 43.4926 66.4003 43.4916 65.5043V53.7641C43.4917 52.8674 43.7277 51.9864 44.1761 51.2098C44.6245 50.4331 45.2695 49.7882 46.0461 49.3398L56.2128 43.4697ZM2.59502 59.6598C2.59502 55.5949 4.20979 51.6965 7.08409 48.8222C9.9584 45.9479 13.8568 44.3331 17.9217 44.3331C21.9866 44.3331 25.885 45.9479 28.7593 48.8222C31.6336 51.6965 33.2483 55.5949 33.2483 59.6598C33.2483 63.7247 31.6336 67.6231 28.7593 70.4974C25.885 73.3717 21.9866 74.9864 17.9217 74.9864C13.8568 74.9864 9.9584 73.3717 7.08409 70.4974C4.20979 67.6231 2.59502 63.7247 2.59502 59.6598Z" fill="#0096C1"/>
</svg>
