<svg width="107" height="81" viewBox="0 0 107 81" fill="none" xmlns="http://www.w3.org/2000/svg">
<path d="M2.36035 17.1289L5.36728 18.1902V44.1913C4.48289 44.545 3.95226 45.4294 3.95226 46.3138C3.95226 47.0213 4.30602 47.7289 4.83665 48.0826C3.77538 48.7901 2.89099 50.382 2.89099 52.3277V60.641H9.78924V52.3277C9.78924 50.5589 9.08173 48.967 7.84358 48.0826C8.37422 47.7289 8.72798 47.0213 8.72798 46.3138C8.72798 45.2526 8.19734 44.545 7.31294 44.1913V18.8977L11.0274 20.1358V17.1289H2.36035Z" fill="#646464"/>
<path d="M106.189 16.4215L53.125 0.148682L0.0615234 16.4215L5.54475 18.1903L7.31353 18.8978L21.6407 23.8504L53.125 34.64L84.6094 23.8504L106.189 16.4215Z" fill="#00B4FF"/>
<path d="M53.1241 38.0007L52.0628 37.647L21.4629 27.2112V68.6007C21.4629 75.1452 35.6132 80.4515 52.9472 80.4515C70.2813 80.4515 84.4316 75.1452 84.4316 68.6007V27.2112L53.8316 37.647L53.1241 38.0007Z" fill="#646464"/>
</svg>
