<svg width="71" height="71" viewBox="0 0 71 71" fill="none" xmlns="http://www.w3.org/2000/svg">
<path d="M11.4356 60.0111H7.27734V68.4662H11.4356V60.0111Z" fill="#DFE5F2"/>
<path d="M29.0391 60.0111H24.8809V68.4662H29.0391V60.0111Z" fill="#DFE5F2"/>
<path d="M46.5039 60.0111H42.3457V68.4662H46.5039V60.0111Z" fill="#C7CDDE"/>
<path d="M64.1075 60.0111H59.9492V68.4662H64.1075V60.0111Z" fill="#C7CDDE"/>
<path d="M20.168 43.5155H16.0098V51.6934H20.168V43.5155Z" fill="#DFE5F2"/>
<path d="M37.7715 43.5155H33.6133V51.6934H37.7715V43.5155Z" fill="#DFE5F2"/>
<path d="M37.7715 43.5164H35.6924V51.6942H37.7715V43.5164Z" fill="#C7CDDE"/>
<path d="M55.2373 43.5155H51.0791V51.6934H55.2373V43.5155Z" fill="#C7CDDE"/>
<path d="M29.5943 27.1628H25.436V35.3407H29.5943V27.1628Z" fill="#DFE5F2"/>
<path d="M45.9502 27.1627H41.792V35.3406H45.9502V27.1627Z" fill="#C7CDDE"/>
<path d="M15.4552 66.3871H3.11914V70.5453H15.4552V66.3871Z" fill="#F1F6FF"/>
<path d="M33.0588 66.3868H20.7227V70.5451H33.0588V66.3868Z" fill="#F1F6FF"/>
<path d="M50.5226 66.3871H38.1865V70.5453H50.5226V66.3871Z" fill="#DFE5F2"/>
<path d="M68.1261 66.3868H55.79V70.5451H68.1261V66.3868Z" fill="#DFE5F2"/>
<path d="M37.7715 10.6671H33.6133V18.845H37.7715V10.6671Z" fill="#DFE5F2"/>
<path d="M37.7715 10.6674H35.6924V18.8452H37.7715V10.6674Z" fill="#C7CDDE"/>
<path d="M9.35731 62.0898C4.50603 62.0898 0.625 58.2087 0.625 53.3574V49.7537H18.0896L19.3371 51.8328L18.0896 53.3574C18.0896 58.0701 14.2086 62.0898 9.35731 62.0898Z" fill="#E89FBB"/>
<path d="M44.4253 29.2408C39.574 29.2408 35.693 25.3598 35.693 20.5085L34.8613 18.4294L35.693 16.9047H53.1576V20.5085C53.1576 25.2212 49.2766 29.2408 44.4253 29.2408Z" fill="#E37FA4"/>
<path d="M44.4251 0.40979V4.01361C44.4251 8.86489 40.544 12.7459 35.6928 12.7459C30.8415 12.7459 26.9604 8.86489 26.9604 4.01361V0.40979H44.4251Z" fill="#E89FBB"/>
<path d="M44.4247 0.40979V4.01361C44.4247 8.86489 40.5437 12.7459 35.6924 12.7459V0.40979H44.4247Z" fill="#E37FA4"/>
<path d="M61.889 62.0894C57.0377 62.0894 53.1567 58.2083 53.1567 53.357L52.0479 51.4165L53.1567 49.8918H70.6213V53.4957C70.7599 58.0697 66.7403 62.0894 61.889 62.0894Z" fill="#E37FA4"/>
<path d="M18.0892 45.5949C13.238 45.5949 9.35693 41.7139 9.35693 36.8626V33.2588H26.8215L27.376 34.6449L26.8215 36.8626C26.8215 41.7139 22.9405 45.5949 18.0892 45.5949Z" fill="#E89FBB"/>
<path d="M53.1572 45.5949C48.3059 45.5949 44.4249 41.7139 44.4249 36.8626L43.5933 34.6449L44.4249 33.2588H61.8895V36.8626C61.8895 41.7139 58.0085 45.5949 53.1572 45.5949Z" fill="#E37FA4"/>
<path d="M27.3756 29.2408H26.4054C21.8313 29.2408 18.0889 25.4984 18.0889 20.9243V16.9047H35.5535V20.9243C35.6921 25.4984 31.9497 29.2408 27.3756 29.2408Z" fill="#E89FBB"/>
<path d="M44.4251 33.2588V36.8626C44.4251 41.7139 40.544 45.5949 35.6928 45.5949C30.8415 45.5949 26.9604 41.7139 26.9604 36.8626V33.2588H44.4251Z" fill="#E89FBB"/>
<path d="M44.4247 33.2588V36.8626C44.4247 41.7139 40.5437 45.5949 35.6924 45.5949V33.2588H44.4247Z" fill="#E37FA4"/>
<path d="M44.4253 62.0898C39.574 62.0898 35.693 58.2087 35.693 53.3574L34.8613 51.2783L35.693 49.7537H53.1576V53.3574C53.1576 58.0701 49.2766 62.0898 44.4253 62.0898Z" fill="#E37FA4"/>
<path d="M27.3756 62.0898H26.4054C21.8313 62.0898 18.0889 58.3474 18.0889 53.7733V49.7537H35.5535V53.7733C35.6921 58.3474 31.9497 62.0898 27.3756 62.0898Z" fill="#E89FBB"/>
</svg>
