<svg width="71" height="71" viewBox="0 0 71 71" fill="none" xmlns="http://www.w3.org/2000/svg">
<path d="M11.2325 59.9496H7.07422V68.4047H11.2325V59.9496Z" fill="#DFE5F2"/>
<path d="M28.836 59.9496H24.6777V68.4047H28.836V59.9496Z" fill="#DFE5F2"/>
<path d="M46.3006 59.9496H42.1423V68.4047H46.3006V59.9496Z" fill="#C7CDDE"/>
<path d="M63.9038 59.9496H59.7456V68.4047H63.9038V59.9496Z" fill="#C7CDDE"/>
<path d="M19.9654 43.454H15.8071V51.6318H19.9654V43.454Z" fill="#DFE5F2"/>
<path d="M37.5689 43.454H33.4106V51.6318H37.5689V43.454Z" fill="#DFE5F2"/>
<path d="M37.5686 43.4548H35.4895V51.6327H37.5686V43.4548Z" fill="#C7CDDE"/>
<path d="M55.0337 43.454H50.8755V51.6318H55.0337V43.454Z" fill="#C7CDDE"/>
<path d="M29.3912 27.1013H25.2329V35.2792H29.3912V27.1013Z" fill="#DFE5F2"/>
<path d="M45.7466 27.1012H41.5884V35.2791H45.7466V27.1012Z" fill="#C7CDDE"/>
<path d="M15.2521 66.3256H2.91602V70.4838H15.2521V66.3256Z" fill="#F1F6FF"/>
<path d="M32.8556 66.3253H20.5195V70.4836H32.8556V66.3253Z" fill="#F1F6FF"/>
<path d="M50.32 66.3256H37.9839V70.4838H50.32V66.3256Z" fill="#DFE5F2"/>
<path d="M67.9233 66.3253H55.5872V70.4836H67.9233V66.3253Z" fill="#DFE5F2"/>
<path d="M37.5689 10.6056H33.4106V18.7835H37.5689V10.6056Z" fill="#DFE5F2"/>
<path d="M37.5686 10.6058H35.4895V18.7837H37.5686V10.6058Z" fill="#C7CDDE"/>
<path d="M9.15419 62.0282C4.30291 62.0282 0.421875 58.1472 0.421875 53.2959V49.6921H17.8865L19.134 51.7713L17.8865 53.2959C17.8865 58.0086 14.0055 62.0282 9.15419 62.0282Z" fill="#E89FBB"/>
<path d="M44.2224 29.1792C39.3711 29.1792 35.4901 25.2982 35.4901 20.447L34.6584 18.3678L35.4901 16.8431H52.9547V20.447C52.9547 25.1596 49.0737 29.1792 44.2224 29.1792Z" fill="#E37FA4"/>
<path d="M44.2219 0.348267V3.95208C44.2219 8.80337 40.3409 12.6844 35.4896 12.6844C30.6384 12.6844 26.7573 8.80337 26.7573 3.95208V0.348267H44.2219Z" fill="#E89FBB"/>
<path d="M44.2218 0.348267V3.95208C44.2218 8.80337 40.3408 12.6844 35.4895 12.6844V0.348267H44.2218Z" fill="#E37FA4"/>
<path d="M61.6861 62.0279C56.8348 62.0279 52.9538 58.1468 52.9538 53.2955L51.845 51.355L52.9538 49.8303H70.4184V53.4341C70.5571 58.0082 66.5374 62.0279 61.6861 62.0279Z" fill="#E37FA4"/>
<path d="M17.8861 45.5334C13.0348 45.5334 9.15381 41.6524 9.15381 36.8011V33.1973H26.6184L27.1729 34.5833L26.6184 36.8011C26.6184 41.6524 22.7374 45.5334 17.8861 45.5334Z" fill="#E89FBB"/>
<path d="M52.9543 45.5334C48.103 45.5334 44.222 41.6524 44.222 36.8011L43.3904 34.5833L44.222 33.1973H61.6866V36.8011C61.6866 41.6524 57.8056 45.5334 52.9543 45.5334Z" fill="#E37FA4"/>
<path d="M27.1727 29.1792H26.2025C21.6284 29.1792 17.886 25.4368 17.886 20.8628V16.8431H35.3506V20.8628C35.4892 25.4368 31.7468 29.1792 27.1727 29.1792Z" fill="#E89FBB"/>
<path d="M44.2219 33.1973V36.8011C44.2219 41.6524 40.3409 45.5334 35.4896 45.5334C30.6384 45.5334 26.7573 41.6524 26.7573 36.8011V33.1973H44.2219Z" fill="#E89FBB"/>
<path d="M44.2218 33.1973V36.8011C44.2218 41.6524 40.3408 45.5334 35.4895 45.5334V33.1973H44.2218Z" fill="#E37FA4"/>
<path d="M44.2224 62.0282C39.3711 62.0282 35.4901 58.1472 35.4901 53.2959L34.6584 51.2168L35.4901 49.6921H52.9547V53.2959C52.9547 58.0086 49.0737 62.0282 44.2224 62.0282Z" fill="#E37FA4"/>
<path d="M27.1727 62.0282H26.2025C21.6284 62.0282 17.886 58.2858 17.886 53.7118V49.6921H35.3506V53.7118C35.4892 58.2858 31.7468 62.0282 27.1727 62.0282Z" fill="#E89FBB"/>
</svg>
