<svg width="93" height="68" viewBox="0 0 93 68" fill="none" xmlns="http://www.w3.org/2000/svg">
<path d="M81.9912 47.9009C81.7645 47.9009 81.5736 47.8096 81.4185 47.6401C81.1798 47.3663 81.1082 46.9491 81.0844 46.6493H77.0157C76.7055 46.7927 75.405 47.3403 74.6771 46.558C74.176 46.0104 74.0567 45.1109 74.176 44.459C74.2595 43.9766 74.4504 43.6246 74.7249 43.4682C75.1067 43.1292 76.0373 42.725 77.0396 43.416H80.9651C81.0367 42.8163 81.2991 42.0862 81.9792 42.0862C82.5042 42.0862 82.7787 42.5164 82.9099 42.9597C83.0412 42.5034 83.2559 42.0862 83.6139 42.0862C84.282 42.0862 84.7712 43.3378 84.7712 45.0718C84.7712 46.4146 84.6519 47.7835 83.7451 47.7835C83.3037 47.7835 83.065 47.3663 82.9576 46.897C82.8503 47.3663 82.5758 47.9009 81.9912 47.9009Z" fill="#72706F"/>
<path d="M81.9321 42.6517C82.0276 42.6778 82.123 42.756 82.1946 42.8343C82.2662 42.9125 82.3259 43.0037 82.3855 43.108C82.4929 43.3036 82.5526 43.5252 82.6003 43.7338C82.6957 44.1771 82.7196 44.6204 82.7196 45.0637C82.7077 45.5069 82.6719 45.9502 82.5645 46.3935C82.5168 46.6151 82.4452 46.8237 82.3497 47.0193C82.302 47.1236 82.2543 47.2148 82.1946 47.3061C82.135 47.3974 82.0753 47.4886 81.9918 47.5538C82.0514 47.4625 82.0992 47.3713 82.135 47.267C82.1708 47.1627 82.2066 47.0714 82.2423 46.9671C82.302 46.7585 82.3378 46.5499 82.3736 46.3413C82.4332 45.9241 82.469 45.4939 82.469 45.0637C82.481 44.6334 82.469 44.2032 82.4094 43.786C82.3736 43.5774 82.3378 43.3688 82.2662 43.1732C82.2304 43.082 82.1946 42.9777 82.135 42.8864C82.0872 42.7951 82.0276 42.7039 81.9321 42.6517Z" fill="#4D4B4A"/>
<path d="M83.6377 42.8722C83.8167 42.9504 83.936 43.1329 84.0314 43.3155C84.1269 43.498 84.1865 43.6936 84.2343 43.9021C84.3297 44.3063 84.3536 44.7235 84.3655 45.1277C84.3655 45.5318 84.3417 45.949 84.2581 46.3532C84.2223 46.5618 84.1627 46.7573 84.0911 46.9529C84.0553 47.0442 84.0076 47.1354 83.9599 47.2267C83.9002 47.318 83.8405 47.3962 83.757 47.4483C83.8763 47.2919 83.936 47.0963 83.9837 46.9138C84.0314 46.7182 84.0553 46.5227 84.0792 46.3271C84.115 45.936 84.1269 45.5318 84.1269 45.1277C84.1269 44.7235 84.115 44.3324 84.0553 43.9413C84.0195 43.7457 83.9837 43.5501 83.9241 43.3676C83.8525 43.1851 83.7809 42.9895 83.6377 42.8722Z" fill="#4D4B4A"/>
<path d="M87.0623 65.4024H1.79949C1.03587 65.4024 0.475086 64.5159 0.665991 63.6033L1.96653 57.3453C2.09778 56.7065 2.56311 56.2632 3.10003 56.2632H85.7618C86.2987 56.2632 86.7641 56.7065 86.8953 57.3453L88.1958 63.6033C88.3748 64.5159 87.826 65.4024 87.0623 65.4024Z" fill="#F4AF53"/>
<path d="M88.005 64.5945H0.797363V67.3063H88.005V64.5945Z" fill="#AB835F"/>
<path d="M21.2007 62.2967H5.04541L5.99993 57.7336H20.2462L21.2007 62.2967Z" fill="#CCCCCC"/>
<path d="M9.83006 43.1501V49.3038C9.83006 49.3038 10.7249 49.6297 10.7846 50.086C10.8442 50.5424 10.7846 51.6375 10.7846 51.6375L10.0687 51.5071C10.0687 51.5071 10.0687 50.5293 9.47211 50.5293C8.87554 50.5293 8.81588 53.3845 9.53177 53.3845C10.2477 53.3845 10.1283 52.5371 10.1283 52.5371H10.7846C10.7846 52.5371 10.7846 54.61 10.7846 55.0664C10.7846 55.5227 11.3215 55.5878 11.3215 55.5878L11.6794 58.5082L11.9181 55.7182C11.9181 55.7182 12.3357 55.3271 12.3357 54.8708C12.3357 54.4145 12.3357 52.0156 12.3357 51.4289C12.3357 50.8422 12.0971 50.5163 12.0971 50.5163L12.0374 49.2908L12.9919 48.9648C12.9919 48.9648 13.1709 49.9426 13.8868 49.9426C14.6027 49.9426 14.6623 47.5437 13.7675 47.5437C12.8726 47.5437 12.9323 48.3912 12.9323 48.3912L12.0374 48.0652V42.746L9.83006 43.1501Z" fill="#4D4B4A"/>
<path d="M11.7155 61.398L11.0354 55.8571C10.7729 55.7528 10.4746 55.5181 10.4746 55.0748V52.8715H10.415C10.3911 53.041 10.3434 53.2365 10.2121 53.406C10.1048 53.5494 9.89 53.7189 9.53205 53.7189C9.03093 53.7189 8.7207 53.054 8.7207 51.9719C8.7207 51.1245 8.92355 50.2249 9.4724 50.2249C10.0451 50.2249 10.2718 50.7855 10.3434 51.2418L10.4985 51.2679C10.5104 50.8898 10.5224 50.3813 10.4866 50.1336C10.4746 50.0032 10.0928 49.7425 9.73488 49.6121L9.53205 49.5339V42.8718L12.324 42.3763V47.839L12.682 47.9694C12.7178 47.839 12.7894 47.7087 12.8848 47.5913C13.0877 47.3566 13.374 47.2263 13.7439 47.2263C14.066 47.2263 14.3405 47.4218 14.5075 47.7869C14.6268 48.0476 14.6984 48.3996 14.6984 48.7777C14.6984 49.6512 14.3524 50.264 13.8632 50.264C13.2786 50.264 12.9445 49.7816 12.7774 49.3774L12.324 49.5339L12.3718 50.4204C12.4553 50.5769 12.6104 50.9289 12.6104 51.4374V54.8792C12.6104 55.3356 12.336 55.7006 12.1809 55.8701L11.7155 61.398ZM9.77069 52.2196H11.0712V55.0748C11.0712 55.2313 11.3337 55.2704 11.3456 55.2704L11.5723 55.2964L11.6081 55.6224V55.5572L11.7036 55.4659C11.7871 55.3877 12.0138 55.1139 12.0138 54.8662V51.4243C12.0138 50.968 11.8468 50.7203 11.8348 50.7203L11.7752 50.6421L11.7632 50.5378L11.6917 49.0515L12.7774 48.6734L11.7036 48.2823V43.1325L10.1048 43.4193V49.0776C10.4508 49.234 10.9877 49.5469 11.0474 50.0293C11.107 50.5117 11.0474 51.6068 11.0474 51.646L11.0235 52.011L9.73488 51.7763V51.5026C9.73488 51.5026 9.72296 50.9028 9.4724 50.8507C9.36501 50.9941 9.22183 51.6199 9.29342 52.3369C9.34115 52.8193 9.46047 53.0279 9.5082 53.054C9.66331 53.054 9.71102 52.9888 9.73488 52.9627C9.81841 52.8454 9.81842 52.6238 9.80649 52.5716L9.77069 52.2196ZM13.2189 48.6995L13.2547 48.9081C13.2547 48.9342 13.3979 49.6252 13.8513 49.6252C13.9229 49.6252 14.1018 49.3253 14.1018 48.7777C14.1018 48.5039 14.0541 48.2562 13.9706 48.0737C13.8751 47.8651 13.7677 47.8651 13.732 47.8651C13.541 47.8651 13.3979 47.9173 13.3024 48.0085C13.1831 48.1519 13.195 48.3605 13.195 48.3605L13.2189 48.6995Z" fill="#4D4B4A"/>
<path d="M11.1297 50.9038C11.2012 51.2558 11.237 51.6078 11.2728 51.9598C11.2967 52.3119 11.3086 52.6639 11.3086 53.0159C11.3086 53.3679 11.2967 53.7199 11.2728 54.0719C11.249 54.4239 11.2132 54.7759 11.1297 55.1279C11.0581 54.7759 11.0223 54.4239 10.9865 54.0719C10.9626 53.7199 10.9507 53.3679 10.9507 53.0159C10.9507 52.6639 10.9626 52.3119 10.9865 51.9598C11.0223 51.5948 11.0581 51.2558 11.1297 50.9038Z" fill="#CCCCCC"/>
<path d="M9.53098 50.8649C9.48326 51.0604 9.44746 51.256 9.41167 51.4385C9.37587 51.6341 9.36394 51.8166 9.36394 51.9991C9.36394 52.1817 9.37588 52.3772 9.39974 52.5597C9.4236 52.7553 9.48326 52.9248 9.53098 53.1334C9.39974 52.99 9.28042 52.8205 9.22077 52.6249C9.14918 52.4294 9.11338 52.2208 9.12531 51.9991C9.12531 51.7905 9.17304 51.5819 9.23269 51.3864C9.30428 51.1908 9.39974 51.0083 9.53098 50.8649Z" fill="#CCCCCC"/>
<path d="M67.7573 61.031C60.0138 61.031 55.6707 60.2226 54.4775 58.5668C54.1554 58.1105 54.0599 57.602 54.1792 57.0414C54.2866 56.572 54.6923 55.3986 55.2531 53.7819C56.6252 49.8052 58.928 43.1428 59.453 39.1792C60.2166 33.3382 59.7035 30.1569 57.7468 28.5663C55.7184 26.8974 31.6286 25.8544 25.9134 25.8544C20.759 25.8544 16.917 27.6406 15.6403 30.6263C14.7574 32.6863 14.6142 35.9719 14.5307 38.1492C14.4949 39.0749 14.4591 39.7399 14.3875 40.0919C14.2085 41.0046 13.3733 42.9603 12.0012 43.1689C11.0944 43.3123 9.80581 43.2862 9.26889 43.2732C9.12571 43.6383 8.77969 44.0555 8.07573 44.0555C7.20473 44.0555 6.87064 43.2993 6.85871 42.7777L5.89225 10.2348C5.82066 10.0001 5.52238 9.04832 5.46272 8.48769C5.39113 7.78363 5.74907 7.06654 6.27406 6.88401C6.65587 6.74059 8.11152 6.55806 8.27856 6.53198H8.31436H11.4046C12.2756 6.53198 12.7171 7.94009 12.908 8.77453C13.1466 9.68719 19.9834 15.0458 21.2124 15.2805C22.4652 15.5282 30.7815 15.2284 33.2632 15.0719C35.3632 14.9415 52.1986 12.3078 55.2411 11.7602C55.5991 11.695 56.0167 11.6168 56.4701 11.5386C59.7274 10.9388 65.1682 9.93491 68.342 10.1696C72.0766 10.4434 75.0594 13.3639 75.5009 14.2505C75.6679 14.5895 75.7753 14.9154 75.8827 15.1892C76.0378 15.6195 76.1452 15.9585 76.3719 16.1149C76.4554 16.1671 76.527 16.2192 76.5986 16.2584C76.9804 16.5061 77.3503 16.7408 77.4219 17.3405V17.3666C77.6128 19.0485 77.8037 21.278 77.6009 22.3471C77.41 23.325 77.2548 24.6157 77.2071 25.0982C77.3861 25.2416 77.6128 25.5154 77.6128 25.8544C77.6128 26.063 77.5531 28.9705 77.4815 29.3616C77.4219 29.7006 77.231 30.0526 77.1594 30.17C77.1236 30.3003 76.9327 31.0696 76.8253 33.1557C76.706 35.5547 76.9446 39.9615 76.9446 40.0137C76.9446 40.1049 77.5054 49.3359 78.0423 53.0517C78.5315 56.4155 78.7224 58.2278 78.7702 58.5668C78.8298 58.7233 78.8537 58.9449 78.7344 59.1796C78.1855 60.4182 74.4867 61.031 67.7573 61.031Z" fill="#A8544E"/>
<path d="M8.73145 6.92755V1.23019C8.73145 0.956401 8.93428 0.747803 9.17291 0.747803H9.6621C9.91266 0.747803 10.1036 0.969439 10.1036 1.23019V7.01881L8.73145 6.92755Z" fill="#242022"/>
<path d="M10.4137 7.37203L8.43311 7.24165V1.23139C8.43311 0.775083 8.76718 0.410034 9.18478 0.410034H9.67397C10.0916 0.410034 10.4257 0.775083 10.4257 1.23139V7.37203H10.4137ZM9.04161 6.61586L9.80523 6.66801V1.23139C9.80523 1.14013 9.74557 1.07494 9.66205 1.07494H9.17286C9.08933 1.07494 9.02968 1.14013 9.02968 1.23139V6.61586H9.04161Z" fill="#4D4B4A"/>
<path d="M89.9023 4.10793C89.3415 2.25662 88.208 0.926797 85.8575 1.63082C83.5189 2.33484 82.7076 8.43636 82.7076 8.43636C82.7076 8.43636 81.0133 8.17561 80.1184 9.58366C79.2236 10.9917 78.7463 16.4674 78.7463 16.4674C78.7463 16.4674 78.1855 16.5587 77.6963 16.5587C77.2071 16.5587 77.1475 17.4452 77.1475 17.4452C77.41 18.5925 77.3742 23.3642 77.3742 23.3642C77.7798 23.977 79.3906 23.625 79.3906 23.625C79.3906 23.625 79.3906 24.0683 79.6292 25.6588C79.8679 27.2494 80.0468 30.1437 80.7627 30.6C81.5741 31.1346 82.2184 30.6 82.2184 30.6C82.2184 30.6 82.3019 30.952 82.624 32.7251C82.9462 34.4982 83.674 37.0536 84.8075 38.4616C85.941 39.8696 87.5518 39.7914 88.7688 38.6441C89.9858 37.4968 91.8352 30.6 91.8352 21.0696C91.8352 11.5262 90.4631 5.95925 89.9023 4.10793ZM84.6047 13.195C84.366 13.1298 84.1155 12.5301 84.4257 12.2042C84.4257 12.2042 86.1796 10.6136 86.6688 9.02305C86.6688 9.02305 86.9671 11.4089 86.9671 11.9434C86.9671 12.4649 84.8433 13.2602 84.6047 13.195ZM86.6092 31.291C86.6092 31.291 85.762 29.7004 85.5831 28.1751C85.4041 26.6497 85.6427 26.0499 85.6427 26.0499C85.6427 26.0499 86.8001 26.1151 87.158 26.3107C87.1461 26.3107 86.9671 30.1567 86.6092 31.291ZM85.4518 17.0411C85.0939 17.0411 85.6905 15.985 86.1797 15.3853C86.6688 14.7856 87.1461 14.3293 87.1461 14.3293L87.3251 17.0411C87.337 17.0411 85.8217 17.0411 85.4518 17.0411Z" fill="#72706F"/>
<path d="M86.8 39.8408C85.9767 39.8408 85.1892 39.4497 84.5807 38.6805C83.1728 36.9204 82.5046 33.7262 82.3256 32.7875C82.1705 31.914 82.0631 31.3925 82.0035 31.0796C81.6694 31.197 81.1683 31.2622 80.6075 30.8841C79.9751 30.4669 79.7365 28.9545 79.4859 26.8555C79.4382 26.4383 79.3905 26.0472 79.3308 25.7082C79.1996 24.8477 79.1399 24.3132 79.1041 24.0133C78.5314 24.0916 77.5053 24.1437 77.1116 23.557L77.0519 23.4658V23.3615C77.0519 23.3093 77.0877 18.6158 76.8371 17.5207L76.8252 17.4685V17.4164C76.861 16.9731 77.0638 16.23 77.6723 16.23C77.9468 16.23 78.245 16.2039 78.4479 16.1778C78.5553 15.0436 79.0325 10.7021 79.8439 9.39837C80.6075 8.19893 81.8603 8.06856 82.4211 8.08159C82.6239 6.80392 83.5307 1.98007 85.75 1.31516C87.9335 0.66329 89.413 1.56287 90.1647 4.00087C90.7493 5.93042 92.1214 11.4452 92.1214 21.0669C92.1214 30.6103 90.2482 37.6635 88.9476 38.8891C88.2914 39.5149 87.5397 39.8408 86.8 39.8408ZM82.3972 30.0366L82.5046 30.519C82.5046 30.5321 82.5881 30.8971 82.9103 32.6572C83.2444 34.5085 83.9841 36.9465 85.0222 38.2502C85.9767 39.4366 87.3966 39.5018 88.5539 38.3936C89.6158 37.3898 91.5249 30.7276 91.5249 21.0669C91.5249 11.2758 90.0573 5.69574 89.6039 4.20947C88.9596 2.11045 87.7903 1.39339 85.929 1.954C84.1631 2.48853 83.2086 6.84304 82.9938 8.48575L82.9461 8.81169L82.6478 8.75954C82.6359 8.75954 81.1205 8.55094 80.3569 9.76342C79.6649 10.8586 79.1638 14.9914 79.0325 16.5038L79.0087 16.7645L78.77 16.8036C78.7462 16.8036 78.1735 16.8949 77.6723 16.8949C77.553 16.8949 77.4576 17.2208 77.4337 17.4294C77.6723 18.5898 77.6604 22.4488 77.6485 23.2441C77.9229 23.4658 78.7581 23.4397 79.307 23.3093L79.6649 23.2311V23.6353C79.6649 23.6353 79.6768 24.0916 79.9035 25.6169C79.9513 25.9559 79.999 26.3601 80.0586 26.7903C80.2138 28.0158 80.4524 30.0497 80.8938 30.3365C81.5143 30.7537 82.0035 30.3626 82.0154 30.3495L82.3972 30.0366ZM86.6687 32.0705L86.3346 31.4577C86.2988 31.3925 85.4517 29.7889 85.2608 28.2244C85.0699 26.6599 85.3205 25.995 85.3443 25.9298L85.4278 25.7212L85.6307 25.7343C85.8335 25.7473 86.8716 25.8125 87.2653 26.0341L87.4443 26.1254L87.4323 26.347C87.4204 26.5035 87.2414 30.2452 86.8716 31.4056L86.6687 32.0705ZM85.8574 26.3992C85.8096 26.673 85.7619 27.2206 85.8693 28.1332C85.9648 28.9285 86.2511 29.7368 86.4897 30.3235C86.6807 29.0979 86.788 27.2206 86.8238 26.5556C86.5852 26.4774 86.1915 26.4253 85.8574 26.3992ZM87.659 17.3642H85.4517C85.2847 17.3642 85.1415 17.273 85.0699 17.1035C84.8313 16.5299 85.9051 15.2131 85.9409 15.1479C86.4301 14.5482 86.9193 14.0788 86.9432 14.0527L87.3965 13.6095L87.659 17.3642ZM85.7142 16.7124H87.0147L86.9074 15.0436C86.7642 15.2 86.5852 15.3956 86.4182 15.6042C86.096 15.9953 85.8335 16.4386 85.7142 16.7124ZM84.6284 13.5312C84.5926 13.5312 84.5568 13.5312 84.533 13.5182C84.3063 13.453 84.1034 13.2053 84.0199 12.8794C83.9364 12.5404 84.008 12.2014 84.2108 11.9668L84.2347 11.9407C84.2466 11.9276 85.929 10.3892 86.3824 8.91599L86.788 7.57313L86.967 8.98118C86.9789 9.08547 87.2772 11.3931 87.2772 11.9407C87.2772 12.1493 87.1698 12.3448 86.9312 12.5404C86.4301 12.9706 85.0938 13.5312 84.6284 13.5312ZM84.6284 12.4491C84.5926 12.5013 84.5807 12.5534 84.5807 12.6447C84.5926 12.749 84.6404 12.8403 84.6762 12.8794C85.0818 12.8403 86.4898 12.2275 86.6568 11.9276C86.6568 11.6408 86.5733 10.8716 86.4897 10.1676C85.8097 11.341 84.7716 12.3188 84.6284 12.4491Z" fill="#72706F"/>
<path d="M80.2974 27.7926C80.2974 27.7926 80.4167 29.5135 81.1445 28.979C81.8723 28.4445 82.2303 23.751 82.2303 23.751C82.2303 23.751 82.4689 29.2528 81.4428 29.9829C80.4167 30.713 80.2974 27.7926 80.2974 27.7926Z" fill="#CCCCCC"/>
<path d="M77.5654 17.364C77.5654 17.364 77.6251 16.7643 77.9234 16.7643C78.2217 16.7643 78.8302 16.8295 78.8302 16.8295C78.8302 16.8295 79.2597 19.5413 79.0092 20.2062L77.5654 17.364Z" fill="#CCCCCC"/>
<path d="M83.6973 9.92089C83.6973 9.92089 84.783 8.52588 85.0933 7.40466C85.3916 6.28345 85.3319 5.55335 85.5228 5.48816C85.7018 5.42297 86.3103 7.54808 86.012 8.13476C85.6898 8.73448 83.9956 10.2599 83.6973 9.92089Z" fill="white"/>
<path d="M85.0459 2.54208C85.3442 2.28133 85.7021 2.08577 86.072 1.96843C86.4538 1.86413 86.8476 1.83806 87.2532 1.89021C87.4441 1.92932 87.647 1.96844 87.8379 2.0597C87.9333 2.09881 88.0288 2.15096 88.1123 2.20311C88.1958 2.2683 88.2913 2.30741 88.3748 2.38563C88.4583 2.45082 88.5299 2.52904 88.6134 2.62031C88.685 2.72461 88.7447 2.81587 88.7924 2.90713C88.8998 3.10269 88.9833 3.29825 89.0549 3.49382C89.3651 4.27606 89.6157 5.08438 89.8424 5.8927C90.0691 6.70103 90.2481 7.52238 90.427 8.34374C90.773 9.98646 90.9997 11.6683 91.1787 13.3371C91.3458 15.0189 91.4293 16.7007 91.4412 18.3956C91.4412 20.0905 91.3696 21.7723 91.2861 23.4411C91.1787 25.1229 91.0475 26.8048 90.8446 28.4735C90.6418 30.1423 90.3793 31.8111 89.9975 33.4408C89.8066 34.2622 89.5799 35.0705 89.3055 35.8527C89.1623 36.2439 89.0072 36.635 88.8163 37C88.6254 37.3651 88.4106 37.7301 88.1481 38.03C88.3867 37.704 88.5657 37.326 88.7089 36.9479C88.864 36.5698 88.9833 36.1787 89.0907 35.7745C89.3055 34.9792 89.4725 34.1579 89.6037 33.3495C89.7469 32.5282 89.8543 31.7068 89.9498 30.8855C90.0452 30.0641 90.1287 29.2297 90.2003 28.3953C90.2361 27.9781 90.2719 27.5609 90.2958 27.1437L90.3793 25.8921C90.427 25.0577 90.4747 24.2233 90.4986 23.3889C90.5702 21.7202 90.6299 20.0514 90.6179 18.3826C90.6179 17.5482 90.5941 16.7138 90.5583 15.8924C90.5225 15.058 90.4628 14.2367 90.4032 13.4023C90.2719 11.7465 90.0571 10.0908 89.7946 8.46108C89.6634 7.63972 89.4964 6.8314 89.3174 6.02308C89.1384 5.21476 88.9356 4.40644 88.6731 3.63723C88.6015 3.44167 88.5418 3.25914 88.4583 3.07662C88.4225 2.98535 88.3748 2.90713 88.339 2.84194C88.2793 2.77676 88.2316 2.69853 88.16 2.64638C88.1004 2.5812 88.0168 2.52905 87.9453 2.4769C87.8617 2.42475 87.7901 2.3726 87.7066 2.33348C87.5396 2.24222 87.3726 2.19007 87.1936 2.13792C86.5015 1.9554 85.6902 2.08577 85.0459 2.54208Z" fill="#CCCCCC"/>
<path d="M81.2632 9.02332C81.4183 9.15369 81.5257 9.34925 81.6331 9.53177C81.7285 9.72734 81.812 9.9229 81.8956 10.1185C82.0387 10.5226 82.1581 10.9398 82.2654 11.357C82.3132 11.5656 82.3609 11.7742 82.4086 11.9959C82.4563 12.2045 82.4921 12.4261 82.5279 12.6347C82.5995 13.0649 82.6473 13.4952 82.7069 13.9254C82.7546 14.3556 82.7904 14.7859 82.8143 15.2161C82.8381 15.6463 82.862 16.0766 82.862 16.5068C82.8739 17.3673 82.862 18.2277 82.7904 19.0882C82.7069 18.2277 82.6472 17.3673 82.5757 16.5198L82.4683 15.2422C82.4325 14.8119 82.3967 14.3947 82.349 13.9645C82.2654 13.1171 82.1461 12.2696 82.0029 11.4352C81.9314 11.018 81.8478 10.6008 81.7404 10.1967C81.6927 9.98809 81.6331 9.79252 81.5615 9.58393C81.5257 9.47963 81.4899 9.38836 81.4422 9.2971C81.3825 9.1928 81.3348 9.10154 81.2632 9.02332Z" fill="#CCCCCC"/>
<path d="M82.6597 8.81921C82.9699 9.58842 83.2085 10.3837 83.4113 11.192C83.5187 11.5962 83.5903 12.0134 83.6738 12.4175C83.7454 12.8347 83.8051 13.2519 83.8528 13.6691C83.9363 14.5035 83.9841 15.3379 84.0199 16.1723C84.0437 17.0067 84.0437 17.8411 83.996 18.6886C83.9005 17.8542 83.817 17.0328 83.7335 16.1984L83.6142 14.9598C83.5784 14.5427 83.5426 14.1255 83.4949 13.7213C83.4114 12.8999 83.2801 12.0786 83.1369 11.2703C82.9938 10.4489 82.8267 9.64057 82.6597 8.81921Z" fill="#CCCCCC"/>
<path d="M85.6069 37.0801C85.6069 37.0801 86.2154 36.7672 86.6688 35.3853C87.1222 34.0033 87.5876 31.5001 87.5876 31.5001C87.5876 31.5001 87.4683 36.5717 87.9813 36.8194C88.5063 37.0671 88.733 36.9367 88.733 36.9367C88.733 36.9367 88.0529 38.5143 86.9194 38.5012C85.7978 38.5012 85.6069 37.0801 85.6069 37.0801Z" fill="#72706F"/>
<path d="M21.5938 17.6972C21.2717 16.9802 29.3493 16.9019 32.5828 16.7194C35.8162 16.5369 49.8 14.7768 53.9999 13.9816C58.1998 13.1863 65.5616 12.2085 65.5616 13.3688C65.5616 14.5161 45.9223 16.2892 43.4882 16.4587C41.0661 16.6412 26.9988 17.8667 25.1375 17.958C23.2881 18.0492 21.8325 18.2318 21.5938 17.6972Z" fill="#DCBB98"/>
<path d="M11.9648 42.7651C11.9648 42.7651 12.0484 35.3859 13.6591 31.6833C15.2818 27.9676 18.2647 26.2988 19.4817 25.9468C20.6987 25.5948 22.9538 25.5035 22.9538 25.5035C22.9538 25.5035 18.2647 25.9468 16.0812 29.0367C14.1125 31.8267 14.1364 34.6949 13.9813 36.1942C13.8142 37.6935 14.2199 40.1707 13.337 41.4092C12.454 42.6347 11.9648 42.7651 11.9648 42.7651Z" fill="#703A2A"/>
<path d="M28.061 23.993C28.061 23.993 54.9786 24.5275 58.0569 26.4701C61.1233 28.4127 61.3739 33.1844 61.3739 33.1844C61.3739 33.1844 62.6386 30.6291 61.6961 28.0607C60.2404 24.0843 56.2791 24.345 54.3343 24.0843C52.3895 23.8105 29.3496 23.3803 28.061 23.993Z" fill="#703A2A"/>
<path d="M17.1306 13.8673C16.534 13.4762 15.2216 12.1594 14.625 12.016C14.4699 11.9769 14.4938 11.9769 14.3267 11.9638C13.6108 11.9638 12.7398 12.368 12.0836 12.5375C11.6898 11.9247 10.8904 9.46065 10.8666 8.57411C10.8666 8.19602 10.974 7.92224 11.2484 7.62237C11.4393 7.43985 11.666 7.2834 11.9046 7.19214C11.3558 7.23125 10.7711 7.55719 10.5206 8.10476C10.3774 8.40462 10.3654 8.66537 10.3535 8.96523C10.3535 10.0734 10.795 11.9899 11.3319 12.9025C11.4751 13.1502 11.666 13.3458 11.9285 13.3588C12.3699 13.3849 13.2529 12.9156 14.0046 12.707C14.4102 12.5896 14.5176 12.6548 14.6727 12.7331C15.4006 13.0459 16.7011 14.0107 17.4766 14.0629C17.3454 14.0107 17.238 13.9455 17.1306 13.8673Z" fill="#DCBB98"/>
<path d="M61.4683 38.6515C61.4683 38.6515 60.5138 43.2537 59.5473 46.3957C58.5928 49.5377 55.9082 57.1777 55.9082 57.1777C55.9082 57.1777 59.0701 58.5336 59.9291 57.9078C60.8001 57.282 62.7092 43.7752 61.4683 38.6515Z" fill="#703A2A"/>
<path d="M14.3997 14.6189C13.8031 14.632 11.715 16.6267 11.6196 17.0309C11.5241 17.435 11.5122 23.328 11.5122 23.328C11.5122 23.328 13.123 24.0189 14.8411 23.9929C16.5712 23.9668 18.2893 22.9499 18.2893 22.9499C18.2893 22.9499 17.7763 16.8483 17.5734 16.5876C17.3706 16.3138 15.1513 14.5929 14.3997 14.6189Z" fill="#CCCCCC"/>
<path d="M14.2674 23.1833C13.4561 23.1181 12.7044 22.9095 12.251 22.7661C12.251 20.3672 12.2868 17.8901 12.3226 17.2904C12.6566 16.808 14.0049 15.5825 14.4464 15.413C14.9117 15.4912 16.4389 16.5733 16.9401 17.0296C17.0713 17.6945 17.3219 20.1325 17.5247 22.4662C16.952 22.74 15.8901 23.1833 14.8401 23.1963C14.6611 23.1963 14.4583 23.1963 14.2674 23.1833Z" fill="#CCCCCC"/>
<path d="M14.7327 23.3829C14.5776 23.3829 14.4106 23.3829 14.2555 23.3698H14.2435C13.4203 23.3046 12.6686 23.096 12.1913 22.9396L12.0601 22.9005V22.7571C12.0601 20.5668 12.0959 17.9071 12.1317 17.2683V17.2161L12.1674 17.164C12.5015 16.6946 13.8737 15.417 14.3748 15.2214L14.4225 15.2084L14.4702 15.2214C14.9952 15.3127 16.5583 16.4209 17.0475 16.8772L17.0952 16.9163L17.1071 16.9815C17.2503 17.6985 17.5009 20.306 17.6918 22.4442L17.7037 22.5876L17.5844 22.6397C17.0236 22.9135 15.914 23.3698 14.8282 23.3829C14.8043 23.3829 14.7685 23.3829 14.7327 23.3829ZM14.2674 22.9787C14.4702 22.9917 14.6492 23.0048 14.8282 22.9917C15.7827 22.9787 16.7611 22.6006 17.3219 22.3399C17.1071 19.9019 16.8923 17.8028 16.773 17.1379C16.248 16.6816 14.9117 15.7429 14.4583 15.6256C14.0288 15.8342 12.8476 16.9032 12.4896 17.3726C12.4538 17.9853 12.418 20.0974 12.418 22.6267C12.8953 22.744 13.5515 22.9135 14.2674 22.9787Z" fill="#A35D3E"/>
<path d="M9.3877 1.36035V6.57533H9.81723V1.37339L9.3877 1.36035Z" fill="#CCCCCC"/>
<path d="M8.99365 1.16126C9.06524 1.10911 9.12489 1.08303 9.19648 1.05696C9.26807 1.04392 9.32774 1.03088 9.39933 1.03088C9.47092 1.03088 9.53057 1.04392 9.60216 1.05696C9.67375 1.08303 9.73341 1.10911 9.805 1.16126C9.73341 1.21341 9.67375 1.23948 9.60216 1.26556C9.53057 1.27859 9.47092 1.29163 9.39933 1.29163C9.32774 1.29163 9.26807 1.27859 9.19648 1.26556C9.12489 1.23948 9.06524 1.21341 8.99365 1.16126Z" fill="white"/>
<path d="M65.4066 10.6392H64.5117V1.05673C64.5117 0.782939 64.7145 0.574341 64.9532 0.574341C65.2037 0.574341 65.3946 0.795977 65.3946 1.05673V10.6392H65.4066Z" fill="#4D4B4A"/>
<path d="M64.8337 1.3606C64.8814 2.05158 64.9053 2.74257 64.9291 3.43355C64.953 4.12453 64.953 4.81552 64.953 5.5065C64.953 6.19749 64.9411 6.88847 64.9291 7.57945C64.9172 8.27044 64.8814 8.96142 64.8337 9.65241C64.7859 8.96142 64.7621 8.27044 64.7382 7.57945C64.7143 6.88847 64.7144 6.19749 64.7144 5.5065C64.7144 4.81552 64.7263 4.12453 64.7382 3.43355C64.7621 2.7556 64.7859 2.06462 64.8337 1.3606Z" fill="white"/>
<path d="M73.6365 36.9069C74.5497 35.909 74.5497 34.291 73.6365 33.2931C72.7232 32.2951 71.2426 32.2951 70.3293 33.2931C69.4161 34.291 69.4161 35.909 70.3294 36.9069C71.2426 37.9048 72.7232 37.9048 73.6365 36.9069Z" fill="#FFD51F"/>
<path d="M71.9806 36.8857C71.0857 36.8857 70.3579 36.0904 70.3579 35.1126C70.3579 34.1348 71.0857 33.3395 71.9806 33.3395C72.8755 33.3395 73.6033 34.1348 73.6033 35.1126C73.6033 36.0904 72.8755 36.8857 71.9806 36.8857Z" fill="#FFD51F"/>
<path d="M71.9799 37.0724C70.9896 37.0724 70.1782 36.1859 70.1782 35.1038C70.1782 34.0217 70.9896 33.1351 71.9799 33.1351C72.9702 33.1351 73.7815 34.0217 73.7815 35.1038C73.7815 36.1989 72.9702 37.0724 71.9799 37.0724ZM71.9799 33.5393C71.1924 33.5393 70.5481 34.2433 70.5481 35.1038C70.5481 35.9643 71.1924 36.6683 71.9799 36.6683C72.7674 36.6683 73.4117 35.9643 73.4117 35.1038C73.4117 34.2433 72.7674 33.5393 71.9799 33.5393Z" fill="#E28E14"/>
<path d="M9.61475 27.4245C9.61475 26.564 10.2471 25.873 11.0346 25.873C11.8221 25.873 12.4545 26.564 12.4545 27.4245C12.4545 28.285 11.8221 28.976 11.0346 28.976C10.2471 28.976 9.61475 28.285 9.61475 27.4245Z" fill="#FFD51F"/>
<path d="M11.0336 28.4984C10.4966 28.4984 10.0552 28.016 10.0552 27.4293C10.0552 26.8426 10.4966 26.3602 11.0336 26.3602C11.5705 26.3602 12.012 26.8426 12.012 27.4293C12.012 28.016 11.5824 28.4984 11.0336 28.4984Z" fill="#FFD51F"/>
<path d="M11.0337 28.6335C10.4372 28.6335 9.93604 28.099 9.93604 27.4341C9.93604 26.7822 10.4252 26.2346 11.0337 26.2346C11.6303 26.2346 12.1314 26.7692 12.1314 27.4341C12.1314 28.099 11.6422 28.6335 11.0337 28.6335ZM11.0337 26.4954C10.5565 26.4954 10.1627 26.9256 10.1627 27.4471C10.1627 27.9686 10.5565 28.3988 11.0337 28.3988C11.511 28.3988 11.9047 27.9686 11.9047 27.4471C11.9047 26.9256 11.5229 26.4954 11.0337 26.4954Z" fill="#E28E14"/>
<path d="M10.4138 43.5715C10.4854 44.0018 10.5212 44.419 10.557 44.8492C10.5809 45.2794 10.5928 45.6966 10.5928 46.1269C10.5928 46.5571 10.5809 46.9743 10.557 47.4045C10.5331 47.8348 10.4974 48.252 10.4138 48.6822C10.3422 48.252 10.3064 47.8348 10.2706 47.4045C10.2468 46.9743 10.2349 46.5571 10.2349 46.1269C10.2349 45.6966 10.2468 45.2794 10.2706 44.8492C10.3064 44.419 10.3422 43.9887 10.4138 43.5715Z" fill="#CCCCCC"/>
<path d="M11.3679 43.705C11.4156 44.0309 11.4394 44.3568 11.4633 44.6828C11.4872 45.0087 11.4872 45.3346 11.4872 45.6606C11.4872 45.9865 11.4752 46.3124 11.4633 46.6384C11.4514 46.9643 11.4156 47.2903 11.3679 47.6162C11.3201 47.2903 11.2963 46.9643 11.2724 46.6384C11.2485 46.3124 11.2485 45.9865 11.2485 45.6606C11.2485 45.3346 11.2605 45.0087 11.2724 44.6828C11.2963 44.3438 11.3201 44.0179 11.3679 43.705Z" fill="#CCCCCC"/>
<path d="M14.0522 17.1035C14.0761 16.8167 14.3028 16.5951 14.5652 16.6081C14.8277 16.6342 15.0306 16.8819 15.0187 17.1687C14.9948 17.4555 14.7681 17.6772 14.5056 17.6641C14.2312 17.6511 14.0283 17.4034 14.0522 17.1035Z" fill="#242022"/>
<path d="M14.5302 18.0009C14.5063 18.0009 14.4944 18.0009 14.4705 18.0009C14.2557 17.9879 14.0648 17.8836 13.9336 17.7011C13.7904 17.5316 13.7308 17.3099 13.7427 17.0753C13.7785 16.6059 14.1484 16.2409 14.5779 16.28C14.7927 16.293 14.9836 16.3973 15.1148 16.5798C15.258 16.7493 15.3177 16.971 15.3057 17.2056C15.2938 17.4403 15.1983 17.6489 15.0313 17.7923C14.912 17.9357 14.7211 18.0009 14.5302 18.0009ZM14.3512 17.1274C14.3393 17.2317 14.4228 17.336 14.5182 17.336C14.566 17.336 14.6137 17.323 14.6495 17.2839C14.6853 17.2447 14.7091 17.2056 14.7091 17.1535C14.7091 17.1013 14.6972 17.0492 14.6614 17.0101C14.6256 16.971 14.5898 16.9449 14.5421 16.9449C14.4467 16.9318 14.3631 17.0231 14.3512 17.1274Z" fill="#A35D3E"/>
<path d="M67.7446 12.399C67.7446 12.399 72.3502 11.6037 74.2951 15.8408C75.7984 19.1393 75.7507 26.701 75.7507 26.701C75.7507 26.701 75.0229 19.8173 73.078 16.6361C71.3241 13.7679 67.7446 12.399 67.7446 12.399Z" fill="#DCBB98"/>
<path d="M85.2132 4.3634C85.5354 4.96313 85.7621 5.615 85.9888 6.27991C86.0842 6.60584 86.1916 6.94482 86.2751 7.28379C86.3586 7.62276 86.4541 7.9487 86.5257 8.28767C86.8359 9.64357 87.0745 11.0125 87.2416 12.4075C87.5995 15.1714 87.695 17.9745 87.695 20.7645C87.683 22.1595 87.6353 23.5545 87.5399 24.9495L87.4563 25.9925C87.4325 26.3445 87.3847 26.6835 87.3489 27.0355C87.3131 27.3875 87.2774 27.7265 87.2296 28.0785L87.0865 29.1085C86.8717 30.4904 86.6092 31.8594 86.2632 33.2022C86.1677 33.5412 86.0842 33.8671 85.9768 34.2061C85.8694 34.532 85.774 34.871 85.6547 35.1969C85.428 35.8488 85.1774 36.5007 84.8672 37.1004C84.9984 36.7875 85.1058 36.4616 85.2132 36.1356C85.3087 35.8097 85.416 35.4838 85.4996 35.1448C85.595 34.8189 85.6666 34.4799 85.7501 34.1409C85.8336 33.8019 85.8933 33.463 85.9649 33.137C86.2393 31.7942 86.4421 30.4252 86.6092 29.0563L86.7166 28.0264C86.7524 27.6874 86.7762 27.3354 86.812 26.9964C86.8359 26.6574 86.8717 26.3054 86.8956 25.9664L86.9552 24.9365C87.0387 23.5545 87.0745 22.1725 87.0745 20.7906C87.0865 19.4086 87.0626 18.0266 87.0149 16.6447C87.0149 16.2927 86.991 15.9537 86.9671 15.6147L86.9194 14.5848L86.8478 13.5548C86.824 13.2158 86.8001 12.8638 86.7643 12.5248L86.6688 11.4949L86.5495 10.4649C86.5137 10.126 86.4541 9.78698 86.4064 9.43497C86.3586 9.09599 86.299 8.75702 86.2393 8.41805C86.0007 6.99697 85.7143 5.64107 85.2132 4.3634Z" fill="#CCCCCC"/>
<path d="M7.37157 11.3107C7.44316 12.6014 7.49088 13.8921 7.51474 15.1828C7.52667 15.8347 7.53861 16.4735 7.55054 17.1254L7.56247 19.0679L7.55054 21.0105C7.53861 21.6624 7.5386 22.3012 7.51474 22.9531C7.49088 24.2438 7.44316 25.5345 7.37157 26.8252C7.29998 25.5345 7.25224 24.2438 7.22838 22.9531C7.21645 22.3012 7.20452 21.6624 7.19259 21.0105L7.18066 19.0679L7.19259 17.1254C7.20452 16.4735 7.20452 15.8347 7.22838 15.1828C7.26417 13.8921 7.29998 12.6014 7.37157 11.3107Z" fill="#DCBB98"/>
<path d="M67.4457 3.396H63.2339V8.07644H67.4457V3.396Z" fill="#62C8CA"/>
<path d="M67.4106 4.04297H63.2227C62.9244 4.04297 62.6738 3.76919 62.6738 3.44325V3.3911C62.6738 3.06517 62.9244 2.79138 63.2227 2.79138H67.4106C67.7089 2.79138 67.9595 3.06517 67.9595 3.3911V3.44325C67.9595 3.78223 67.7089 4.04297 67.4106 4.04297Z" fill="#E28E14"/>
<path d="M67.3149 4.14166H63.2939C62.8883 4.14166 62.5542 3.86788 62.5542 3.54194V3.3203C62.5542 2.99437 62.8883 2.72058 63.2939 2.72058H67.3149C67.7206 2.72058 68.0546 2.99437 68.0546 3.3203V3.54194C68.0546 3.86788 67.7206 4.14166 67.3149 4.14166ZM63.3059 2.87703C63.0076 2.87703 62.769 3.07259 62.769 3.30727V3.5289C62.769 3.76358 63.0076 3.95914 63.3059 3.95914H67.3268C67.6251 3.95914 67.8637 3.76358 67.8637 3.5289V3.30727C67.8637 3.07259 67.6251 2.87703 67.3268 2.87703H63.3059Z" fill="#E28E14"/>
<path d="M62.9951 3.30669C63.3769 3.24151 63.7587 3.20239 64.1286 3.17632C64.5104 3.15024 64.8922 3.13721 65.2621 3.13721C65.6439 3.13721 66.0257 3.15024 66.3956 3.17632C66.7774 3.20239 67.1592 3.24151 67.5291 3.30669C67.1473 3.37188 66.7655 3.41099 66.3956 3.43707C66.0138 3.46314 65.632 3.47618 65.2621 3.47618C64.8803 3.47618 64.4985 3.46314 64.1286 3.43707C63.7587 3.41099 63.3769 3.37188 62.9951 3.30669Z" fill="#F4AF53"/>
<path d="M67.398 9.28209H63.21C62.8998 9.28209 62.6611 9.0083 62.6611 8.68237V8.61718C62.6611 8.27821 62.9117 8.01746 63.21 8.01746H67.398C67.7082 8.01746 67.9468 8.29124 67.9468 8.61718V8.68237C67.9587 9.0083 67.7082 9.28209 67.398 9.28209Z" fill="#E28E14"/>
<path d="M67.3149 9.40174H63.2939C62.8883 9.40174 62.5542 9.12796 62.5542 8.78899V8.56735C62.5542 8.22838 62.8883 7.95459 63.2939 7.95459H67.3149C67.7206 7.95459 68.0546 8.22838 68.0546 8.56735V8.78899C68.0546 9.141 67.7206 9.40174 67.3149 9.40174ZM63.3059 8.13711C63.0076 8.13711 62.769 8.33267 62.769 8.58039V8.80202C62.769 9.04973 63.0076 9.2453 63.3059 9.2453H67.3268C67.6251 9.2453 67.8637 9.04973 67.8637 8.80202V8.58039C67.8637 8.33267 67.6251 8.13711 67.3268 8.13711H63.3059Z" fill="#E28E14"/>
<path d="M62.9951 8.5794C63.3769 8.51421 63.7587 8.4751 64.1286 8.44902C64.5104 8.42295 64.8922 8.40991 65.2621 8.40991C65.6439 8.40991 66.0257 8.42295 66.3956 8.44902C66.7774 8.4751 67.1592 8.51421 67.5291 8.5794C67.1473 8.64459 66.7655 8.6837 66.3956 8.70977C66.0138 8.73585 65.632 8.74888 65.2621 8.74888C64.8803 8.74888 64.4985 8.73585 64.1286 8.70977C63.7587 8.6837 63.3769 8.64459 62.9951 8.5794Z" fill="#F4AF53"/>
<path d="M67.4702 4.36353H63.1987V4.50694H67.4702V4.36353Z" fill="#3FA09B"/>
<path d="M67.4702 4.70068H63.1987V4.8441H67.4702V4.70068Z" fill="#3FA09B"/>
<path d="M67.4702 5.07043H63.1987V5.21385H67.4702V5.07043Z" fill="#3FA09B"/>
<path d="M67.4702 5.40845H63.1987V5.55186H67.4702V5.40845Z" fill="#3FA09B"/>
<path d="M67.4702 5.76953H63.1987V5.91294H67.4702V5.76953Z" fill="#3FA09B"/>
<path d="M67.4702 6.13123H63.1987V6.27464H67.4702V6.13123Z" fill="#3FA09B"/>
<path d="M67.4702 6.46924H63.1987V6.61265H67.4702V6.46924Z" fill="#3FA09B"/>
<path d="M67.4702 6.79175H63.1987V6.93516H67.4702V6.79175Z" fill="#3FA09B"/>
<path d="M67.4702 7.16028H63.1987V7.30369H67.4702V7.16028Z" fill="#3FA09B"/>
<path d="M67.4702 7.49902H63.1987V7.64244H67.4702V7.49902Z" fill="#3FA09B"/>
<path d="M67.1958 26.8005C69.8712 26.8005 72.04 24.4307 72.04 21.5073C72.04 18.584 69.8712 16.2141 67.1958 16.2141C64.5204 16.2141 62.3516 18.584 62.3516 21.5073C62.3516 24.4307 64.5204 26.8005 67.1958 26.8005Z" fill="#F4AF53"/>
</svg>
