<svg width="93" height="68" viewBox="0 0 93 68" fill="none" xmlns="http://www.w3.org/2000/svg">
<path d="M82.0388 48.4312C81.8121 48.4312 81.6212 48.3399 81.4661 48.1704C81.2274 47.8966 81.1559 47.4794 81.132 47.1796H77.0633C76.7531 47.323 75.4526 47.8705 74.7248 47.0883C74.2236 46.5407 74.1043 45.6411 74.2236 44.9893C74.3072 44.5069 74.4981 44.1549 74.7725 43.9984C75.1543 43.6595 76.085 43.2553 77.0872 43.9463H81.0127C81.0843 43.3466 81.3468 42.6165 82.0269 42.6165C82.5518 42.6165 82.8263 43.0467 82.9575 43.49C83.0888 43.0337 83.3035 42.6165 83.6615 42.6165C84.3297 42.6165 84.8188 43.868 84.8188 45.602C84.8188 46.9449 84.6995 48.3138 83.7927 48.3138C83.3513 48.3138 83.1126 47.8966 83.0052 47.4273C82.8979 47.8966 82.6234 48.4312 82.0388 48.4312Z" fill="#72706F"/>
<path d="M81.9795 43.182C82.0749 43.2081 82.1704 43.2863 82.242 43.3645C82.3136 43.4428 82.3732 43.534 82.4329 43.6383C82.5403 43.8339 82.5999 44.0555 82.6477 44.2641C82.7431 44.7074 82.767 45.1507 82.767 45.5939C82.755 46.0372 82.7192 46.4805 82.6119 46.9238C82.5641 47.1454 82.4925 47.354 82.3971 47.5495C82.3494 47.6538 82.3016 47.7451 82.242 47.8364C82.1823 47.9276 82.1227 48.0189 82.0391 48.0841C82.0988 47.9928 82.1465 47.9016 82.1823 47.7973C82.2181 47.693 82.2539 47.6017 82.2897 47.4974C82.3494 47.2888 82.3852 47.0802 82.421 46.8716C82.4806 46.4544 82.5164 46.0242 82.5164 45.5939C82.5283 45.1637 82.5164 44.7335 82.4568 44.3163C82.421 44.1077 82.3852 43.8991 82.3136 43.7035C82.2778 43.6122 82.242 43.5079 82.1823 43.4167C82.1346 43.3254 82.0749 43.2342 81.9795 43.182Z" fill="#4D4B4A"/>
<path d="M83.6848 43.4025C83.8638 43.4807 83.9831 43.6632 84.0786 43.8457C84.174 44.0283 84.2337 44.2238 84.2814 44.4324C84.3768 44.8366 84.4007 45.2538 84.4126 45.6579C84.4126 46.0621 84.3888 46.4793 84.3053 46.8835C84.2695 47.0921 84.2098 47.2876 84.1382 47.4832C84.1024 47.5744 84.0547 47.6657 84.007 47.757C83.9473 47.8482 83.8877 47.9265 83.8041 47.9786C83.9234 47.8222 83.9831 47.6266 84.0308 47.4441C84.0786 47.2485 84.1024 47.0529 84.1263 46.8574C84.1621 46.4663 84.174 46.0621 84.174 45.6579C84.174 45.2538 84.1621 44.8627 84.1024 44.4715C84.0666 44.276 84.0308 44.0804 83.9712 43.8979C83.8996 43.7154 83.828 43.5198 83.6848 43.4025Z" fill="#4D4B4A"/>
<path d="M87.1092 65.9327H1.84636C1.08274 65.9327 0.521961 65.0462 0.712866 64.1335L2.01341 57.8756C2.14465 57.2367 2.60998 56.7935 3.1469 56.7935H85.8087C86.3456 56.7935 86.8109 57.2367 86.9422 57.8756L88.2427 64.1335C88.4217 65.0462 87.8728 65.9327 87.1092 65.9327Z" fill="#F4AF53"/>
<path d="M88.0519 65.1248H0.844238V67.8365H88.0519V65.1248Z" fill="#AB835F"/>
<path d="M21.2474 62.827H5.09204L6.04656 58.2639H20.2928L21.2474 62.827Z" fill="#CCCCCC"/>
<path d="M9.87669 43.6804V49.8341C9.87669 49.8341 10.7716 50.16 10.8312 50.6163C10.8909 51.0726 10.8312 52.1678 10.8312 52.1678L10.1153 52.0374C10.1153 52.0374 10.1153 51.0596 9.51874 51.0596C8.92217 51.0596 8.86251 53.9148 9.5784 53.9148C10.2943 53.9148 10.175 53.0674 10.175 53.0674H10.8312C10.8312 53.0674 10.8312 55.1403 10.8312 55.5966C10.8312 56.0529 11.3681 56.1181 11.3681 56.1181L11.7261 59.0385L11.9647 56.2485C11.9647 56.2485 12.3823 55.8574 12.3823 55.4011C12.3823 54.9448 12.3823 52.5459 12.3823 51.9592C12.3823 51.3725 12.1437 51.0466 12.1437 51.0466L12.084 49.821L13.0386 49.4951C13.0386 49.4951 13.2175 50.4729 13.9334 50.4729C14.6493 50.4729 14.709 48.074 13.8141 48.074C12.9192 48.074 12.9789 48.9215 12.9789 48.9215L12.084 48.5955V43.2762L9.87669 43.6804Z" fill="#4D4B4A"/>
<path d="M11.7617 61.9282L11.0816 56.3873C10.8191 56.283 10.5208 56.0484 10.5208 55.6051V53.4018H10.4611C10.4373 53.5712 10.3895 53.7668 10.2583 53.9363C10.1509 54.0797 9.93614 54.2492 9.5782 54.2492C9.07707 54.2492 8.76685 53.5843 8.76685 52.5022C8.76685 51.6547 8.96969 50.7552 9.51854 50.7552C10.0913 50.7552 10.318 51.3158 10.3895 51.7721L10.5446 51.7982C10.5566 51.4201 10.5685 50.9116 10.5327 50.6639C10.5208 50.5335 10.139 50.2728 9.78103 50.1424L9.5782 50.0642V43.402L12.3702 42.9066V48.3693L12.7281 48.4997C12.7639 48.3693 12.8355 48.2389 12.931 48.1216C13.1338 47.8869 13.4202 47.7565 13.79 47.7565C14.1122 47.7565 14.3866 47.9521 14.5536 48.3172C14.673 48.5779 14.7446 48.9299 14.7446 49.308C14.7446 50.1815 14.3985 50.7943 13.9094 50.7943C13.3247 50.7943 12.9906 50.3119 12.8236 49.9077L12.3702 50.0642L12.4179 50.9507C12.5014 51.1072 12.6565 51.4592 12.6565 51.9676V55.4095C12.6565 55.8658 12.3821 56.2309 12.227 56.4004L11.7617 61.9282ZM9.81683 52.7499H11.1174V55.6051C11.1174 55.7615 11.3799 55.8006 11.3918 55.8006L11.6185 55.8267L11.6543 56.1527V56.0875L11.7497 55.9962C11.8333 55.918 12.06 55.6442 12.06 55.3965V51.9546C12.06 51.4983 11.8929 51.2506 11.881 51.2506L11.8213 51.1723L11.8094 51.0681L11.7378 49.5818L12.8236 49.2037L11.7497 48.8126V43.6628L10.1509 43.9496V49.6079C10.4969 49.7643 11.0338 50.0772 11.0935 50.5596C11.1532 51.042 11.0935 52.1371 11.0935 52.1762L11.0696 52.5413L9.78103 52.3066V52.0328C9.78103 52.0328 9.7691 51.4331 9.51854 51.381C9.41116 51.5244 9.26798 52.1502 9.33957 52.8672C9.38729 53.3496 9.50661 53.5582 9.55434 53.5843C9.70945 53.5843 9.75716 53.5191 9.78103 53.493C9.86455 53.3757 9.86456 53.154 9.85263 53.1019L9.81683 52.7499ZM13.265 49.2298L13.3008 49.4384C13.3008 49.4644 13.444 50.1554 13.8974 50.1554C13.969 50.1554 14.148 49.8556 14.148 49.308C14.148 49.0342 14.1002 48.7865 14.0167 48.604C13.9213 48.3954 13.8139 48.3954 13.7781 48.3954C13.5872 48.3954 13.444 48.4475 13.3486 48.5388C13.2292 48.6822 13.2412 48.8908 13.2412 48.8908L13.265 49.2298Z" fill="#4D4B4A"/>
<path d="M11.1763 51.4341C11.2479 51.7861 11.2837 52.1381 11.3195 52.4901C11.3433 52.8421 11.3553 53.1941 11.3553 53.5461C11.3553 53.8982 11.3433 54.2502 11.3195 54.6022C11.2956 54.9542 11.2598 55.3062 11.1763 55.6582C11.1047 55.3062 11.0689 54.9542 11.0331 54.6022C11.0092 54.2502 10.9973 53.8982 10.9973 53.5461C10.9973 53.1941 11.0092 52.8421 11.0331 52.4901C11.0689 52.1251 11.1047 51.7861 11.1763 51.4341Z" fill="#CCCCCC"/>
<path d="M9.57761 51.3951C9.52989 51.5907 9.49409 51.7863 9.4583 51.9688C9.4225 52.1644 9.41057 52.3469 9.41057 52.5294C9.41057 52.7119 9.42251 52.9075 9.44637 53.09C9.47023 53.2856 9.52989 53.4551 9.57761 53.6637C9.44637 53.5202 9.32705 53.3508 9.2674 53.1552C9.19581 52.9596 9.16001 52.751 9.17194 52.5294C9.17194 52.3208 9.21967 52.1122 9.27933 51.9166C9.35091 51.7211 9.44637 51.5386 9.57761 51.3951Z" fill="#CCCCCC"/>
<path d="M67.804 61.5613C60.0604 61.5613 55.7173 60.7529 54.5241 59.0971C54.202 58.6408 54.1065 58.1323 54.2258 57.5716C54.3332 57.1023 54.7389 55.9288 55.2997 54.3121C56.6718 50.3355 58.9746 43.6731 59.4996 39.7095C60.2632 33.8685 59.7502 30.6872 57.7934 29.0965C55.765 27.4277 31.6752 26.3846 25.96 26.3846C20.8056 26.3846 16.9636 28.1708 15.687 31.1566C14.804 33.2166 14.6608 36.5022 14.5773 38.6795C14.5415 39.6052 14.5057 40.2702 14.4341 40.6222C14.2552 41.5348 13.42 43.4906 12.0478 43.6992C11.141 43.8426 9.85244 43.8165 9.31552 43.8035C9.17234 44.1685 8.82632 44.5857 8.12236 44.5857C7.25136 44.5857 6.91727 43.8295 6.90534 43.308L5.93888 10.7651C5.86729 10.5304 5.56901 9.5786 5.50935 9.01796C5.43776 8.31391 5.7957 7.59682 6.32069 7.41428C6.7025 7.27086 8.15815 7.08833 8.32519 7.06226H8.36099H11.4513C12.3223 7.06226 12.7637 8.47036 12.9546 9.3048C13.1933 10.2175 20.03 15.5761 21.259 15.8108C22.5118 16.0585 30.8281 15.7586 33.3099 15.6022C35.4098 15.4718 52.2452 12.8381 55.2878 12.2905C55.6457 12.2253 56.0633 12.1471 56.5167 12.0689C59.774 11.4691 65.2148 10.4652 68.3886 10.6999C72.1232 10.9737 75.1061 13.8942 75.5475 14.7808C75.7146 15.1198 75.822 15.4457 75.9293 15.7195C76.0844 16.1498 76.1918 16.4888 76.4185 16.6452C76.5021 16.6974 76.5736 16.7495 76.6452 16.7886C77.027 17.0364 77.3969 17.271 77.4685 17.8708V17.8969C77.6594 19.5788 77.8503 21.8083 77.6475 22.8774C77.4566 23.8553 77.3015 25.146 77.2537 25.6284C77.4327 25.7718 77.6594 26.0456 77.6594 26.3846C77.6594 26.5932 77.5998 29.5007 77.5282 29.8919C77.4685 30.2309 77.2776 30.5829 77.206 30.7002C77.1702 30.8306 76.9793 31.5999 76.8719 33.6859C76.7526 36.0849 76.9912 40.4918 76.9912 40.5439C76.9912 40.6352 77.552 49.8662 78.089 53.582C78.5781 56.9458 78.7691 58.7581 78.8168 59.0971C78.8764 59.2535 78.9003 59.4752 78.781 59.7099C78.2321 60.9485 74.5334 61.5613 67.804 61.5613Z" fill="#A8544E"/>
<path d="M8.77734 7.45788V1.76052C8.77734 1.48674 8.98017 1.27814 9.21881 1.27814H9.708C9.95856 1.27814 10.1495 1.49977 10.1495 1.76052V7.54915L8.77734 7.45788Z" fill="#242022"/>
<path d="M10.4596 7.90224L8.479 7.77187V1.76161C8.479 1.3053 8.81308 0.940247 9.23068 0.940247H9.71987C10.1375 0.940247 10.4716 1.3053 10.4716 1.76161V7.90224H10.4596ZM9.08751 7.14607L9.85113 7.19822V1.76161C9.85113 1.67034 9.79147 1.60516 9.70794 1.60516H9.21875C9.13523 1.60516 9.07558 1.67034 9.07558 1.76161V7.14607H9.08751Z" fill="#4D4B4A"/>
<path d="M89.9484 4.63821C89.3876 2.78689 88.2541 1.45707 85.9036 2.16109C83.565 2.86511 82.7537 8.96664 82.7537 8.96664C82.7537 8.96664 81.0594 8.70589 80.1646 10.1139C79.2697 11.522 78.7924 16.9977 78.7924 16.9977C78.7924 16.9977 78.2317 17.089 77.7425 17.089C77.2533 17.089 77.1936 17.9755 77.1936 17.9755C77.4561 19.1228 77.4203 23.8945 77.4203 23.8945C77.826 24.5073 79.4367 24.1553 79.4367 24.1553C79.4367 24.1553 79.4367 24.5985 79.6754 26.1891C79.914 27.7797 80.093 30.674 80.8089 31.1303C81.6202 31.6648 82.2645 31.1303 82.2645 31.1303C82.2645 31.1303 82.348 31.4823 82.6702 33.2554C82.9923 35.0285 83.7202 37.5838 84.8537 38.9919C85.9872 40.3999 87.5979 40.3217 88.8149 39.1744C90.032 38.0271 91.8813 31.1303 91.8813 21.5999C91.8813 12.0565 90.5092 6.48952 89.9484 4.63821ZM84.6508 13.7253C84.4122 13.6601 84.1616 13.0604 84.4718 12.7345C84.4718 12.7345 86.2258 11.1439 86.715 9.55332C86.715 9.55332 87.0133 11.9392 87.0133 12.4737C87.0133 12.9952 84.8895 13.7905 84.6508 13.7253ZM86.6553 31.8213C86.6553 31.8213 85.8082 30.2307 85.6292 28.7053C85.4502 27.1799 85.6889 26.5802 85.6889 26.5802C85.6889 26.5802 86.8462 26.6454 87.2042 26.841C87.1922 26.841 87.0133 30.687 86.6553 31.8213ZM85.498 17.5713C85.14 17.5713 85.7366 16.5153 86.2258 15.9156C86.715 15.3159 87.1922 14.8596 87.1922 14.8596L87.3712 17.5713C87.3832 17.5713 85.8678 17.5713 85.498 17.5713Z" fill="#72706F"/>
<path d="M86.8461 40.371C86.0228 40.371 85.2354 39.9799 84.6268 39.2107C83.2189 37.4506 82.5508 34.2564 82.3718 33.3177C82.2167 32.4442 82.1093 31.9227 82.0496 31.6098C81.7155 31.7272 81.2144 31.7924 80.6536 31.4143C80.0213 30.9971 79.7826 29.4847 79.5321 27.3857C79.4844 26.9685 79.4366 26.5774 79.377 26.2384C79.2457 25.3779 79.1861 24.8434 79.1503 24.5436C78.5775 24.6218 77.5514 24.6739 77.1577 24.0872L77.098 23.996V23.8917C77.098 23.8395 77.1338 19.1461 76.8833 18.0509L76.8713 17.9988V17.9466C76.9071 17.5033 77.11 16.7602 77.7185 16.7602C77.9929 16.7602 78.2912 16.7341 78.494 16.7081C78.6014 15.5738 79.0787 11.2323 79.89 9.92859C80.6536 8.72914 81.9065 8.59877 82.4672 8.61181C82.6701 7.33414 83.5769 2.51028 85.7961 1.84537C87.9796 1.1935 89.4591 2.09309 90.2108 4.53109C90.7955 6.46063 92.1676 11.9755 92.1676 21.5971C92.1676 31.1405 90.2943 38.1938 88.9938 39.4193C88.3376 40.0451 87.5859 40.371 86.8461 40.371ZM82.4434 30.5669L82.5508 31.0492C82.5508 31.0623 82.6343 31.4273 82.9564 33.1874C83.2905 35.0387 84.0303 37.4767 85.0683 38.7804C86.0228 39.9668 87.4427 40.032 88.6001 38.9238C89.662 37.92 91.571 31.2578 91.571 21.5971C91.571 11.806 90.1034 6.22595 89.65 4.73969C89.0057 2.64066 87.8364 1.9236 85.9751 2.48421C84.2092 3.01874 83.2547 7.37325 83.0399 9.01596L82.9922 9.3419L82.6939 9.28975C82.682 9.28975 81.1667 9.08115 80.4031 10.2936C79.711 11.3888 79.2099 15.5216 79.0787 17.034L79.0548 17.2947L78.8162 17.3339C78.7923 17.3339 78.2196 17.4251 77.7185 17.4251C77.5992 17.4251 77.5037 17.751 77.4798 17.9596C77.7185 19.12 77.7065 22.9791 77.6946 23.7743C77.969 23.996 78.8043 23.9699 79.3531 23.8395L79.7111 23.7613V24.1655C79.7111 24.1655 79.723 24.6218 79.9497 26.1472C79.9974 26.4861 80.0451 26.8903 80.1048 27.3205C80.2599 28.546 80.4985 30.5799 80.94 30.8667C81.5604 31.2839 82.0496 30.8928 82.0616 30.8797L82.4434 30.5669ZM86.7149 32.6007L86.3808 31.9879C86.345 31.9227 85.4978 30.3191 85.3069 28.7546C85.116 27.1902 85.3666 26.5252 85.3905 26.4601L85.474 26.2515L85.6768 26.2645C85.8797 26.2775 86.9177 26.3427 87.3114 26.5644L87.4904 26.6556L87.4785 26.8773C87.4666 27.0337 87.2876 30.7754 86.9177 31.9358L86.7149 32.6007ZM85.9035 26.9294C85.8558 27.2032 85.8081 27.7508 85.9155 28.6634C86.0109 29.4587 86.2973 30.267 86.5359 30.8537C86.7268 29.6282 86.8342 27.7508 86.87 27.0859C86.6313 27.0076 86.2376 26.9555 85.9035 26.9294ZM87.7052 17.8945H85.4979C85.3308 17.8945 85.1876 17.8032 85.116 17.6337C84.8774 17.0601 85.9512 15.7433 85.987 15.6781C86.4762 15.0784 86.9654 14.609 86.9893 14.583L87.4427 14.1397L87.7052 17.8945ZM85.7603 17.2426H87.0609L86.9535 15.5738C86.8103 15.7302 86.6313 15.9258 86.4643 16.1344C86.1422 16.5255 85.8797 16.9688 85.7603 17.2426ZM84.6746 14.0615C84.6388 14.0615 84.603 14.0615 84.5791 14.0484C84.3524 13.9832 84.1496 13.7355 84.0661 13.4096C83.9825 13.0706 84.0541 12.7316 84.257 12.497L84.2808 12.4709C84.2928 12.4578 85.9751 10.9194 86.4285 9.4462L86.8342 8.10334L87.0132 9.51139C87.0251 9.61569 87.3234 11.9233 87.3234 12.4709C87.3234 12.6795 87.216 12.875 86.9774 13.0706C86.4762 13.5008 85.1399 14.0615 84.6746 14.0615ZM84.6746 12.9793C84.6388 13.0315 84.6268 13.0836 84.6268 13.1749C84.6388 13.2792 84.6865 13.3705 84.7223 13.4096C85.128 13.3705 86.5359 12.7577 86.7029 12.4578C86.7029 12.171 86.6194 11.4018 86.5359 10.6978C85.8558 11.8712 84.8178 12.849 84.6746 12.9793Z" fill="#72706F"/>
<path d="M80.3435 28.3229C80.3435 28.3229 80.4628 30.0438 81.1906 29.5093C81.9185 28.9747 82.2764 24.2812 82.2764 24.2812C82.2764 24.2812 82.515 29.7831 81.4889 30.5131C80.4628 31.2432 80.3435 28.3229 80.3435 28.3229Z" fill="#CCCCCC"/>
<path d="M77.6121 17.8941C77.6121 17.8941 77.6717 17.2944 77.97 17.2944C78.2683 17.2944 78.8768 17.3596 78.8768 17.3596C78.8768 17.3596 79.3064 20.0713 79.0558 20.7363L77.6121 17.8941Z" fill="#CCCCCC"/>
<path d="M83.7444 10.4512C83.7444 10.4512 84.8302 9.05622 85.1404 7.935C85.4387 6.81378 85.379 6.08368 85.5699 6.0185C85.7489 5.95331 86.3574 8.07841 86.0591 8.66509C85.737 9.26482 84.0427 10.7902 83.7444 10.4512Z" fill="white"/>
<path d="M85.092 3.07248C85.3903 2.81173 85.7483 2.61617 86.1182 2.49883C86.5 2.39453 86.8937 2.36846 87.2994 2.42061C87.4903 2.45972 87.6931 2.49883 87.884 2.59009C87.9795 2.62921 88.0749 2.68135 88.1584 2.7335C88.242 2.79869 88.3374 2.8378 88.4209 2.91603C88.5045 2.98122 88.5761 3.05944 88.6596 3.1507C88.7312 3.255 88.7908 3.34626 88.8386 3.43753C88.9459 3.63309 89.0294 3.82865 89.101 4.02421C89.4113 4.80646 89.6618 5.61478 89.8885 6.4231C90.1152 7.23142 90.2942 8.05278 90.4732 8.87414C90.8192 10.5169 91.0459 12.1987 91.2249 13.8675C91.3919 15.5493 91.4754 17.2311 91.4873 18.926C91.4873 20.6209 91.4158 22.3027 91.3322 23.9715C91.2248 25.6533 91.0936 27.3351 90.8908 29.0039C90.6879 30.6727 90.4254 32.3415 90.0436 33.9712C89.8527 34.7926 89.626 35.6009 89.3516 36.3831C89.2084 36.7743 89.0533 37.1654 88.8624 37.5304C88.6715 37.8955 88.4567 38.2605 88.1942 38.5604C88.4329 38.2344 88.6118 37.8564 88.755 37.4783C88.9101 37.1002 89.0295 36.7091 89.1368 36.3049C89.3516 35.5096 89.5186 34.6883 89.6499 33.8799C89.7931 33.0586 89.9005 32.2372 89.9959 31.4159C90.0914 30.5945 90.1749 29.7601 90.2465 28.9257C90.2823 28.5085 90.3181 28.0913 90.3419 27.6741L90.4254 26.4225C90.4732 25.5881 90.5209 24.7537 90.5448 23.9193C90.6163 22.2505 90.676 20.5818 90.6641 18.913C90.6641 18.0786 90.6402 17.2442 90.6044 16.4228C90.5686 15.5884 90.509 14.7671 90.4493 13.9327C90.3181 12.2769 90.1033 10.6212 89.8408 8.99147C89.7095 8.17011 89.5425 7.36179 89.3635 6.55347C89.1846 5.74515 88.9817 4.93683 88.7192 4.16762C88.6476 3.97206 88.588 3.78954 88.5045 3.60701C88.4687 3.51575 88.4209 3.43753 88.3851 3.37234C88.3255 3.30715 88.2778 3.22893 88.2062 3.17678C88.1465 3.11159 88.063 3.05944 87.9914 3.00729C87.9079 2.95514 87.8363 2.90299 87.7528 2.86388C87.5857 2.77262 87.4187 2.72047 87.2397 2.66832C86.5477 2.48579 85.7363 2.61617 85.092 3.07248Z" fill="#CCCCCC"/>
<path d="M81.3105 9.55377C81.4657 9.68415 81.5731 9.87971 81.6804 10.0622C81.7759 10.2578 81.8594 10.4534 81.9429 10.6489C82.0861 11.0531 82.2054 11.4703 82.3128 11.8875C82.3605 12.0961 82.4083 12.3047 82.456 12.5263C82.5037 12.7349 82.5395 12.9565 82.5753 13.1651C82.6469 13.5954 82.6946 14.0256 82.7543 14.4558C82.802 14.8861 82.8378 15.3163 82.8616 15.7466C82.8855 16.1768 82.9094 16.607 82.9094 17.0373C82.9213 17.8977 82.9094 18.7582 82.8378 19.6187C82.7543 18.7582 82.6946 17.8977 82.623 17.0503L82.5156 15.7726C82.4799 15.3424 82.4441 14.9252 82.3963 14.495C82.3128 13.6475 82.1935 12.8001 82.0503 11.9657C81.9787 11.5485 81.8952 11.1313 81.7878 10.7271C81.7401 10.5185 81.6804 10.323 81.6088 10.1144C81.573 10.0101 81.5372 9.91882 81.4895 9.82756C81.4299 9.72326 81.3821 9.632 81.3105 9.55377Z" fill="#CCCCCC"/>
<path d="M82.7063 9.34949C83.0165 10.1187 83.2551 10.914 83.458 11.7223C83.5654 12.1265 83.637 12.5437 83.7205 12.9478C83.7921 13.365 83.8517 13.7822 83.8995 14.1994C83.983 15.0338 84.0307 15.8682 84.0665 16.7026C84.0904 17.537 84.0904 18.3714 84.0426 19.2188C83.9472 18.3844 83.8637 17.5631 83.7801 16.7287L83.6608 15.4901C83.625 15.0729 83.5892 14.6557 83.5415 14.2516C83.458 13.4302 83.3267 12.6088 83.1836 11.8005C83.0404 10.9792 82.8733 10.1708 82.7063 9.34949Z" fill="#CCCCCC"/>
<path d="M85.6528 37.6106C85.6528 37.6106 86.2613 37.2977 86.7147 35.9157C87.1681 34.5338 87.6335 32.0306 87.6335 32.0306C87.6335 32.0306 87.5142 37.1021 88.0272 37.3499C88.5522 37.5976 88.7789 37.4672 88.7789 37.4672C88.7789 37.4672 88.0988 39.0447 86.9653 39.0317C85.8437 39.0317 85.6528 37.6106 85.6528 37.6106Z" fill="#72706F"/>
<path d="M21.6405 18.2276C21.3183 17.5105 29.396 17.4323 32.6294 17.2498C35.8629 17.0672 49.8466 15.3072 54.0466 14.5119C58.2465 13.7166 65.6082 12.7388 65.6082 13.8991C65.6082 15.0464 45.9689 16.8195 43.5349 16.989C41.1128 17.1715 27.0455 18.3971 25.1841 18.4883C23.3348 18.5796 21.8791 18.7621 21.6405 18.2276Z" fill="#DCBB98"/>
<path d="M12.0122 43.2955C12.0122 43.2955 12.0957 35.9163 13.7065 32.2137C15.3292 28.498 18.3121 26.8292 19.5291 26.4772C20.7461 26.1252 23.0012 26.0339 23.0012 26.0339C23.0012 26.0339 18.3121 26.4772 16.1286 29.5671C14.1599 32.3571 14.1838 35.2253 14.0286 36.7246C13.8616 38.2239 14.2673 40.701 13.3843 41.9396C12.5014 43.1651 12.0122 43.2955 12.0122 43.2955Z" fill="#703A2A"/>
<path d="M28.1077 24.5231C28.1077 24.5231 55.0252 25.0576 58.1036 27.0002C61.17 28.9428 61.4205 33.7145 61.4205 33.7145C61.4205 33.7145 62.6853 31.1592 61.7427 28.5908C60.287 24.6144 56.3258 24.8751 54.3809 24.6144C52.4361 24.3406 29.3963 23.9103 28.1077 24.5231Z" fill="#703A2A"/>
<path d="M17.1773 14.3976C16.5807 14.0065 15.2682 12.6897 14.6716 12.5463C14.5165 12.5072 14.5404 12.5072 14.3733 12.4942C13.6575 12.4942 12.7865 12.8983 12.1302 13.0678C11.7365 12.4551 10.9371 9.99099 10.9132 9.10444C10.9132 8.72636 11.0206 8.45257 11.295 8.15271C11.4859 7.97018 11.7126 7.81374 11.9512 7.72247C11.4024 7.76159 10.8178 8.08752 10.5672 8.63509C10.424 8.93496 10.4121 9.1957 10.4001 9.49557C10.4001 10.6037 10.8416 12.5203 11.3785 13.4329C11.5217 13.6806 11.7126 13.8761 11.9751 13.8892C12.4166 13.9153 13.2995 13.4459 14.0512 13.2373C14.4569 13.12 14.5643 13.1852 14.7194 13.2634C15.4472 13.5763 16.7477 14.5411 17.5233 14.5932C17.392 14.5411 17.2846 14.4759 17.1773 14.3976Z" fill="#DCBB98"/>
<path d="M61.5142 39.1818C61.5142 39.1818 60.5597 43.784 59.5932 46.926C58.6387 50.068 55.9541 57.708 55.9541 57.708C55.9541 57.708 59.116 59.0639 59.975 58.4381C60.846 57.8123 62.7551 44.3055 61.5142 39.1818Z" fill="#703A2A"/>
<path d="M14.446 15.1492C13.8495 15.1623 11.7614 17.157 11.666 17.5611C11.5705 17.9653 11.5586 23.8582 11.5586 23.8582C11.5586 23.8582 13.1694 24.5492 14.8875 24.5231C16.6176 24.4971 18.3357 23.4801 18.3357 23.4801C18.3357 23.4801 17.8227 17.3786 17.6198 17.1179C17.417 16.8441 15.1977 15.1231 14.446 15.1492Z" fill="#CCCCCC"/>
<path d="M14.3138 23.7136C13.5024 23.6484 12.7508 23.4398 12.2974 23.2964C12.2974 20.8975 12.3332 18.4204 12.3689 17.8207C12.703 17.3383 14.0513 16.1128 14.4928 15.9433C14.9581 16.0215 16.4853 17.1036 16.9865 17.5599C17.1177 18.2248 17.3683 20.6629 17.5711 22.9966C16.9984 23.2703 15.9365 23.7136 14.8865 23.7267C14.7075 23.7267 14.5047 23.7267 14.3138 23.7136Z" fill="#CCCCCC"/>
<path d="M14.7801 23.9131C14.625 23.9131 14.4579 23.9131 14.3028 23.9H14.2909C13.4676 23.8348 12.7159 23.6262 12.2387 23.4698L12.1074 23.4307V23.2873C12.1074 21.097 12.1432 18.4373 12.179 17.7985V17.7464L12.2148 17.6942C12.5489 17.2249 13.921 15.9472 14.4221 15.7516L14.4699 15.7386L14.5176 15.7516C15.0426 15.8429 16.6056 16.9511 17.0948 17.4074L17.1425 17.4465L17.1545 17.5117C17.2977 18.2287 17.5482 20.8362 17.7391 22.9744L17.7511 23.1178L17.6317 23.1699C17.071 23.4437 15.9613 23.9 14.8756 23.9131C14.8517 23.9131 14.8159 23.9131 14.7801 23.9131ZM14.3148 23.5089C14.5176 23.5219 14.6966 23.535 14.8756 23.5219C15.8301 23.5089 16.8085 23.1308 17.3692 22.8701C17.1545 20.4321 16.9397 18.333 16.8204 17.6681C16.2954 17.2118 14.9591 16.2731 14.5057 16.1558C14.0761 16.3644 12.8949 17.4335 12.537 17.9028C12.5012 18.5156 12.4654 20.6276 12.4654 23.1569C12.9426 23.2742 13.5989 23.4437 14.3148 23.5089Z" fill="#A35D3E"/>
<path d="M9.43506 1.89062V7.1056H9.86459V1.90366L9.43506 1.89062Z" fill="#CCCCCC"/>
<path d="M9.04053 1.69159C9.11212 1.63944 9.17177 1.61337 9.24336 1.58729C9.31495 1.57426 9.37461 1.56122 9.4462 1.56122C9.51779 1.56122 9.57744 1.57426 9.64903 1.58729C9.72062 1.61337 9.78029 1.63944 9.85188 1.69159C9.78029 1.74374 9.72062 1.76982 9.64903 1.79589C9.57744 1.80893 9.51779 1.82197 9.4462 1.82197C9.37461 1.82197 9.31495 1.80893 9.24336 1.79589C9.17177 1.76982 9.11212 1.74374 9.04053 1.69159Z" fill="white"/>
<path d="M65.4532 11.1696H64.5583V1.58706C64.5583 1.31327 64.7612 1.10468 64.9998 1.10468C65.2504 1.10468 65.4413 1.32631 65.4413 1.58706V11.1696H65.4532Z" fill="#4D4B4A"/>
<path d="M64.8798 1.89081C64.9275 2.58179 64.9514 3.27278 64.9753 3.96376C64.9991 4.65475 64.9991 5.34573 64.9991 6.03671C64.9991 6.7277 64.9872 7.41868 64.9753 8.10967C64.9633 8.80065 64.9275 9.49164 64.8798 10.1826C64.8321 9.49164 64.8082 8.80065 64.7844 8.10967C64.7605 7.41868 64.7605 6.7277 64.7605 6.03671C64.7605 5.34573 64.7724 4.65475 64.7844 3.96376C64.8082 3.28582 64.8321 2.59483 64.8798 1.89081Z" fill="white"/>
<path d="M73.6821 37.437C74.5954 36.4391 74.5954 34.8211 73.6821 33.8232C72.7689 32.8253 71.2882 32.8253 70.375 33.8232C69.4618 34.8211 69.4618 36.4391 70.375 37.437C71.2882 38.435 72.7689 38.435 73.6821 37.437Z" fill="#FFD51F"/>
<path d="M72.0267 37.4159C71.1319 37.4159 70.4041 36.6207 70.4041 35.6428C70.4041 34.665 71.1319 33.8698 72.0267 33.8698C72.9216 33.8698 73.6494 34.665 73.6494 35.6428C73.6494 36.6207 72.9216 37.4159 72.0267 37.4159Z" fill="#FFD51F"/>
<path d="M72.027 37.6028C71.0367 37.6028 70.2253 36.7163 70.2253 35.6342C70.2253 34.5521 71.0367 33.6655 72.027 33.6655C73.0173 33.6655 73.8287 34.5521 73.8287 35.6342C73.8287 36.7293 73.0173 37.6028 72.027 37.6028ZM72.027 34.0697C71.2395 34.0697 70.5952 34.7737 70.5952 35.6342C70.5952 36.4947 71.2395 37.1987 72.027 37.1987C72.8145 37.1987 73.4588 36.4947 73.4588 35.6342C73.4588 34.7737 72.8145 34.0697 72.027 34.0697Z" fill="#E28E14"/>
<path d="M9.66138 27.9548C9.66138 27.0944 10.2938 26.4034 11.0812 26.4034C11.8687 26.4034 12.5011 27.0944 12.5011 27.9548C12.5011 28.8153 11.8687 29.5063 11.0812 29.5063C10.2938 29.5063 9.66138 28.8153 9.66138 27.9548Z" fill="#FFD51F"/>
<path d="M11.0807 29.0286C10.5438 29.0286 10.1023 28.5463 10.1023 27.9596C10.1023 27.3729 10.5438 26.8905 11.0807 26.8905C11.6176 26.8905 12.0591 27.3729 12.0591 27.9596C12.0591 28.5463 11.6295 29.0286 11.0807 29.0286Z" fill="#FFD51F"/>
<path d="M11.0806 29.1638C10.484 29.1638 9.98291 28.6293 9.98291 27.9644C9.98291 27.3125 10.4721 26.765 11.0806 26.765C11.6772 26.765 12.1783 27.2995 12.1783 27.9644C12.1783 28.6293 11.6891 29.1638 11.0806 29.1638ZM11.0806 27.0257C10.6033 27.0257 10.2096 27.4559 10.2096 27.9774C10.2096 28.4989 10.6033 28.9292 11.0806 28.9292C11.5579 28.9292 11.9516 28.4989 11.9516 27.9774C11.9516 27.4559 11.5698 27.0257 11.0806 27.0257Z" fill="#E28E14"/>
<path d="M10.4612 44.1018C10.5328 44.532 10.5686 44.9492 10.6044 45.3795C10.6282 45.8097 10.6402 46.2269 10.6402 46.6571C10.6402 47.0874 10.6282 47.5046 10.6044 47.9348C10.5805 48.365 10.5447 48.7822 10.4612 49.2125C10.3896 48.7822 10.3538 48.365 10.318 47.9348C10.2941 47.5046 10.2822 47.0874 10.2822 46.6571C10.2822 46.2269 10.2941 45.8097 10.318 45.3795C10.3538 44.9492 10.3896 44.519 10.4612 44.1018Z" fill="#CCCCCC"/>
<path d="M11.4145 44.2352C11.4622 44.5612 11.4861 44.8871 11.5099 45.213C11.5338 45.539 11.5338 45.8649 11.5338 46.1908C11.5338 46.5168 11.5219 46.8427 11.5099 47.1687C11.498 47.4946 11.4622 47.8205 11.4145 48.1465C11.3668 47.8205 11.3429 47.4946 11.319 47.1687C11.2952 46.8427 11.2952 46.5168 11.2952 46.1908C11.2952 45.8649 11.3071 45.539 11.319 45.213C11.3429 44.8741 11.3668 44.5481 11.4145 44.2352Z" fill="#CCCCCC"/>
<path d="M14.0991 17.6339C14.1229 17.3471 14.3496 17.1254 14.6121 17.1385C14.8746 17.1646 15.0775 17.4123 15.0655 17.6991C15.0417 17.9859 14.815 18.2076 14.5525 18.1945C14.278 18.1815 14.0752 17.9338 14.0991 17.6339Z" fill="#242022"/>
<path d="M14.5761 18.5312C14.5522 18.5312 14.5403 18.5312 14.5164 18.5312C14.3016 18.5181 14.1107 18.4139 13.9795 18.2313C13.8363 18.0618 13.7767 17.8402 13.7886 17.6055C13.8244 17.1362 14.1943 16.7711 14.6238 16.8102C14.8386 16.8233 15.0295 16.9276 15.1607 17.1101C15.3039 17.2796 15.3636 17.5012 15.3516 17.7359C15.3397 17.9706 15.2442 18.1792 15.0772 18.3226C14.9579 18.466 14.767 18.5312 14.5761 18.5312ZM14.3971 17.6577C14.3852 17.762 14.4687 17.8663 14.5641 17.8663C14.6119 17.8663 14.6596 17.8532 14.6954 17.8141C14.7312 17.775 14.755 17.7359 14.755 17.6838C14.755 17.6316 14.7431 17.5795 14.7073 17.5403C14.6715 17.5012 14.6357 17.4752 14.588 17.4752C14.4925 17.4621 14.409 17.5534 14.3971 17.6577Z" fill="#A35D3E"/>
<path d="M67.792 12.9292C67.792 12.9292 72.3976 12.134 74.3424 16.3711C75.8458 19.6696 75.7981 27.2313 75.7981 27.2313C75.7981 27.2313 75.0702 20.3475 73.1254 17.1664C71.3715 14.2982 67.792 12.9292 67.792 12.9292Z" fill="#DCBB98"/>
<path d="M85.2591 4.8938C85.5813 5.49352 85.808 6.14539 86.0347 6.8103C86.1301 7.13624 86.2375 7.47521 86.321 7.81419C86.4045 8.15316 86.5 8.47909 86.5716 8.81807C86.8818 10.174 87.1204 11.5429 87.2875 12.9379C87.6454 15.7018 87.7409 18.5049 87.7409 21.2949C87.7289 22.6899 87.6812 24.0849 87.5858 25.4799L87.5022 26.5229C87.4784 26.8749 87.4306 27.2139 87.3948 27.5659C87.359 27.9179 87.3232 28.2569 87.2755 28.6089L87.1324 29.6389C86.9176 31.0208 86.6551 32.3898 86.3091 33.7326C86.2136 34.0716 86.1301 34.3975 86.0227 34.7365C85.9153 35.0624 85.8199 35.4014 85.7006 35.7273C85.4739 36.3792 85.2233 37.0311 84.9131 37.6308C85.0443 37.3179 85.1517 36.992 85.2591 36.666C85.3546 36.3401 85.4619 36.0142 85.5454 35.6752C85.6409 35.3493 85.7125 35.0103 85.796 34.6713C85.8795 34.3323 85.9392 33.9934 86.0108 33.6674C86.2852 32.3246 86.488 30.9556 86.6551 29.5867L86.7625 28.5567C86.7983 28.2178 86.8221 27.8658 86.8579 27.5268C86.8818 27.1878 86.9176 26.8358 86.9414 26.4968L87.0011 25.4669C87.0846 24.0849 87.1204 22.7029 87.1204 21.321C87.1324 19.939 87.1085 18.557 87.0608 17.1751C87.0608 16.8231 87.0369 16.4841 87.013 16.1451L86.9653 15.1152L86.8937 14.0852C86.8699 13.7462 86.846 13.3942 86.8102 13.0552L86.7147 12.0253L86.5954 10.9953C86.5596 10.6563 86.5 10.3174 86.4523 9.96536C86.4045 9.62639 86.3449 9.28742 86.2852 8.94844C86.0466 7.52736 85.7602 6.17147 85.2591 4.8938Z" fill="#CCCCCC"/>
<path d="M7.4182 11.8409C7.48979 13.1316 7.53751 14.4223 7.56137 15.713C7.5733 16.3649 7.58524 17.0037 7.59717 17.6556L7.6091 19.5982L7.59717 21.5407C7.58524 22.1926 7.58523 22.8314 7.56137 23.4833C7.53751 24.774 7.48979 26.0647 7.4182 27.3554C7.34661 26.0647 7.29887 24.774 7.27501 23.4833C7.26308 22.8314 7.25116 22.1926 7.23922 21.5407L7.22729 19.5982L7.23922 17.6556C7.25116 17.0037 7.25115 16.3649 7.27501 15.713C7.3108 14.4223 7.34661 13.1316 7.4182 11.8409Z" fill="#DCBB98"/>
<path d="M67.4924 3.92627H63.2805V8.60671H67.4924V3.92627Z" fill="#62C8CA"/>
<path d="M67.4578 4.57331H63.2698C62.9715 4.57331 62.7209 4.29952 62.7209 3.97359V3.92144C62.7209 3.5955 62.9715 3.32172 63.2698 3.32172H67.4578C67.7561 3.32172 68.0066 3.5955 68.0066 3.92144V3.97359C68.0066 4.31256 67.7561 4.57331 67.4578 4.57331Z" fill="#E28E14"/>
<path d="M67.3625 4.67194H63.3416C62.9359 4.67194 62.6018 4.39815 62.6018 4.07221V3.85058C62.6018 3.52464 62.9359 3.25085 63.3416 3.25085H67.3625C67.7682 3.25085 68.1022 3.52464 68.1022 3.85058V4.07221C68.1022 4.39815 67.7682 4.67194 67.3625 4.67194ZM63.3535 3.4073C63.0552 3.4073 62.8166 3.60287 62.8166 3.83754V4.05918C62.8166 4.29385 63.0552 4.48941 63.3535 4.48941H67.3744C67.6727 4.48941 67.9113 4.29385 67.9113 4.05918V3.83754C67.9113 3.60287 67.6727 3.4073 67.3744 3.4073H63.3535Z" fill="#E28E14"/>
<path d="M63.0422 3.83697C63.424 3.77178 63.8059 3.73267 64.1757 3.70659C64.5575 3.68052 64.9394 3.66748 65.3092 3.66748C65.691 3.66748 66.0728 3.68052 66.4427 3.70659C66.8245 3.73267 67.2063 3.77178 67.5762 3.83697C67.1944 3.90215 66.8126 3.94127 66.4427 3.96734C66.0609 3.99342 65.6791 4.00645 65.3092 4.00645C64.9274 4.00645 64.5456 3.99342 64.1757 3.96734C63.8059 3.94127 63.424 3.90215 63.0422 3.83697Z" fill="#F4AF53"/>
<path d="M67.4453 9.81224H63.2573C62.9471 9.81224 62.7085 9.53845 62.7085 9.21252V9.14733C62.7085 8.80836 62.9591 8.54761 63.2573 8.54761H67.4453C67.7555 8.54761 67.9942 8.82139 67.9942 9.14733V9.21252C68.0061 9.53845 67.7555 9.81224 67.4453 9.81224Z" fill="#E28E14"/>
<path d="M67.3625 9.93202H63.3416C62.9359 9.93202 62.6018 9.65823 62.6018 9.31926V9.09762C62.6018 8.75865 62.9359 8.48486 63.3416 8.48486H67.3625C67.7682 8.48486 68.1022 8.75865 68.1022 9.09762V9.31926C68.1022 9.67127 67.7682 9.93202 67.3625 9.93202ZM63.3535 8.66739C63.0552 8.66739 62.8166 8.86295 62.8166 9.11066V9.3323C62.8166 9.58001 63.0552 9.77557 63.3535 9.77557H67.3744C67.6727 9.77557 67.9113 9.58001 67.9113 9.3323V9.11066C67.9113 8.86295 67.6727 8.66739 67.3744 8.66739H63.3535Z" fill="#E28E14"/>
<path d="M63.043 9.10967C63.4248 9.04449 63.8066 9.00537 64.1765 8.9793C64.5583 8.95322 64.9401 8.94019 65.31 8.94019C65.6918 8.94019 66.0736 8.95322 66.4435 8.9793C66.8253 9.00537 67.2071 9.04449 67.577 9.10967C67.1951 9.17486 66.8133 9.21397 66.4435 9.24005C66.0616 9.26612 65.6798 9.27916 65.31 9.27916C64.9282 9.27916 64.5463 9.26612 64.1765 9.24005C63.8066 9.21397 63.4248 9.17486 63.043 9.10967Z" fill="#F4AF53"/>
<path d="M67.5173 4.89374H63.2458V5.03715H67.5173V4.89374Z" fill="#3FA09B"/>
<path d="M67.5176 5.23096H63.2461V5.37437H67.5176V5.23096Z" fill="#3FA09B"/>
<path d="M67.5176 5.60065H63.2461V5.74406H67.5176V5.60065Z" fill="#3FA09B"/>
<path d="M67.5176 5.93866H63.2461V6.08207H67.5176V5.93866Z" fill="#3FA09B"/>
<path d="M67.5176 6.29987H63.2461V6.44328H67.5176V6.29987Z" fill="#3FA09B"/>
<path d="M67.5176 6.66156H63.2461V6.80497H67.5176V6.66156Z" fill="#3FA09B"/>
<path d="M67.5176 6.99951H63.2461V7.14292H67.5176V6.99951Z" fill="#3FA09B"/>
<path d="M67.5176 7.32202H63.2461V7.46543H67.5176V7.32202Z" fill="#3FA09B"/>
<path d="M67.5176 7.69055H63.2461V7.83396H67.5176V7.69055Z" fill="#3FA09B"/>
<path d="M67.5176 8.02924H63.2461V8.17265H67.5176V8.02924Z" fill="#3FA09B"/>
<path d="M67.2427 27.3308C69.918 27.3308 72.0869 24.9609 72.0869 22.0376C72.0869 19.1142 69.918 16.7444 67.2427 16.7444C64.5673 16.7444 62.3984 19.1142 62.3984 22.0376C62.3984 24.9609 64.5673 27.3308 67.2427 27.3308Z" fill="#F4AF53"/>
</svg>
