<svg width="96" height="85" viewBox="0 0 96 85" fill="none" xmlns="http://www.w3.org/2000/svg">
<path d="M14.5449 9.2957C15.9217 8.78845 17.2985 8.57106 18.7478 8.42613C20.1246 8.2812 21.5014 8.20874 22.9507 8.20874C24.3275 8.20874 25.7043 8.2812 27.1536 8.42613C28.5304 8.57106 29.9072 8.86091 31.3565 9.2957C29.9797 9.80294 28.6029 10.0203 27.1536 10.1653C25.7768 10.3102 24.4 10.3827 22.9507 10.3827C21.5739 10.3827 20.1971 10.3102 18.7478 10.1653C17.371 10.0203 15.9217 9.80294 14.5449 9.2957Z" fill="#0096C1"/>
<path d="M22.9502 17.7015C22.443 16.3247 22.2256 14.9479 22.0807 13.4986C21.9357 12.1218 21.8633 10.745 21.8633 9.29569C21.8633 7.91888 21.9357 6.54207 22.0807 5.09279C22.2256 3.71598 22.5155 2.33917 22.9502 0.889893C23.4575 2.2667 23.6749 3.64352 23.8198 5.09279C23.9647 6.4696 24.0372 7.84642 24.0372 9.29569C24.0372 10.6725 23.9647 12.0493 23.8198 13.4986C23.6749 14.8754 23.385 16.3247 22.9502 17.7015Z" fill="#0096C1"/>
<path d="M28.6006 17.8464C29.6151 17.4841 30.5571 17.3392 31.5716 17.1942C32.5861 17.0493 33.5281 17.0493 34.5426 17.0493C35.5571 17.0493 36.4991 17.1218 37.5136 17.1942C38.5281 17.3392 39.4701 17.4841 40.4846 17.8464C39.4701 18.2087 38.5281 18.3537 37.5136 18.4986C36.4991 18.6435 35.5571 18.6435 34.5426 18.6435C33.5281 18.6435 32.5861 18.5711 31.5716 18.4986C30.5571 18.3537 29.6151 18.2087 28.6006 17.8464Z" fill="#0096C1"/>
<path d="M34.5422 23.7886C34.1799 22.7741 34.035 21.8321 33.89 20.8176C33.7451 19.8031 33.7451 18.8611 33.7451 17.8466C33.7451 16.8321 33.8176 15.89 33.89 14.8756C34.035 13.8611 34.1799 12.919 34.5422 11.9045C34.9045 12.919 35.0495 13.8611 35.1944 14.8756C35.3393 15.89 35.3393 16.8321 35.3393 17.8466C35.3393 18.8611 35.2669 19.8031 35.1944 20.8176C35.0495 21.8321 34.8321 22.7741 34.5422 23.7886Z" fill="#0096C1"/>
<path d="M92.0802 76.6148C92.0802 52.0496 72.1527 32.1221 47.5875 32.1221C23.0223 32.1221 3.09473 52.0496 3.09473 76.6148H92.0802Z" fill="#0096C1"/>
<path d="M53.885 27.8825C54.7035 24.4161 52.557 20.9425 49.0906 20.124C45.6242 19.3055 42.1507 21.452 41.3321 24.9184C40.5136 28.3848 42.6602 31.8584 46.1265 32.6769C49.5929 33.4954 53.0665 31.3488 53.885 27.8825Z" fill="#0096C1"/>
<path d="M0.125 59.5134C0.849638 55.5279 2.44384 51.6874 4.47283 48.1366C5.48732 46.325 6.64674 44.6584 7.95109 43.0642C9.25544 41.47 10.6322 39.9482 12.154 38.5714C13.6757 37.1946 15.3424 35.9627 17.0815 34.8033C18.8207 33.7163 20.6322 32.7018 22.5163 31.9047C26.2844 30.3105 30.3424 29.3685 34.4004 29.1511C30.4873 30.3105 26.7917 31.6874 23.3134 33.4989C19.8351 35.383 16.6467 37.6294 13.7482 40.2381C12.2989 41.5424 10.9221 42.9917 9.69022 44.441C8.38587 45.8903 7.22645 47.4845 6.06703 49.0787C3.67572 52.3395 1.7192 55.8178 0.125 59.5134Z" fill="#0096C1"/>
<path d="M95.1251 58.7161C93.5309 55.0204 91.5019 51.5422 89.328 48.2813C88.1685 46.6871 87.0091 45.0929 85.7048 43.6436C84.4004 42.1943 83.0961 40.7451 81.6468 39.4407C78.7483 36.7596 75.5598 34.5856 72.0816 32.7016C68.6033 30.89 64.8352 29.4407 60.9946 28.3538C65.0526 28.5712 69.0381 29.5132 72.8787 31.1074C74.7627 31.9045 76.5743 32.919 78.3135 34.0059C80.0526 35.1654 81.6468 36.3972 83.241 37.774C84.7627 39.2233 86.1396 40.6726 87.4439 42.2668C88.7483 43.861 89.9077 45.6001 90.9222 47.3393C92.8787 50.89 94.4004 54.7306 95.1251 58.7161Z" fill="#0096C1"/>
<path d="M91.6467 84.2236H3.60323C2.0815 84.2236 0.849609 82.9917 0.849609 81.47V81.1801C0.849609 79.6584 2.0815 78.4265 3.60323 78.4265H91.6467C93.1684 78.4265 94.4003 79.6584 94.4003 81.1801V81.47C94.4003 82.9917 93.1684 84.2236 91.6467 84.2236Z" fill="#0096C1"/>
</svg>
