<svg width="40" height="49" viewBox="0 0 40 49" fill="none" xmlns="http://www.w3.org/2000/svg">
<path fill-rule="evenodd" clip-rule="evenodd" d="M32.6672 1.28732C32.4598 1.09814 32.2169 0.951931 31.9527 0.857134C31.6885 0.762336 31.4081 0.720831 31.1277 0.735014C30.8474 0.749198 30.5726 0.818789 30.3193 0.93977C30.066 1.06075 29.8392 1.23072 29.6519 1.43986C29.4647 1.64901 29.3207 1.89318 29.2284 2.15827C29.136 2.42337 29.0971 2.70413 29.1139 2.98434C29.1307 3.26456 29.2028 3.53867 29.3262 3.79085C29.4495 4.04303 29.6215 4.26827 29.8324 4.45357C32.3972 6.74746 34.2055 9.76566 35.0184 13.1092C35.8312 16.4528 35.6102 19.9643 34.3847 23.1796C33.1592 26.3949 30.9868 29.1627 28.1547 31.117C25.3226 33.0713 21.9641 34.1201 18.5232 34.1249H18.4764C15.6747 34.1233 12.917 33.4283 10.4491 32.1021C7.98118 30.7758 5.87983 28.8594 4.33241 26.5238C4.02047 26.0544 3.5348 25.728 2.98226 25.6166C2.42972 25.5053 1.85557 25.6179 1.3861 25.9299C0.916633 26.2418 0.590315 26.7275 0.47893 27.28C0.367545 27.8326 0.480218 28.4067 0.792162 28.8762C2.53215 31.4978 4.83261 33.7002 7.5274 35.3245C10.2222 36.9488 13.2441 37.9544 16.3748 38.2687V40.4999H9.99979C9.4362 40.4999 8.8957 40.7238 8.49719 41.1223C8.09867 41.5209 7.87479 42.0614 7.87479 42.6249C7.87479 43.1885 8.09867 43.729 8.49719 44.1275C8.8957 44.5261 9.4362 44.7499 9.99979 44.7499H26.9998C27.5634 44.7499 28.1039 44.5261 28.5024 44.1275C28.9009 43.729 29.1248 43.1885 29.1248 42.6249C29.1248 42.0614 28.9009 41.5209 28.5024 41.1223C28.1039 40.7238 27.5634 40.4999 26.9998 40.4999H20.6248V38.2687C31.3624 37.2041 39.7498 28.1431 39.7498 17.1249C39.7524 14.135 39.1227 11.1782 37.9021 8.44875C36.6815 5.71927 34.8975 3.27874 32.6672 1.28732ZM18.4998 2.24994C14.5547 2.24994 10.7712 3.81713 7.98157 6.60673C5.19197 9.39633 3.62479 13.1798 3.62479 17.1249C3.62479 21.07 5.19197 24.8536 7.98157 27.6432C10.7712 30.4328 14.5547 31.9999 18.4998 31.9999C22.4449 31.9999 26.2284 30.4328 29.018 27.6432C31.8076 24.8536 33.3748 21.07 33.3748 17.1249C33.3748 13.1798 31.8076 9.39633 29.018 6.60673C26.2284 3.81713 22.4449 2.24994 18.4998 2.24994Z" fill="#0096C1"/>
</svg>
