<svg width="166" height="57" viewBox="0 0 166 57" fill="none" xmlns="http://www.w3.org/2000/svg">
<path d="M6.73504 0H158.895C162.6 0 165.63 3.00788 165.63 6.73504V49.3467C165.63 53.0521 162.622 56.0818 158.895 56.0818H6.73504C3.02968 56.0818 0 53.0739 0 49.3467V6.73504C0 3.00788 3.00788 0 6.73504 0Z" fill="#002D3A"/>
<path d="M150.198 31.7135L147.735 38.0126H147.669L145.097 31.7135H142.765L146.623 40.4974L144.422 45.3797H146.688L152.639 31.6917H150.198V31.7135ZM132.761 26.4824H130.603V40.9987H132.761V26.4824ZM124.631 26.4824H119.443V40.9987H121.623V35.506H124.652C127.203 35.5932 129.317 33.6098 129.404 31.0596C129.404 31.0378 129.404 31.016 129.404 30.9942C129.36 28.4441 127.246 26.4388 124.696 26.4824C124.674 26.4824 124.652 26.4824 124.631 26.4824ZM124.696 33.479H121.623V28.5312H124.696C126.069 28.5312 127.159 29.6429 127.159 30.9942C127.181 32.3674 126.069 33.479 124.696 33.479ZM138.079 31.3866C136.466 31.2994 134.94 32.1712 134.221 33.6098L136.139 34.438C136.531 33.7188 137.294 33.3046 138.122 33.3918C139.256 33.2828 140.28 34.1111 140.389 35.2445C140.389 35.2445 140.389 35.2445 140.389 35.2663V35.4189C139.692 35.0483 138.929 34.8522 138.144 34.8522C136.074 34.8522 133.981 35.9856 133.981 38.1434C133.981 40.0833 135.66 41.3474 137.578 41.3474C138.689 41.4128 139.735 40.8679 140.324 39.9307H140.411V41.0423H142.525V35.4625C142.525 32.8905 140.607 31.4519 138.122 31.4519L138.079 31.3866ZM137.817 39.3422C137.12 39.3422 136.117 38.9717 136.117 38.0998C136.117 36.9882 137.338 36.5523 138.406 36.5523C139.103 36.5305 139.779 36.7048 140.389 37.0318C140.237 38.3614 139.125 39.3422 137.817 39.3422ZM59.765 41.3038C55.4929 41.3256 52.0273 37.9036 51.9619 33.6316C52.0273 29.3595 55.5147 25.9593 59.765 25.9593C61.7266 25.9157 63.6447 26.6786 65.0397 28.0735L63.5575 29.5557C62.5549 28.5748 61.1817 28.0081 59.765 28.0299C56.6917 28.0299 54.1851 30.5147 54.1851 33.6098C54.1851 36.683 56.6699 39.1896 59.765 39.1896C61.2253 39.255 62.6421 38.6883 63.6447 37.6421C64.3204 36.9228 64.7127 35.9856 64.7781 35.0047H59.7432V32.9777H66.827C66.9141 33.4136 66.9359 33.8495 66.9359 34.2855C67.0013 36.1163 66.3474 37.8818 65.1268 39.2332C63.7101 40.65 61.7702 41.4128 59.765 41.3038ZM77.8995 36.3779C78.0084 39.0806 75.916 41.3474 73.2133 41.4564C70.5105 41.5654 68.2437 39.473 68.1347 36.7702C68.1347 36.6395 68.1347 36.5087 68.1347 36.3779C68.0257 33.6752 70.1182 31.4084 72.8209 31.2994C75.5237 31.1904 77.7905 33.2828 77.8995 35.9856C77.8995 36.0945 77.8995 36.2253 77.8995 36.3779ZM75.7634 36.3779C75.916 34.8522 74.8044 33.5226 73.2787 33.37C71.7529 33.2174 70.4233 34.329 70.2708 35.8548C70.249 36.0292 70.249 36.2035 70.2708 36.3779C70.1182 37.9036 71.2298 39.2332 72.7555 39.3858C74.2813 39.5384 75.6108 38.4267 75.7634 36.901C75.7634 36.7048 75.7634 36.5305 75.7634 36.3779ZM88.8412 36.3779C88.8412 39.0806 86.6615 41.2603 83.9588 41.2603C81.2561 41.2603 79.0764 39.0806 79.0764 36.3779C79.0764 33.6752 81.2561 31.4955 83.9588 31.4955C86.6615 31.4955 88.8412 33.6752 88.8412 36.3779ZM86.7051 36.3779C86.8577 34.8522 85.7461 33.5226 84.2204 33.37C82.6946 33.2174 81.365 34.329 81.2125 35.8548C81.1907 36.0292 81.1907 36.2035 81.2125 36.3779C81.0599 37.9036 82.1715 39.2332 83.6973 39.3858C85.223 39.5384 86.5526 38.4267 86.7051 36.901C86.7269 36.7048 86.7269 36.5305 86.7051 36.3779ZM99.5213 31.7353V40.6064C99.5213 44.2463 97.3635 45.7503 94.8133 45.7503C92.8953 45.7721 91.1734 44.6387 90.4105 42.8732L92.285 42.0449C92.6773 43.0693 93.6581 43.7668 94.748 43.7886C96.4045 43.7886 97.4071 42.786 97.4071 40.8897V40.1922H97.3199C96.666 40.9115 95.7288 41.3256 94.748 41.3256C92.0234 41.3256 89.8002 39.1242 89.8002 36.3779C89.8002 33.6534 92.0016 31.4302 94.748 31.4302C95.7288 31.4084 96.6878 31.8007 97.3417 32.5418H97.4289V31.7135H99.5213V31.7353ZM97.6033 36.3997C97.734 34.874 96.5788 33.5226 95.0531 33.3918C95.0313 33.3918 94.9877 33.3918 94.9659 33.3918C93.3748 33.4354 92.1542 34.765 92.1978 36.3561C92.1978 36.3779 92.1978 36.3997 92.1978 36.4215C92.1324 37.9908 93.3312 39.3204 94.9005 39.3858C94.9223 39.3858 94.9441 39.3858 94.9659 39.3858C96.4917 39.3204 97.6687 38.0344 97.6251 36.5305C97.6033 36.4651 97.6033 36.4215 97.6033 36.3997ZM103.336 26.5042V40.9987H101.156V26.5042H103.336ZM111.902 37.9908L113.602 39.1024C112.686 40.4756 111.139 41.3038 109.482 41.2821C106.845 41.3256 104.665 39.2114 104.622 36.5741C104.622 36.5087 104.622 36.4215 104.622 36.3561C104.404 33.8495 106.256 31.6481 108.763 31.4302C110.877 31.2558 112.817 32.5418 113.471 34.547L113.689 35.1137L107.106 37.8382C107.521 38.7755 108.48 39.3858 109.504 39.3422C110.507 39.3422 111.4 38.8409 111.902 37.9908ZM106.714 36.2253L111.139 34.3944C110.79 33.7188 110.071 33.3046 109.286 33.3482C107.782 33.4136 106.627 34.6778 106.692 36.1817C106.714 36.1817 106.714 36.2035 106.714 36.2253Z" fill="white"/>
<path d="M27.1361 27.2888L13.1211 41.9795C13.6878 44.0065 15.802 45.1835 17.8073 44.6168C18.1124 44.5297 18.4176 44.3989 18.6791 44.2463L34.4596 35.2662L27.1361 27.2888Z" fill="#EA4335"/>
<path d="M41.3259 24.7821L34.5036 20.8806L26.8096 27.6157L34.5254 35.2225L41.3041 31.3646C43.1132 30.4056 43.8106 28.1824 42.8734 26.3515C42.5029 25.6758 41.958 25.1309 41.3259 24.7821Z" fill="#FBBC04"/>
<path d="M13.121 14.1021C13.0338 14.4072 12.9902 14.7341 12.9902 15.0611V41.0204C12.9902 41.3474 13.0338 41.6743 13.121 41.9795L27.6155 27.6593L13.121 14.1021Z" fill="#4285F4"/>
<path d="M27.2451 28.0299L34.5032 20.8807L18.7445 11.8571C18.156 11.5084 17.4803 11.334 16.7829 11.334C15.0828 11.334 13.5788 12.4674 13.1211 14.1021L27.2451 28.0299Z" fill="#34A853"/>
<path d="M55.6022 21.0115C53.379 21.0115 51.9404 19.3768 51.9404 16.8484C51.9404 14.3419 53.3572 12.7507 55.6022 12.7507C57.3241 12.7507 58.6537 13.7752 58.937 15.3663H57.8908C57.5639 14.2765 56.7138 13.6662 55.6022 13.6662C53.9457 13.6662 52.9649 14.8432 52.9649 16.8266C52.9649 18.8319 53.9675 20.0961 55.6022 20.0961C57.019 20.0961 57.9998 19.1806 57.9998 17.8293V17.6767H55.733V16.8048H58.9806V17.5677C59.0024 19.7255 57.7382 21.0115 55.6022 21.0115Z" fill="white"/>
<path d="M65.2358 20.8808H60.2881V12.8816H65.2358V13.7752H61.2689V16.3472H65.0179V17.2408H61.2689V19.9872H65.2358V20.8808Z" fill="white"/>
<path d="M68.5713 20.8808V13.7752H66.043V12.8816H72.0805V13.7752H69.5522V20.8808H68.5713Z" fill="white"/>
<path d="M75.4805 20.8808V12.8816H76.4831V20.8808H75.4805Z" fill="white"/>
<path d="M78.0303 20.8808V12.8816H79.0111L83.3921 19.1589H83.4357V12.8816H84.4166V20.8808H83.4357L79.0547 14.6253H79.0111V20.8808H78.0303Z" fill="white"/>
<path d="M95.3583 16.892C95.3583 19.4204 93.9416 21.0115 91.6748 21.0115C89.408 21.0115 87.9912 19.4204 87.9912 16.892C87.9912 14.3637 89.408 12.7507 91.6748 12.7507C93.9198 12.7507 95.3583 14.3419 95.3583 16.892ZM88.9938 16.892C88.9938 18.8537 90.0183 20.0961 91.653 20.0961C93.2877 20.0961 94.3121 18.8537 94.3121 16.892C94.3121 14.9086 93.2877 13.688 91.653 13.688C90.0183 13.688 88.9938 14.9086 88.9938 16.892Z" fill="white"/>
<path d="M96.6006 20.8808V12.8816H97.5814L101.962 19.1589H102.006V12.8816H102.987V20.8808H102.006L97.625 14.6253H97.5814V20.8808H96.6006Z" fill="white"/>
</svg>
