<svg width="148" height="52" viewBox="0 0 148 52" fill="none" xmlns="http://www.w3.org/2000/svg">
<path d="M6.01424 0.959961H141.895C145.204 0.959961 147.909 3.64604 147.909 6.97444V45.0272C147.909 48.3362 145.223 51.0417 141.895 51.0417H6.01424C2.7053 51.0417 -0.000244141 48.3556 -0.000244141 45.0272V6.97444C-0.000244141 3.64604 2.68583 0.959961 6.01424 0.959961Z" fill="#2E2C2F"/>
<path d="M134.129 29.2808L131.929 34.906H131.871L129.574 29.2808H127.491L130.937 37.1249L128.971 41.4849H130.995L136.309 29.2613H134.129V29.2808ZM118.557 24.6093H116.63V37.5726H118.557V24.6093ZM111.297 24.6093H106.665V37.5726H108.611V32.6676H111.317C113.594 32.7454 115.482 30.9742 115.56 28.6969C115.56 28.6774 115.56 28.6579 115.56 28.6385C115.521 26.3611 113.633 24.5704 111.355 24.6093C111.336 24.6093 111.317 24.6093 111.297 24.6093ZM111.355 30.8574H108.611V26.439H111.355C112.582 26.439 113.555 27.4317 113.555 28.6385C113.574 29.8647 112.582 30.8574 111.355 30.8574ZM123.307 28.9888C121.866 28.911 120.504 29.6895 119.861 30.9742L121.574 31.7138C121.925 31.0715 122.606 30.7017 123.345 30.7795C124.358 30.6822 125.272 31.4219 125.37 32.434C125.37 32.434 125.37 32.434 125.37 32.4535V32.5897C124.747 32.2588 124.066 32.0837 123.365 32.0837C121.516 32.0837 119.647 33.0958 119.647 35.0228C119.647 36.7551 121.146 37.884 122.859 37.884C123.852 37.9424 124.786 37.4558 125.311 36.6189H125.389V37.6115H127.277V32.6287C127.277 30.3319 125.564 29.0472 123.345 29.0472L123.307 28.9888ZM123.073 36.0933C122.45 36.0933 121.555 35.7624 121.555 34.9838C121.555 33.9912 122.645 33.6019 123.599 33.6019C124.221 33.5824 124.825 33.7381 125.37 34.0301C125.234 35.2174 124.241 36.0933 123.073 36.0933ZM53.3712 37.8451C49.5562 37.8646 46.4613 34.8087 46.403 30.9937C46.4613 27.1786 49.5756 24.1422 53.3712 24.1422C55.123 24.1033 56.8358 24.7845 58.0816 26.0302L56.758 27.3538C55.8626 26.4779 54.6364 25.9719 53.3712 25.9913C50.6267 25.9913 48.3883 28.2103 48.3883 30.9742C48.3883 33.7187 50.6073 35.9571 53.3712 35.9571C54.6753 36.0155 55.9405 35.5094 56.8358 34.5751C57.4392 33.9328 57.7896 33.0958 57.848 32.2199H53.3517V30.4097H59.6776C59.7555 30.799 59.775 31.1883 59.775 31.5776C59.8333 33.2126 59.2494 34.7892 58.1594 35.996C56.8942 37.2612 55.1619 37.9424 53.3712 37.8451ZM69.5655 33.4462C69.6628 35.8597 67.7943 37.884 65.3807 37.9814C62.9671 38.0787 60.9428 36.2101 60.8455 33.7965C60.8455 33.6797 60.8455 33.5629 60.8455 33.4462C60.7482 31.0326 62.6167 29.0083 65.0303 28.911C67.4439 28.8136 69.4682 30.6822 69.5655 33.0958C69.5655 33.1931 69.5655 33.3099 69.5655 33.4462ZM67.658 33.4462C67.7943 32.0837 66.8016 30.8963 65.4391 30.7601C64.0766 30.6238 62.8893 31.6165 62.753 32.979C62.7335 33.1347 62.7335 33.2904 62.753 33.4462C62.6168 34.8087 63.6094 35.996 64.9719 36.1322C66.3344 36.2685 67.5218 35.2758 67.658 33.9133C67.658 33.7381 67.658 33.5824 67.658 33.4462ZM79.3366 33.4462C79.3366 35.8597 77.3902 37.8062 74.9766 37.8062C72.563 37.8062 70.6166 35.8597 70.6166 33.4462C70.6166 31.0326 72.563 29.0861 74.9766 29.0861C77.3902 29.0861 79.3366 31.0326 79.3366 33.4462ZM77.4291 33.4462C77.5654 32.0837 76.5727 30.8963 75.2102 30.7601C73.8477 30.6238 72.6603 31.6165 72.5241 32.979C72.5046 33.1347 72.5046 33.2904 72.5241 33.4462C72.3878 34.8087 73.3805 35.996 74.743 36.1322C76.1055 36.2685 77.2929 35.2758 77.4291 33.9133C77.4486 33.7381 77.4486 33.5824 77.4291 33.4462ZM88.8741 29.3003V37.2222C88.8741 40.4728 86.9472 41.8158 84.6698 41.8158C82.957 41.8353 81.4193 40.8231 80.738 39.2465L82.412 38.5069C82.7623 39.4217 83.6382 40.0446 84.6115 40.064C86.0907 40.064 86.9861 39.1687 86.9861 37.4753V36.8524H86.9082C86.3243 37.4947 85.4874 37.8646 84.6115 37.8646C82.1784 37.8646 80.1931 35.8987 80.1931 33.4462C80.1931 31.0131 82.159 29.0278 84.6115 29.0278C85.4874 29.0083 86.3438 29.3587 86.9277 30.0204H87.0056V29.2808H88.8741V29.3003ZM87.1613 33.4656C87.2781 32.1031 86.2465 30.8963 84.884 30.7795C84.8645 30.7795 84.8256 30.7795 84.8061 30.7795C83.3852 30.8185 82.2952 32.0058 82.3341 33.4267C82.3341 33.4462 82.3341 33.4656 82.3341 33.4851C82.2757 34.8865 83.3463 36.0738 84.7477 36.1322C84.7672 36.1322 84.7866 36.1322 84.8061 36.1322C86.1686 36.0738 87.2197 34.9255 87.1808 33.5824C87.1613 33.524 87.1613 33.4851 87.1613 33.4656ZM92.2804 24.6288V37.5726H90.334V24.6288H92.2804ZM99.9299 34.8865L101.448 35.8792C100.631 37.1055 99.2486 37.8451 97.7693 37.8256C95.4142 37.8646 93.4677 35.9765 93.4288 33.6213C93.4288 33.563 93.4288 33.4851 93.4288 33.4267C93.2342 31.1883 94.8886 29.2224 97.127 29.0278C99.0151 28.872 100.747 30.0204 101.331 31.8112L101.526 32.3172L95.6477 34.7503C96.0176 35.5872 96.874 36.1322 97.7888 36.0933C98.6842 36.0933 99.4822 35.6456 99.9299 34.8865ZM95.2974 33.3099L99.2486 31.6749C98.9372 31.0715 98.2949 30.7017 97.5942 30.7406C96.2511 30.799 95.2195 31.9279 95.2779 33.271C95.2974 33.271 95.2974 33.2904 95.2974 33.3099Z" fill="white"/>
<path d="M24.2335 25.3291L11.7179 38.4481C12.224 40.2583 14.112 41.3093 15.9027 40.8033C16.1752 40.7254 16.4477 40.6086 16.6813 40.4724L30.7735 32.4531L24.2335 25.3291Z" fill="#EA4335"/>
<path d="M36.9047 23.0906L30.8123 19.6064L23.9414 25.6209L30.8318 32.414L36.8852 28.9688C38.5007 28.1124 39.1236 26.127 38.2866 24.492C37.9557 23.8886 37.4691 23.402 36.9047 23.0906Z" fill="#FBBC04"/>
<path d="M11.7179 13.5527C11.64 13.8252 11.6011 14.1172 11.6011 14.4092V37.5912C11.6011 37.8832 11.64 38.1751 11.7179 38.4476L24.6616 25.6596L11.7179 13.5527Z" fill="#4285F4"/>
<path d="M24.3308 25.9907L30.8124 19.6064L16.7397 11.5482C16.2142 11.2368 15.6108 11.0811 14.9879 11.0811C13.4697 11.0811 12.1266 12.0932 11.7179 13.553L24.3308 25.9907Z" fill="#34A853"/>
<path d="M49.6534 19.7237C47.6681 19.7237 46.3834 18.2638 46.3834 16.006C46.3834 13.7676 47.6486 12.3467 49.6534 12.3467C51.1911 12.3467 52.3784 13.2615 52.6315 14.6824H51.6972C51.4052 13.7092 50.6461 13.1642 49.6534 13.1642C48.1741 13.1642 47.2982 14.2153 47.2982 15.9865C47.2982 17.7772 48.1936 18.9062 49.6534 18.9062C50.9186 18.9062 51.7945 18.0887 51.7945 16.8819V16.7456H49.7702V15.967H52.6704V16.6483C52.6899 18.5753 51.5609 19.7237 49.6534 19.7237Z" fill="white"/>
<path d="M58.2569 19.6073H53.8385V12.4639H58.2569V13.2619H54.7144V15.5587H58.0623V16.3567H54.7144V18.8092H58.2569V19.6073Z" fill="white"/>
<path d="M61.2347 19.6073V13.2619H58.9768V12.4639H64.3684V13.2619H62.1106V19.6073H61.2347Z" fill="white"/>
<path d="M67.405 19.6073V12.4639H68.3004V19.6073H67.405Z" fill="white"/>
<path d="M69.6825 19.6073V12.4639H70.5584L74.4707 18.0696H74.5096V12.4639H75.3855V19.6073H74.5096L70.5973 14.021H70.5584V19.6073H69.6825Z" fill="white"/>
<path d="M85.1567 16.0449C85.1567 18.3028 83.8915 19.7237 81.8672 19.7237C79.8429 19.7237 78.5778 18.3028 78.5778 16.0449C78.5778 13.787 79.8429 12.3467 81.8672 12.3467C83.8721 12.3467 85.1567 13.7676 85.1567 16.0449ZM79.4731 16.0449C79.4731 17.7967 80.3879 18.9062 81.8478 18.9062C83.3076 18.9062 84.2224 17.7967 84.2224 16.0449C84.2224 14.2736 83.3076 13.1836 81.8478 13.1836C80.3879 13.1836 79.4731 14.2736 79.4731 16.0449Z" fill="white"/>
<path d="M86.2661 19.6073V12.4639H87.142L91.0543 18.0696H91.0933V12.4639H91.9692V19.6073H91.0933L87.1809 14.021H87.142V19.6073H86.2661Z" fill="white"/>
</svg>
