<svg width="311" height="52" viewBox="0 0 311 52" fill="none" xmlns="http://www.w3.org/2000/svg">
<path d="M6.01448 0.959229H141.895C145.204 0.959229 147.91 3.64531 147.91 6.97371V45.0265C147.91 48.3354 145.223 51.041 141.895 51.041H6.01448C2.70554 51.041 0 48.3549 0 45.0265V6.97371C0 3.64531 2.68608 0.959229 6.01448 0.959229Z" fill="#2E2C2F"/>
<path d="M134.129 29.2798L131.929 34.905H131.871L129.574 29.2798H127.491L130.936 37.1239L128.971 41.484H130.995L136.309 29.2603H134.129V29.2798ZM118.557 24.6084H116.63V37.5716H118.557V24.6084ZM111.297 24.6084H106.664V37.5716H108.611V32.6666H111.316C113.594 32.7445 115.482 30.9732 115.56 28.6959C115.56 28.6764 115.56 28.657 115.56 28.6375C115.521 26.3602 113.633 24.5694 111.355 24.6084C111.336 24.6084 111.316 24.6084 111.297 24.6084ZM111.355 30.8564H108.611V26.438H111.355C112.582 26.438 113.555 27.4307 113.555 28.6375C113.574 29.8637 112.582 30.8564 111.355 30.8564ZM123.306 28.9878C121.866 28.91 120.504 29.6886 119.861 30.9732L121.574 31.7129C121.924 31.0705 122.606 30.7007 123.345 30.7786C124.358 30.6813 125.272 31.4209 125.37 32.433C125.37 32.433 125.37 32.433 125.37 32.4525V32.5888C124.747 32.2579 124.066 32.0827 123.365 32.0827C121.516 32.0827 119.647 33.0948 119.647 35.0218C119.647 36.7541 121.146 37.8831 122.859 37.8831C123.851 37.9415 124.786 37.4548 125.311 36.6179H125.389V37.6106H127.277V32.6277C127.277 30.3309 125.564 29.0462 123.345 29.0462L123.306 28.9878ZM123.073 36.0923C122.45 36.0923 121.555 35.7614 121.555 34.9829C121.555 33.9902 122.645 33.6009 123.598 33.6009C124.221 33.5814 124.825 33.7371 125.37 34.0291C125.233 35.2164 124.241 36.0923 123.073 36.0923ZM53.3711 37.8441C49.5561 37.8636 46.4612 34.8077 46.4028 30.9927C46.4612 27.1777 49.5755 24.1412 53.3711 24.1412C55.1229 24.1023 56.8357 24.7836 58.0814 26.0293L56.7579 27.3528C55.8625 26.477 54.6363 25.9709 53.3711 25.9903C50.6266 25.9903 48.3882 28.2093 48.3882 30.9732C48.3882 33.7177 50.6071 35.9561 53.3711 35.9561C54.6752 36.0145 55.9404 35.5084 56.8357 34.5741C57.4391 33.9318 57.7895 33.0948 57.8479 32.2189H53.3516V30.4088H59.6775C59.7554 30.798 59.7748 31.1873 59.7748 31.5766C59.8332 33.2116 59.2493 34.7882 58.1593 35.995C56.8941 37.2602 55.1618 37.9414 53.3711 37.8441ZM69.5654 33.4452C69.6627 35.8588 67.7941 37.8831 65.3806 37.9804C62.967 38.0777 60.9427 36.2091 60.8454 33.7955C60.8454 33.6788 60.8454 33.562 60.8454 33.4452C60.748 31.0316 62.6166 29.0073 65.0302 28.91C67.4438 28.8127 69.4681 30.6812 69.5654 33.0948C69.5654 33.1921 69.5654 33.3089 69.5654 33.4452ZM67.6579 33.4452C67.7941 32.0827 66.8015 30.8954 65.439 30.7591C64.0765 30.6229 62.8891 31.6155 62.7529 32.978C62.7334 33.1338 62.7334 33.2895 62.7529 33.4452C62.6166 34.8077 63.6093 35.995 64.9718 36.1313C66.3343 36.2675 67.5216 35.2748 67.6579 33.9123C67.6579 33.7372 67.6579 33.5814 67.6579 33.4452ZM79.3365 33.4452C79.3365 35.8588 77.3901 37.8052 74.9765 37.8052C72.5629 37.8052 70.6165 35.8588 70.6165 33.4452C70.6165 31.0316 72.5629 29.0852 74.9765 29.0852C77.3901 29.0852 79.3365 31.0316 79.3365 33.4452ZM77.429 33.4452C77.5652 32.0827 76.5726 30.8954 75.2101 30.7591C73.8476 30.6229 72.6602 31.6155 72.524 32.978C72.5045 33.1338 72.5045 33.2895 72.524 33.4452C72.3877 34.8077 73.3804 35.995 74.7429 36.1313C76.1054 36.2675 77.2927 35.2748 77.429 33.9123C77.4485 33.7372 77.4485 33.5814 77.429 33.4452ZM88.874 29.2993V37.2213C88.874 40.4718 86.9471 41.8148 84.6697 41.8148C82.9569 41.8343 81.4192 40.8222 80.7379 39.2456L82.4119 38.5059C82.7622 39.4207 83.6381 40.0436 84.6113 40.0631C86.0906 40.0631 86.986 39.1677 86.986 37.4743V36.8514H86.9081C86.3242 37.4938 85.4872 37.8636 84.6113 37.8636C82.1783 37.8636 80.1929 35.8977 80.1929 33.4452C80.1929 31.0121 82.1588 29.0268 84.6113 29.0268C85.4872 29.0073 86.3437 29.3577 86.9276 30.0195H87.0054V29.2798H88.874V29.2993ZM87.1612 33.4646C87.2779 32.1021 86.2463 30.8954 84.8838 30.7786C84.8644 30.7786 84.8254 30.7786 84.806 30.7786C83.3851 30.8175 82.2951 32.0048 82.334 33.4257C82.334 33.4452 82.334 33.4647 82.334 33.4841C82.2756 34.8855 83.3462 36.0729 84.7476 36.1313C84.7671 36.1313 84.7865 36.1313 84.806 36.1313C86.1685 36.0729 87.2196 34.9245 87.1806 33.5814C87.1612 33.523 87.1612 33.4841 87.1612 33.4646ZM92.2803 24.6278V37.5716H90.3338V24.6278H92.2803ZM99.9298 34.8855L101.448 35.8782C100.63 37.1045 99.2485 37.8441 97.7692 37.8247C95.414 37.8636 93.4676 35.9756 93.4287 33.6204C93.4287 33.562 93.4287 33.4841 93.4287 33.4257C93.234 31.1873 94.8885 29.2214 97.1269 29.0268C99.0149 28.8711 100.747 30.0195 101.331 31.8102L101.526 32.3163L95.6476 34.7493C96.0174 35.5863 96.8739 36.1313 97.7887 36.0923C98.6841 36.0923 99.4821 35.6447 99.9298 34.8855ZM95.2973 33.3089L99.2485 31.6739C98.9371 31.0705 98.2948 30.7007 97.5941 30.7396C96.251 30.798 95.2194 31.927 95.2778 33.27C95.2973 33.27 95.2973 33.2895 95.2973 33.3089Z" fill="white"/>
<path d="M24.2333 25.3281L11.7178 38.4471C12.2238 40.2573 14.1119 41.3084 15.9026 40.8023C16.1751 40.7244 16.4476 40.6076 16.6812 40.4714L30.7734 32.4521L24.2333 25.3281Z" fill="#EA4335"/>
<path d="M36.9047 23.0901L30.8123 19.606L23.9414 25.6204L30.8318 32.4135L36.8852 28.9683C38.5007 28.1119 39.1236 26.1265 38.2866 24.4915C37.9557 23.8881 37.4691 23.4015 36.9047 23.0901Z" fill="#FBBC04"/>
<path d="M11.7174 13.5522C11.6395 13.8247 11.6006 14.1167 11.6006 14.4087V37.5907C11.6006 37.8827 11.6395 38.1746 11.7174 38.4471L24.6612 25.6591L11.7174 13.5522Z" fill="#4285F4"/>
<path d="M24.3307 25.99L30.8123 19.6057L16.7396 11.5475C16.214 11.236 15.6106 11.0803 14.9878 11.0803C13.4696 11.0803 12.1265 12.0925 11.7178 13.5523L24.3307 25.99Z" fill="#34A853"/>
<path d="M49.6533 19.7229C47.668 19.7229 46.3833 18.2631 46.3833 16.0052C46.3833 13.7668 47.6485 12.3459 49.6533 12.3459C51.191 12.3459 52.3783 13.2608 52.6314 14.6817H51.6971C51.4051 13.7085 50.646 13.1635 49.6533 13.1635C48.174 13.1635 47.2981 14.2145 47.2981 15.9858C47.2981 17.7765 48.1935 18.9054 49.6533 18.9054C50.9185 18.9054 51.7944 18.0879 51.7944 16.8811V16.7449H49.7701V15.9663H52.6703V16.6476C52.6897 18.5745 51.5608 19.7229 49.6533 19.7229Z" fill="white"/>
<path d="M58.2568 19.6063H53.8384V12.4629H58.2568V13.2609H54.7143V15.5577H58.0621V16.3558H54.7143V18.8083H58.2568V19.6063Z" fill="white"/>
<path d="M61.2344 19.6063V13.2609H58.9766V12.4629H64.3682V13.2609H62.1103V19.6063H61.2344Z" fill="white"/>
<path d="M67.4048 19.6063V12.4629H68.3002V19.6063H67.4048Z" fill="white"/>
<path d="M69.6826 19.6063V12.4629H70.5585L74.4708 18.0686H74.5098V12.4629H75.3857V19.6063H74.5098L70.5974 14.02H70.5585V19.6063H69.6826Z" fill="white"/>
<path d="M85.1566 16.0442C85.1566 18.302 83.8914 19.7229 81.8671 19.7229C79.8428 19.7229 78.5776 18.302 78.5776 16.0442C78.5776 13.7863 79.8428 12.3459 81.8671 12.3459C83.8719 12.3459 85.1566 13.7668 85.1566 16.0442ZM79.473 16.0442C79.473 17.796 80.3878 18.9054 81.8476 18.9054C83.3075 18.9054 84.2223 17.796 84.2223 16.0442C84.2223 14.2729 83.3075 13.1829 81.8476 13.1829C80.3878 13.1829 79.473 14.2729 79.473 16.0442Z" fill="white"/>
<path d="M86.2661 19.6063V12.4629H87.142L91.0543 18.0686H91.0933V12.4629H91.9692V19.6063H91.0933L87.1809 14.02H87.142V19.6063H86.2661Z" fill="white"/>
<path d="M168.924 0.959229H304.805C308.114 0.959229 310.819 3.64531 310.819 6.97371V45.0265C310.819 48.3354 308.133 51.041 304.805 51.041H168.924C165.615 51.041 162.91 48.3549 162.91 45.0265V6.97371C162.91 3.64531 165.615 0.959229 168.924 0.959229Z" fill="#2E2C2F"/>
<path d="M187.318 16.6667C187.123 15.0512 187.921 13.3383 188.816 12.2873C189.829 11.0999 191.6 10.1851 193.001 10.1267C193.176 11.8006 192.515 13.4551 191.541 14.6814C190.529 15.8687 188.894 16.7835 187.318 16.6667Z" fill="white"/>
<path d="M198.899 30.934C198.88 31.0313 198.315 32.9778 196.933 34.9631C195.766 36.7149 194.559 38.4083 192.612 38.4472C190.724 38.4862 190.101 37.3378 187.941 37.3378C185.761 37.3378 185.08 38.4278 183.289 38.4862C181.44 38.564 180.038 36.6176 178.832 34.9047C176.418 31.3817 174.549 24.9779 177.06 20.6179C178.267 18.4768 180.506 17.0949 182.88 17.0559C184.729 17.017 186.442 18.3017 187.571 18.3017C188.681 18.3017 190.802 16.764 192.982 16.9975C193.897 17.0365 196.505 17.3674 198.179 19.8199C198.043 19.8977 195.084 21.6495 195.123 25.231C195.143 29.4936 198.841 30.9145 198.899 30.934Z" fill="white"/>
<path d="M215.132 23.4407H212.193L207.444 38.2336H209.896L211.2 33.893H216.008L217.39 38.2336H219.92L215.132 23.4407ZM211.609 32.0634L212.835 28.2094C213.147 26.9832 213.38 26.0489 213.536 25.426H213.595C213.964 26.8859 214.198 27.8007 214.334 28.2094L215.58 32.0634H211.609Z" fill="white"/>
<path d="M230.84 28.832C230.003 27.8393 228.952 27.3333 227.687 27.3333C226.091 27.3333 224.884 27.9756 224.086 29.2408H224.047L223.911 27.5474H221.828C221.887 28.7542 221.925 29.9025 221.925 31.0509V42.5349H224.3V36.9292C224.923 37.9413 225.935 38.4474 227.337 38.4474C228.641 38.4474 229.731 37.9802 230.626 37.046C231.619 35.9949 232.105 34.5545 232.105 32.7443C232.125 31.1483 231.716 29.8442 230.84 28.832ZM228.972 35.5861C228.465 36.2674 227.784 36.6177 226.889 36.6177C226.13 36.6177 225.507 36.3452 225.04 35.8197C224.573 35.2942 224.32 34.6324 224.32 33.8538V32.0631C224.32 31.8684 224.358 31.6349 224.436 31.3429C224.573 30.72 224.903 30.214 225.371 29.8247C225.857 29.4354 226.383 29.2408 226.967 29.2408C227.823 29.2408 228.524 29.5911 229.03 30.2918C229.497 30.9536 229.731 31.81 229.731 32.8611C229.711 33.9901 229.458 34.8854 228.972 35.5861Z" fill="white"/>
<path d="M243.102 28.832C242.265 27.8393 241.214 27.3333 239.949 27.3333C238.353 27.3333 237.146 27.9756 236.348 29.2408H236.309L236.173 27.5474H234.09C234.149 28.7542 234.188 29.9025 234.188 31.0509V42.5349H236.562V36.9292C237.185 37.9413 238.197 38.4474 239.599 38.4474C240.903 38.4474 241.993 37.9802 242.888 37.046C243.881 35.9949 244.367 34.5545 244.367 32.7443C244.387 31.1483 243.959 29.8442 243.102 28.832ZM241.214 35.5861C240.728 36.2674 240.027 36.6177 239.132 36.6177C238.372 36.6177 237.75 36.3452 237.282 35.8197C236.815 35.2942 236.562 34.6324 236.562 33.8538V32.0631C236.562 31.8684 236.601 31.6349 236.679 31.3429C236.835 30.72 237.146 30.214 237.613 29.8247C238.1 29.4354 238.626 29.2408 239.209 29.2408C240.066 29.2408 240.767 29.5911 241.273 30.2918C241.74 30.9536 241.973 31.81 241.973 32.8611C241.973 33.9901 241.74 34.8854 241.214 35.5861Z" fill="white"/>
<path d="M257.195 31.5183C257.798 32.1996 258.11 33.0755 258.11 34.0876C258.11 35.3528 257.662 36.3649 256.805 37.163C255.852 38.0194 254.509 38.4476 252.776 38.4476C251.18 38.4476 249.915 38.1362 248.942 37.5328L249.487 35.5669C250.519 36.1703 251.667 36.4817 252.913 36.4817C253.808 36.4817 254.509 36.2871 254.995 35.8783C255.501 35.4696 255.754 34.944 255.754 34.2628C255.754 33.6594 255.54 33.1533 255.151 32.7446C254.742 32.3358 254.061 31.9465 253.107 31.5962C250.499 30.6229 249.195 29.2215 249.195 27.3529C249.195 26.1461 249.662 25.1535 250.557 24.3749C251.472 23.5963 252.679 23.207 254.197 23.207C255.54 23.207 256.669 23.4406 257.545 23.9077L256.942 25.8347C256.105 25.387 255.151 25.1535 254.1 25.1535C253.263 25.1535 252.601 25.3676 252.134 25.7569C251.745 26.1267 251.55 26.5744 251.55 27.0999C251.55 27.6838 251.784 28.1704 252.231 28.5403C252.621 28.8906 253.341 29.2799 254.392 29.6887C255.657 30.2142 256.591 30.8176 257.195 31.5183Z" fill="white"/>
<path d="M263.345 27.5668H265.953V29.3575H263.345V34.5351C263.345 35.8392 263.812 36.501 264.727 36.501C265.155 36.501 265.506 36.462 265.778 36.3842L265.856 38.1944C265.389 38.3695 264.766 38.4474 264.007 38.4474C263.073 38.4474 262.352 38.1554 261.807 37.591C261.282 37.0265 261.009 36.0533 261.009 34.7102V29.3381H259.452V27.5668H261.009V25.6204L263.326 24.9197V27.5668H263.345Z" fill="white"/>
<path d="M276.348 28.9099C275.394 27.8589 274.129 27.3528 272.572 27.3528C270.956 27.3528 269.652 27.8783 268.698 28.9294C267.744 29.9805 267.258 31.3235 267.258 32.978C267.258 34.5546 267.725 35.8782 268.64 36.9098C269.574 37.9414 270.82 38.4669 272.377 38.4669C273.992 38.4669 275.297 37.9219 276.289 36.8514C277.224 35.8003 277.691 34.4573 277.691 32.8223C277.71 31.2262 277.262 29.9221 276.348 28.9099ZM274.615 35.411C274.09 36.2675 273.389 36.6957 272.474 36.6957C271.559 36.6957 270.839 36.2675 270.314 35.4305C269.885 34.7492 269.691 33.8928 269.691 32.9196C269.691 31.9074 269.885 31.051 270.314 30.3503C270.8 29.4939 271.54 29.0851 272.494 29.0851C273.409 29.0851 274.129 29.5133 274.635 30.3503C275.063 31.051 275.258 31.888 275.258 32.8612C275.258 33.8539 275.044 34.6908 274.615 35.411Z" fill="white"/>
<path d="M285.418 27.3917V29.6496C285.184 29.6106 284.931 29.5912 284.659 29.5912C283.822 29.5912 283.179 29.9026 282.732 30.5255C282.342 31.0705 282.148 31.7907 282.148 32.6276V38.2333H279.773V30.9148C279.773 29.6885 279.754 28.5596 279.695 27.5669H281.759L281.856 29.6106H281.934C282.187 28.9099 282.576 28.3455 283.121 27.9172C283.647 27.528 284.231 27.3528 284.834 27.3528C285.048 27.3528 285.243 27.3722 285.418 27.3917Z" fill="white"/>
<path d="M296.006 32.3942C296.006 31.0706 295.695 29.9417 295.053 29.0268C294.274 27.8784 293.106 27.314 291.569 27.314C290.011 27.314 288.766 27.8784 287.851 29.0268C286.975 30.0974 286.527 31.4404 286.527 33.0365C286.527 34.6715 286.994 35.9756 287.948 36.9488C288.883 37.922 290.187 38.4086 291.841 38.4086C293.223 38.4086 294.41 38.1945 295.423 37.7469L295.053 36.1118C294.196 36.4427 293.223 36.6179 292.172 36.6179C291.218 36.6179 290.459 36.3649 289.856 35.8783C289.194 35.3333 288.863 34.5158 288.824 33.4647H295.929C295.987 33.1727 296.006 32.8224 296.006 32.3942ZM288.824 31.7713C288.902 31.0511 289.136 30.4477 289.525 29.9222C290.011 29.2799 290.634 28.9684 291.413 28.9684C292.25 28.9684 292.892 29.2993 293.301 29.9611C293.612 30.4672 293.788 31.09 293.768 31.7908L288.824 31.7713Z" fill="white"/>
<path d="M212.583 10.9636C215.035 10.9636 216.495 12.4818 216.495 15.0706C216.495 17.6788 215.055 19.2165 212.583 19.2165H209.663V10.9636H212.583ZM210.967 18.107H212.485C214.237 18.107 215.21 17.0365 215.21 15.0901C215.21 13.1436 214.237 12.0731 212.485 12.0731H210.967V18.107Z" fill="white"/>
<path d="M217.312 16.1995C217.312 14.2725 218.461 13.0852 220.174 13.0852C221.887 13.0852 223.035 14.2725 223.035 16.1995C223.035 18.1459 221.906 19.3333 220.174 19.3333C218.441 19.3333 217.312 18.1459 217.312 16.1995ZM221.75 16.1995C221.75 14.8565 221.128 14.0973 220.154 14.0973C219.181 14.0973 218.558 14.8565 218.558 16.1995C218.558 17.5425 219.181 18.3016 220.154 18.3016C221.128 18.3016 221.75 17.5425 221.75 16.1995Z" fill="white"/>
<path d="M230.237 19.2166H228.952L227.687 14.7009H227.668L226.422 19.2166H225.137L223.483 13.2021H224.729L225.819 17.9515H225.838L227.084 13.2021H228.271L229.536 17.9515H229.556L230.646 13.2021H231.872L230.237 19.2166Z" fill="white"/>
<path d="M232.65 13.1825H233.838V14.1947H233.857C234.188 13.5134 234.83 13.0852 235.745 13.0852C237.069 13.0852 237.828 13.9416 237.828 15.3041V19.197H236.582V15.5377C236.582 14.6423 236.154 14.1363 235.297 14.1363C234.421 14.1363 233.857 14.7591 233.857 15.6934V19.197H232.611V13.1825H232.65Z" fill="white"/>
<path d="M239.073 10.9639H240.319V19.2168H239.073V10.9639Z" fill="white"/>
<path d="M241.312 16.1995C241.312 14.2725 242.46 13.0852 244.173 13.0852C245.886 13.0852 247.035 14.2725 247.035 16.1995C247.035 18.1459 245.906 19.3333 244.173 19.3333C242.441 19.3333 241.312 18.1459 241.312 16.1995ZM245.769 16.1995C245.769 14.8565 245.146 14.0973 244.173 14.0973C243.2 14.0973 242.577 14.8565 242.577 16.1995C242.577 17.5425 243.2 18.3016 244.173 18.3016C245.146 18.3016 245.769 17.5425 245.769 16.1995Z" fill="white"/>
<path d="M247.754 17.5036C247.754 16.4525 248.552 15.8102 249.993 15.7324L251.647 15.635V15.1679C251.647 14.5061 251.2 14.0973 250.44 14.0973C249.72 14.0973 249.273 14.4477 249.175 14.9732H248.007C248.085 13.8832 249 13.0852 250.499 13.0852C251.959 13.0852 252.893 13.8638 252.893 15.0706V19.2165H251.706V18.2238H251.686C251.336 18.8856 250.577 19.3138 249.779 19.3138C248.572 19.3138 247.754 18.5936 247.754 17.5036ZM251.628 16.9586V16.4915L250.149 16.5888C249.409 16.6472 249 16.9586 249 17.4841C249 18.0097 249.428 18.36 250.09 18.36C250.966 18.3406 251.628 17.7372 251.628 16.9586Z" fill="white"/>
<path d="M253.789 16.1997C253.789 14.2922 254.801 13.0854 256.299 13.0854C257.156 13.0854 257.857 13.5136 258.188 14.1754H258.207V10.9443H259.453V19.1972H258.246V18.1656H258.226C257.876 18.8469 257.175 19.2945 256.299 19.2945C254.801 19.314 253.789 18.1072 253.789 16.1997ZM255.054 16.1997C255.054 17.4649 255.657 18.2629 256.65 18.2629C257.604 18.2629 258.226 17.4649 258.226 16.1997C258.226 14.954 257.584 14.1365 256.65 14.1365C255.677 14.1365 255.054 14.9345 255.054 16.1997Z" fill="white"/>
<path d="M262.839 16.1995C262.839 14.2725 263.988 13.0852 265.701 13.0852C267.413 13.0852 268.562 14.2725 268.562 16.1995C268.562 18.1459 267.433 19.3333 265.701 19.3333C263.968 19.3333 262.839 18.1459 262.839 16.1995ZM267.297 16.1995C267.297 14.8565 266.674 14.0973 265.701 14.0973C264.727 14.0973 264.105 14.8565 264.105 16.1995C264.105 17.5425 264.727 18.3016 265.701 18.3016C266.674 18.3016 267.297 17.5425 267.297 16.1995Z" fill="white"/>
<path d="M269.496 13.1825H270.683V14.1947H270.703C271.034 13.5134 271.676 13.0852 272.591 13.0852C273.914 13.0852 274.673 13.9416 274.673 15.3041V19.197H273.428V15.5377C273.428 14.6423 273 14.1363 272.143 14.1363C271.267 14.1363 270.703 14.7591 270.703 15.6934V19.197H269.457V13.1825H269.496Z" fill="white"/>
<path d="M279.871 11.762V13.1829H281.019V14.1561H279.871V17.4845C279.871 18.01 280.104 18.2436 280.61 18.2436C280.727 18.2436 280.941 18.2241 281.019 18.2241V19.1973C280.883 19.2363 280.61 19.2557 280.338 19.2557C279.112 19.2557 278.644 18.7886 278.644 17.6207V14.1561H277.769V13.1829H278.644V11.762H279.871Z" fill="white"/>
<path d="M282.07 10.9639H283.296V14.2144H283.316C283.647 13.5137 284.309 13.1049 285.223 13.1049C286.547 13.1049 287.345 13.9808 287.345 15.3433V19.2168H286.099V15.5769C286.099 14.6816 285.652 14.156 284.776 14.156C283.861 14.156 283.296 14.7789 283.296 15.7326V19.2168H282.051V10.9639H282.07Z" fill="white"/>
<path d="M293.69 17.4452C293.515 18.5352 292.484 19.3333 291.102 19.3333C289.33 19.3333 288.26 18.1459 288.26 16.2384C288.26 14.3504 289.35 13.0852 291.043 13.0852C292.717 13.0852 293.749 14.2725 293.749 16.0827V16.5109H289.486V16.5888C289.486 17.6399 290.109 18.3211 291.102 18.3211C291.802 18.3211 292.328 17.9708 292.484 17.4452H293.69ZM289.525 15.6545H292.542C292.522 14.7397 291.939 14.0779 291.063 14.0779C290.187 14.0779 289.583 14.7397 289.525 15.6545Z" fill="white"/>
</svg>
