<svg width="115" height="80" viewBox="0 0 115 80" fill="none" xmlns="http://www.w3.org/2000/svg">
<path d="M72.6305 77.3597H39.0071L41.8304 49.2545H69.8071L72.6305 77.3597Z" fill="#025A82"/>
<path d="M76.609 77.3624H34.9006V79.8008H76.609V77.3624Z" fill="#025A82"/>
<path d="M97.0138 8.31824H14.4953C12.3137 8.31824 10.3887 10.1149 10.3887 12.4249V16.9166V60.1653V64.657C10.3887 66.8386 12.1853 68.7637 14.4953 68.7637H97.0138C99.3238 68.7637 101.12 66.967 101.12 64.657V60.1653V16.9166V12.4249C101.12 10.1149 99.3238 8.31824 97.0138 8.31824Z" fill="#025A82"/>
<path d="M37.852 46.4364L57.1021 31.5496L74.1704 35.528C74.1704 35.528 93.2922 20.8979 97.9122 17.3045V14.9945C97.9122 13.5828 96.7572 12.5562 95.4738 12.5562H16.1637C14.8803 12.5562 13.7253 13.7112 13.7253 14.9945V49.5164L23.7354 41.1747L37.852 46.4364Z" fill="#FA7564"/>
<path d="M74.1705 35.6564L57.1022 31.6781L37.8521 46.5649L23.8638 41.3032L13.8538 49.6449V58.8849C13.8538 60.1683 15.0088 61.3233 16.2921 61.3233H95.4739C96.7572 61.3233 97.9122 60.1683 97.9122 58.8849V17.433C93.2922 21.0263 74.5555 35.7848 74.1705 35.6564Z" fill="#E55D4C"/>
<path d="M76.6077 35.4008C76.6077 33.9891 75.4527 32.8341 74.041 32.8341C72.6294 32.8341 71.4744 33.9891 71.4744 35.4008C71.4744 36.8125 72.6294 37.9675 74.041 37.9675C75.4527 37.9675 76.6077 36.8125 76.6077 35.4008Z" fill="white"/>
<path d="M60.0533 31.8059C60.0533 30.3942 58.8983 29.2392 57.4866 29.2392C56.0749 29.2392 54.9199 30.3942 54.9199 31.8059C54.9199 33.2176 56.0749 34.3726 57.4866 34.3726C58.8983 34.5009 60.0533 33.3459 60.0533 31.8059Z" fill="white"/>
<path d="M40.1626 46.309C40.1626 44.8973 39.0076 43.7423 37.596 43.7423C36.1843 43.7423 35.0293 44.8973 35.0293 46.309C35.0293 47.7207 36.1843 48.8757 37.596 48.8757C39.0076 48.8757 40.1626 47.7207 40.1626 46.309Z" fill="white"/>
<path d="M26.3018 41.8163C26.3018 40.4046 25.1468 39.2496 23.7351 39.2496C22.3235 39.2496 21.1685 40.4046 21.1685 41.8163C21.1685 43.228 22.3235 44.383 23.7351 44.383C25.1468 44.383 26.3018 43.228 26.3018 41.8163Z" fill="white"/>
<path d="M74.0419 34.6314L57.3585 30.6531C57.1018 30.5247 56.7168 30.6531 56.5885 30.7814L37.5951 45.4115L24.1201 40.2781C23.7351 40.1498 23.4785 40.1498 23.2218 40.4065L13.7251 48.1065V49.5182V50.4166C13.8534 50.4166 14.1101 50.2882 14.2384 50.1599L23.9918 42.2032L37.4668 47.3365C37.7235 47.4649 38.1085 47.4649 38.3651 47.2082L57.2302 32.5781L73.7852 36.4281C74.4269 36.6848 74.6835 36.6848 97.7836 18.9747V16.5363C88.4152 23.8514 76.0952 33.2198 74.0419 34.6314Z" fill="white"/>
<path d="M14.2386 32.1847L15.9069 28.9763C15.9069 28.848 16.0352 28.7196 16.0352 28.7196C16.9336 28.7196 17.7036 28.7196 18.6019 28.5913C18.8586 28.5913 19.1152 28.848 19.2436 29.1046L21.4252 31.928C21.6819 32.313 22.0669 32.4413 22.4519 32.1847L25.6602 30.5163C26.0452 30.2597 26.1736 29.8746 25.9169 29.4896L24.8902 26.0246C24.8902 25.8963 24.7619 25.768 24.7619 25.6396C25.4036 25.1263 26.0452 24.4846 26.5586 23.7146C26.8152 23.5863 27.0719 23.4579 27.3286 23.5863L30.9219 23.9713C31.3069 24.0996 31.6919 23.8429 31.8203 23.4579L32.8469 19.9929C32.9753 19.6079 32.7186 19.2229 32.3336 19.0946L29.1252 17.4262C28.9969 17.4262 28.8686 17.2979 28.8686 17.2979C28.8686 16.3996 28.8686 15.6295 28.7402 14.7312C28.7402 14.4745 28.9969 14.2179 29.2536 14.0895L32.0769 11.9079C32.4619 11.6512 32.5903 11.2662 32.3336 10.8812L30.6652 7.67282C30.4086 7.28782 30.0236 7.15948 29.6386 7.41615L26.1736 8.57116C26.0452 8.57116 25.9169 8.6995 25.7886 8.6995C25.2752 8.05782 24.6336 7.41615 23.8636 6.90282C23.7352 6.64615 23.6069 6.38948 23.7352 6.13281L24.1202 2.53945C24.2486 2.15445 23.9919 1.76945 23.6069 1.64111L20.1419 0.614438C19.7569 0.486104 19.3719 0.742772 19.2436 1.12777L17.5752 4.33613C17.5752 4.46447 17.4469 4.5928 17.4469 4.5928C16.5486 4.5928 15.7786 4.5928 14.8802 4.72114C14.6236 4.72114 14.3669 4.46446 14.2386 4.2078L12.0569 1.38444C11.8002 0.999442 11.4152 0.871106 11.0302 1.12777L7.82187 2.79612C7.43687 3.05279 7.30854 3.43779 7.5652 3.82279L8.59187 7.28782C8.59187 7.41615 8.7202 7.54449 8.7202 7.67282C8.07854 8.18616 7.43687 8.82783 6.92353 9.59784C6.66687 9.72617 6.4102 9.8545 6.15353 9.72617L2.56019 9.34117C2.17519 9.21283 1.79019 9.4695 1.66186 9.85451L0.63519 13.3195C0.506856 13.7045 0.763523 14.0895 1.14852 14.2179L4.35686 15.8862C4.4852 15.8862 4.61353 16.0146 4.61353 16.0146C4.61353 16.9129 4.61353 17.6829 4.74186 18.5812C4.74186 18.8379 4.4852 19.0946 4.22853 19.2229L1.40519 21.4046C1.02019 21.6613 0.891857 22.0463 1.14852 22.4313L2.81686 25.6396C3.07353 26.0246 3.45853 26.153 3.84353 25.8963L7.30853 24.7413C7.43687 24.7413 7.5652 24.6129 7.69354 24.6129C8.20687 25.2546 8.84854 25.8963 9.61854 26.4096C9.74687 26.6663 9.87521 26.923 9.74687 27.1796L9.36187 30.773C9.23354 31.158 9.49021 31.543 9.87521 31.6713L13.3402 32.698C13.7252 32.8263 14.1102 32.5697 14.2386 32.1847ZM11.8002 15.1162C12.6985 12.4212 15.5219 10.8812 18.2169 11.6512C20.9119 12.5495 22.4519 15.3729 21.6819 18.0679C20.7836 20.7629 17.9602 22.3029 15.2652 21.5329C12.5702 20.7629 11.0302 17.8112 11.8002 15.1162Z" fill="#E6F5F9"/>
<path d="M92.1378 52.9765L94.7045 52.8482C94.8328 52.8482 94.8328 52.8482 94.9611 52.8482C95.2178 53.3615 95.6028 53.8749 95.9878 54.3882C96.1161 54.5165 96.1161 54.7732 95.9878 55.0299L95.0894 57.4682C94.9611 57.7249 94.9611 58.1099 95.2178 58.2382L97.3995 59.5216C97.6561 59.6499 98.0411 59.6499 98.1695 59.3932L99.8378 57.4682C99.8378 57.3399 99.9661 57.3399 99.9661 57.3399C100.608 57.4682 101.121 57.5965 101.763 57.7249C101.891 57.8532 102.148 57.9815 102.148 58.1099L103.174 60.2916C103.303 60.5482 103.559 60.8049 103.816 60.6766L106.254 60.0349C106.511 59.9066 106.768 59.6499 106.639 59.3932L106.511 56.8265C106.511 56.6982 106.511 56.6982 106.511 56.5699C107.024 56.3132 107.538 55.9282 108.051 55.5432C108.179 55.4149 108.436 55.4149 108.693 55.5432L111.131 56.4415C111.388 56.5699 111.773 56.5699 111.901 56.3132L113.184 54.1315C113.313 53.8748 113.313 53.4898 113.056 53.3615L111.131 51.6932C111.003 51.6932 111.003 51.5648 111.003 51.5648C111.131 50.9232 111.259 50.4098 111.388 49.7682C111.516 49.6398 111.644 49.3832 111.773 49.3832L114.083 48.3565C114.339 48.2281 114.596 47.9715 114.468 47.7148L113.826 45.2765C113.698 45.0198 113.441 44.7631 113.184 44.8915L110.618 45.0198C110.489 45.0198 110.489 45.0198 110.361 45.0198C110.104 44.5064 109.719 43.9931 109.334 43.4798C109.206 43.3514 109.206 43.0948 109.334 42.8381L110.233 40.3998C110.361 40.1431 110.361 39.7581 110.104 39.6298L107.923 38.3464C107.666 38.2181 107.281 38.2181 107.153 38.4747L105.484 40.3998C105.484 40.5281 105.356 40.5281 105.356 40.5281C104.714 40.3998 104.201 40.2714 103.559 40.1431C103.431 40.0148 103.174 39.8864 103.174 39.7581L102.148 37.4481C102.019 37.1914 101.763 36.9347 101.506 37.0631L99.0678 37.7047C98.8111 37.8331 98.5545 38.0897 98.6828 38.3464L98.8111 40.9131C98.8111 41.0414 98.8111 41.0414 98.8111 41.1698C98.2978 41.4264 97.7845 41.8114 97.2711 42.1964C97.1428 42.3248 96.8861 42.3248 96.6295 42.1964L94.1911 41.2981C93.9345 41.1698 93.5495 41.1698 93.4211 41.4264L92.1378 43.6081C92.0094 43.8648 92.0094 44.2498 92.2661 44.3781L94.1911 46.0465C94.3195 46.0465 94.3194 46.1748 94.3194 46.1748C94.1911 46.8165 94.0628 47.3298 93.9345 47.9715C93.8061 48.0998 93.6778 48.3565 93.5495 48.3565L91.2394 49.3832C90.9828 49.5115 90.7261 49.7682 90.8544 50.0248L91.4961 52.4632C91.4961 52.8482 91.8811 53.1048 92.1378 52.9765ZM101.763 45.2765C103.688 44.7631 105.741 46.0465 106.254 47.9715C106.768 49.8965 105.484 51.9498 103.559 52.4632C101.634 52.9765 99.5811 51.6932 99.0678 49.7682C98.5545 47.8431 99.7095 45.7898 101.763 45.2765Z" fill="#E6F5F9"/>
</svg>
