<svg width="135" height="113" viewBox="0 0 135 113" fill="none" xmlns="http://www.w3.org/2000/svg">
<path d="M133.613 52.4718C136.098 68.7456 130.425 80.7923 128.493 84.7531C121.405 99.2749 108.799 107.047 98.2996 110.567C85.8079 114.753 74.8446 112.673 59.5052 105.317C45.5307 98.6148 29.7958 119.363 13.867 91.9916C-12.7625 46.2346 121.785 -24.9916 133.613 52.4718Z" fill="#F2F2F2"/>
<mask id="mask0_87_14519" style="mask-type:alpha" maskUnits="userSpaceOnUse" x="10" y="18" width="125" height="95">
<path d="M133.612 52.4718C136.096 68.7456 130.423 80.7923 128.492 84.7531C121.403 99.2749 108.798 107.047 98.2981 110.567C85.8065 114.753 74.8432 112.673 59.5037 105.317C45.5292 98.6148 29.7944 119.363 13.8655 91.9916C-12.7639 46.2346 121.784 -24.9916 133.612 52.4718Z" fill="#F2F2F2"/>
</mask>
<g mask="url(#mask0_87_14519)">
<path d="M20.1397 59.4656C24.8886 61.8232 25.1514 61.8273 30.5176 61.9197C38.8467 61.7552 46.6049 57.6047 48.9329 50.7035C49.4791 49.321 46.9398 48.036 46.1772 49.323C43.7162 53.6563 36.463 57.1892 30.3063 56.8967C26.5499 56.4731 27.1115 56.1501 23.9065 54.0525C19.1813 50.8609 15.1033 56.6824 20.1397 59.4656Z" fill="#66CCFF"/>
</g>
<mask id="mask1_87_14519" style="mask-type:alpha" maskUnits="userSpaceOnUse" x="10" y="18" width="125" height="95">
<path d="M133.612 52.4718C136.096 68.7456 130.423 80.7923 128.492 84.7531C121.403 99.2749 108.798 107.047 98.2981 110.567C85.8065 114.753 74.8432 112.673 59.5037 105.317C45.5292 98.6148 29.7944 119.363 13.8655 91.9916C-12.7639 46.2346 121.784 -24.9916 133.612 52.4718Z" fill="#F2F2F2"/>
</mask>
<g mask="url(#mask1_87_14519)">
<path d="M25.3319 74.1807C26.5913 82.37 28.2866 91.0631 29.5449 99.2584C29.7686 101.016 29.9922 103.755 30.1736 105.54C30.2354 106.138 30.2976 106.742 30.3601 107.351C32.7737 107.928 35.1688 107.961 37.5422 107.722C37.7936 105.201 38.0575 102.481 38.2131 100.669C38.6738 91.3678 38.1368 82.1079 37.6174 72.8368C36.8043 64.479 24.2694 65.8269 25.3319 74.1807Z" fill="#3C1205"/>
</g>
<mask id="mask2_87_14519" style="mask-type:alpha" maskUnits="userSpaceOnUse" x="10" y="18" width="125" height="95">
<path d="M133.612 52.4718C136.096 68.7456 130.423 80.7923 128.492 84.7531C121.403 99.2749 108.798 107.047 98.2981 110.567C85.8065 114.753 74.8432 112.673 59.5037 105.317C45.5292 98.6148 29.7944 119.363 13.8655 91.9916C-12.7639 46.2346 121.784 -24.9916 133.612 52.4718Z" fill="#DBF7FF"/>
</mask>
<g mask="url(#mask2_87_14519)">
<path d="M18.329 74.3094C18.8443 83.1945 20.1284 92.3487 20.417 101.269C22.9615 103.937 25.4936 105.615 28.0103 106.611L28.069 106.307C30.2384 95.6978 30.3177 84.7507 30.6856 73.9783C30.5784 65.5848 17.9766 65.8977 18.329 74.3094Z" fill="#5B382E"/>
</g>
<path d="M25.4599 39.9629C17.2225 38.9248 14.4678 46.4294 14.0649 54.1037C13.6732 61.5524 15.5015 69.0946 16.5197 73.5773C18.8477 83.8296 39.4335 82.3872 38.4616 70.1896C37.935 63.587 37.6485 59.727 35.001 52.5658C32.304 45.2623 29.4678 40.4708 25.4599 39.9629Z" fill="#0096C1"/>
<path d="M23.878 33.7865L21.51 40.3423C20.6442 43.0434 24.8497 44.0995 25.4002 41.3165L26.4775 34.86C26.7687 33.1691 24.4317 32.1742 23.878 33.7865Z" fill="#ECAE9B"/>
<path d="M24.1554 29.2788C24.549 30.0944 25.5389 30.4411 26.3664 30.0532C27.1939 29.6652 27.5457 28.6896 27.152 27.8739C26.7584 27.0582 25.7686 26.7115 24.9411 27.0994C24.9402 27.0999 24.9391 27.1004 24.9381 27.1008C24.112 27.4889 23.7613 28.4636 24.1551 29.2781C24.1552 29.2783 24.1553 29.2785 24.1554 29.2788Z" fill="#46302A"/>
<path d="M19.111 34.8266C25.1041 41.8123 31.529 35.7099 26.4577 29.2004C21.131 22.6131 13.7853 27.6101 19.111 34.8266Z" fill="#ECAE9B"/>
<path d="M18.9173 27.1302C20.6865 26.1662 22.7918 26.1871 23.9469 26.9685C25.5656 28.0668 25.5524 30.4323 22.2522 31.6417C19.9824 32.4731 20.259 34.1825 22.4816 36.7921C22.9404 37.3266 22.4857 37.8368 22.3758 37.8202C21.461 38.2036 21.2528 37.0722 20.7781 36.9428C20.1818 36.7849 19.4955 36.9767 18.7212 36.2932C18.2393 35.8652 18.3382 34.8476 18.0442 34.6034C16.2042 33.0104 16.8892 28.7187 18.9173 27.1302Z" fill="#46302A"/>
<path d="M17.1759 27.7057C15.1448 30.1634 16.1679 33.4221 18.04 34.6033C19.7914 33.0942 20.6981 32.1175 21.863 30.6748C22.9132 29.3408 23.8423 27.9182 24.6396 26.4237C22.4828 24.3464 19.2881 25.1488 17.1759 27.7057Z" fill="#0096C1"/>
<path d="M24.6121 26.397C25.822 25.9 26.6877 25.7074 27.2168 25.5321C28.0142 25.2705 28.0919 25.9093 27.4836 26.4795C27.0136 26.9134 26.5074 27.3074 25.9703 27.6575C25.0449 28.2699 24.0834 28.9455 22.6767 29.5974L24.6121 26.397Z" fill="#66CCFF"/>
<path d="M19.9193 34.6489C20.5361 35.3082 21.4643 35.3726 21.9868 34.7971C22.5093 34.2216 22.4395 33.2157 21.8238 32.5553C21.2081 31.895 20.2789 31.8317 19.7564 32.4082C19.2339 32.9848 19.3016 33.9887 19.9193 34.6489Z" fill="#ECAE9B"/>
<path d="M17.2353 50.2253C12.4303 48.3812 7.48486 46.3434 4.11379 42.2063C-0.733843 35.7108 0.690104 26.387 4.41092 19.6989C5.45896 17.8737 8.19384 19.1539 7.36188 21.0643C5.40378 26.4666 4.24957 33.7391 8.26376 38.3422C10.9113 40.9546 15.6034 42.0838 19.2561 42.9201C24.7207 44.0843 22.5605 51.9496 17.2353 50.2253Z" fill="#66CCFF"/>
<path d="M48.6393 46.1051C47.6983 46.095 47.1964 46.2748 46.8873 46.8091C46.6812 47.1605 46.2494 48.282 46.542 48.9361C47.3799 50.8092 49.6966 50.4131 50.4757 48.4059C51.091 46.8243 51.3352 46.1356 48.6393 46.1051Z" fill="#ECAE9B"/>
<path d="M3.30678 18.2962C2.98627 17.4841 2.97428 14.0139 3.73118 13.5602C4.32831 13.4888 5.16453 15.6561 5.57151 16.4497C5.89563 17.0732 6.30323 17.6519 6.67663 18.2432C6.98137 18.7306 7.4079 19.2998 7.38173 19.8954C7.35631 20.599 6.72024 21.4147 5.93992 21.3008C4.88546 21.015 3.7158 19.271 3.30678 18.2962Z" fill="#ECAE9B"/>
<path d="M83.9135 64.1409C82.7638 67.6732 84.6953 71.4687 88.2276 72.6183C91.7599 73.768 95.5554 71.8365 96.7051 68.3042C97.8548 64.7719 95.9233 60.9764 92.391 59.8268C88.8601 58.6764 85.0651 60.6062 83.9148 64.1371L83.9135 64.1409ZM76.8695 65.6022L74.0992 63.5542C73.805 63.3409 73.6836 62.9612 73.7996 62.6168L74.8398 59.4208C74.9471 59.073 75.2698 58.8368 75.6337 58.8394L79.0788 58.8144C79.6921 57.8819 80.4201 57.0302 81.2456 56.279L80.7344 52.873C80.6763 52.514 80.8587 52.159 81.1843 51.997L84.1819 50.4731C84.5038 50.3057 84.8972 50.367 85.153 50.6244L87.6068 53.0418C88.6995 52.8164 89.8162 52.7295 90.9306 52.7831L92.978 50.0114C93.1913 49.7176 93.571 49.5965 93.915 49.7128L97.1129 50.7536C97.4597 50.8619 97.6955 51.1833 97.6946 51.5466L97.7159 54.9873C98.6473 55.6027 99.4987 56.3315 100.25 57.1569L103.657 56.6511C104.015 56.5935 104.369 56.7756 104.531 57.1004L106.058 60.0929C106.226 60.4156 106.165 60.8094 105.907 61.0662L103.488 63.5185C103.713 64.6118 103.801 65.7289 103.749 66.8439L106.522 68.8928C106.818 69.1049 106.94 69.4858 106.822 69.8301L105.782 73.0242C105.673 73.3709 105.351 73.6063 104.988 73.6056L101.546 73.6275C100.932 74.5606 100.203 75.4128 99.3768 76.1642L99.8855 79.5683C99.9426 79.926 99.7604 80.2793 99.4358 80.4402L97.9374 81.2028L96.4383 81.9641C96.117 82.1343 95.722 82.0736 95.4665 81.8147L93.013 79.3963C91.9191 79.6227 90.8011 79.7116 89.6852 79.6611L87.6387 82.4299C87.4261 82.7255 87.0457 82.848 86.7004 82.7323L83.5054 81.6924C83.1583 81.5825 82.9232 81.2597 82.9249 80.8957L82.9002 77.4528C81.9685 76.8382 81.117 76.1099 80.3651 75.285L76.9601 75.7965C76.6012 75.8555 76.2462 75.6721 76.0866 75.3453L74.5602 72.349C74.3919 72.0279 74.453 71.6346 74.7108 71.3798L77.1301 68.9234C76.905 67.8316 76.8175 66.7158 76.8695 65.6022Z" fill="#CED3F4"/>
<path d="M91.3339 25.7917C89.8974 21.3799 85.1563 18.9679 80.7446 20.4044C76.3328 21.8409 73.9208 26.582 75.3574 30.9937C76.7938 35.4051 81.5341 37.8171 85.9457 36.3813C90.3569 34.9467 92.77 30.2077 91.3354 25.7964L91.3339 25.7917ZM97.3694 19.1422L101.672 19.1736C102.126 19.1721 102.529 19.4668 102.664 19.9004L103.964 23.8928C104.11 24.3233 103.958 24.7988 103.589 25.0644L100.128 27.6186C100.193 29.0111 100.083 30.4061 99.8002 31.7712L102.82 34.8351C103.142 35.1567 103.218 35.6499 103.007 36.053L101.101 39.7954C100.9 40.2011 100.459 40.4295 100.011 40.36L95.7648 39.7149C94.8273 40.7475 93.7637 41.658 92.5989 42.425L92.5697 46.728C92.5703 47.1819 92.2755 47.5833 91.8423 47.7185L87.848 49.0186C87.4182 49.1653 86.943 49.014 86.677 48.646L84.1234 45.1836C82.7307 45.2472 81.3354 45.137 79.9699 44.8558L76.9079 47.8753C76.5869 48.1952 76.0956 48.2702 75.6938 48.0605L71.9492 46.1573C71.5422 45.9548 71.3132 45.5121 71.383 45.0629L72.0221 40.8081C70.9907 39.8704 70.0805 38.8075 69.3127 37.6441L65.0109 37.6124C64.5564 37.6147 64.1538 37.3195 64.0195 36.8853L62.7223 32.8995C62.5763 32.4694 62.7278 31.9944 63.0958 31.7282L66.5579 29.1705C66.4919 27.7768 66.6017 26.3804 66.8848 25.0142L63.8634 21.9496C63.5428 21.6297 63.468 21.1383 63.6788 20.7374L64.6315 18.8653L65.581 16.9963C65.7791 16.5859 66.2242 16.3556 66.6735 16.4307L70.929 17.0686C71.8668 16.0373 72.9297 15.1271 74.0929 14.3592L74.125 10.0583C74.122 9.60299 74.4163 9.19899 74.8505 9.06216L78.8401 7.76367C79.2717 7.61962 79.7468 7.77287 80.013 8.14195L82.5685 11.6006C83.9615 11.5365 85.3571 11.6466 86.7229 11.928L89.7859 8.90824C90.1044 8.58431 90.5984 8.50908 90.999 8.72333L94.7427 10.6269C95.1498 10.8261 95.3788 11.268 95.307 11.7155L94.6701 15.9739C95.6987 16.913 96.6056 17.9773 97.3694 19.1422Z" fill="#CED3F4"/>
<mask id="mask3_87_14519" style="mask-type:luminance" maskUnits="userSpaceOnUse" x="95" y="9" width="27" height="96">
<path d="M99.1675 9.29089L121.916 10.2357L117.985 104.867L95.2373 103.922L99.1675 9.29089Z" fill="white"/>
</mask>
<g mask="url(#mask3_87_14519)">
<path d="M115.113 60.7602L113.768 96.8225C113.631 100.49 110.321 103.342 106.374 103.192C105.805 103.17 105.241 103.086 104.692 102.941C101.513 102.096 99.3555 99.3417 99.4734 96.2759L100.818 60.2184C100.853 59.2717 101.708 58.5355 102.726 58.5741L113.332 58.976C114.35 59.0173 115.145 59.8144 115.113 60.7602Z" fill="#0096C1"/>
<path d="M111.728 60.632L110.384 96.6904C110.269 99.7508 107.919 102.33 104.693 102.937C101.513 102.093 99.356 99.3377 99.4739 96.272L100.818 60.2146C100.853 59.2678 101.708 58.5316 102.727 58.5701L109.947 58.844C110.967 58.8853 111.763 59.6848 111.728 60.632Z" fill="#66CCFF"/>
<path d="M112.832 56.812L112.751 58.9548L103.299 58.5968L103.38 56.4522C103.397 55.9778 103.824 55.6077 104.335 55.6257L111.943 55.9138C112.452 55.9381 112.849 56.3384 112.832 56.812Z" fill="#0096C1"/>
<path d="M108.377 56.6434L108.297 58.7862L103.299 58.5969L103.381 56.4522C103.397 55.9778 103.824 55.6077 104.335 55.6257L107.489 55.7452C107.998 55.77 108.394 56.1702 108.377 56.6434Z" fill="#66CCFF"/>
<path d="M107.056 26.9139L111.363 27.0768L110.293 55.8515L105.985 55.6887L107.056 26.9139Z" fill="#3C1205"/>
<path d="M106.98 27.3029L110.152 27.4346L108.957 56.2044L105.785 56.0727L106.98 27.3029Z" fill="#3C1205"/>
<path d="M112.505 27.1262L105.728 26.8698C105.24 26.8509 104.859 26.4682 104.876 26.0149C104.877 25.983 104.88 25.9511 104.886 25.9196L106.994 13.2652C107.062 12.8554 107.449 12.5592 107.896 12.5751L111.406 12.7084C111.853 12.7253 112.217 13.0502 112.255 13.4645L113.414 26.243C113.455 26.6947 113.094 27.0893 112.609 27.1244C112.574 27.1269 112.539 27.1275 112.505 27.1262Z" fill="#3C1205"/>
</g>
<mask id="mask4_87_14519" style="mask-type:luminance" maskUnits="userSpaceOnUse" x="36" y="0" width="52" height="94">
<path d="M36.1094 0.582275L86.717 0.098741L87.6078 93.3286L37.0001 93.8121L36.1094 0.582275Z" fill="white"/>
</mask>
<g mask="url(#mask4_87_14519)">
<path d="M38.6122 7.9644L39.3844 88.788C39.4038 90.7538 41.0131 92.3318 42.9789 92.3124C42.9812 92.3124 42.9836 92.3123 42.9859 92.3123L81.28 91.9464C83.2458 91.9304 84.8265 90.3237 84.8105 88.3579C84.8105 88.3566 84.8105 88.3553 84.8105 88.354L84.0383 7.53037C84.019 5.56217 82.4079 3.98223 80.4397 4.00103L42.1456 4.36692C40.177 4.38403 38.595 5.99388 38.6122 7.9625L38.6122 7.9644Z" fill="#3C1205"/>
<path d="M61.3122 6.62445C61.6848 6.62029 61.9836 6.31486 61.9795 5.94225C61.9754 5.56963 61.6699 5.27078 61.2973 5.27494C60.9247 5.27909 60.6258 5.58453 60.63 5.95714C60.6329 6.32867 60.9366 6.62754 61.3082 6.62449C61.3095 6.62448 61.3109 6.62447 61.3122 6.62445Z" fill="#E6F5F9"/>
<path d="M82.4194 83.2687L81.7045 8.45124C81.6989 7.86252 81.217 7.38975 80.6283 7.39537L41.6794 7.76751C41.0904 7.77314 40.6175 8.25483 40.6225 8.84376L41.3373 83.6612C41.343 84.2505 41.8253 84.7237 42.4146 84.7181L81.3635 84.3459C81.9522 84.3403 82.425 83.8584 82.4194 83.2697L82.4194 83.2687Z" fill="#CED3F4"/>
<path d="M43.5798 10.3776L78.8454 10.0407C79.2864 10.0365 79.6474 10.3906 79.6516 10.8316L80.0673 54.3412C80.0715 54.7822 79.7174 55.1431 79.2764 55.1474L44.0108 55.4843C43.5698 55.4885 43.2088 55.1344 43.2046 54.6934L42.7889 11.1848C42.7841 10.7438 43.1378 10.3824 43.5788 10.3776L43.5798 10.3776Z" fill="white"/>
<path d="M82.4192 83.2687L82.1504 55.141L41.0654 55.5336L41.3342 83.6612C41.3392 84.25 41.8207 84.7232 42.4094 84.7181C42.4111 84.7181 42.4127 84.7181 42.4144 84.7181L81.3633 84.3459C81.9521 84.3403 82.4248 83.8584 82.4192 83.2697L82.4192 83.2687Z" fill="#CED3F4"/>
<path d="M43.9939 60.7265L59.8809 60.5747C60.2861 60.5709 60.6177 60.8962 60.6216 61.3014L60.774 77.2523C60.7778 77.6569 60.453 77.9881 60.0483 77.9919L44.1603 78.1437C43.7556 78.1476 43.4245 77.8227 43.4206 77.4181L43.2682 61.4672C43.2644 61.0624 43.5891 60.7309 43.9939 60.7265Z" fill="#0096C1"/>
<path d="M53.6464 70.3722C53.2099 70.3965 52.7619 70.6256 52.4343 71.0535C52.163 71.3922 52.042 71.8131 52.0961 72.2306L51.9664 72.1457C51.0368 71.5038 50.2555 70.6983 49.6675 69.7759C49.1307 68.9679 48.7563 68.0774 48.562 67.147C48.9579 67.3908 49.4433 67.4794 49.9109 67.3934C50.4674 67.301 50.8828 67.0254 51.0936 66.6713L50.2198 62.2789C49.8239 62.0412 49.3415 61.9576 48.8782 62.0467C48.4953 62.104 48.1433 62.2754 47.8763 62.5346C46.4867 63.6959 46.0514 65.3696 46.2928 67.1276C46.4638 68.3697 46.9858 69.6706 47.7467 70.8391C48.5075 72.0076 49.5106 73.0552 50.643 73.8154C52.3175 74.9369 54.2907 75.4442 56.2513 74.8352C56.6576 74.7331 57.0112 74.5012 57.2485 74.1809C57.5323 73.8327 57.6552 73.3953 57.5904 72.9645L53.6464 70.3722Z" fill="white"/>
<path d="M80.3655 51.1379L75.4744 51.1846L75.5165 55.5926L74.3856 55.6034L74.3435 51.1954L62.0739 51.3126L62.116 55.7206L60.6526 55.7346L60.6105 51.3266L48.832 51.4392L48.8741 55.8471L47.29 55.8622L47.2479 51.4543L42.3279 51.5013L42.317 50.3664L47.2371 50.3194L47.1609 42.3429L42.2408 42.3899L42.23 41.255L47.15 41.208L46.9999 25.4977L42.0709 25.5448L42.0569 24.0814L46.9859 24.0343L46.8538 10.2066L48.4409 10.1914L48.573 24.0192L55.8098 23.95L55.8238 25.4134L48.587 25.4825L48.7371 41.1928L60.5156 41.0803L60.4487 34.0771L61.912 34.0631L61.979 41.0663L74.2456 40.9491L74.0955 25.2388L66.1579 25.3146L66.144 23.8513L74.0815 23.7754L73.9494 9.94768L75.0833 9.93685L75.2154 23.7646L80.1065 23.7179L80.1205 25.1812L75.2294 25.2279L75.3795 40.9383L80.2706 40.8915L80.2814 42.0265L75.3903 42.0732L75.4665 50.0496L80.3576 50.0029L80.3685 51.1378L80.3655 51.1379ZM60.2717 15.8623L61.735 15.8484L61.6798 10.0649L60.2164 10.0789L60.2717 15.8623ZM74.2564 42.083L61.9868 42.2003L62.063 50.1767L74.3326 50.0595L74.2564 42.084L74.2564 42.083ZM48.8242 50.3042L60.6027 50.1917L60.5265 42.2152L48.748 42.3278L48.8242 50.3042Z" fill="#CED3F4"/>
<path d="M61.8784 15.7678C56.1446 15.5846 53.79 21.1641 55.0664 24.5387L58.5284 33.6809C59.0718 35.1145 59.6819 36.4943 61.2144 36.5432C62.7469 36.5922 63.4438 35.2542 64.0777 33.8583L68.1165 24.9558C69.6067 21.6727 67.6133 15.9512 61.8784 15.7678ZM61.7997 18.2302C64.2242 18.3105 66.1245 20.3408 66.0442 22.7653C65.9639 25.1896 63.9336 27.0901 61.5091 27.0098C59.0867 26.9295 57.187 24.9022 57.2645 22.4797C57.342 20.0551 59.3702 18.1525 61.7947 18.23C61.7964 18.2301 61.798 18.2301 61.7997 18.2302Z" fill="#3C1205"/>
</g>
</svg>
