<svg width="115" height="80" viewBox="0 0 115 80" fill="none" xmlns="http://www.w3.org/2000/svg">
<path d="M72.2035 76.8294H38.5801L41.4034 48.7242H69.3801L72.2035 76.8294Z" fill="#025A82"/>
<path d="M76.182 76.8322H34.4736V79.2705H76.182V76.8322Z" fill="#025A82"/>
<path d="M96.5871 7.78796H14.0686C11.8869 7.78796 9.96191 9.58464 9.96191 11.8947V16.3864V59.635V64.1267C9.96191 66.3084 11.7586 68.2334 14.0686 68.2334H96.5871C98.8971 68.2334 100.694 66.4367 100.694 64.1267V59.635V16.3864V11.8947C100.694 9.58464 98.8971 7.78796 96.5871 7.78796Z" fill="#025A82"/>
<path d="M37.425 45.9061L56.6751 31.0193L73.7434 34.9977C73.7434 34.9977 92.8652 20.3676 97.4852 16.7742V14.4642C97.4852 13.0526 96.3302 12.0259 95.0468 12.0259H15.7367C14.4533 12.0259 13.2983 13.1809 13.2983 14.4642V48.9861L23.3084 40.6444L37.425 45.9061Z" fill="#FA7564"/>
<path d="M73.744 35.1262L56.6757 31.1478L37.4256 46.0346L23.4373 40.7729L13.4272 49.1146V58.3547C13.4272 59.638 14.5822 60.793 15.8656 60.793H95.0474C96.3307 60.793 97.4857 59.638 97.4857 58.3547V16.9027C92.8657 20.4961 74.129 35.2545 73.744 35.1262Z" fill="#E55D4C"/>
<path d="M76.1807 34.8705C76.1807 33.4588 75.0257 32.3038 73.614 32.3038C72.2024 32.3038 71.0474 33.4588 71.0474 34.8705C71.0474 36.2822 72.2024 37.4372 73.614 37.4372C75.0257 37.4372 76.1807 36.2822 76.1807 34.8705Z" fill="white"/>
<path d="M59.6265 31.2757C59.6265 29.864 58.4715 28.709 57.0598 28.709C55.6482 28.709 54.4932 29.864 54.4932 31.2757C54.4932 32.6873 55.6482 33.8424 57.0598 33.8424C58.4715 33.9707 59.6265 32.8157 59.6265 31.2757Z" fill="white"/>
<path d="M39.7359 45.7788C39.7359 44.3672 38.5809 43.2122 37.1692 43.2122C35.7575 43.2122 34.6025 44.3672 34.6025 45.7788C34.6025 47.1905 35.7575 48.3455 37.1692 48.3455C38.5809 48.3455 39.7359 47.1905 39.7359 45.7788Z" fill="white"/>
<path d="M25.875 41.2862C25.875 39.8745 24.72 38.7195 23.3084 38.7195C21.8967 38.7195 20.7417 39.8745 20.7417 41.2862C20.7417 42.6978 21.8967 43.8529 23.3084 43.8529C24.72 43.8529 25.875 42.6978 25.875 41.2862Z" fill="white"/>
<path d="M73.6151 34.1012L56.9318 30.1229C56.6751 29.9945 56.2901 30.1229 56.1618 30.2512L37.1684 44.8813L23.6934 39.7479C23.3084 39.6196 23.0517 39.6196 22.795 39.8763L13.2983 47.5763V48.988V49.8863C13.4267 49.8863 13.6833 49.758 13.8117 49.6297L23.565 41.673L37.0401 46.8063C37.2967 46.9347 37.6817 46.9347 37.9384 46.678L56.8034 32.0479L73.3584 35.8979C74.0001 36.1546 74.2568 36.1546 97.3568 18.4445V16.0061C87.9885 23.3212 75.6685 32.6896 73.6151 34.1012Z" fill="white"/>
<path d="M13.8115 31.6544L15.4799 28.446C15.4799 28.3177 15.6082 28.1894 15.6082 28.1894C16.5066 28.1894 17.2766 28.1894 18.1749 28.061C18.4316 28.061 18.6882 28.3177 18.8166 28.5744L20.9982 31.3977C21.2549 31.7827 21.6399 31.9111 22.0249 31.6544L25.2332 29.986C25.6182 29.7294 25.7466 29.3444 25.4899 28.9594L24.4632 25.4943C24.4632 25.366 24.3349 25.2377 24.3349 25.1093C24.9766 24.596 25.6182 23.9543 26.1316 23.1843C26.3882 23.056 26.6449 22.9277 26.9016 23.056L30.4949 23.441C30.8799 23.5693 31.2649 23.3127 31.3932 22.9277L32.4199 19.4626C32.5482 19.0776 32.2916 18.6926 31.9066 18.5643L28.6982 16.896C28.5699 16.896 28.4416 16.7676 28.4416 16.7676C28.4416 15.8693 28.4416 15.0993 28.3132 14.2009C28.3132 13.9443 28.5699 13.6876 28.8266 13.5593L31.6499 11.3776C32.0349 11.1209 32.1632 10.7359 31.9066 10.3509L30.2382 7.14255C29.9816 6.75755 29.5966 6.62921 29.2116 6.88588L25.7466 8.04089C25.6182 8.04089 25.4899 8.16922 25.3616 8.16922C24.8482 7.52755 24.2066 6.88588 23.4366 6.37254C23.3082 6.11587 23.1799 5.85921 23.3082 5.60254L23.6932 2.00918C23.8216 1.62418 23.5649 1.23917 23.1799 1.11084L19.7149 0.0841648C19.3299 -0.0441694 18.9449 0.212499 18.8166 0.597501L17.1482 3.80586C17.1482 3.93419 17.0199 4.06253 17.0199 4.06253C16.1216 4.06253 15.3516 4.06253 14.4532 4.19086C14.1965 4.19086 13.9399 3.93419 13.8115 3.67752L11.6299 0.854171C11.3732 0.469168 10.9882 0.340833 10.6032 0.597501L7.39487 2.26585C7.00987 2.52252 6.88153 2.90752 7.1382 3.29252L8.16487 6.75755C8.16487 6.88588 8.2932 7.01421 8.2932 7.14255C7.65153 7.65589 7.00987 8.29756 6.49653 9.06756C6.23987 9.1959 5.9832 9.32423 5.72653 9.1959L2.13319 8.81089C1.74819 8.68256 1.36319 8.93923 1.23486 9.32423L0.208188 12.7893C0.0798545 13.1743 0.336521 13.5593 0.721522 13.6876L3.92986 15.3559C4.05819 15.3559 4.18653 15.4843 4.18653 15.4843C4.18653 16.3826 4.18653 17.1526 4.31486 18.051C4.31486 18.3076 4.05819 18.5643 3.80153 18.6926L0.978189 20.8743C0.593188 21.131 0.464855 21.516 0.721522 21.901L2.38986 25.1093C2.64653 25.4943 3.03153 25.6227 3.41653 25.366L6.88153 24.211C7.00987 24.211 7.1382 24.0827 7.26653 24.0827C7.77987 24.7243 8.42154 25.366 9.19154 25.8793C9.31987 26.136 9.44821 26.3927 9.31987 26.6494L8.93487 30.2427C8.80654 30.6277 9.0632 31.0127 9.4482 31.1411L12.9132 32.1677C13.2982 32.2961 13.6832 32.0394 13.8115 31.6544ZM11.3732 14.5859C12.2715 11.8909 15.0949 10.3509 17.7899 11.1209C20.4849 12.0192 22.0249 14.8426 21.2549 17.5376C20.3566 20.2326 17.5332 21.7727 14.8382 21.0026C12.1432 20.2326 10.6032 17.281 11.3732 14.5859Z" fill="#E6F5F9"/>
<path d="M91.711 52.4462L94.2777 52.3179C94.406 52.3179 94.406 52.3179 94.5344 52.3179C94.791 52.8312 95.176 53.3446 95.561 53.8579C95.6894 53.9862 95.6894 54.2429 95.561 54.4996L94.6627 56.9379C94.5344 57.1946 94.5344 57.5796 94.791 57.7079L96.9727 58.9913C97.2294 59.1196 97.6144 59.1196 97.7427 58.863L99.411 56.9379C99.411 56.8096 99.5394 56.8096 99.5394 56.8096C100.181 56.9379 100.694 57.0663 101.336 57.1946C101.464 57.3229 101.721 57.4513 101.721 57.5796L102.748 59.7613C102.876 60.018 103.133 60.2746 103.389 60.1463L105.828 59.5046C106.084 59.3763 106.341 59.1196 106.213 58.863L106.084 56.2963C106.084 56.1679 106.084 56.1679 106.084 56.0396C106.598 55.7829 107.111 55.3979 107.624 55.0129C107.753 54.8846 108.009 54.8846 108.266 55.0129L110.704 55.9113C110.961 56.0396 111.346 56.0396 111.474 55.7829L112.758 53.6012C112.886 53.3446 112.886 52.9596 112.629 52.8312L110.704 51.1629C110.576 51.1629 110.576 51.0346 110.576 51.0346C110.704 50.3929 110.833 49.8796 110.961 49.2379C111.089 49.1095 111.218 48.8529 111.346 48.8529L113.656 47.8262C113.913 47.6979 114.169 47.4412 114.041 47.1845L113.399 44.7462C113.271 44.4895 113.014 44.2328 112.758 44.3612L110.191 44.4895C110.063 44.4895 110.063 44.4895 109.934 44.4895C109.678 43.9762 109.293 43.4628 108.908 42.9495C108.779 42.8212 108.779 42.5645 108.908 42.3078L109.806 39.8695C109.934 39.6128 109.934 39.2278 109.678 39.0995L107.496 37.8161C107.239 37.6878 106.854 37.6878 106.726 37.9445L105.058 39.8695C105.058 39.9978 104.929 39.9978 104.929 39.9978C104.288 39.8695 103.774 39.7411 103.133 39.6128C103.004 39.4845 102.748 39.3561 102.748 39.2278L101.721 36.9178C101.593 36.6611 101.336 36.4045 101.079 36.5328L98.641 37.1745C98.3844 37.3028 98.1277 37.5595 98.256 37.8161L98.3844 40.3828C98.3844 40.5112 98.3844 40.5111 98.3844 40.6395C97.871 40.8962 97.3577 41.2812 96.8444 41.6662C96.716 41.7945 96.4594 41.7945 96.2027 41.6662L93.7644 40.7678C93.5077 40.6395 93.1227 40.6395 92.9944 40.8962L91.711 43.0778C91.5827 43.3345 91.5827 43.7195 91.8394 43.8478L93.7644 45.5162C93.8927 45.5162 93.8927 45.6445 93.8927 45.6445C93.7644 46.2862 93.636 46.7995 93.5077 47.4412C93.3794 47.5695 93.251 47.8262 93.1227 47.8262L90.8127 48.8529C90.556 48.9812 90.2994 49.2379 90.4277 49.4945L91.0694 51.9329C91.0694 52.3179 91.4544 52.5746 91.711 52.4462ZM101.336 44.7462C103.261 44.2328 105.314 45.5162 105.828 47.4412C106.341 49.3662 105.058 51.4196 103.133 51.9329C101.208 52.4462 99.1544 51.1629 98.641 49.2379C98.1277 47.3129 99.2827 45.2595 101.336 44.7462Z" fill="#E6F5F9"/>
</svg>
