<svg width="36" height="36" viewBox="0 0 36 36" fill="none" xmlns="http://www.w3.org/2000/svg">
<path fill-rule="evenodd" clip-rule="evenodd" d="M26.6673 22.556V6.49959H10.6107C9.80458 6.49959 9.15108 7.15309 9.15108 7.95925V22.8052C9.61992 22.6398 10.1136 22.5555 10.6107 22.556H26.6673ZM6.23169 7.95925V28.3948C6.23169 30.8133 8.19227 32.7739 10.6107 32.7739H29.5866V26.9351H28.1269V29.8545H10.6107C9.80458 29.8545 9.15108 29.201 9.15108 28.3948V26.9351C9.15108 26.1289 9.80458 25.4754 10.6107 25.4754H29.5866V3.5802H10.6107C8.19227 3.5802 6.23169 5.54078 6.23169 7.95925ZM16.4495 19.6367V13.7979H19.3688V19.6367H16.4495ZM17.9092 12.3383C18.7153 12.3383 19.3688 11.6848 19.3688 10.8786C19.3688 10.0725 18.7153 9.4189 17.9092 9.4189C17.103 9.4189 16.4495 10.0725 16.4495 10.8786C16.4495 11.6848 17.103 12.3383 17.9092 12.3383ZM10.6107 26.9351H26.6673V28.3948H10.6107V26.9351Z" fill="#0096C1"/>
</svg>
