<svg width="49" height="49" viewBox="0 0 49 49" fill="none" xmlns="http://www.w3.org/2000/svg">
<rect x="0.981445" y="1.1095" width="47.2031" height="46.6855" rx="6.21094" stroke="#AEAEAE" stroke-width="0.828125"/>
<path d="M20.7012 16.5851H35.4521M20.7012 24.4523H29.5518M20.7012 32.3195H35.4521M15.7842 32.3195C15.7842 32.5803 15.6806 32.8304 15.4961 33.0148C15.3117 33.1992 15.0616 33.3029 14.8008 33.3029C14.54 33.3029 14.2898 33.1992 14.1054 33.0148C13.921 32.8304 13.8174 32.5803 13.8174 32.3195C13.8174 32.0586 13.921 31.8085 14.1054 31.6241C14.2898 31.4397 14.54 31.3361 14.8008 31.3361C15.0616 31.3361 15.3117 31.4397 15.4961 31.6241C15.6806 31.8085 15.7842 32.0586 15.7842 32.3195ZM15.7842 24.4523C15.7842 24.7131 15.6806 24.9632 15.4961 25.1476C15.3117 25.3321 15.0616 25.4357 14.8008 25.4357C14.54 25.4357 14.2898 25.3321 14.1054 25.1476C13.921 24.9632 13.8174 24.7131 13.8174 24.4523C13.8174 24.1915 13.921 23.9413 14.1054 23.7569C14.2898 23.5725 14.54 23.4689 14.8008 23.4689C15.0616 23.4689 15.3117 23.5725 15.4961 23.7569C15.6806 23.9413 15.7842 24.1915 15.7842 24.4523ZM15.7842 16.5851C15.7842 16.8459 15.6806 17.096 15.4961 17.2805C15.3117 17.4649 15.0616 17.5685 14.8008 17.5685C14.54 17.5685 14.2898 17.4649 14.1054 17.2805C13.921 17.096 13.8174 16.8459 13.8174 16.5851C13.8174 16.3243 13.921 16.0741 14.1054 15.8897C14.2898 15.7053 14.54 15.6017 14.8008 15.6017C15.0616 15.6017 15.3117 15.7053 15.4961 15.8897C15.6806 16.0741 15.7842 16.3243 15.7842 16.5851Z" stroke="#001E27" stroke-width="1.9668" stroke-linecap="round"/>
</svg>
