<svg width="129" height="42" viewBox="0 0 129 42" fill="none" xmlns="http://www.w3.org/2000/svg">
<path d="M23.9778 30.3095C23.4789 30.607 22.913 30.7737 22.3326 30.7942C20.8989 30.8932 19.5719 30.4715 18.2563 29.9767C16.1197 29.1749 13.9618 28.4687 11.7049 28.0886C9.42774 27.7052 7.16523 27.7175 4.91958 28.2832C4.5901 28.3664 4.49114 28.2832 4.38656 27.9694C3.46898 25.2818 3.07282 22.4437 3.21932 19.6076C3.37226 16.5961 4.26287 13.8029 5.76859 11.194C7.65551 7.91719 10.1306 5.22736 13.4737 3.39328C15.8217 2.1046 18.3451 1.38379 20.9967 1.07455C27.0207 0.372852 32.2418 2.19231 36.7803 6.12022C36.8691 6.19781 36.9591 6.27428 37.0423 6.35749C37.4921 6.80729 37.518 7.37967 37.0738 7.83172C34.98 9.96229 32.8809 12.0872 30.7765 14.2066C30.4212 14.563 29.9039 14.5338 29.4789 14.1526C28.5523 13.3283 27.5402 12.6514 26.3572 12.2848C20.006 10.2753 14.9851 14.5597 14.1664 19.5232C13.3691 24.3586 16.5515 29.0355 21.3183 30.043C22.1696 30.223 23.0422 30.2106 23.9778 30.3095Z" fill="#0095C0"/>
<path d="M8.72711 29.0916C11.1021 29.0601 13.3275 29.6674 15.5315 30.3983C17.0676 30.9066 18.5677 31.5363 20.1521 31.8815C21.6432 32.2065 23.1141 32.1998 24.5231 31.5071C25.8725 30.8436 26.6147 29.7731 26.7305 28.2696C26.8081 27.2654 26.9014 27.2081 27.846 27.5499L35.8615 30.4377C36.5902 30.7008 36.8151 31.0235 36.8061 31.8107C36.778 34.0665 36.2124 36.1299 34.6414 37.8302C33.292 39.2921 31.5895 40.1129 29.7037 40.6021C27.1173 41.2768 24.531 41.0924 21.957 40.4964C19.573 39.9443 17.3094 39.0188 15.0131 38.1979C10.4401 36.5629 5.86936 34.9226 1.30085 33.2771C1.11003 33.2176 0.93059 33.1263 0.770086 33.0072C0.207832 32.5574 0.187591 32.2852 0.701491 31.8039C2.1195 30.4782 3.83662 29.7675 5.71006 29.3863C6.70166 29.1762 7.7136 29.0774 8.72711 29.0916Z" fill="#0095C0"/>
<path d="M36.4897 22.9517C36.5459 24.9241 36.6707 26.8942 36.6595 28.87C36.6595 29.3119 36.4616 29.4727 36.0275 29.3198C34.8322 28.9037 33.6424 28.4697 32.4516 28.0412L27.7185 26.341C26.8583 26.0306 26.6592 25.7304 26.6705 24.8229C26.7031 22.2422 27.5555 20.0224 29.5256 18.2895C30.9796 17.0109 32.7035 16.3239 34.5859 15.973C34.8483 15.9059 35.12 15.8827 35.3899 15.9044C35.8487 15.9696 36.2322 16.4363 36.2558 16.9626C36.2985 17.9611 36.3536 18.9586 36.3683 19.9571C36.3829 20.9557 36.3683 21.9532 36.3683 22.9506L36.4897 22.9517Z" fill="#0095C0"/>
<path d="M58.8422 20.8322C58.1063 20.7728 57.4679 20.7092 56.8274 20.6774C55.555 20.6138 55.4362 19.6636 55.3747 18.7241C55.2877 17.3838 55.7055 16.5843 56.6875 16.5376C58.5962 16.4506 60.5049 16.4719 62.4136 16.5376C62.5995 16.5409 62.783 16.5809 62.9534 16.6554C63.1238 16.7299 63.2778 16.8374 63.4065 16.9716C63.5352 17.1058 63.6361 17.2642 63.7034 17.4376C63.7706 17.611 63.803 17.7959 63.7985 17.9819C63.8578 20.162 63.9681 22.3592 63.7624 24.5202C63.6903 25.2752 62.8823 26.1172 62.193 26.6283C59.3321 28.7491 54.4182 28.5667 51.4088 26.3441C47.5575 23.5044 46.2977 18.1748 48.5033 14.0351C50.6453 10.0162 55.6313 8.0693 59.9132 9.62171C60.8019 9.96983 61.6457 10.4234 62.4263 10.9727C63.4528 11.6619 63.5821 12.4572 62.9968 13.5536C61.9788 15.4475 60.876 15.7847 59.0924 14.7498C57.2049 13.6597 55.1626 13.9248 53.6356 15.4602C52.2826 16.8218 52.062 19.1546 53.1267 20.8682C54.2464 22.6667 56.363 23.551 58.278 22.9148C59.4381 22.5309 58.7022 21.5957 58.8422 20.8322Z" fill="#002D3A"/>
<path d="M108.212 14.8875C108.212 13.4666 108.193 12.0881 108.212 10.7138C108.242 8.95782 108.848 8.44035 110.757 8.44671C112.577 8.44671 113.139 8.97055 113.143 10.7308C113.156 15.5195 113.156 20.3076 113.143 25.0949C113.143 26.0005 113.332 27.0587 112.278 27.5126C111.164 27.9919 109.987 28.0322 108.859 27.4087C108.628 27.2668 108.352 27.2147 108.085 27.2623C104.518 28.503 101.298 26.9633 100.036 23.394C98.5265 19.1037 101.788 14.2534 106.085 14.4422C106.764 14.4719 107.423 14.7158 108.212 14.8875ZM108.163 21.1227C108.139 20.6637 107.944 20.2305 107.615 19.9088C107.287 19.5872 106.85 19.4005 106.39 19.3857C106.161 19.3854 105.935 19.4306 105.723 19.5187C105.512 19.6067 105.32 19.7359 105.159 19.8987C104.998 20.0615 104.871 20.2546 104.785 20.4669C104.7 20.6792 104.657 20.9064 104.66 21.1354C104.676 21.5952 104.866 22.0318 105.191 22.3576C105.516 22.6833 105.952 22.874 106.412 22.8914C106.871 22.8675 107.306 22.673 107.63 22.3459C107.954 22.0188 108.144 21.5826 108.163 21.1227Z" fill="#002D3A"/>
<path d="M92.9826 19.0974C93.4428 17.8737 93.7864 16.9151 94.166 15.9692C94.8023 14.385 95.7969 13.8972 97.2115 14.4423C98.9526 15.1146 99.4383 16.0859 98.7787 17.738C97.6441 20.5756 96.4798 23.4026 95.3091 26.2211C94.885 27.2497 94.1575 27.9517 92.9763 27.9305C91.8459 27.9135 91.1481 27.2349 90.7282 26.2529C90.3253 25.3134 89.9626 24.3548 89.5045 23.2117C89.0973 24.2912 88.7814 25.1756 88.4314 26.0451C88.0073 27.1055 87.3413 27.9241 86.0986 27.9305C84.8134 27.9305 84.1071 27.15 83.6554 26.0218C82.5399 23.2648 81.3862 20.5077 80.2622 17.7507C79.5729 16.0329 79.9631 15.1527 81.6301 14.5144C83.297 13.876 84.1411 14.2429 84.8346 15.9756C85.2184 16.93 85.579 17.8949 86.0286 19.055C86.4188 17.9946 86.7327 17.1208 87.0699 16.2513C87.494 15.1739 88.196 14.4317 89.4239 14.3808C90.5607 14.3362 91.426 14.9661 91.9222 16.2089C92.2573 17.0699 92.5542 17.9373 92.9826 19.0974Z" fill="#002D3A"/>
<path d="M120.43 22.8978C121.607 24.0515 122.912 23.8373 124.201 23.4386C125.94 22.9 126.773 23.2563 127.316 24.8553C127.785 26.2402 127.2 27.2921 125.556 27.7587C123.537 28.3313 121.474 28.4267 119.438 27.8329C116.426 26.9549 114.403 23.8395 114.719 20.6625C115.077 17.036 117.476 14.4592 120.869 14.2175C122.011 14.1218 123.16 14.2106 124.273 14.4804C126.593 15.0827 128.09 17.2141 128.09 19.6149C128.09 21.8035 126.949 22.9212 124.752 22.9C123.319 22.8851 121.883 22.8978 120.43 22.8978ZM123.056 19.8821L123.297 19.5088C122.975 19.2458 122.687 18.8238 122.328 18.7496C121.399 18.5629 120.67 18.9511 120.135 19.8821H123.056Z" fill="#002D3A"/>
<path d="M72.241 20.3189C73.0109 18.6393 73.6853 17.1378 74.3809 15.6532C75.1189 14.0732 75.9291 13.8124 77.6236 14.5822C79.176 15.2884 79.5196 16.1495 78.8346 17.687C76.7223 22.4334 74.6015 27.1776 72.4722 31.9196C72.1308 32.6831 71.766 33.6926 70.765 33.4848C69.764 33.2769 68.7502 32.7298 67.8637 32.1466C67.605 31.9769 67.5901 31.1222 67.7492 30.6853C68.2561 29.2877 68.9453 27.958 69.4607 26.5625C69.6177 26.0935 69.5866 25.5818 69.3737 25.1352C67.9804 22.673 66.5043 20.2574 65.0707 17.8207C64.2223 16.3912 64.4917 15.5747 66.042 14.6395C67.5096 13.7615 68.4703 13.9651 69.3143 15.369C70.2666 16.9554 71.1955 18.5375 72.241 20.3189Z" fill="#002D3A"/>
</svg>
