<svg width="195" height="61" viewBox="0 0 195 61" fill="none" xmlns="http://www.w3.org/2000/svg">
<path d="M35.9659 44.6909C35.2072 45.1433 34.3465 45.3969 33.4636 45.428C31.2829 45.5785 29.2647 44.9372 27.2635 44.1846C24.0138 42.9651 20.7316 41.891 17.2989 41.3129C13.8354 40.7296 10.3941 40.7484 6.97846 41.6088C6.47732 41.7353 6.3268 41.6088 6.16774 41.1316C4.7721 37.0437 4.16953 32.727 4.39237 28.4132C4.62498 23.8328 5.9796 19.5843 8.26979 15.6162C11.1398 10.6321 14.9043 6.54093 19.9893 3.7513C23.5606 1.79121 27.3986 0.69486 31.4317 0.224506C40.5942 -0.842768 48.5355 1.92462 55.4385 7.89896C55.5737 8.01698 55.7105 8.13328 55.8371 8.25985C56.5212 8.944 56.5605 9.81458 55.8849 10.5022C52.7002 13.7427 49.5075 16.9748 46.3068 20.1983C45.7664 20.7405 44.9796 20.696 44.3331 20.1162C42.9237 18.8625 41.3844 17.8328 39.5851 17.2752C29.9249 14.2188 22.288 20.7353 21.0429 28.2849C19.8302 35.6395 24.6706 42.753 31.9209 44.2855C33.2156 44.5592 34.5429 44.5404 35.9659 44.6909Z" fill="white"/>
<path d="M12.7696 42.8384C16.382 42.7905 19.7668 43.7141 23.1191 44.8258C25.4555 45.5989 27.7371 46.5567 30.1471 47.0818C32.415 47.5761 34.6522 47.5658 36.7953 46.5123C38.8478 45.5031 39.9766 43.8749 40.1528 41.5881C40.2708 40.0607 40.4127 39.9735 41.8495 40.4934L54.041 44.8857C55.1493 45.2859 55.4914 45.7768 55.4777 46.9741C55.435 50.4051 54.5747 53.5436 52.1853 56.1297C50.1328 58.3532 47.5433 59.6018 44.675 60.3458C40.7411 61.372 36.8073 61.0915 32.8922 60.185C29.2662 59.3452 25.8232 57.9376 22.3307 56.689C15.3751 54.2021 8.42301 51.7072 1.47432 49.2044C1.18407 49.1139 0.91115 48.9751 0.667024 48.7939C-0.188165 48.1097 -0.218951 47.6958 0.562691 46.9638C2.71947 44.9473 5.33122 43.8663 8.18071 43.2865C9.68894 42.967 11.2281 42.8167 12.7696 42.8384Z" fill="white"/>
<path d="M54.9967 33.4999C55.0822 36.4999 55.2721 39.4965 55.255 42.5017C55.255 43.1738 54.954 43.4184 54.2937 43.1858C52.4756 42.553 50.666 41.8928 48.8547 41.2411L41.6558 38.655C40.3473 38.183 40.0446 37.7263 40.0617 36.346C40.1113 32.4207 41.4078 29.0444 44.4044 26.4087C46.6159 24.464 49.2379 23.419 52.101 22.8854C52.5001 22.7833 52.9134 22.748 53.324 22.781C54.0218 22.8802 54.605 23.59 54.641 24.3905C54.7059 25.9093 54.7898 27.4264 54.812 28.9452C54.8342 30.464 54.812 31.9811 54.812 33.4982L54.9967 33.4999Z" fill="white"/>
<path d="M88.9935 30.2758C87.8742 30.1855 86.9032 30.0887 85.9291 30.0403C83.9936 29.9435 83.813 28.4984 83.7194 27.0694C83.5872 25.0308 84.2227 23.8147 85.7162 23.7437C88.6193 23.6115 91.5224 23.6437 94.4256 23.7437C94.7084 23.7487 94.9874 23.8097 95.2466 23.9229C95.5058 24.0362 95.74 24.1997 95.9358 24.4038C96.1316 24.608 96.285 24.8489 96.3874 25.1126C96.4897 25.3763 96.5388 25.6576 96.532 25.9404C96.6223 29.2565 96.79 32.5983 96.4771 35.8853C96.3675 37.0337 95.1385 38.3143 94.0901 39.0917C89.7386 42.3174 82.2646 42.04 77.6874 38.6594C71.8295 34.3402 69.9134 26.234 73.2681 19.9374C76.5261 13.8247 84.1098 10.8635 90.6225 13.2247C91.9743 13.7542 93.2576 14.444 94.4449 15.2795C96.0062 16.3278 96.2029 17.5374 95.3126 19.2051C93.7643 22.0857 92.0869 22.5986 89.3741 21.0244C86.5032 19.3664 83.3969 19.7696 81.0744 22.1051C79.0164 24.176 78.6809 27.7243 80.3002 30.3306C82.0034 33.066 85.2226 34.4111 88.1354 33.4434C89.8999 32.8596 88.7806 31.437 88.9935 30.2758Z" fill="white"/>
<path d="M164.085 21.2341C164.085 19.0728 164.056 16.9761 164.085 14.8859C164.13 12.215 165.052 11.4279 167.956 11.4376C170.723 11.4376 171.578 12.2343 171.584 14.9117C171.604 22.1953 171.604 29.4779 171.584 36.7594C171.584 38.1368 171.872 39.7464 170.268 40.4367C168.575 41.1657 166.785 41.227 165.069 40.2787C164.717 40.0629 164.298 39.9837 163.891 40.0561C158.466 41.9431 153.569 39.6013 151.65 34.1724C149.353 27.6468 154.314 20.2696 160.849 20.5567C161.882 20.6018 162.885 20.9728 164.085 21.2341ZM164.011 30.7177C163.974 30.0195 163.676 29.3607 163.177 28.8715C162.677 28.3822 162.013 28.0983 161.314 28.0758C160.966 28.0753 160.621 28.1441 160.299 28.278C159.978 28.412 159.686 28.6084 159.441 28.856C159.196 29.1036 159.003 29.3974 158.873 29.7203C158.742 30.0432 158.677 30.3888 158.682 30.737C158.706 31.4364 158.995 32.1005 159.489 32.596C159.983 33.0914 160.647 33.3815 161.346 33.4079C162.045 33.3716 162.706 33.0758 163.199 32.5782C163.691 32.0807 163.981 31.4173 164.011 30.7177Z" fill="white"/>
<path d="M140.921 27.6372C141.621 25.776 142.144 24.3179 142.721 22.8793C143.689 20.4697 145.202 19.7277 147.353 20.5568C150.001 21.5793 150.74 23.0567 149.737 25.5695C148.011 29.8855 146.24 34.1854 144.46 38.4724C143.815 40.0368 142.708 41.1045 140.911 41.0723C139.192 41.0465 138.131 40.0142 137.492 38.5207C136.879 37.0918 136.328 35.6337 135.631 33.8951C135.012 35.537 134.531 36.8821 133.999 38.2046C133.354 39.8175 132.341 41.0626 130.45 41.0723C128.496 41.0723 127.421 39.8852 126.734 38.1691C125.038 33.9757 123.283 29.7823 121.573 25.5889C120.525 22.976 121.118 21.6374 123.654 20.6664C126.189 19.6955 127.473 20.2535 128.528 22.8889C129.112 24.3405 129.66 25.8082 130.344 27.5727C130.937 25.9598 131.415 24.6308 131.928 23.3083C132.573 21.6696 133.641 20.5406 135.508 20.4632C137.237 20.3955 138.553 21.3535 139.308 23.2438C139.818 24.5534 140.269 25.8727 140.921 27.6372Z" fill="white"/>
<path d="M182.668 33.4177C184.458 35.1725 186.442 34.8467 188.403 34.2403C191.048 33.421 192.316 33.9629 193.142 36.3951C193.855 38.5015 192.964 40.1014 190.464 40.8111C187.393 41.682 184.255 41.8272 181.158 40.924C176.578 39.5885 173.5 34.85 173.981 30.0178C174.526 24.5019 178.174 20.5826 183.336 20.2149C185.072 20.0694 186.82 20.2044 188.513 20.6149C192.042 21.531 194.319 24.7728 194.319 28.4243C194.319 31.7533 192.584 33.4532 189.242 33.421C187.061 33.3984 184.877 33.4177 182.668 33.4177ZM186.661 28.8308L187.029 28.2631C186.539 27.8631 186.1 27.2211 185.555 27.1082C184.142 26.8244 183.032 27.4147 182.219 28.8308H186.661Z" fill="white"/>
<path d="M109.374 29.4952C110.545 26.9405 111.57 24.6567 112.628 22.3987C113.751 19.9955 114.983 19.5987 117.561 20.7697C119.922 21.8438 120.444 23.1535 119.402 25.4921C116.19 32.7113 112.964 39.9272 109.725 47.1399C109.206 48.3011 108.651 49.8366 107.129 49.5205C105.606 49.2043 104.064 48.3721 102.716 47.485C102.322 47.227 102.3 45.927 102.542 45.2625C103.313 43.1368 104.361 41.1142 105.145 38.9917C105.384 38.2783 105.336 37.5 105.013 36.8208C102.893 33.0758 100.648 29.4017 98.4676 25.6953C97.1773 23.5212 97.5869 22.2793 99.9449 20.8568C102.177 19.5213 103.638 19.831 104.922 21.9664C106.371 24.3793 107.783 26.7856 109.374 29.4952Z" fill="white"/>
</svg>
