<svg width="48" height="34" viewBox="0 0 48 34" fill="none" xmlns="http://www.w3.org/2000/svg">
<path d="M46.8117 5.90059C46.5411 4.89346 46.0134 3.97528 45.2811 3.2375C44.5488 2.49972 43.6374 1.96808 42.6377 1.69551C38.9777 0.689941 24.2476 0.689941 24.2476 0.689941C24.2476 0.689941 9.51669 0.720379 5.85672 1.72595C4.85699 1.99853 3.94557 2.53021 3.21325 3.26802C2.48092 4.00583 1.95324 4.92404 1.68275 5.93121C0.575693 12.4824 0.146246 22.465 1.71315 28.7541C1.98367 29.7613 2.51136 30.6794 3.24369 31.4172C3.97601 32.155 4.88741 32.6866 5.88712 32.9592C9.54709 33.9648 24.2776 33.9648 24.2776 33.9648C24.2776 33.9648 39.0079 33.9648 42.6677 32.9592C43.6675 32.6867 44.5789 32.155 45.3113 31.4173C46.0436 30.6795 46.5713 29.7613 46.8419 28.7541C48.0095 22.1936 48.3694 12.2172 46.8117 5.90059Z" fill="#FF0000"/>
<path d="M19.5581 24.4577L31.7779 17.3274L19.5581 10.1971V24.4577Z" fill="white"/>
</svg>
