<svg width="66" height="78" viewBox="0 0 66 78" fill="none" xmlns="http://www.w3.org/2000/svg">
<path d="M53.6276 45.8976H49.9539C50.0619 45.1953 50.1159 44.4929 50.1159 43.7366C50.1159 36.4972 44.2272 30.6084 36.9878 30.6084C31.8554 30.6084 27.4253 33.5798 25.2643 37.8478C24.1297 37.4156 22.8871 37.1455 21.5905 37.1455C16.4581 37.1455 12.2441 40.9273 11.5418 45.8976H6.46341C3.05981 45.8976 0.250488 48.6529 0.250488 52.1105V52.2186C0.250488 55.6222 3.00578 58.4315 6.46341 58.4315H7.86807V60.1063H9.11067V72.0459C7.86808 72.4241 7.00366 73.5586 7.00366 74.9092C7.00366 76.53 8.3543 77.8806 9.97506 77.8806C11.5958 77.8806 12.9465 76.53 12.9465 74.9092C12.9465 73.5586 12.028 72.37 10.7314 72.0459V60.1603H12.1901V58.4855H17.6467V60.1603H18.9433V66.2652C17.7007 66.6433 16.8363 67.7779 16.8363 69.1285C16.8363 70.7493 18.1869 72.0999 19.8077 72.0999C21.4285 72.0999 22.7791 70.7493 22.7791 69.1285C22.7791 67.7239 21.8066 66.5893 20.564 66.2652V60.1603H21.9687V58.4855H27.4253V60.1603H28.7219V72.0999C27.5333 72.4781 26.6149 73.6126 26.6149 74.9633C26.6149 76.584 27.9655 77.9347 29.5863 77.9347C31.2071 77.9347 32.5577 76.584 32.5577 74.9633C32.5577 73.5586 31.5852 72.4241 30.3426 72.0999V60.2143H31.7473V58.5395H37.2039V60.2143H38.5005V62.7535C37.3119 63.1317 36.4475 64.2662 36.4475 65.6169C36.4475 67.2376 37.7981 68.5883 39.4189 68.5883C41.0397 68.5883 42.3903 67.2376 42.3903 65.6169C42.3903 64.2122 41.4179 63.0777 40.1212 62.7535V60.2143H41.5259V58.5395H46.9825V60.2143H48.3331V66.4272C47.1445 66.8054 46.2801 67.94 46.2801 69.2366C46.2801 70.8573 47.6308 72.208 49.2515 72.208C50.8723 72.208 52.2229 70.8573 52.2229 69.2366C52.2229 67.8319 51.2505 66.6433 49.9539 66.3732V60.2143H51.3045V58.5395H53.6276C57.0312 58.5395 59.8405 55.7842 59.8405 52.3266V52.2186C59.8405 48.6529 57.0852 45.8976 53.6276 45.8976ZM37.7981 49.8955C33.314 49.8955 29.6943 46.2758 29.6943 41.7917C29.6943 37.3075 33.314 33.6878 37.7981 33.6878C42.2823 33.6878 45.902 37.3075 45.902 41.7917C45.902 46.2758 42.2823 49.8955 37.7981 49.8955Z" fill="#015477"/>
<path d="M37.7982 36.0649C34.6647 36.0649 32.1255 38.6041 32.1255 41.7376C32.1255 44.8711 34.6647 47.4103 37.7982 47.4103C40.9316 47.4103 43.4708 44.8711 43.4708 41.7376C43.5248 38.6041 40.9316 36.0649 37.7982 36.0649ZM37.7982 46.3838C35.259 46.3838 33.206 44.3308 33.206 41.7916C33.206 39.2524 35.259 37.1995 37.7982 37.1995C40.3373 37.1995 42.3903 39.2524 42.3903 41.7916C42.4443 44.2768 40.3373 46.3838 37.7982 46.3838Z" fill="#015477"/>
<path d="M57.7877 16.2375C55.7887 16.2375 54.168 17.8583 54.168 19.8573C54.168 21.8562 55.7887 23.477 57.7877 23.477C59.7866 23.477 61.4074 21.8562 61.4074 19.8573C61.4074 17.8583 59.7866 16.2375 57.7877 16.2375ZM57.7877 22.3964C56.383 22.3964 55.2485 21.2619 55.2485 19.8573C55.2485 18.4526 56.383 17.3181 57.7877 17.3181C59.1923 17.3181 60.3269 18.4526 60.3269 19.8573C60.3269 21.2619 59.1923 22.3964 57.7877 22.3964Z" fill="#015477"/>
<path d="M57.8418 11.6455C57.3555 11.6455 56.9233 11.6995 56.4371 11.7536L51.0346 6.35103C50.6024 3.27158 48.0091 0.948486 44.8217 0.948486C42.6606 0.948486 40.7698 2.02899 39.6352 3.70378H28.1278C27.4255 3.21755 26.5071 2.8934 25.5886 2.8934C23.1575 2.8934 21.1585 4.89234 21.1585 7.32348C21.1585 7.75569 21.2126 8.18789 21.3746 8.62009L18.6193 11.3754C17.6469 10.565 16.4583 10.1328 15.2157 10.1328C11.596 10.1328 8.67866 13.9686 8.67866 18.7228C8.67866 19.6413 8.78671 20.5597 9.00281 21.4241H13.8651V23.5311L6.8418 29.744V34.8764H9.54307V31.2567L15.2157 26.3404L20.8884 31.2567V34.8224H23.5897V29.69L16.5664 23.4771V21.3701H21.4287C21.6448 20.5057 21.7528 19.6413 21.7528 18.6688C21.7528 17.0481 21.3746 15.5353 20.7803 14.1847L23.6977 11.2673C24.292 11.5375 24.9403 11.6995 25.5886 11.6995C26.6691 11.6995 27.6416 11.3214 28.452 10.6731H39.6892C40.8238 12.3478 42.7147 13.4284 44.8757 13.4284C44.9297 13.4284 44.9837 13.4284 45.0378 13.4284L49.9001 18.2906C49.846 18.7228 49.792 19.2091 49.792 19.6953C49.792 20.1815 49.846 20.6137 49.9001 21.0459L42.3365 28.6095C45.578 29.744 48.3873 31.9591 50.2782 34.7684L50.6564 35.4167L58.328 27.7451C62.596 27.529 65.9996 23.9633 65.9996 19.6413C65.9996 15.3192 62.3259 11.6455 57.8418 11.6455ZM25.5886 9.80865C24.238 9.80865 23.1575 8.72814 23.1575 7.37751C23.1575 6.02687 24.238 4.94637 25.5886 4.94637C26.9393 4.94637 28.0198 6.02687 28.0198 7.37751C28.0198 8.72814 26.9393 9.80865 25.5886 9.80865ZM44.8757 11.5915C42.4445 11.5915 40.4996 9.64658 40.4996 7.21543C40.4996 4.78429 42.4445 2.83938 44.8757 2.83938C47.3068 2.83938 49.2517 4.78429 49.2517 7.21543C49.2517 9.64658 47.2528 11.5915 44.8757 11.5915ZM57.8418 25.422C54.7083 25.422 52.2231 22.8828 52.2231 19.8034C52.2231 16.6699 54.7623 14.1847 57.8418 14.1847C60.9753 14.1847 63.4604 16.7239 63.4604 19.8034C63.5144 22.8828 60.9753 25.422 57.8418 25.422Z" fill="#015477"/>
</svg>
