<svg width="48" height="48" viewBox="0 0 48 48" fill="none" xmlns="http://www.w3.org/2000/svg">
<path d="M26.2365 17.9692H37.0448L26.2365 7.16096V17.9692ZM12.4806 4.21326H28.2017L39.9925 16.0041V39.5857C39.9925 40.6281 39.5784 41.6278 38.8413 42.3648C38.1042 43.1019 37.1046 43.516 36.0622 43.516H12.4806C11.4382 43.516 10.4385 43.1019 9.70144 42.3648C8.96437 41.6278 8.55029 40.6281 8.55029 39.5857V8.14353C8.55029 7.10116 8.96437 6.10148 9.70144 5.36441C10.4385 4.62734 11.4382 4.21326 12.4806 4.21326ZM22.1687 24.7293C22.9744 26.4979 23.9963 27.9521 25.1753 28.9543L25.981 29.5832C24.2714 29.8976 21.9132 30.4478 19.4175 31.4107L19.2013 31.4893L20.1839 29.4456C21.0682 27.7359 21.7167 26.1835 22.1687 24.7293ZM34.9028 32.2164C35.2565 31.8627 35.4333 31.4107 35.453 30.9195C35.512 30.5264 35.4137 30.153 35.2172 29.8386C34.6473 28.915 33.1734 28.4827 30.7367 28.4827L28.2017 28.6202L26.492 27.4805C25.2539 26.4586 24.1338 24.6703 23.3478 22.4497L23.4264 22.1746C24.0749 19.561 24.6841 16.3971 23.3871 15.1001C23.2284 14.9461 23.0408 14.825 22.835 14.7441C22.6292 14.6631 22.4094 14.6238 22.1883 14.6285H21.7167C20.9896 14.6285 20.3411 15.3949 20.1642 16.1416C19.4371 18.7553 19.8695 20.1898 20.5966 22.5676V22.5873C20.1053 24.3166 19.4764 26.321 18.4742 28.3451L16.5877 31.8824L14.8387 32.8453C12.4806 34.3191 11.3604 35.9699 11.1443 37.0114C11.0657 37.3848 11.105 37.7188 11.2425 38.0725L11.3015 38.1708L12.2447 38.78L13.1094 38.9962C14.7012 38.9962 16.5091 37.1293 18.9459 32.9632L19.2996 32.8256C21.3237 32.1771 23.839 31.7252 27.2191 31.3518C29.2432 32.354 31.621 32.806 33.1145 32.806C33.9791 32.806 34.5687 32.5898 34.9028 32.2164ZM34.0971 30.8212L34.2739 31.0374C34.2543 31.2339 34.1953 31.2535 34.0971 31.2928H34.0184L33.6451 31.3321C32.7411 31.3321 31.3459 30.9588 29.9113 30.3299C30.0882 30.1334 30.1668 30.1334 30.3633 30.1334C33.1145 30.1334 33.9005 30.6247 34.0971 30.8212ZM16.0768 33.6903C14.7994 36.0288 13.64 37.3258 12.7557 37.6206C12.8539 36.8738 13.7383 35.5768 15.1335 34.2995L16.0768 33.6903ZM22.0115 20.1112C21.5595 18.3426 21.5398 16.908 21.8739 16.0827L22.0115 15.8469L22.3062 15.9451C22.6403 16.4167 22.6796 17.0456 22.4831 18.1068L22.4242 18.4212L22.1097 20.0326L22.0115 20.1112Z" fill="#EF5350"/>
</svg>
