<svg width="112" height="105" viewBox="0 0 112 105" fill="none" xmlns="http://www.w3.org/2000/svg">
<path d="M12.5394 36.4959C15.0506 41.272 18.7435 45.4573 22.781 49.1994C23.9135 50.2335 25.5876 51.6614 27.3602 53.0893C27.3602 53.0893 27.3603 53.0893 27.311 53.0893C30.9054 56.0436 34.8445 59.0472 34.8445 59.0472C34.8938 59.0472 34.8938 59.0964 34.8938 59.0964C34.943 59.0964 43.9045 52.7446 47.4496 49.6918C51.6349 46.0974 55.4755 42.0598 58.1837 37.3821C63.206 28.7161 58.4299 15.6186 46.9573 14.4369C42.6243 13.9938 37.1095 16.2588 35.7308 20.0009C34.4999 16.2095 27.8526 13.7476 23.5196 14.043C11.9978 14.7323 7.86173 27.6821 12.5394 36.4959ZM24.7999 34.4278C24.7999 34.1324 25.046 33.9354 25.2922 33.9354C26.1293 33.9354 26.9663 33.9354 27.8034 33.9354C29.4775 33.9354 31.1024 33.9354 32.7765 33.9354C32.7765 33.7385 32.7765 33.4923 32.7765 33.2953C32.7765 31.0304 32.7765 28.7654 32.7765 26.5004C32.7765 26.205 33.0227 26.008 33.2689 26.008C34.6968 26.008 36.0755 26.008 37.5034 26.008C37.7989 26.008 37.9958 26.2542 37.9958 26.5004C37.9958 27.3374 37.9958 28.1745 37.9958 29.0116C37.9958 30.6857 37.9958 32.3106 37.9958 33.9847C38.1928 33.9847 38.439 33.9847 38.6359 33.9847C40.9009 33.9847 43.1659 33.9847 45.4308 33.9847C45.7263 33.9847 45.9232 34.2309 45.9232 34.4771C45.9232 35.905 45.9232 37.2837 45.9232 38.7116C45.9232 39.007 45.677 39.204 45.4308 39.204C44.5938 39.204 43.7567 39.204 42.9197 39.204C41.2456 39.204 39.6207 39.204 37.9466 39.204C37.9466 39.4009 37.9466 39.6471 37.9466 39.8441C37.9466 42.1091 37.9466 44.374 37.9466 46.639C37.9466 46.7867 37.8973 46.9344 37.7988 46.9837C37.7004 47.0822 37.6019 47.1314 37.4542 47.1314C36.0263 47.1314 34.6476 47.1314 33.2197 47.1314C32.9242 47.1314 32.7273 46.8852 32.7273 46.639C32.7273 45.802 32.7273 44.9649 32.7273 44.1278C32.7273 42.4537 32.7273 40.8289 32.7273 39.1547C32.5303 39.1547 32.2841 39.1547 32.0872 39.1547C29.8222 39.1547 27.5572 39.1547 25.2922 39.1547C25.1445 39.1547 24.9968 39.1055 24.9476 39.007C24.8491 38.9086 24.7999 38.8101 24.7999 38.6623C24.7999 37.2344 24.7999 35.8065 24.7999 34.4278Z" fill="#CE1B75"/>
<path d="M99.8414 5.37697C92.9973 5.0323 87.1871 10.3008 86.8424 17.145C86.547 23.3983 90.9293 28.8146 96.9364 29.9471L95.6069 55.8959C94.7699 56.1913 94.179 56.8314 94.1298 57.7669C94.0805 59.2441 93.9328 60.7705 93.7851 62.2477C93.5881 63.8725 93.3912 65.4482 93.0957 67.0731C92.9973 67.5162 92.948 68.0086 92.8495 68.4517C92.8495 68.501 92.8495 68.5502 92.8495 68.5502V68.5994C92.8003 68.8456 92.7511 69.1411 92.7018 69.3873C92.4556 70.4213 92.2587 71.406 91.9633 72.4401C90.7815 76.8715 89.2551 81.2045 86.9409 85.3406C86.8424 85.5376 86.6947 85.7345 86.5963 85.9807C86.6455 85.8822 86.3993 86.3254 86.3008 86.4731C85.9561 87.0147 85.6115 87.5564 85.2668 88.098C84.5775 89.0828 83.8881 90.0675 83.0511 91.003C82.6572 91.4462 82.3125 91.8894 81.9186 92.2833C81.7216 92.4802 81.5247 92.6772 81.3277 92.8741C81.18 93.0218 81.0815 93.1203 80.9338 93.268C80.8846 93.3173 80.7861 93.4157 80.7368 93.465C79.8998 94.2528 78.9642 94.9914 78.0287 95.6807C77.5363 96.0254 77.0439 96.3701 76.5516 96.6655C76.3054 96.8132 76.0592 96.9609 75.813 97.1087C76.4531 96.7147 75.4191 97.3056 75.2221 97.4041C74.0896 97.9949 72.8587 98.4873 71.5785 98.9305C71.4307 98.9797 71.3322 99.029 71.1845 99.0782H71.1353C70.8399 99.1767 70.5444 99.2259 70.249 99.3244C69.5104 99.5213 68.8211 99.669 68.0825 99.7675C67.3932 99.866 66.7038 99.9645 66.0145 100.014C65.9652 100.014 65.916 100.014 65.8175 100.014C65.8668 100.014 65.916 100.014 66.0145 100.014C65.916 100.014 65.8175 100.014 65.719 100.014C65.6698 100.014 65.6698 100.014 65.6698 100.014C65.6206 100.014 65.6206 100.014 65.5713 100.014C65.1282 100.014 64.6358 100.063 64.1927 100.063C62.5678 100.112 60.9429 99.9645 59.318 99.8168C59.318 99.8168 59.318 99.8168 59.2688 99.8168C59.1211 99.8168 58.9733 99.7675 58.8256 99.7675C58.481 99.7183 58.1363 99.6691 57.7916 99.6198C57.0038 99.4721 56.216 99.2752 55.4281 99.0782C54.788 98.9305 54.1972 98.7335 53.6063 98.5366H53.5571C53.5571 98.5366 53.5571 98.5366 53.5079 98.5366C53.3601 98.4873 53.2617 98.4381 53.1139 98.3888C52.72 98.2411 52.3753 98.0934 51.9814 97.9457C51.4398 97.6995 50.8982 97.4533 50.3566 97.2071C50.0611 97.0594 49.7657 96.9117 49.5195 96.764C49.3718 96.6655 48.584 96.2223 48.7809 96.3208C47.7961 95.6807 46.8606 94.9914 45.9743 94.2528C45.5804 93.9081 45.1373 93.5142 44.7926 93.1696C44.6941 93.0711 44.1525 92.5294 44.3494 92.7264C44.1525 92.5294 43.9556 92.2833 43.7586 92.0863C42.1337 90.2645 40.8535 88.2949 39.7702 86.2761C39.7702 86.2269 39.721 86.1777 39.721 86.1284C39.6718 86.0792 39.6718 85.9807 39.6225 85.9807C39.5241 85.7345 39.3763 85.4883 39.2779 85.2914C39.0317 84.7497 38.7855 84.1589 38.5393 83.6172C38.0961 82.534 37.7022 81.4508 37.3083 80.3675C37.2098 80.1213 37.1606 79.8751 37.0621 79.6289C42.3799 79.235 47.5007 77.167 51.7845 73.9665C64.6358 64.2172 70.0521 47.1806 70.1013 31.572C70.1505 22.9059 70.1013 14.1907 70.1013 5.52469C70.1013 3.50591 68.5749 2.47188 66.9992 2.37341C66.95 2.37341 66.9008 2.37341 66.8515 2.37341C64.7835 2.37341 62.7647 2.37341 60.6967 2.37341V0.748535H52.3754C51.5383 0.748535 50.8489 1.43788 50.8489 2.27494V5.32773C50.8489 6.16478 51.5383 6.85413 52.3754 6.85413H60.6967V5.42621C61.6815 5.42621 62.617 5.42621 63.6018 5.42621C63.6018 5.47545 63.6018 5.52468 63.6018 5.57392C63.6018 13.5013 63.6018 21.4288 63.6018 29.3562C63.6018 41.8628 61.0414 55.0096 52.4246 64.6111C48.4855 68.9934 43.3154 72.5385 37.3083 73.1294C31.4489 73.671 25.7372 71.406 21.355 67.6147C11.1133 58.7025 7.17423 44.374 7.17423 31.2273C7.17423 22.709 7.17423 14.1415 7.17423 5.62316C7.17423 5.57392 7.17423 5.52469 7.17423 5.47545C8.01129 5.47545 8.89759 5.47545 9.73465 5.47545V6.90337H18.056C18.8931 6.90337 19.5824 6.21403 19.5824 5.37697V2.32418C19.5824 1.48712 18.8931 0.797777 18.056 0.797777H9.73465V2.42265C7.66662 2.42265 5.64783 2.42265 3.57981 2.42265C3.43209 2.42265 3.28438 2.47189 3.18591 2.52113C1.80722 2.76732 0.625488 3.80133 0.625488 5.62316C0.625488 13.8953 0.625488 22.1674 0.625488 30.4887C0.625488 44.7187 4.46612 59.5888 14.4616 70.1259C18.8931 74.8035 24.5555 78.201 30.8581 79.3827C32.7291 86.2269 36.0281 92.9234 42.2814 97.9949C51.2921 105.332 66.9008 107.252 77.9302 101.737C88.4673 96.5178 93.5881 86.7685 96.5424 77.7579C97.8719 73.6218 98.8074 69.4365 99.4475 65.202C99.7922 62.9862 100.088 60.7213 100.137 58.5055C100.137 58.407 100.137 58.3086 100.137 58.2101C100.137 57.373 99.6445 56.7329 98.9552 56.3883L100.285 30.4395C106.39 29.9471 111.314 24.974 111.61 18.7207C111.954 11.5318 106.686 5.72164 99.8414 5.37697ZM107.72 18.179C107.523 22.3151 104.371 25.6141 100.432 26.1557L100.58 22.9552L97.281 22.8075L97.1333 26.008C93.2927 25.0232 90.4861 21.4288 90.7323 17.342C90.9785 12.6643 94.9668 9.02063 99.6445 9.26682C104.371 9.46378 107.966 13.4521 107.72 18.179Z" fill="#416FAB"/>
</svg>
