<svg width="49" height="49" viewBox="0 0 49 49" fill="none" xmlns="http://www.w3.org/2000/svg">
<rect x="1.0127" y="0.850708" width="47.2031" height="47.2031" rx="6.21094" stroke="#AEAEAE" stroke-width="0.828125"/>
<path fill-rule="evenodd" clip-rule="evenodd" d="M14.7538 10.8158H14.6489C14.1685 10.8158 13.7552 10.8158 13.3901 10.9018C12.825 11.0368 12.3084 11.3257 11.8973 11.7363C11.4863 12.147 11.197 12.6634 11.0615 13.2284C10.9775 13.5934 10.9775 14.0046 10.9775 14.4871V19.7319C10.9775 20.2124 10.9775 20.6257 11.0636 20.9907C11.1986 21.5558 11.4874 22.0725 11.8981 22.4835C12.3087 22.8945 12.8252 23.1838 13.3901 23.3194C13.7552 23.4033 14.1664 23.4033 14.6489 23.4033H19.8937C20.3741 23.4033 20.7874 23.4033 21.1524 23.3173C21.7175 23.1822 22.2342 22.8934 22.6452 22.4828C23.0563 22.0721 23.3456 21.5557 23.4811 20.9907C23.565 20.6257 23.565 20.2145 23.565 19.7319V14.4871C23.565 14.0067 23.565 13.5934 23.479 13.2284C23.344 12.6633 23.0551 12.1466 22.6445 11.7356C22.2338 11.3246 21.7174 11.0353 21.1524 10.8997C20.7874 10.8158 20.3762 10.8158 19.8937 10.8158H14.7538ZM13.879 12.9431C13.9692 12.9221 14.1097 12.9137 14.7538 12.9137H19.7888C20.4349 12.9137 20.5734 12.92 20.6636 12.9431C20.8521 12.9881 21.0244 13.0845 21.1614 13.2216C21.2984 13.3586 21.3948 13.5309 21.4398 13.7193C21.4608 13.8074 21.4671 13.9459 21.4671 14.592V19.627C21.4671 20.2732 21.4608 20.4117 21.4378 20.5019C21.3927 20.6903 21.2963 20.8626 21.1593 20.9996C21.0223 21.1367 20.85 21.233 20.6615 21.2781C20.5755 21.297 20.437 21.3054 19.7888 21.3054H14.7538C14.1076 21.3054 13.9692 21.2991 13.879 21.276C13.6905 21.2309 13.5182 21.1346 13.3812 20.9975C13.2442 20.8605 13.1478 20.6882 13.1027 20.4998C13.0838 20.4138 13.0755 20.2753 13.0755 19.627V14.592C13.0755 13.9459 13.0817 13.8074 13.1048 13.7172C13.1499 13.5288 13.2463 13.3565 13.3833 13.2195C13.5203 13.0824 13.6926 12.9861 13.8811 12.941M29.4392 10.8158H29.3343C28.8539 10.8158 28.4406 10.8158 28.0756 10.9018C27.5105 11.0368 26.9938 11.3257 26.5827 11.7363C26.1717 12.147 25.8824 12.6634 25.7469 13.2284C25.663 13.5934 25.663 14.0046 25.663 14.4871V19.7319C25.663 20.2124 25.663 20.6257 25.749 20.9907C25.884 21.5558 26.1728 22.0725 26.5835 22.4835C26.9942 22.8945 27.5106 23.1838 28.0756 23.3194C28.4406 23.4033 28.8518 23.4033 29.3343 23.4033H34.5791C35.0595 23.4033 35.4728 23.4033 35.8379 23.3173C36.403 23.1822 36.9196 22.8934 37.3307 22.4828C37.7417 22.0721 38.031 21.5557 38.1665 20.9907C38.2505 20.6257 38.2505 20.2145 38.2505 19.7319V14.4871C38.2505 14.0067 38.2505 13.5934 38.1644 13.2284C38.0294 12.6633 37.7406 12.1466 37.3299 11.7356C36.9193 11.3246 36.4028 11.0353 35.8379 10.8997C35.4728 10.8158 35.0616 10.8158 34.5791 10.8158H29.4392ZM28.5644 12.9431C28.6546 12.9221 28.7951 12.9137 29.4392 12.9137H34.4742C35.1204 12.9137 35.2588 12.92 35.349 12.9431C35.5375 12.9881 35.7098 13.0845 35.8468 13.2216C35.9838 13.3586 36.0802 13.5309 36.1253 13.7193C36.1462 13.8074 36.1525 13.9459 36.1525 14.592V19.627C36.1525 20.2732 36.1441 20.4117 36.1232 20.5019C36.0781 20.6903 35.9817 20.8626 35.8447 20.9996C35.7077 21.1367 35.5354 21.233 35.3469 21.2781C35.2588 21.2991 35.1204 21.3054 34.4742 21.3054H29.4392C28.793 21.3054 28.6546 21.2991 28.5644 21.276C28.3759 21.2309 28.2036 21.1346 28.0666 20.9975C27.9296 20.8605 27.8332 20.6882 27.7881 20.4998C27.7693 20.4138 27.7609 20.2753 27.7609 19.627V14.592C27.7609 13.9459 27.7672 13.8074 27.7902 13.7172C27.8353 13.5288 27.9317 13.3565 28.0687 13.2195C28.2057 13.0824 28.378 12.9861 28.5665 12.941M14.6489 25.5012H19.8937C20.3741 25.5012 20.7874 25.5012 21.1524 25.5872C21.7175 25.7223 22.2342 26.0111 22.6452 26.4218C23.0563 26.8324 23.3456 27.3488 23.4811 27.9138C23.565 28.2789 23.565 28.69 23.565 29.1726V34.4174C23.565 34.8978 23.565 35.3111 23.479 35.6761C23.344 36.2412 23.0551 36.7579 22.6445 37.1689C22.2338 37.5799 21.7174 37.8693 21.1524 38.0048C20.7874 38.0887 20.3762 38.0887 19.8937 38.0887H14.6489C14.1685 38.0887 13.7552 38.0887 13.3901 38.0027C12.825 37.8677 12.3084 37.5788 11.8973 37.1682C11.4863 36.7575 11.197 36.2411 11.0615 35.6761C10.9775 35.3111 10.9775 34.8999 10.9775 34.4174V29.1726C10.9775 28.6921 10.9775 28.2789 11.0636 27.9138C11.1986 27.3487 11.4874 26.832 11.8981 26.421C12.3087 26.01 12.8252 25.7207 13.3901 25.5851C13.7552 25.5012 14.1664 25.5012 14.6489 25.5012ZM14.7538 27.5991C14.1076 27.5991 13.9692 27.6054 13.879 27.6285C13.6905 27.6736 13.5182 27.77 13.3812 27.907C13.2442 28.044 13.1478 28.2163 13.1027 28.4047C13.0838 28.4907 13.0755 28.6292 13.0755 29.2775V34.3125C13.0755 34.9586 13.0817 35.0971 13.1048 35.1873C13.1499 35.3757 13.2463 35.548 13.3833 35.6851C13.5203 35.8221 13.6926 35.9185 13.8811 35.9635C13.9692 35.9845 14.1076 35.9908 14.7538 35.9908H19.7888C20.4349 35.9908 20.5734 35.9824 20.6636 35.9614C20.8521 35.9164 21.0244 35.82 21.1614 35.683C21.2984 35.5459 21.3948 35.3737 21.4398 35.1852C21.4608 35.0971 21.4671 34.9586 21.4671 34.3125V29.2775C21.4671 28.6313 21.4608 28.4928 21.4378 28.4026C21.3927 28.2142 21.2963 28.0419 21.1593 27.9049C21.0223 27.7679 20.85 27.6715 20.6615 27.6264C20.5755 27.6075 20.437 27.5991 19.7888 27.5991H14.7538ZM29.4392 25.5012H29.3343C28.8539 25.5012 28.4406 25.5012 28.0756 25.5872C27.5105 25.7223 26.9938 26.0111 26.5827 26.4218C26.1717 26.8324 25.8824 27.3488 25.7469 27.9138C25.663 28.2789 25.663 28.69 25.663 29.1726V34.4174C25.663 34.8978 25.663 35.3111 25.749 35.6761C25.884 36.2412 26.1728 36.7579 26.5835 37.1689C26.9942 37.5799 27.5106 37.8693 28.0756 38.0048C28.4406 38.0908 28.8539 38.0908 29.3343 38.0908H34.5791C35.0595 38.0908 35.4728 38.0908 35.8379 38.0048C36.4026 37.8694 36.9188 37.5804 37.3294 37.1698C37.7401 36.7592 38.0291 36.2429 38.1644 35.6782C38.2505 35.3132 38.2505 34.8999 38.2505 34.4195V29.1747C38.2505 28.6942 38.2505 28.281 38.1644 27.9159C38.0297 27.3504 37.7411 26.8333 37.3304 26.4219C36.9197 26.0105 36.4031 25.7208 35.8379 25.5851C35.4728 25.5012 35.0616 25.5012 34.5791 25.5012H29.4392ZM28.5644 27.6285C28.6546 27.6075 28.7951 27.5991 29.4392 27.5991H34.4742C35.1204 27.5991 35.2588 27.6054 35.349 27.6285C35.5375 27.6736 35.7098 27.77 35.8468 27.907C35.9838 28.044 36.0802 28.2163 36.1253 28.4047C36.1462 28.4928 36.1525 28.6313 36.1525 29.2775V34.3125C36.1525 34.9586 36.1441 35.0971 36.1232 35.1873C36.0781 35.3757 35.9817 35.548 35.8447 35.6851C35.7077 35.8221 35.5354 35.9185 35.3469 35.9635C35.2588 35.9845 35.1204 35.9908 34.4742 35.9908H29.4392C28.793 35.9908 28.6546 35.9824 28.5644 35.9614C28.3759 35.9164 28.2036 35.82 28.0666 35.683C27.9296 35.5459 27.8332 35.3737 27.7881 35.1852C27.7693 35.0992 27.7609 34.9607 27.7609 34.3125V29.2775C27.7609 28.6313 27.7672 28.4928 27.7902 28.4026C27.8353 28.2142 27.9317 28.0419 28.0687 27.9049C28.2057 27.7679 28.378 27.6715 28.5665 27.6264" fill="#001E27"/>
</svg>
