<svg width="51" height="51" viewBox="0 0 51 51" fill="none" xmlns="http://www.w3.org/2000/svg">
<path fill-rule="evenodd" clip-rule="evenodd" d="M39.6672 3.28732C39.4598 3.09814 39.2169 2.95193 38.9527 2.85713C38.6885 2.76234 38.4081 2.72083 38.1277 2.73501C37.8474 2.7492 37.5726 2.81879 37.3193 2.93977C37.066 3.06075 36.8392 3.23072 36.6519 3.43986C36.4647 3.64901 36.3207 3.89318 36.2284 4.15827C36.136 4.42337 36.0971 4.70413 36.1139 4.98434C36.1307 5.26456 36.2028 5.53867 36.3262 5.79085C36.4495 6.04303 36.6215 6.26827 36.8324 6.45357C39.3972 8.74746 41.2055 11.7657 42.0184 15.1092C42.8312 18.4528 42.6102 21.9643 41.3847 25.1796C40.1592 28.3949 37.9868 31.1627 35.1547 33.117C32.3226 35.0713 28.9641 36.1201 25.5232 36.1249H25.4764C22.6747 36.1233 19.917 35.4283 17.4491 34.1021C14.9812 32.7758 12.8798 30.8594 11.3324 28.5238C11.0205 28.0544 10.5348 27.728 9.98226 27.6166C9.42972 27.5053 8.85557 27.6179 8.3861 27.9299C7.91663 28.2418 7.59031 28.7275 7.47893 29.28C7.36754 29.8326 7.48022 30.4067 7.79216 30.8762C9.53215 33.4978 11.8326 35.7002 14.5274 37.3245C17.2222 38.9488 20.2441 39.9544 23.3748 40.2687V42.4999H16.9998C16.4362 42.4999 15.8957 42.7238 15.4972 43.1223C15.0987 43.5209 14.8748 44.0614 14.8748 44.6249C14.8748 45.1885 15.0987 45.729 15.4972 46.1275C15.8957 46.5261 16.4362 46.7499 16.9998 46.7499H33.9998C34.5634 46.7499 35.1039 46.5261 35.5024 46.1275C35.9009 45.729 36.1248 45.1885 36.1248 44.6249C36.1248 44.0614 35.9009 43.5209 35.5024 43.1223C35.1039 42.7238 34.5634 42.4999 33.9998 42.4999H27.6248V40.2687C38.3624 39.2041 46.7498 30.1431 46.7498 19.1249C46.7524 16.135 46.1227 13.1782 44.9021 10.4487C43.6815 7.71927 41.8975 5.27874 39.6672 3.28732ZM25.4998 4.24994C21.5547 4.24994 17.7712 5.81713 14.9816 8.60673C12.192 11.3963 10.6248 15.1798 10.6248 19.1249C10.6248 23.07 12.192 26.8536 14.9816 29.6432C17.7712 32.4328 21.5547 33.9999 25.4998 33.9999C29.4449 33.9999 33.2284 32.4328 36.018 29.6432C38.8076 26.8536 40.3748 23.07 40.3748 19.1249C40.3748 15.1798 38.8076 11.3963 36.018 8.60673C33.2284 5.81713 29.4449 4.24994 25.4998 4.24994Z" fill="#0096C1"/>
</svg>
