<svg width="80" height="75" viewBox="0 0 80 75" fill="none" xmlns="http://www.w3.org/2000/svg">
<path d="M60.2262 0.262207H14.1729V14.2785H60.2262V0.262207Z" fill="#D33C3C"/>
<path d="M65.4835 47.1916H8.91797L14.1741 14.4036H60.2274L65.4835 47.1916Z" fill="#1F4177"/>
<path d="M65.6087 47.1917H8.91797V65.2125H65.6087V47.1917Z" fill="#113160"/>
<path d="M60.2269 0.262207H37.2002V14.2785H60.2269V0.262207Z" fill="#BC2626"/>
<path d="M65.483 47.1916H37.2002V14.4036H60.2269L65.483 47.1916Z" fill="#183866"/>
<path d="M65.483 47.1917H37.2002V65.2125H65.483V47.1917Z" fill="#0B2647"/>
<path d="M45.2092 30.7977C45.2092 35.1778 41.7051 38.6818 37.3251 38.6818C32.945 38.6818 29.4409 35.1778 29.4409 30.7977C29.4409 26.4176 32.945 22.9135 37.3251 22.9135C41.58 22.7884 45.2092 26.4176 45.2092 30.7977Z" fill="white"/>
<path d="M35.4479 24.4151L28.1895 21.6619L30.3169 29.2957L35.4479 24.4151Z" fill="white"/>
<path d="M38.9526 24.4151L46.211 21.6619L44.2087 29.2957L38.9526 24.4151Z" fill="white"/>
<path d="M73.4919 58.9553C73.7422 58.2045 73.3667 57.3284 72.3656 57.3284C72.2404 57.3284 72.1153 57.3284 71.9901 57.3284C72.1153 56.7027 71.7398 55.8267 70.8638 55.8267C70.6135 55.8267 70.3633 55.9519 70.113 56.077C69.7375 55.7016 69.2369 55.4513 68.7364 55.4513H68.6112C68.7364 54.8255 68.3609 54.0747 67.4849 54.0747C67.3598 53.8244 66.9843 53.5741 66.4838 53.5741C66.3586 53.5741 66.1083 53.5741 65.9832 53.6992C65.858 53.1987 65.4826 52.8232 64.8569 52.8232C64.6066 52.8232 64.3563 52.9484 64.2311 52.9484H64.106C63.9809 52.5729 63.6054 52.4478 63.1048 52.4478C62.9797 52.4478 62.8545 52.4478 62.7294 52.4478C62.6043 51.9472 62.2288 51.5718 61.6031 51.5718C61.1025 51.5718 60.8522 51.8221 60.6019 52.0724C60.4768 51.9472 60.3516 51.9472 60.1014 51.9472C59.7259 51.9472 59.4756 52.0724 59.2253 52.3226C58.975 52.1975 58.7248 52.0724 58.4745 52.0724C58.099 52.0724 57.7236 52.1975 57.5985 52.4478C57.3482 52.3227 57.0979 52.1975 56.8476 52.1975C56.2219 52.1975 55.8464 52.5729 55.7213 53.0735C55.2207 53.1987 54.7201 53.5741 54.3447 53.9495C54.0944 53.8244 53.719 53.6992 53.3435 53.6992C52.4675 53.6992 51.4663 54.1998 51.0909 55.0758H50.9658C50.2149 55.0758 49.8395 55.7016 49.8395 56.3273C49.2137 56.5776 48.588 56.8279 48.3377 57.4536C48.2126 57.7039 48.0874 57.9542 48.0874 58.3296C47.4617 58.5799 46.836 58.9553 46.5857 59.7062C46.2103 60.5822 46.3354 61.5834 46.9611 62.2091C46.9611 62.8348 47.5868 63.2103 48.0874 63.3354C55.8464 63.9611 63.6054 63.9611 71.3644 63.3354C71.865 63.3354 72.3656 62.96 72.4907 62.5845C73.3667 62.96 74.2427 61.9588 73.9925 61.0828C74.493 59.9565 74.2427 59.2056 73.4919 58.9553Z" fill="#594A42"/>
<path d="M60.2267 60.3318H44.959L40.7041 71.72H60.2267V60.3318Z" fill="#D33C3C"/>
<path d="M60.2271 60.3318H75.4947L79.8748 71.72H60.2271V60.3318Z" fill="#BC2626"/>
<path d="M60.3519 71.72H40.7041V73.8474H60.3519V71.72Z" fill="#BF2E2E"/>
<path d="M79.8748 71.72H60.2271V73.8474H79.8748V71.72Z" fill="#A01A1A"/>
<path d="M49.8397 57.5786C48.8386 57.5786 48.8386 59.2055 49.8397 59.2055C50.8409 59.2055 50.8409 57.5786 49.8397 57.5786Z" fill="#493A34"/>
<path d="M67.1093 54.5752C66.1081 54.5752 66.1081 56.2021 67.1093 56.2021C68.1104 56.0769 68.1104 54.5752 67.1093 54.5752Z" fill="#493A34"/>
<path d="M64.9818 55.9517C63.9807 55.9517 63.9807 57.5785 64.9818 57.5785C65.983 57.5785 65.983 55.9517 64.9818 55.9517Z" fill="#493A34"/>
<path d="M52.9682 54.8254C51.967 54.8254 51.967 56.4523 52.9682 56.4523C53.9693 56.4523 53.9693 54.8254 52.9682 54.8254Z" fill="#493A34"/>
<path d="M52.8436 57.2031C51.8425 57.2031 51.8425 58.83 52.8436 58.83C53.8448 58.7049 53.8448 57.2031 52.8436 57.2031Z" fill="#493A34"/>
<path d="M55.7216 54.5752C54.7204 54.5752 54.7204 56.2021 55.7216 56.2021C56.7227 56.0769 56.7227 54.5752 55.7216 54.5752Z" fill="#493A34"/>
<path d="M56.0971 57.5786C55.0959 57.5786 55.0959 59.2055 56.0971 59.2055C57.0982 59.2055 57.0982 57.5786 56.0971 57.5786Z" fill="#493A34"/>
<path d="M61.7284 55.9517C60.7272 55.9517 60.7272 57.5785 61.7284 57.5785C62.7296 57.5785 62.7296 55.9517 61.7284 55.9517Z" fill="#493A34"/>
<path d="M71.2392 58.0791C70.238 58.0791 70.238 59.706 71.2392 59.706C72.2403 59.706 72.2403 58.0791 71.2392 58.0791Z" fill="#493A34"/>
<path d="M67.1093 58.0791C66.1081 58.0791 66.1081 59.706 67.1093 59.706C68.1104 59.706 68.1104 58.0791 67.1093 58.0791Z" fill="#493A34"/>
<path d="M69.2372 56.7026C68.236 56.7026 68.236 58.3295 69.2372 58.3295C70.2384 58.3295 70.2384 56.7026 69.2372 56.7026Z" fill="#493A34"/>
<path d="M63.9809 53.699C62.9797 53.699 62.9797 55.3259 63.9809 55.3259C64.982 55.3259 64.982 53.699 63.9809 53.699Z" fill="#493A34"/>
<path d="M61.2274 53.1987C60.2263 53.1987 60.2263 54.8256 61.2274 54.8256C62.2286 54.8256 62.2286 53.1987 61.2274 53.1987Z" fill="#493A34"/>
<path d="M57.974 53.1987C56.9729 53.1987 56.9729 54.8256 57.974 54.8256C58.9752 54.8256 58.9752 53.1987 57.974 53.1987Z" fill="#493A34"/>
<path d="M59.2255 57.9541C58.2243 57.9541 58.2243 59.581 59.2255 59.581C60.3518 59.581 60.3518 57.9541 59.2255 57.9541Z" fill="#493A34"/>
<path d="M63.6059 57.9541C62.6047 57.9541 62.6047 59.581 63.6059 59.581C64.607 59.581 64.607 57.9541 63.6059 57.9541Z" fill="#493A34"/>
<path d="M58.7245 55.5762C57.7233 55.5762 57.7233 57.2031 58.7245 57.2031C59.7257 57.2031 59.7257 55.5762 58.7245 55.5762Z" fill="#493A34"/>
<path d="M8.2915 39.9334C6.91491 38.1814 4.41201 37.6808 2.65998 38.9322C0.782801 40.1837 0.282217 42.8117 1.65881 44.6889C2.65997 46.1906 4.66229 46.8164 6.28918 46.3158L21.1814 67.8407C20.0551 69.2173 19.93 71.2197 21.0563 72.7214C22.3077 74.5986 24.9358 75.0992 26.813 73.7226C28.6901 72.4711 29.1907 69.8431 27.8141 67.9659L8.2915 39.9334Z" fill="#FFBC00"/>
<path d="M8.29113 39.9333C7.03968 38.0561 7.54025 35.5532 9.41743 34.3018C11.2946 33.0503 13.9227 33.4258 15.1741 35.3029C16.1753 36.8047 16.0501 38.807 15.049 40.1836L29.9412 61.7085C31.5681 61.208 33.5704 61.8337 34.5716 63.3354C35.823 65.2126 35.4476 67.8407 33.5704 69.0921C31.6932 70.3436 29.0652 69.9681 27.8137 68.0909L8.29113 39.9333Z" fill="#FFA300"/>
</svg>
