<svg width="89" height="81" viewBox="0 0 89 81" fill="none" xmlns="http://www.w3.org/2000/svg">
<path d="M22.5922 51.3761C22.5922 45.6365 24.2586 40.4523 27.0358 36.0087L30.5536 12.1245H28.3318H18.7041V29.8988V74.89H34.6269C27.2209 69.7058 22.5922 61.0038 22.5922 51.3761ZM19.6298 29.1582C19.6298 27.1216 21.2962 25.6404 23.1477 25.6404C25.1843 25.6404 26.6655 27.3067 26.6655 29.1582C26.6655 31.1948 24.9992 32.676 23.1477 32.676C21.111 32.676 19.6298 31.0097 19.6298 29.1582Z" fill="#073B5B"/>
<path d="M83.1354 63.4107H88.6899V18.2344C88.6899 16.9384 88.3196 15.6423 87.3938 14.5315C86.2829 13.0503 84.6166 12.1245 82.58 12.1245H78.5067H72.7671L76.6552 34.7127C79.8027 39.5265 81.6542 45.081 81.6542 51.3761C81.6542 61.0038 77.0255 69.5206 69.8047 75.0751H82.2097C84.8017 75.0751 87.0235 73.4088 87.7641 71.187H82.7651C80.5433 71.187 78.877 69.5206 78.877 67.2989C79.2473 65.0771 80.9136 63.4107 83.1354 63.4107ZM77.0255 22.8631V20.0859H85.5423V22.8631H77.0255Z" fill="#073B5B"/>
<path d="M79.2485 67.299C79.2485 69.5208 80.9149 71.1871 83.1367 71.1871H88.1357C88.3208 70.4465 88.506 69.7059 88.506 68.9654V63.4109H82.9515C80.9149 63.4109 79.2485 65.0772 79.2485 67.299ZM87.0248 68.595H81.6555V65.8178H87.0248V68.595Z" fill="#052C44"/>
<path d="M27.0361 36.0087C32.2203 27.4919 41.6629 21.7523 52.2164 21.7523C62.3995 21.7523 71.4718 26.9364 76.656 34.7127L72.7679 12.1245H30.3688L27.0361 36.0087Z" fill="#052C44"/>
<path d="M52.2172 27.4919C39.0716 27.4919 28.333 38.2306 28.333 51.3761C28.333 64.5217 39.0716 75.4455 52.2172 75.4455C65.3628 75.4455 76.2866 64.7069 76.2866 51.3761C76.2866 38.0454 65.5479 27.4919 52.2172 27.4919ZM52.2172 71.1871C46.8479 71.1871 41.8489 69.1504 37.9608 65.2623L38.8865 64.3366C42.4043 67.8544 47.033 69.891 52.0321 69.891C57.0311 69.891 61.6598 67.8544 65.1776 64.3366L66.1034 65.2623C62.5855 69.1504 57.5865 71.1871 52.2172 71.1871ZM52.2172 65.8177C44.2558 65.8177 37.7756 59.3375 37.7756 51.3761C37.7756 43.4147 44.2558 36.9345 52.2172 36.9345C60.1786 36.9345 66.6588 43.4147 66.6588 51.3761C66.6588 59.3375 60.1786 65.8177 52.2172 65.8177ZM52.2172 32.8613C42.034 32.8613 33.7023 41.193 33.7023 51.3761H32.2211C32.2211 40.4524 41.1083 31.5652 52.0321 31.5652C62.9558 31.5652 71.843 40.4524 71.843 51.3761H70.3618C70.7321 41.193 62.4004 32.8613 52.2172 32.8613Z" fill="#073B5B"/>
<path d="M52.2168 69.8911C47.2178 69.8911 42.5891 67.8545 39.0713 64.3367L38.1455 65.2624C41.8485 69.1505 47.0326 71.1872 52.402 71.1872C57.7713 71.1872 62.7703 69.1505 66.6584 65.2624L65.7327 64.3367C61.8446 67.8545 57.2158 69.8911 52.2168 69.8911Z" fill="#8DD6E1"/>
<path d="M52.2162 31.5652C41.2924 31.5652 32.4053 40.4523 32.4053 51.3761H33.8865C33.8865 41.1929 42.2182 32.8612 52.4013 32.8612C62.5845 32.8612 70.9162 41.1929 70.9162 51.3761H72.3974C72.0271 40.4523 63.14 31.5652 52.2162 31.5652Z" fill="#8DD6E1"/>
<path d="M52.216 36.9346C44.2546 36.9346 37.7744 43.4148 37.7744 51.3762C37.7744 59.3376 44.2546 65.8178 52.216 65.8178C60.1774 65.8178 66.6576 59.3376 66.6576 51.3762C66.6576 43.4148 60.1774 36.9346 52.216 36.9346ZM52.216 58.2267C48.513 58.2267 45.3655 55.0792 45.3655 51.3762C45.3655 50.2653 45.5507 49.3395 46.1061 48.4138C45.5507 48.0435 44.9952 47.3029 44.9952 46.5623C44.9952 45.2663 46.1061 44.1554 47.4021 44.1554C48.1427 44.1554 48.8833 44.5257 49.4388 45.2663C50.3645 44.896 51.2903 44.5257 52.4012 44.5257C56.1041 44.5257 59.2517 47.6732 59.2517 51.3762C59.0665 55.2643 56.1041 58.2267 52.216 58.2267Z" fill="#10AAC1"/>
<path d="M52.2172 44.5256C51.1063 44.5256 50.1806 44.7108 49.2548 45.2662C49.44 45.6365 49.8103 46.192 49.8103 46.5623C49.8103 47.8583 48.6994 48.9692 47.4033 48.9692C46.8479 48.9692 46.4776 48.7841 46.1073 48.4138C45.737 49.3395 45.3667 50.2653 45.3667 51.3761C45.3667 55.0791 48.5142 58.2266 52.2172 58.2266C55.9202 58.2266 59.0677 55.0791 59.0677 51.3761C59.0677 47.6732 56.1053 44.5256 52.2172 44.5256Z" fill="#8DD6E1"/>
<path d="M49.8086 46.5622C49.8086 46.0068 49.6234 45.6365 49.2531 45.2662C48.8828 44.7107 48.1423 44.1553 47.2165 44.1553C45.9205 44.1553 44.8096 45.2662 44.8096 46.5622C44.8096 47.3028 45.1799 48.0434 45.9205 48.4137C46.2908 48.5988 46.8462 48.9691 47.2165 48.9691C48.6977 48.9691 49.8086 47.8582 49.8086 46.5622Z" fill="white"/>
<path d="M81.8398 51.3762C81.8398 45.2663 79.9883 39.5267 76.8408 34.7129C71.4715 26.9366 62.5843 21.7524 52.4011 21.7524C41.6625 21.7524 32.4051 27.492 27.2209 36.0089C24.4437 40.4525 22.7773 45.8218 22.7773 51.3762C22.7773 61.004 27.4061 69.5208 34.6269 75.0753C39.6259 78.7783 45.7358 81.0001 52.4011 81.0001C59.0665 81.0001 65.1764 78.7783 70.1754 75.0753C77.2111 69.706 81.8398 61.004 81.8398 51.3762ZM52.216 75.4456C39.0704 75.4456 28.3318 64.707 28.3318 51.3762C28.3318 38.0455 39.0704 27.4921 52.216 27.4921C65.3616 27.4921 76.2854 38.2307 76.2854 51.3762C76.2854 64.5218 65.5467 75.4456 52.216 75.4456Z" fill="black"/>
<path d="M72.028 8.23633H31.1101L30.925 9.53236L30.5547 12.1245H72.7686L72.028 8.23633Z" fill="black"/>
<path d="M70.915 4.53365C69.8041 3.05246 68.1378 2.12671 66.1011 2.12671H64.6199H62.5833H58.51H47.9565H45.9199H41.8466H37.0328C33.7001 2.12671 30.9229 4.90395 30.9229 8.23662H72.0259C72.0259 6.75543 71.6556 5.45939 70.915 4.53365ZM62.5833 6.19999H42.0318V4.3485H62.5833V6.19999Z" fill="#052C44"/>
<path d="M62.5837 4.16333H42.0322V6.01482H62.5837V4.16333Z" fill="#10AAC1"/>
<path d="M85.5422 20.0859H77.0254V22.8632H85.5422V20.0859Z" fill="#8DD6E1"/>
<path d="M87.2091 65.8176H81.8398V68.5949H87.2091V65.8176Z" fill="#10AAC1"/>
<path d="M46.1055 0.0898438H42.0322V2.12648H46.1055V0.0898438Z" fill="#073B5B"/>
<path d="M62.584 0.0898438H58.5107V2.12648H62.584V0.0898438Z" fill="#073B5B"/>
<path d="M18.52 12.1245H13.7061H6.67046C3.33778 12.1245 0.560547 14.9017 0.560547 18.2344V30.084H18.3348V12.1245H18.52ZM9.63284 27.677C7.9665 27.677 6.67046 26.381 6.67046 24.7146C6.67046 23.0483 7.9665 21.7523 9.63284 21.7523C11.2992 21.7523 12.5952 23.0483 12.5952 24.7146C12.5952 26.381 11.2992 27.677 9.63284 27.677Z" fill="#052C44"/>
<path d="M0.745117 30.084V68.9652C0.745117 71.0019 1.67085 72.6682 3.15204 73.7791C4.26294 74.5197 5.37383 75.0751 6.85502 75.0751H18.7045V30.084H0.745117Z" fill="black"/>
<path d="M9.63132 21.7524C7.96498 21.7524 6.66895 23.0485 6.66895 24.7148C6.66895 26.3812 7.96498 27.6772 9.63132 27.6772C11.2977 27.6772 12.5937 26.3812 12.5937 24.7148C12.5937 23.0485 11.2977 21.7524 9.63132 21.7524Z" fill="black"/>
<path d="M25.3694 29.1583C25.3694 27.8623 24.2585 26.9365 23.1476 26.9365C21.8515 26.9365 20.9258 27.8623 20.9258 29.1583C20.9258 30.4544 22.0367 31.3801 23.1476 31.3801C24.4436 31.3801 25.3694 30.4544 25.3694 29.1583Z" fill="#8DD6E1"/>
<path d="M26.8501 29.1582C26.8501 27.1216 25.1838 25.6404 23.3323 25.6404C21.2956 25.6404 19.8145 27.3067 19.8145 29.1582C19.8145 31.1948 21.4808 32.676 23.3323 32.676C25.1838 32.676 26.8501 31.0097 26.8501 29.1582ZM20.9253 29.1582C20.9253 27.8622 22.0362 26.9364 23.1471 26.9364C24.4432 26.9364 25.3689 27.8622 25.3689 29.1582C25.3689 30.4543 24.258 31.38 23.1471 31.38C21.8511 31.38 20.9253 30.4543 20.9253 29.1582Z" fill="black"/>
<path d="M28.1467 12.1246V6.94043H13.7051V12.1246H18.5189H28.1467Z" fill="black"/>
</svg>
