<svg width="74" height="73" viewBox="0 0 74 73" fill="none" xmlns="http://www.w3.org/2000/svg">
<path d="M57.9186 6.78174L66.9533 15.8164L60.0659 22.7068L51.0312 13.6722L57.9186 6.78174ZM24.8276 48.9074H33.8623L55.8075 26.9622L46.7728 17.9275L24.8276 39.8727V48.9074Z" fill="#002D3A"/>
<path d="M57.9559 57.9422H25.3046C25.2263 57.9422 25.145 57.9723 25.0667 57.9723C24.9673 57.9723 24.8679 57.9452 24.7655 57.9422H15.7941V15.7804H36.4142L42.4373 9.75732H15.7941C12.4724 9.75732 9.771 12.4557 9.771 15.7804V57.9422C9.771 61.267 12.4724 63.9653 15.7941 63.9653H57.9559C59.5533 63.9653 61.0853 63.3308 62.2149 62.2012C63.3444 61.0716 63.979 59.5396 63.979 57.9422V31.8381L57.9559 37.8612V57.9422Z" fill="#002D3A"/>
</svg>
