<svg width="89" height="75" viewBox="0 0 89 75" fill="none" xmlns="http://www.w3.org/2000/svg">
<path d="M44.875 74.1484C69.1755 74.1484 88.875 69.716 88.875 64.2484C88.875 58.7808 69.1755 54.3484 44.875 54.3484C20.5745 54.3484 0.875 58.7808 0.875 64.2484C0.875 69.716 20.5745 74.1484 44.875 74.1484Z" fill="#7CCC12"/>
<path opacity="0.2" d="M71.8748 64.2485C71.8748 66.0485 59.7748 67.5485 44.7748 67.5485C29.8748 67.5485 17.6748 66.0485 17.6748 64.2485C17.6748 62.4485 29.7748 60.9485 44.7748 60.9485C59.7748 60.9485 71.8748 62.3485 71.8748 64.2485Z" fill="#1D1D1B"/>
<path d="M30.9748 0.948486H23.1748V16.3485L30.9748 11.8485V0.948486Z" fill="#B6312F"/>
<path d="M71.8749 25.2485V64.2485H17.7749V25.2485L44.7749 9.24854H44.8749L71.8749 25.2485Z" fill="#E96B57"/>
<path d="M47.9749 56.7485H44.8749H17.7749V64.2485H44.8749H47.9749H71.8749V56.7485H47.9749Z" fill="#FFE8E6"/>
<path d="M39.1748 30.4485H26.1748V46.2485H39.1748V30.4485Z" fill="#2EBBFF"/>
<path d="M63.4751 30.4485H50.4751V46.2485H63.4751V30.4485Z" fill="#2EBBFF"/>
<path d="M44.8752 23.4484C42.7752 23.4484 41.0752 21.7484 41.0752 19.6484C41.0752 17.5484 42.7752 15.8484 44.8752 15.8484C46.9752 15.8484 48.6752 17.5484 48.6752 19.6484C48.6752 21.7484 46.9752 23.4484 44.8752 23.4484Z" fill="#2EBBFF"/>
<path d="M25.6748 29.9485V46.7485H39.6748V29.9485H25.6748ZM38.6748 30.9485V34.9485H33.1748H32.0748H26.5748V30.9485H38.6748ZM26.6748 35.9485H32.1748V45.7485H26.6748V35.9485ZM33.1748 45.7485V36.0485H38.6748V45.7485H33.1748Z" fill="white"/>
<path d="M63.9751 29.9485V46.7485H49.9751V29.9485H63.9751ZM50.9751 30.9485V34.9485H56.4751H57.5751H62.9751V30.9485H50.9751ZM62.9751 35.9485H57.4751V45.7485H62.9751V35.9485ZM56.4751 45.7485V36.0485H50.9751V45.7485H56.4751Z" fill="white"/>
<path d="M44.8748 15.3484C42.5748 15.3484 40.6748 17.2484 40.6748 19.5484C40.6748 21.8484 42.5748 23.7484 44.8748 23.7484C47.1748 23.7484 49.0748 21.8484 49.0748 19.5484C49.0748 17.2484 47.1748 15.3484 44.8748 15.3484ZM44.5748 16.1484V19.3484H41.4748C41.5748 17.6484 42.8748 16.2484 44.5748 16.1484ZM48.2748 19.2484H45.1748V16.0484C46.8748 16.2484 48.1748 17.6484 48.2748 19.2484ZM41.3748 19.8484H44.4748V23.0484C42.8748 22.8484 41.5748 21.5484 41.3748 19.8484ZM45.1748 23.0484V19.8484H48.2748C48.1748 21.5484 46.8748 22.8484 45.1748 23.0484Z" fill="white"/>
<path d="M41.7748 46.7485H23.6748V48.3485H41.7748V46.7485Z" fill="#FFE8E6"/>
<path d="M66.0751 46.7485H47.9751V48.3485H66.0751V46.7485Z" fill="#FFE8E6"/>
<path d="M21.175 26.3484H17.375V29.9484H21.175V26.3484Z" fill="#B6312F"/>
<path d="M21.175 32.7483H17.375V36.3483H21.175V32.7483Z" fill="#B6312F"/>
<path d="M21.175 39.1484H17.375V42.7484H21.175V39.1484Z" fill="#B6312F"/>
<path d="M21.175 45.5483H17.375V49.1483H21.175V45.5483Z" fill="#B6312F"/>
<path d="M21.175 52.0483H17.375V55.6483H21.175V52.0483Z" fill="#B6312F"/>
<path d="M72.2751 26.3484H68.4751V29.9484H72.2751V26.3484Z" fill="#B6312F"/>
<path d="M72.2751 32.7483H68.4751V36.3483H72.2751V32.7483Z" fill="#B6312F"/>
<path d="M72.2751 39.1484H68.4751V42.7484H72.2751V39.1484Z" fill="#B6312F"/>
<path d="M72.2751 45.5483H68.4751V49.1483H72.2751V45.5483Z" fill="#B6312F"/>
<path d="M72.2751 52.0483H68.4751V55.6483H72.2751V52.0483Z" fill="#B6312F"/>
<path d="M29.4749 10.2485H30.9749V9.74849H27.3749V7.14849H30.9749V6.64849H29.4749V4.04848H30.9749V3.54848H27.3749V0.948486H26.8749V3.54848H23.2749V4.04848H24.8749V6.64849H23.2749V7.14849H26.8749V9.74849H23.2749V10.2485H24.8749V12.8485H23.2749V13.3485H28.2749L29.4749 12.6485V10.2485ZM25.2749 6.64849V4.04848H28.9749V6.64849H25.2749ZM25.2749 12.9485V10.3485H28.9749V12.9485H25.2749Z" fill="white"/>
<path d="M80.7751 24.8484L79.7751 26.4484L78.2751 29.0484L44.8751 9.24844L11.4751 29.0484L9.8751 26.4484L8.9751 24.8484L23.1751 16.3484L28.2751 13.4484L29.4751 12.7484L30.9751 11.8484L44.8751 3.64844L80.7751 24.8484Z" fill="#B6312F"/>
<path opacity="0.2" d="M71.8749 25.2485V27.4485L44.8749 11.4485L17.7749 27.4485V25.2485L44.8749 9.24854L71.8749 25.2485Z" fill="#1D1D1B"/>
<path opacity="0.2" d="M41.7748 48.3484H23.6748V50.1484H41.7748V48.3484Z" fill="#1D1D1B"/>
<path opacity="0.2" d="M66.0751 48.3484H47.9751V50.1484H66.0751V48.3484Z" fill="#1D1D1B"/>
<path opacity="0.1" d="M44.875 9.24849V3.54848L30.975 11.8485V10.3485V9.74849V7.14849V6.64849V4.04848V3.54848V0.948486H27.375H26.875H23.275V3.54848V4.04848V6.64849V7.14849V9.74849V10.2485V12.8485V13.3485V16.3485L8.975 24.8485L9.875 26.4485L11.375 29.0485L17.775 25.2485V26.2485H17.375V29.8485H17.775V32.7485H17.375V36.3485H17.775V39.1485H17.375V42.7485H17.775V45.5485H17.375V49.1485H17.775V51.9485H17.375V55.5485H17.775V56.4485C7.475 58.2485 0.875 61.0485 0.875 64.2485C0.875 69.6485 20.575 74.1485 44.875 74.1485V9.24849Z" fill="#1D1D1B"/>
</svg>
