<svg width="30" height="26" viewBox="0 0 30 26" fill="none" xmlns="http://www.w3.org/2000/svg">
<path d="M13.408 1.55751C13.5646 1.80807 13.6703 2.08702 13.7191 2.37844C13.7679 2.66986 13.7588 2.96803 13.6924 3.25594C13.6259 3.54385 13.5034 3.81585 13.3319 4.05642C13.1603 4.29699 12.9431 4.50141 12.6925 4.65801C9.95402 6.36372 7.77852 8.83816 6.4375 11.7725C7.79175 11.6593 9.14864 11.9574 10.3307 12.628C11.5127 13.2985 12.4648 14.3103 13.0623 15.5308C13.6599 16.7513 13.8752 18.1238 13.68 19.4687C13.4848 20.8136 12.8882 22.0682 11.9682 23.0684C11.0482 24.0687 9.84779 24.768 8.5239 25.0748C7.20001 25.3816 5.81435 25.2816 4.54819 24.788C3.28204 24.2944 2.19437 23.4301 1.42748 22.3082C0.660587 21.1862 0.250197 19.859 0.25 18.5V18.4393C0.252447 18.2651 0.25995 18.091 0.2725 17.9173C0.29275 17.5798 0.33325 17.1073 0.412 16.5268C0.5695 15.3725 0.87775 13.7818 1.501 11.9953C2.743 8.41776 5.2585 3.99651 10.3075 0.842006C10.5581 0.685404 10.837 0.579688 11.1284 0.530893C11.4199 0.482098 11.718 0.491179 12.0059 0.55762C12.2938 0.62406 12.5658 0.746558 12.8064 0.918118C13.047 1.08968 13.2514 1.30694 13.408 1.55751ZM29.158 1.55751C29.3146 1.80807 29.4203 2.08702 29.4691 2.37844C29.5179 2.66986 29.5088 2.96803 29.4424 3.25594C29.3759 3.54385 29.2534 3.81585 29.0819 4.05642C28.9103 4.29699 28.6931 4.50141 28.4425 4.65801C25.704 6.36372 23.5285 8.83816 22.1875 11.7725C23.5417 11.6593 24.8986 11.9574 26.0807 12.628C27.2627 13.2985 28.2148 14.3103 28.8123 15.5308C29.4099 16.7513 29.6252 18.1238 29.43 19.4687C29.2348 20.8136 28.6382 22.0682 27.7182 23.0684C26.7982 24.0687 25.5978 24.768 24.2739 25.0748C22.95 25.3816 21.5643 25.2816 20.2982 24.788C19.032 24.2944 17.9444 23.4301 17.1775 22.3082C16.4106 21.1862 16.0002 19.859 16 18.5V18.4393C16.0024 18.2651 16.01 18.091 16.0225 17.9173C16.0428 17.5798 16.0832 17.1073 16.162 16.5268C16.3195 15.3725 16.6277 13.7818 17.251 11.9953C18.493 8.41776 21.0085 3.99651 26.0575 0.842006C26.3081 0.685404 26.587 0.579688 26.8784 0.530893C27.1699 0.482098 27.468 0.491179 27.7559 0.55762C28.0438 0.62406 28.3158 0.746558 28.5564 0.918118C28.797 1.08968 29.0014 1.30694 29.158 1.55751Z" fill="#0096C1"/>
</svg>
