<svg width="108" height="80" viewBox="0 0 108 80" fill="none" xmlns="http://www.w3.org/2000/svg">
<path d="M72.9558 62.6945H39.0391V78.5623H72.9558V62.6945Z" fill="#5FCCF5" stroke="#21409A" stroke-width="1.22899" stroke-miterlimit="10"/>
<path d="M33.1552 20.4424C33.1552 20.4424 29.2721 24.7968 30.6979 31.8082C30.6979 31.8082 33.8226 43.5429 41.7406 52.6577V62.695H70.591V53.285L74.5045 49.152C74.5045 49.152 77.3258 46.4951 77.2955 41.9192V15.9034H62.036" fill="white"/>
<path d="M33.1552 20.4424C33.1552 20.4424 29.2721 24.7968 30.6979 31.8082C30.6979 31.8082 33.8226 43.5429 41.7406 52.6577V62.695H70.591V53.285L74.5045 49.152C74.5045 49.152 77.3258 46.4951 77.2955 41.9192V15.9034H62.036" stroke="#21409A" stroke-width="1.22899" stroke-miterlimit="10"/>
<path d="M79.4189 11.9613C79.3582 11.9613 79.2672 11.9613 79.2066 11.9613H29.2719C28.9685 11.9613 28.6652 11.9982 28.3922 12.072C26.2382 5.54035 21.0203 0.927612 14.8922 0.927612C8.91583 0.927612 3.78888 5.31892 1.54395 11.5922H14.8922V25.6887H1.54395C3.78888 31.9621 8.91583 36.3534 14.8922 36.3534C21.0203 36.3534 26.2686 31.7407 28.3922 25.209C28.6652 25.2828 28.9382 25.3197 29.2719 25.3197H79.2066C79.2369 25.3197 79.2975 25.3197 79.3279 25.3197C81.4515 31.8514 86.6998 36.501 92.8582 36.501C98.8346 36.501 103.962 32.1097 106.206 25.8364H92.8582V11.7399H106.206C103.962 5.46654 98.8346 1.11212 92.8582 1.11212C86.7908 1.07522 81.6032 5.57723 79.4189 11.9613Z" fill="#5FCCF5" stroke="#21409A" stroke-width="1.22899" stroke-miterlimit="10"/>
<path d="M75.7162 16.9442C76.5049 16.9442 77.142 17.7192 77.142 18.6786C77.142 19.6381 76.5049 20.413 75.7162 20.413H31.9703C31.1815 20.413 30.5444 19.6381 30.5444 18.6786C30.5444 17.7192 31.1815 16.9442 31.9703 16.9442H75.7162Z" fill="white" stroke="#21409A" stroke-width="1.22899" stroke-miterlimit="10"/>
<path d="M15.5898 5.58093C21.4752 5.76544 26.1168 11.6697 25.9954 18.8287" stroke="#21409A" stroke-width="1.22899" stroke-miterlimit="10"/>
<path d="M94.9206 31.8091C89.0352 31.6245 84.3937 25.7202 84.515 18.5613" stroke="#21409A" stroke-width="1.22899" stroke-miterlimit="10"/>
<path d="M50.508 18.5352C50.508 21.4873 48.5361 23.849 46.1395 23.849C43.7126 23.849 41.771 21.4873 41.771 18.5352V8.57169C41.771 5.61954 43.7429 3.25781 46.1395 3.25781C48.5665 3.25781 50.508 5.65644 50.508 8.57169V18.5352Z" fill="white" stroke="#21409A" stroke-width="1.22899" stroke-miterlimit="10"/>
<path d="M59.8201 17.755C59.8201 20.7071 57.8482 23.0689 55.4515 23.0689C53.0246 23.0689 51.083 20.6702 51.083 17.755V6.24159C51.083 3.28944 53.0549 0.927734 55.4515 0.927734C57.8785 0.927734 59.8201 3.32634 59.8201 6.24159V17.755Z" fill="white" stroke="#21409A" stroke-width="1.22899" stroke-miterlimit="10"/>
<path d="M68.5578 15.8783C68.5578 18.8304 66.5859 21.1921 64.1893 21.1921C61.7624 21.1921 59.8208 18.7935 59.8208 15.8783V8.57169C59.8208 5.61954 61.7624 3.25781 64.1893 3.25781C66.6163 3.25781 68.5578 5.65644 68.5578 8.57169V15.8783Z" fill="white" stroke="#21409A" stroke-width="1.22899" stroke-miterlimit="10"/>
<path d="M77.3259 15.8767C77.3259 18.8288 75.354 21.1905 72.9574 21.1905C70.5304 21.1905 68.5889 18.7919 68.5889 15.8767V10.8949C68.5889 7.94278 70.5607 5.58105 72.9574 5.58105C75.3843 5.58105 77.3259 7.94278 77.3259 10.8949V15.8767Z" fill="white" stroke="#21409A" stroke-width="1.22899" stroke-miterlimit="10"/>
<path d="M50.6885 43.5605C52.3571 27.5451 41.3447 23.8549 41.3447 23.8549H54.0559C59.82 22.342 59.82 13.5593 59.82 13.5593H39.8582L33.1538 20.46C33.1538 20.46 29.5133 25.2572 30.6965 31.8257C30.6965 31.8257 33.4268 42.638 41.7391 52.6753" fill="white"/>
<path d="M50.6885 43.5605C52.3571 27.5451 41.3447 23.8549 41.3447 23.8549H54.0559C59.82 22.342 59.82 13.5593 59.82 13.5593H39.8582L33.1538 20.46C33.1538 20.46 29.5133 25.2572 30.6965 31.8257C30.6965 31.8257 33.4268 42.638 41.7391 52.6753" stroke="#21409A" stroke-width="1.22899" stroke-miterlimit="10" stroke-linejoin="round"/>
<path d="M70.0132 70.6439C70.0132 72.1938 68.9818 73.4854 67.6773 73.4854C66.4031 73.4854 65.3413 72.2307 65.3413 70.6439C65.3413 69.094 66.3728 67.8025 67.6773 67.8025C68.9818 67.8025 70.0132 69.094 70.0132 70.6439Z" fill="white" stroke="#21409A" stroke-width="1.22899" stroke-miterlimit="10"/>
</svg>
