<svg width="107" height="80" viewBox="0 0 107 80" fill="none" xmlns="http://www.w3.org/2000/svg">
<path d="M72.5024 63.2413H38.5857V79.1091H72.5024V63.2413Z" fill="#5FCCF5" stroke="#21409A" stroke-width="1.22899" stroke-miterlimit="10"/>
<path d="M32.7018 20.9892C32.7018 20.9892 28.8187 25.3437 30.2445 32.355C30.2445 32.355 33.3692 44.0898 41.2872 53.2046V63.2419H70.1376V53.8319L74.0511 49.6989C74.0511 49.6989 76.8724 47.042 76.8421 42.4661V16.4503H61.5826" fill="white"/>
<path d="M32.7018 20.9892C32.7018 20.9892 28.8187 25.3437 30.2445 32.355C30.2445 32.355 33.3692 44.0898 41.2872 53.2046V63.2419H70.1376V53.8319L74.0511 49.6989C74.0511 49.6989 76.8724 47.042 76.8421 42.4661V16.4503H61.5826" stroke="#21409A" stroke-width="1.22899" stroke-miterlimit="10"/>
<path d="M78.9658 12.5081C78.9051 12.5081 78.8141 12.5081 78.7534 12.5081H28.8188C28.5154 12.5081 28.2121 12.545 27.939 12.6189C25.7851 6.08722 20.5671 1.47449 14.4391 1.47449C8.4627 1.47449 3.33576 5.86579 1.09082 12.1391H14.4391V26.2356H1.09082C3.33576 32.5089 8.4627 36.9003 14.4391 36.9003C20.5671 36.9003 25.8154 32.2875 27.939 25.7559C28.2121 25.8297 28.4851 25.8666 28.8188 25.8666H78.7534C78.7838 25.8666 78.8444 25.8666 78.8747 25.8666C80.9983 32.3982 86.2467 37.0479 92.4051 37.0479C98.3814 37.0479 103.508 32.6566 105.753 26.3832H92.4051V12.2867H105.753C103.508 6.01341 98.3814 1.659 92.4051 1.659C86.3377 1.62209 81.15 6.12411 78.9658 12.5081Z" fill="#5FCCF5" stroke="#21409A" stroke-width="1.22899" stroke-miterlimit="10"/>
<path d="M75.263 17.4911C76.0518 17.4911 76.6889 18.266 76.6889 19.2255C76.6889 20.1849 76.0518 20.9599 75.263 20.9599H31.5171C30.7284 20.9599 30.0913 20.1849 30.0913 19.2255C30.0913 18.266 30.7284 17.4911 31.5171 17.4911H75.263Z" fill="white" stroke="#21409A" stroke-width="1.22899" stroke-miterlimit="10"/>
<path d="M15.1362 6.12781C21.0216 6.31232 25.6632 12.2166 25.5418 19.3756" stroke="#21409A" stroke-width="1.22899" stroke-miterlimit="10"/>
<path d="M94.4672 32.3559C88.5818 32.1714 83.9403 26.2671 84.0617 19.1082" stroke="#21409A" stroke-width="1.22899" stroke-miterlimit="10"/>
<path d="M50.0544 19.0821C50.0544 22.0342 48.0825 24.3959 45.6859 24.3959C43.259 24.3959 41.3174 22.0342 41.3174 19.0821V9.11856C41.3174 6.16642 43.2893 3.80469 45.6859 3.80469C48.1129 3.80469 50.0544 6.20332 50.0544 9.11856V19.0821Z" fill="white" stroke="#21409A" stroke-width="1.22899" stroke-miterlimit="10"/>
<path d="M59.3669 18.3019C59.3669 21.254 57.395 23.6157 54.9984 23.6157C52.5715 23.6157 50.6299 21.2171 50.6299 18.3019V6.78846C50.6299 3.83632 52.6018 1.47461 54.9984 1.47461C57.4254 1.47461 59.3669 3.87322 59.3669 6.78846V18.3019Z" fill="white" stroke="#21409A" stroke-width="1.22899" stroke-miterlimit="10"/>
<path d="M68.1045 16.4251C68.1045 19.3773 66.1326 21.739 63.736 21.739C61.309 21.739 59.3674 19.3404 59.3674 16.4251V9.11857C59.3674 6.16642 61.309 3.80469 63.736 3.80469C66.1629 3.80469 68.1045 6.20332 68.1045 9.11857V16.4251Z" fill="white" stroke="#21409A" stroke-width="1.22899" stroke-miterlimit="10"/>
<path d="M76.8725 16.4236C76.8725 19.3757 74.9006 21.7374 72.504 21.7374C70.077 21.7374 68.1355 19.3388 68.1355 16.4236V11.4418C68.1355 8.48966 70.1074 6.12793 72.504 6.12793C74.9309 6.12793 76.8725 8.48966 76.8725 11.4418V16.4236Z" fill="white" stroke="#21409A" stroke-width="1.22899" stroke-miterlimit="10"/>
<path d="M50.2352 44.1074C51.9037 28.092 40.8914 24.4018 40.8914 24.4018H53.6026C59.3666 22.8888 59.3666 14.1062 59.3666 14.1062H39.4049L32.7004 21.0068C32.7004 21.0068 29.06 25.8041 30.2431 32.3726C30.2431 32.3726 32.9734 43.1849 41.2858 53.2222" fill="white"/>
<path d="M50.2352 44.1074C51.9037 28.092 40.8914 24.4018 40.8914 24.4018H53.6026C59.3666 22.8888 59.3666 14.1062 59.3666 14.1062H39.4049L32.7004 21.0068C32.7004 21.0068 29.06 25.8041 30.2431 32.3726C30.2431 32.3726 32.9734 43.1849 41.2858 53.2222" stroke="#21409A" stroke-width="1.22899" stroke-miterlimit="10" stroke-linejoin="round"/>
<path d="M69.5601 71.1908C69.5601 72.7407 68.5286 74.0322 67.2242 74.0322C65.95 74.0322 64.8882 72.7776 64.8882 71.1908C64.8882 69.6409 65.9197 68.3494 67.2242 68.3494C68.5286 68.3494 69.5601 69.6409 69.5601 71.1908Z" fill="white" stroke="#21409A" stroke-width="1.22899" stroke-miterlimit="10"/>
</svg>
