<svg width="51" height="51" viewBox="0 0 51 51" fill="none" xmlns="http://www.w3.org/2000/svg">
<path fill-rule="evenodd" clip-rule="evenodd" d="M19.6562 6.375C11.1477 6.375 4.25 13.2727 4.25 21.7812C4.25 40.9062 29.75 44.625 29.75 44.625V37.1875H31.3438C39.8522 37.1875 46.75 30.2898 46.75 21.7812C46.75 13.2727 39.8522 6.375 31.3438 6.375H19.6562ZM25.5 24.9688C26.2045 24.9688 26.8801 24.6889 27.3783 24.1908C27.8764 23.6926 28.1562 23.017 28.1562 22.3125C28.1562 21.608 27.8764 20.9324 27.3783 20.4342C26.8801 19.9361 26.2045 19.6562 25.5 19.6562C24.7955 19.6562 24.1199 19.9361 23.6217 20.4342C23.1236 20.9324 22.8438 21.608 22.8438 22.3125C22.8438 23.017 23.1236 23.6926 23.6217 24.1908C24.1199 24.6889 24.7955 24.9688 25.5 24.9688ZM36.6562 22.3125C36.6562 23.017 36.3764 23.6926 35.8783 24.1908C35.3801 24.6889 34.7045 24.9688 34 24.9688C33.2955 24.9688 32.6199 24.6889 32.1217 24.1908C31.6236 23.6926 31.3438 23.017 31.3438 22.3125C31.3438 21.608 31.6236 20.9324 32.1217 20.4342C32.6199 19.9361 33.2955 19.6562 34 19.6562C34.7045 19.6562 35.3801 19.9361 35.8783 20.4342C36.3764 20.9324 36.6562 21.608 36.6562 22.3125ZM17 24.9688C17.7045 24.9688 18.3801 24.6889 18.8783 24.1908C19.3764 23.6926 19.6562 23.017 19.6562 22.3125C19.6562 21.608 19.3764 20.9324 18.8783 20.4342C18.3801 19.9361 17.7045 19.6562 17 19.6562C16.2955 19.6562 15.6199 19.9361 15.1217 20.4342C14.6236 20.9324 14.3438 21.608 14.3438 22.3125C14.3438 23.017 14.6236 23.6926 15.1217 24.1908C15.6199 24.6889 16.2955 24.9688 17 24.9688Z" fill="#0096C1"/>
</svg>
