<svg width="22" height="22" viewBox="0 0 22 22" fill="none" xmlns="http://www.w3.org/2000/svg">
<path d="M19.2695 19.1688L16.1596 16.0589M15.7154 9.39492C15.7154 10.2117 15.5545 11.0205 15.2419 11.7751C14.9294 12.5297 14.4712 13.2154 13.8937 13.793C13.3161 14.3705 12.6304 14.8287 11.8758 15.1412C11.1212 15.4538 10.3124 15.6147 9.49563 15.6147C8.67884 15.6147 7.87005 15.4538 7.11543 15.1412C6.36082 14.8287 5.67516 14.3705 5.0976 13.793C4.52004 13.2154 4.0619 12.5297 3.74933 11.7751C3.43676 11.0205 3.27588 10.2117 3.27588 9.39492C3.27588 7.74534 3.93117 6.16332 5.0976 4.99689C6.26403 3.83046 7.84605 3.17517 9.49563 3.17517C11.1452 3.17517 12.7272 3.83046 13.8937 4.99689C15.0601 6.16332 15.7154 7.74534 15.7154 9.39492Z" stroke="#AEAEAE" stroke-width="1.57962" stroke-linecap="round"/>
</svg>
