<svg width="103" height="103" viewBox="0 0 103 103" fill="none" xmlns="http://www.w3.org/2000/svg">
<path d="M47.1911 8.62939L78.2616 18.3363C79.1282 18.6068 79.8856 19.1472 80.4232 19.8787C80.9609 20.6101 81.2507 21.4943 81.2503 22.4021V29.9164H89.7651C90.8942 29.9164 91.9771 30.365 92.7756 31.1634C93.574 31.9618 94.0225 33.0447 94.0225 34.1738V42.6886H38.6763V34.1738C38.6763 33.0447 39.1248 31.9618 39.9232 31.1634C40.7216 30.365 41.8045 29.9164 42.9337 29.9164H72.7355V25.5313L47.1911 17.5444L21.6466 25.5313V57.0531C21.646 59.6596 22.2437 62.2315 23.3937 64.5706C24.5437 66.9097 26.2153 68.9536 28.2797 70.5448L29.0843 71.1238L47.1911 83.4703L63.2926 72.4905H42.9337C41.8045 72.4905 40.7216 72.0419 39.9232 71.2435C39.1248 70.4451 38.6763 69.3622 38.6763 68.2331V51.2034H94.0225V68.2331C94.0225 69.3622 93.574 70.4451 92.7756 71.2435C91.9771 72.0419 90.8942 72.4905 89.7651 72.4905L76.0563 72.4947C74.4087 74.666 72.4077 76.5818 70.0959 78.1571L47.1911 93.7775L24.2862 78.1613C20.8485 75.8174 18.0353 72.6692 16.0913 68.9905C14.1473 65.3118 13.1314 61.2139 13.1318 57.0531V22.4021C13.1323 21.495 13.4226 20.6118 13.9602 19.8812C14.4978 19.1506 15.2547 18.6108 16.1205 18.3405L47.1911 8.62939Z" fill="#0096C1"/>
</svg>
