<svg width="51" height="51" viewBox="0 0 51 51" fill="none" xmlns="http://www.w3.org/2000/svg">
<path d="M23.3857 4.25L38.894 9.095C39.3265 9.23003 39.7046 9.49977 39.9729 9.86486C40.2413 10.23 40.3859 10.6713 40.3857 11.1244V14.875H44.6357C45.1993 14.875 45.7398 15.0989 46.1383 15.4974C46.5369 15.8959 46.7607 16.4364 46.7607 17V21.25H19.1357V17C19.1357 16.4364 19.3596 15.8959 19.7581 15.4974C20.1567 15.0989 20.6972 14.875 21.2607 14.875H36.1357V12.6862L23.3857 8.69975L10.6357 12.6862V28.4197C10.6354 29.7207 10.9338 31.0044 11.5078 32.1719C12.0818 33.3395 12.9161 34.3596 13.9465 35.1539L14.3481 35.4429L23.3857 41.6054L31.4225 36.125H21.2607C20.6972 36.125 20.1567 35.9011 19.7581 35.5026C19.3596 35.1041 19.1357 34.5636 19.1357 34V25.5H46.7607V34C46.7607 34.5636 46.5369 35.1041 46.1383 35.5026C45.7398 35.9011 45.1993 36.125 44.6357 36.125L37.7932 36.1271C36.9709 37.2109 35.9721 38.1671 34.8182 38.9534L23.3857 46.75L11.9532 38.9555C10.2374 37.7856 8.83321 36.2142 7.86291 34.3781C6.89261 32.5419 6.38553 30.4965 6.38574 28.4197V11.1244C6.386 10.6716 6.53085 10.2308 6.79919 9.86613C7.06752 9.50147 7.44531 9.23204 7.87749 9.09713L23.3857 4.25Z" fill="#0096C1"/>
</svg>
