<svg width="246" height="44" viewBox="0 0 246 44" fill="none" xmlns="http://www.w3.org/2000/svg">
<rect y="-0.000488281" width="44" height="44" rx="22" fill="white"/>
<mask id="mask0_88_31315" style="mask-type:luminance" maskUnits="userSpaceOnUse" x="10" y="9" width="24" height="25">
<path d="M10 9.99951H34V33.9995H10V9.99951Z" fill="white"/>
</mask>
<g mask="url(#mask0_88_31315)">
<path d="M28.9 11.124H32.5806L24.5406 20.3366L34 32.8749H26.5943L20.7897 25.272L14.1554 32.8749H10.4714L19.0703 23.0177L10 11.1257H17.5943L22.8331 18.0737L28.9 11.124ZM27.6057 30.6669H29.6457L16.48 13.2172H14.2926L27.6057 30.6669Z" fill="#001E27"/>
</g>
<rect x="67" y="-0.000488281" width="44" height="44" rx="22" fill="white"/>
<path d="M84.8 11.9995H93.2C96.4 11.9995 99 14.5995 99 17.7995V26.1995C99 27.7378 98.3889 29.213 97.3012 30.3007C96.2135 31.3884 94.7383 31.9995 93.2 31.9995H84.8C81.6 31.9995 79 29.3995 79 26.1995V17.7995C79 16.2613 79.6111 14.786 80.6988 13.6983C81.7865 12.6106 83.2617 11.9995 84.8 11.9995ZM84.6 13.9995C83.6452 13.9995 82.7295 14.3788 82.0544 15.0539C81.3793 15.7291 81 16.6447 81 17.5995V26.3995C81 28.3895 82.61 29.9995 84.6 29.9995H93.4C94.3548 29.9995 95.2705 29.6202 95.9456 28.9451C96.6207 28.27 97 27.3543 97 26.3995V17.5995C97 15.6095 95.39 13.9995 93.4 13.9995H84.6ZM94.25 15.4995C94.5815 15.4995 94.8995 15.6312 95.1339 15.8656C95.3683 16.1 95.5 16.418 95.5 16.7495C95.5 17.081 95.3683 17.399 95.1339 17.6334C94.8995 17.8678 94.5815 17.9995 94.25 17.9995C93.9185 17.9995 93.6005 17.8678 93.3661 17.6334C93.1317 17.399 93 17.081 93 16.7495C93 16.418 93.1317 16.1 93.3661 15.8656C93.6005 15.6312 93.9185 15.4995 94.25 15.4995ZM89 16.9995C90.3261 16.9995 91.5979 17.5263 92.5355 18.464C93.4732 19.4017 94 20.6734 94 21.9995C94 23.3256 93.4732 24.5974 92.5355 25.535C91.5979 26.4727 90.3261 26.9995 89 26.9995C87.6739 26.9995 86.4021 26.4727 85.4645 25.535C84.5268 24.5974 84 23.3256 84 21.9995C84 20.6734 84.5268 19.4017 85.4645 18.464C86.4021 17.5263 87.6739 16.9995 89 16.9995ZM89 18.9995C88.2044 18.9995 87.4413 19.3156 86.8787 19.8782C86.3161 20.4408 86 21.2039 86 21.9995C86 22.7952 86.3161 23.5582 86.8787 24.1208C87.4413 24.6834 88.2044 24.9995 89 24.9995C89.7956 24.9995 90.5587 24.6834 91.1213 24.1208C91.6839 23.5582 92 22.7952 92 21.9995C92 21.2039 91.6839 20.4408 91.1213 19.8782C90.5587 19.3156 89.7956 18.9995 89 18.9995Z" fill="#001E27"/>
<rect x="134" y="-0.000488281" width="44.5" height="44" rx="22" fill="white"/>
<path d="M158 23.4995H160.5L161.5 19.4995H158V17.4995C158 16.4695 158 15.4995 160 15.4995H161.5V12.1395C161.174 12.0965 159.943 11.9995 158.643 11.9995C155.928 11.9995 154 13.6565 154 16.6995V19.4995H151V23.4995H154V31.9995H158V23.4995Z" fill="#001E27"/>
<rect x="201.5" y="-0.000488281" width="44" height="44.001" rx="22" fill="white"/>
<path d="M217.5 15.0005C217.5 15.5309 217.289 16.0395 216.914 16.4144C216.538 16.7893 216.029 16.9998 215.499 16.9995C214.969 16.9992 214.46 16.7883 214.085 16.413C213.71 16.0378 213.5 15.5289 213.5 14.9985C213.5 14.4681 213.711 13.9595 214.086 13.5846C214.462 13.2097 214.971 12.9992 215.501 12.9995C216.031 12.9998 216.54 13.2107 216.915 13.586C217.29 13.9613 217.5 14.4701 217.5 15.0005ZM217.56 18.4805H213.56V31.0005H217.56V18.4805ZM223.88 18.4805H219.9V31.0005H223.84V24.4305C223.84 20.7705 228.61 20.4305 228.61 24.4305V31.0005H232.56V23.0705C232.56 16.9005 225.5 17.1305 223.84 20.1605L223.88 18.4805Z" fill="#001E27"/>
</svg>
