<svg width="49" height="49" viewBox="0 0 49 49" fill="none" xmlns="http://www.w3.org/2000/svg">
<rect x="0.414062" y="0.850098" width="47.2031" height="47.2044" rx="6.21094" stroke="#AEAEAE" stroke-width="0.828125"/>
<path d="M13.1982 17.896C13.1982 17.6352 13.3019 17.3851 13.4863 17.2006C13.6707 17.0162 13.9209 16.9126 14.1817 16.9126H33.8504C34.1113 16.9126 34.3614 17.0162 34.5458 17.2006C34.7303 17.3851 34.8339 17.6352 34.8339 17.896C34.8339 18.1569 34.7303 18.407 34.5458 18.5914C34.3614 18.7759 34.1113 18.8795 33.8504 18.8795H14.1817C13.9209 18.8795 13.6707 18.7759 13.4863 18.5914C13.3019 18.407 13.1982 18.1569 13.1982 17.896ZM16.4764 24.4523C16.4764 24.1915 16.58 23.9413 16.7644 23.7569C16.9488 23.5725 17.199 23.4688 17.4598 23.4688H30.5723C30.8331 23.4688 31.0833 23.5725 31.2677 23.7569C31.4521 23.9413 31.5557 24.1915 31.5557 24.4523C31.5557 24.7131 31.4521 24.9632 31.2677 25.1477C31.0833 25.3321 30.8331 25.4357 30.5723 25.4357H17.4598C17.199 25.4357 16.9488 25.3321 16.7644 25.1477C16.58 24.9632 16.4764 24.7131 16.4764 24.4523ZM20.4101 31.0085C20.4101 30.7477 20.5137 30.4976 20.6982 30.3131C20.8826 30.1287 21.1327 30.0251 21.3936 30.0251H26.6386C26.8994 30.0251 27.1495 30.1287 27.3339 30.3131C27.5184 30.4976 27.622 30.7477 27.622 31.0085C27.622 31.2694 27.5184 31.5195 27.3339 31.7039C27.1495 31.8884 26.8994 31.992 26.6386 31.992H21.3936C21.1327 31.992 20.8826 31.8884 20.6982 31.7039C20.5137 31.5195 20.4101 31.2694 20.4101 31.0085Z" fill="#001E27"/>
</svg>
