<svg width="94" height="65" viewBox="0 0 94 65" fill="none" xmlns="http://www.w3.org/2000/svg">
<path d="M90.0496 31.9602L89.8796 31.6202C84.2696 25.1602 75.9396 21.4202 67.4396 21.4202C66.7596 21.4202 66.4196 21.9302 66.4196 22.4402L66.0796 44.3702H6.57957C5.89957 44.3702 5.55957 44.8802 5.55957 45.3902V54.4002C5.55957 55.0802 6.06957 55.4202 6.57957 55.4202H92.9396C93.6196 55.4202 93.9596 54.9102 93.9596 54.4002V42.1602C93.9596 38.4202 92.5996 34.6802 90.0496 31.9602Z" fill="#FBB040"/>
<path d="M54.1805 0.85083H8.96054C4.20054 0.85083 0.290527 4.76083 0.290527 9.52083V38.2508C0.290527 43.0108 4.20054 46.9208 8.96054 46.9208H54.1805C58.9405 46.9208 62.8505 43.0108 62.8505 38.2508V9.35083C62.8505 4.59083 58.9405 0.85083 54.1805 0.85083Z" fill="#0096C1"/>
<path d="M85.2899 55.9306C85.2899 59.6706 82.2299 62.7306 78.4899 62.7306C74.7499 62.7306 71.6899 59.6706 71.6899 55.9306C71.6899 52.1906 74.7499 49.1306 78.4899 49.1306C82.2299 49.1306 85.2899 52.1906 85.2899 55.9306Z" fill="#0096C1"/>
<path d="M78.4901 64.0893C73.9001 64.0893 70.3301 60.3493 70.3301 55.9293C70.3301 51.3393 74.0701 47.7693 78.4901 47.7693C83.0801 47.7693 86.6501 51.5093 86.6501 55.9293C86.6501 60.5193 83.0801 64.0893 78.4901 64.0893ZM78.4901 50.6593C75.6001 50.6593 73.2201 53.0393 73.2201 55.9293C73.2201 58.8193 75.6001 61.1993 78.4901 61.1993C81.3801 61.1993 83.7601 58.8193 83.7601 55.9293C83.7601 53.0393 81.3801 50.6593 78.4901 50.6593Z" fill="#0096C1"/>
<path d="M54.1795 0.85083H9.12947C4.36947 0.85083 0.459473 4.59083 0.459473 9.18083V24.9908H62.8495V9.18083C62.8495 4.59083 58.9395 0.85083 54.1795 0.85083Z" fill="#31D4FF"/>
<path d="M51.8006 24.1403L37.6906 12.0703C37.1806 11.7303 36.6706 11.5603 36.1606 11.9003C35.6506 12.0703 35.3106 12.5803 35.3106 13.2603V18.8703H12.3606C11.5106 18.8703 10.8306 19.5503 10.8306 20.4003V29.5803C10.8306 30.4303 11.5106 31.1103 12.3606 31.1103H35.3106V36.7203C35.3106 37.2303 35.6506 37.7403 36.1606 38.0803C36.3306 38.2503 36.5006 38.2503 36.8406 38.2503C37.1806 38.2503 37.5206 38.0803 37.6906 37.9103L51.8006 26.5203C52.1406 26.1803 52.3106 25.8403 52.3106 25.3303C52.3106 24.8203 52.1406 24.4803 51.8006 24.1403Z" fill="#FBB040"/>
<path d="M93.4499 38.2496C92.7699 35.8696 91.7499 33.6596 90.0499 31.9596L89.8799 31.6196C85.9699 27.1996 81.0399 24.1396 75.4299 22.6096C75.0899 22.4396 74.7499 22.6096 74.4099 22.7796C74.0699 22.9496 73.8999 23.2896 73.8999 23.6296V38.5896C73.8999 39.2696 74.4099 39.6096 74.9199 39.6096H92.2599C92.5999 39.6096 92.9399 39.4396 93.1099 39.0996C93.4499 38.9296 93.4499 38.5896 93.4499 38.2496Z" fill="#0096C1"/>
<path d="M18.8197 47.7703C14.2297 47.7703 10.6597 51.5103 10.6597 55.9303C10.6597 60.5203 14.3997 64.0903 18.8197 64.0903C23.4097 64.0903 26.9797 60.3503 26.9797 55.9303C26.9797 51.3403 23.2397 47.7703 18.8197 47.7703Z" fill="#0096C1"/>
<path d="M78.4906 47.7703C73.9006 47.7703 70.3306 51.5103 70.3306 55.9303C70.3306 60.5203 74.0706 64.0903 78.4906 64.0903C83.0806 64.0903 86.6506 60.3503 86.6506 55.9303C86.6506 51.3403 83.0806 47.7703 78.4906 47.7703Z" fill="#0096C1"/>
<path d="M10.8306 24.9895V29.5795C10.8306 30.4295 11.5106 31.1095 12.3606 31.1095H35.3106V36.7195C35.3106 37.2295 35.6506 37.7395 36.1606 38.0795C36.3306 38.2495 36.5006 38.2495 36.8406 38.2495C37.1806 38.2495 37.5206 38.0795 37.6906 37.9095L51.8006 26.5195C52.1406 26.1795 52.3106 25.8395 52.3106 25.3295C52.3106 25.1595 52.3106 25.1595 52.3106 24.9895H10.8306Z" fill="#F7941E"/>
<path d="M18.8205 50.1509C15.5905 50.1509 13.0405 52.7009 13.0405 55.9309C13.0405 59.1609 15.5905 61.7109 18.8205 61.7109C22.0505 61.7109 24.6005 59.1609 24.6005 55.9309C24.6005 52.7009 22.0505 50.1509 18.8205 50.1509Z" fill="#31D4FF"/>
<path d="M78.4895 50.1509C75.2595 50.1509 72.7095 52.7009 72.7095 55.9309C72.7095 59.1609 75.2595 61.7109 78.4895 61.7109C81.7195 61.7109 84.2695 59.1609 84.2695 55.9309C84.2695 52.7009 81.7195 50.1509 78.4895 50.1509Z" fill="#31D4FF"/>
</svg>
