<svg width="95" height="65" viewBox="0 0 95 65" fill="none" xmlns="http://www.w3.org/2000/svg">
<path d="M90.6065 32.0985L90.4364 31.7585C84.8264 25.2985 76.4964 21.5585 67.9964 21.5585C67.3164 21.5585 66.9765 22.0685 66.9765 22.5785L66.6364 44.5085H7.13645C6.45645 44.5085 6.11646 45.0185 6.11646 45.5285V54.5385C6.11646 55.2185 6.62645 55.5585 7.13645 55.5585H93.4964C94.1764 55.5585 94.5165 55.0485 94.5165 54.5385V42.2985C94.5165 38.5585 93.1565 34.8185 90.6065 32.0985Z" fill="#FBB040"/>
<path d="M54.7372 0.989136H9.51718C4.75718 0.989136 0.847168 4.89913 0.847168 9.65913V38.3891C0.847168 43.1491 4.75718 47.0591 9.51718 47.0591H54.7372C59.4972 47.0591 63.4072 43.1491 63.4072 38.3891V9.48914C63.4072 4.72914 59.4972 0.989136 54.7372 0.989136Z" fill="#0096C1"/>
<path d="M85.8468 56.0688C85.8468 59.8088 82.7868 62.8688 79.0468 62.8688C75.3068 62.8688 72.2468 59.8088 72.2468 56.0688C72.2468 52.3288 75.3068 49.2688 79.0468 49.2688C82.7868 49.2688 85.8468 52.3288 85.8468 56.0688Z" fill="#0096C1"/>
<path d="M79.047 64.2275C74.457 64.2275 70.887 60.4875 70.887 56.0675C70.887 51.4775 74.627 47.9075 79.047 47.9075C83.637 47.9075 87.207 51.6475 87.207 56.0675C87.207 60.6575 83.637 64.2275 79.047 64.2275ZM79.047 50.7975C76.157 50.7975 73.777 53.1775 73.777 56.0675C73.777 58.9575 76.157 61.3375 79.047 61.3375C81.937 61.3375 84.317 58.9575 84.317 56.0675C84.317 53.1775 81.937 50.7975 79.047 50.7975Z" fill="#0096C1"/>
<path d="M54.7366 0.989136H9.6866C4.9266 0.989136 1.0166 4.72914 1.0166 9.31914V25.1291H63.4066V9.31914C63.4066 4.72914 59.4966 0.989136 54.7366 0.989136Z" fill="#31D4FF"/>
<path d="M52.3574 24.2786L38.2474 12.2086C37.7374 11.8686 37.2275 11.6986 36.7175 12.0386C36.2075 12.2086 35.8675 12.7186 35.8675 13.3986V19.0086H12.9175C12.0675 19.0086 11.3875 19.6886 11.3875 20.5386V29.7186C11.3875 30.5686 12.0675 31.2486 12.9175 31.2486H35.8675V36.8586C35.8675 37.3686 36.2075 37.8786 36.7175 38.2186C36.8875 38.3886 37.0574 38.3886 37.3974 38.3886C37.7374 38.3886 38.0774 38.2186 38.2474 38.0486L52.3574 26.6586C52.6974 26.3186 52.8675 25.9786 52.8675 25.4686C52.8675 24.9586 52.6974 24.6186 52.3574 24.2786Z" fill="#FBB040"/>
<path d="M94.0068 38.3879C93.3268 36.0079 92.3068 33.7979 90.6068 32.0979L90.4368 31.7579C86.5268 27.3379 81.5968 24.2779 75.9868 22.7479C75.6468 22.5779 75.3068 22.7479 74.9668 22.9179C74.6268 23.0879 74.4568 23.4279 74.4568 23.7679V38.7279C74.4568 39.4079 74.9668 39.7479 75.4768 39.7479H92.8168C93.1568 39.7479 93.4968 39.5779 93.6668 39.2379C94.0068 39.0679 94.0068 38.7279 94.0068 38.3879Z" fill="#0096C1"/>
<path d="M19.3766 47.9084C14.7866 47.9084 11.2166 51.6485 11.2166 56.0685C11.2166 60.6585 14.9566 64.2284 19.3766 64.2284C23.9666 64.2284 27.5365 60.4885 27.5365 56.0685C27.5365 51.4785 23.7966 47.9084 19.3766 47.9084Z" fill="#0096C1"/>
<path d="M79.0475 47.9084C74.4575 47.9084 70.8875 51.6485 70.8875 56.0685C70.8875 60.6585 74.6275 64.2284 79.0475 64.2284C83.6375 64.2284 87.2075 60.4885 87.2075 56.0685C87.2075 51.4785 83.6375 47.9084 79.0475 47.9084Z" fill="#0096C1"/>
<path d="M11.3875 25.1278V29.7178C11.3875 30.5678 12.0675 31.2478 12.9175 31.2478H35.8675V36.8578C35.8675 37.3678 36.2075 37.8778 36.7175 38.2178C36.8875 38.3878 37.0574 38.3878 37.3974 38.3878C37.7374 38.3878 38.0774 38.2178 38.2474 38.0478L52.3574 26.6578C52.6974 26.3178 52.8675 25.9778 52.8675 25.4678C52.8675 25.2978 52.8675 25.2978 52.8675 25.1278H11.3875Z" fill="#F7941E"/>
<path d="M19.3772 50.2892C16.1472 50.2892 13.5972 52.8392 13.5972 56.0692C13.5972 59.2992 16.1472 61.8492 19.3772 61.8492C22.6072 61.8492 25.1572 59.2992 25.1572 56.0692C25.1572 52.8392 22.6072 50.2892 19.3772 50.2892Z" fill="#31D4FF"/>
<path d="M79.0466 50.2892C75.8166 50.2892 73.2666 52.8392 73.2666 56.0692C73.2666 59.2992 75.8166 61.8492 79.0466 61.8492C82.2766 61.8492 84.8266 59.2992 84.8266 56.0692C84.8266 52.8392 82.2766 50.2892 79.0466 50.2892Z" fill="#31D4FF"/>
</svg>
