<svg width="24" height="24" viewBox="0 0 24 24" fill="none" xmlns="http://www.w3.org/2000/svg">
<path d="M9.25003 8.07019C9.32633 8.02642 9.41283 8.00356 9.50079 8.00391C9.58876 8.00426 9.67507 8.02781 9.75103 8.07219L15.751 11.5722C15.8266 11.6162 15.8892 11.6793 15.9328 11.7551C15.9764 11.8309 15.9993 11.9168 15.9993 12.0042C15.9993 12.0916 15.9764 12.1775 15.9328 12.2533C15.8892 12.3291 15.8266 12.3922 15.751 12.4362L9.75103 15.9362C9.67497 15.9806 9.58853 16.0041 9.50047 16.0043C9.41241 16.0046 9.32584 15.9816 9.24953 15.9376C9.17321 15.8937 9.10986 15.8304 9.06587 15.7541C9.02188 15.6778 8.99882 15.5912 8.99902 15.5032V8.50319C8.99902 8.32419 9.09503 8.16019 9.25003 8.07019Z" fill="black"/>
<path fill-rule="evenodd" clip-rule="evenodd" d="M11.7 3H11.697C11.02 3.005 9.30699 3.024 7.57699 3.094C6.71199 3.13 5.83699 3.178 5.06699 3.246C4.32799 3.312 3.62699 3.4 3.14699 3.534C2.50699 3.714 1.92699 4.064 1.46699 4.544C1.004 5.02494 0.673283 5.61746 0.506991 6.264L0.493991 6.309L0.486991 6.355C-0.0390092 9.565 -0.260009 14.515 0.515991 17.755L0.517991 17.763L0.519991 17.772C0.687835 18.4181 1.01873 19.0104 1.48099 19.492C1.94299 19.972 2.52099 20.322 3.16099 20.502C3.59399 20.625 4.21099 20.708 4.86099 20.769C5.60306 20.8353 6.34661 20.884 7.09099 20.915L7.93399 20.949C9.28399 20.996 10.584 21.013 11.334 21.019L12.077 21.023H12.084C12.455 21.022 14.194 21.015 16.044 20.95C16.968 20.918 17.934 20.871 18.764 20.803C19.574 20.737 20.354 20.645 20.854 20.503C21.494 20.323 22.074 19.973 22.534 19.493C22.997 19.013 23.327 18.423 23.495 17.773L23.505 17.732L23.513 17.69C24.07 14.46 24.256 9.52 23.486 6.29L23.484 6.28L23.481 6.27C23.3131 5.62387 22.9823 5.03164 22.52 4.55C22.0597 4.06996 21.4798 3.72131 20.84 3.54C20.383 3.412 19.71 3.326 19.01 3.262C18.2146 3.1943 17.4177 3.14529 16.62 3.115L16.383 3.105C15.1335 3.05921 13.8823 3.03187 12.632 3.023L12.031 3.019L11.687 3.021L11.7 3ZM2.19999 5.24C2.53713 4.88843 2.9616 4.63271 3.42999 4.499C4.91999 4.076 10.36 4.012 11.71 4.002L12.044 4.001L12.642 4.004C13.441 4.01 14.892 4.029 16.362 4.086L16.597 4.095C18.247 4.163 19.877 4.281 20.587 4.484C21.053 4.614 21.479 4.871 21.817 5.224C22.155 5.577 22.405 6.021 22.531 6.504C23.258 9.544 23.09 14.334 22.545 17.504C22.4205 17.9848 22.1747 18.4255 21.831 18.784C21.494 19.1359 21.0695 19.392 20.601 19.526C19.001 19.98 12.831 20.008 12.091 20.01L11.352 20.007C10.603 20.001 9.31199 19.984 7.97199 19.937L7.54599 19.92L7.13899 19.903C5.58899 19.833 4.10899 19.717 3.43899 19.526C2.96973 19.3948 2.54471 19.1391 2.20899 18.786C1.86532 18.4275 1.61947 17.9868 1.49499 17.506C0.764991 14.486 0.964991 9.686 1.48099 6.506C1.60547 6.02524 1.85132 5.58449 2.19499 5.226L2.19999 5.24Z" fill="black"/>
</svg>
