<svg width="51" height="51" viewBox="0 0 51 51" fill="none" xmlns="http://www.w3.org/2000/svg">
<path d="M11.3883 8.79745C13.0127 5.56915 17.5874 5.56915 19.2117 8.79745L23.7482 17.8142C25.217 20.734 23.126 24.2249 19.8365 24.2249H10.761C7.47152 24.2249 5.38052 20.7314 6.84932 17.8142L11.3883 8.79745ZM28.05 11.4749C28.05 10.4605 28.453 9.48759 29.1703 8.77026C29.8877 8.05294 30.8606 7.64995 31.875 7.64995H39.525C40.5395 7.64995 41.5124 8.05294 42.2297 8.77026C42.947 9.48759 43.35 10.4605 43.35 11.4749V19.1249C43.35 20.1394 42.947 21.1123 42.2297 21.8296C41.5124 22.547 40.5395 22.9499 39.525 22.9499H31.875C30.8606 22.9499 29.8877 22.547 29.1703 21.8296C28.453 21.1123 28.05 20.1394 28.05 19.1249V11.4749ZM34.4123 27.619C34.7999 27.3952 35.2396 27.2774 35.6873 27.2774C36.1349 27.2774 36.5746 27.3952 36.9623 27.619L42.0368 30.5515C42.424 30.7751 42.7457 31.0966 42.9695 31.4837C43.1933 31.8709 43.3113 32.3101 43.3118 32.7572V38.6171C43.3118 39.0648 43.1939 39.5045 42.9701 39.8921C42.7463 40.2797 42.4244 40.6016 42.0368 40.8254L36.9623 43.7554C36.5746 43.9792 36.1349 44.097 35.6873 44.097C35.2396 44.097 34.7999 43.9792 34.4123 43.7554L29.3378 40.8229C28.9505 40.5993 28.6288 40.2778 28.4051 39.8907C28.1813 39.5035 28.0632 39.0643 28.0628 38.6171V32.7572C28.0628 32.3096 28.1806 31.8699 28.4044 31.4823C28.6282 31.0946 28.9501 30.7727 29.3378 30.5489L34.4123 27.619ZM7.65002 35.6999C7.65002 33.671 8.456 31.7252 9.89065 30.2906C11.3253 28.8559 13.2711 28.0499 15.3 28.0499C17.3289 28.0499 19.2747 28.8559 20.7094 30.2906C22.144 31.7252 22.95 33.671 22.95 35.6999C22.95 37.7289 22.144 39.6747 20.7094 41.1093C19.2747 42.544 17.3289 43.3499 15.3 43.3499C13.2711 43.3499 11.3253 42.544 9.89065 41.1093C8.456 39.6747 7.65002 37.7289 7.65002 35.6999Z" fill="#0096C1"/>
</svg>
