<svg width="530" height="348" viewBox="0 0 530 348" fill="none" xmlns="http://www.w3.org/2000/svg">
<path d="M224.606 74.6327V75.1046C224.606 74.79 224.449 74.79 224.606 74.6327L198.496 74.9473C197.71 77.1493 196.609 79.3513 195.508 81.3961L217.843 89.4177C213.91 95.08 208.563 100.585 201.799 105.461L178.678 98.2258C177.42 99.0122 176.161 99.9559 174.746 100.742C173.33 101.529 171.915 102.315 170.499 102.944L183.082 116.314C174.431 120.246 165.151 123.392 155.242 125.594L141.401 112.696C137.626 113.483 134.009 114.112 130.076 114.426L129.447 129.526C118.752 130.47 107.899 130.312 97.2034 129.526L96.417 114.426C92.6421 113.954 88.8672 113.325 85.0923 112.696L71.4084 125.594C61.4993 123.234 52.062 120.246 43.4112 116.156L55.8369 102.787C54.4213 102.001 52.8485 101.371 51.4329 100.585C50.0173 99.7986 48.759 98.8549 47.5007 98.0685L24.5368 105.146C17.6162 100.113 12.2684 94.7655 8.33624 88.9458L30.671 81.0815C29.4127 78.8795 28.3117 76.8347 27.5252 74.6327L1.41562 74.1608C0.629187 71.3297 0.314593 68.4985 0.314593 65.6673L0 63.7799V82.8116L0.314593 84.6991C0.47188 87.3729 0.786474 90.0468 1.41562 92.7207L8.33624 92.878V107.663C12.2684 113.325 17.7734 118.83 24.5368 123.864L43.4112 118.044V134.874C52.062 138.806 61.4993 141.952 71.4084 144.311L85.0923 131.413C88.8672 132.2 92.4848 132.829 96.417 133.143L97.2034 148.243C107.899 149.187 118.752 149.187 129.447 148.243L130.076 133.143C133.851 132.672 137.626 132.042 141.401 131.413L155.242 144.311C165.151 142.109 174.431 138.963 183.082 135.031V118.359L201.799 124.178C208.563 119.145 213.91 113.797 217.843 108.135V93.3499L224.606 93.1926C225.392 89.8896 225.707 86.5865 225.707 83.1262V66.4538C225.55 69.1277 225.235 71.9588 224.606 74.6327Z" fill="#CED3F4"/>
<path d="M217.528 41.1305V59.6904L195.193 67.5547V48.9948L217.528 41.1305Z" fill="#AFB6E5"/>
<path d="M182.295 14.0771V32.637L170.027 45.8491V27.2893L182.295 14.0771Z" fill="#AFB6E5"/>
<path d="M42.9392 13.7626V32.3224L55.3649 45.6918V27.132L42.9392 13.7626Z" fill="url(#paint0_linear_87_6008)"/>
<path d="M8.02124 40.6586V59.2184L30.356 67.2401V48.6802L8.02124 40.6586Z" fill="url(#paint1_linear_87_6008)"/>
<path d="M71.4084 125.436V143.996L85.0924 131.099V112.539L71.4084 125.436Z" fill="#AFB6E5"/>
<path d="M129.29 129.526V148.086L130.076 132.986V114.426L129.29 129.526Z" fill="#AFB6E5"/>
<path d="M97.2033 129.526V148.086L96.2595 132.986V114.426L97.2033 129.526Z" fill="#AFB6E5"/>
<path d="M155.085 125.594V144.154L141.244 131.256V112.696L155.085 125.594Z" fill="#AFB6E5"/>
<path d="M178.678 98.2257V114.898L182.925 116.314V118.201L201.642 124.021V105.461L178.678 98.2257Z" fill="#AFB6E5"/>
<path d="M43.4108 116.156L47.5003 115.37V98.0684L24.5364 105.146V123.706L43.4108 117.887V116.156Z" fill="#AFB6E5"/>
<path d="M8.33622 89.103L27.5252 90.5186V74.6326L1.2583 74.1608V92.7206L8.33622 92.8779V89.103Z" fill="#AFB6E5"/>
<path d="M198.339 74.0034L198.496 93.507L217.685 89.4175V93.1924H224.606V74.6326L198.339 74.0034Z" fill="#AFB6E5"/>
<path d="M132.279 53.8708C121.426 47.5794 104.124 47.5794 93.4289 53.8708C83.8344 59.3759 82.8906 68.0267 90.5977 74.3181C91.3841 73.689 92.3279 72.9026 93.4289 72.2734C104.124 66.1392 121.583 66.1392 132.279 72.2734C133.38 72.9026 134.323 73.689 135.267 74.3181C142.974 68.184 142.031 59.5332 132.279 53.8708Z" fill="url(#paint2_linear_87_6008)"/>
<path d="M327.629 54.6573C317.091 48.5231 299.947 48.5231 289.409 54.6573C280.601 59.8478 279.185 67.5548 285.319 73.5317C286.42 72.4307 287.836 71.487 289.409 70.5433C299.947 64.4091 317.091 64.5664 327.629 70.5433C329.36 71.487 330.618 72.588 331.876 73.689C338.01 67.7121 336.595 59.8478 327.629 54.6573Z" fill="url(#paint3_linear_87_6008)"/>
<path d="M386.455 91.9343L363.019 88.6313C360.975 90.2042 358.773 91.7771 356.413 93.1926C353.897 94.6082 351.223 95.8665 348.549 96.9675L354.054 110.18C354.841 109.708 355.627 109.393 356.413 108.921C358.93 107.506 361.132 105.933 363.019 104.36L386.455 107.663C390.545 103.574 393.69 99.1696 395.735 94.7655V78.8795C393.69 83.4408 390.545 87.8449 386.455 91.9343Z" fill="#CED3F4"/>
<path d="M331.719 115.842L319.136 103.888C312.373 104.517 305.295 104.517 298.532 103.888L285.949 115.685C278.084 114.426 270.534 112.696 263.457 110.337V126.223C270.534 128.582 278.084 130.47 285.949 131.571L298.532 119.774C305.295 120.403 312.373 120.403 319.136 119.774L331.719 131.728C339.426 130.627 346.976 128.74 354.211 126.38V110.494C346.976 113.011 339.426 114.741 331.719 115.842Z" fill="#CED3F4"/>
<path d="M268.962 96.9675C266.13 95.8665 263.456 94.6082 261.097 93.0353C258.581 91.6198 256.379 90.0469 254.334 88.474L230.898 91.6198C226.651 87.5303 223.663 83.1263 221.618 78.5649V94.4509C223.663 99.0123 226.809 103.259 230.898 107.506L254.334 104.36C256.379 105.933 258.581 107.506 261.097 108.921C261.884 109.393 262.67 109.865 263.614 110.18L268.962 96.9675Z" fill="#CED3F4"/>
<path d="M262.984 20.6832V36.5692L268.646 50.0959V34.2099L262.984 20.6832Z" fill="#AFB6E5"/>
<path d="M353.582 20.8406V36.7266L348.077 50.2532V34.3672L353.582 20.8406Z" fill="#AFB6E5"/>
<path d="M395.42 52.6125V68.4985L374.973 75.7337V59.8478L395.42 52.6125Z" fill="#AFB6E5"/>
<path d="M386.455 91.9344V107.82L363.019 104.517V88.6313L386.455 91.9344Z" fill="#AFB6E5"/>
<path d="M331.719 115.842V131.728L318.979 119.931V104.045L331.719 115.842Z" fill="#AFB6E5"/>
<path d="M298.374 119.931V104.045L285.948 115.842V131.728L298.374 119.931Z" fill="#AFB6E5"/>
<path d="M254.334 88.474V104.36L230.898 107.506V91.6197L254.334 88.474Z" fill="#AFB6E5"/>
<path d="M221.461 52.298V68.184L241.908 75.4192V59.5332L221.461 52.298Z" fill="#AFB6E5"/>
<path d="M356.255 93.1926C358.772 91.777 360.974 90.2041 362.862 88.6313L386.297 91.9343C390.387 87.8448 393.533 83.4408 395.577 79.0368L374.973 71.8016C376.074 67.8694 375.916 63.7799 374.973 59.8478L395.42 52.6125C393.375 48.0512 390.229 43.8045 386.14 39.5577L362.704 42.7035C360.66 41.1306 358.458 39.5577 355.941 38.1421C353.424 36.7266 350.75 35.4683 348.077 34.21L353.582 20.6833C346.504 18.324 338.954 16.4365 331.09 15.3355L318.507 27.132C311.743 26.5029 304.665 26.5029 297.902 27.132L285.319 15.1782C277.612 16.2792 270.062 18.1667 262.827 20.526L268.489 34.0527C265.815 35.1537 263.142 36.412 260.625 37.8276C258.108 39.2432 255.906 40.816 254.019 42.3889L230.583 39.0858C226.494 43.1753 223.348 47.5794 221.303 51.9834L241.908 59.2186C240.807 63.1508 240.964 67.2402 241.908 71.1724L221.461 78.4076C223.505 82.9689 226.651 87.2157 230.74 91.4624L254.176 88.3167C256.221 89.8896 258.423 91.4624 260.94 92.878C263.456 94.2936 266.13 95.5519 268.804 96.8102L263.299 110.337C270.377 112.696 277.927 114.584 285.791 115.685L298.374 103.888C305.137 104.517 312.215 104.517 318.978 103.888L331.561 115.842C339.269 114.741 346.818 112.853 354.053 110.494L348.391 96.9675C351.222 95.8665 353.896 94.6082 356.255 93.1926ZM289.408 76.6775C278.87 70.5433 278.713 60.6342 289.251 54.6573C299.789 48.5231 316.934 48.6804 327.472 54.6573C338.01 60.7915 338.168 70.7006 327.629 76.6775C317.248 82.8117 300.104 82.8117 289.408 76.6775Z" fill="url(#paint4_linear_87_6008)"/>
<path d="M268.647 32.9517L263.614 20.8406C263.456 20.8406 263.142 20.9979 262.984 20.9979L268.175 33.2662C268.175 33.109 268.489 33.109 268.647 32.9517Z" fill="url(#paint5_radial_87_6008)"/>
<path d="M375.76 65.3528C375.76 67.0829 375.445 68.8131 375.131 70.386L375.445 70.5432C375.76 68.8131 375.76 67.0829 375.76 65.3528Z" fill="url(#paint6_radial_87_6008)"/>
<path d="M327.629 53.3991C317.091 47.2649 299.947 47.2649 289.408 53.3991C283.746 56.7021 281.229 60.9489 281.544 65.1956C281.859 61.4207 284.375 57.8031 289.408 54.972C299.947 48.8378 317.091 48.9951 327.629 54.972C332.662 57.8031 335.179 61.578 335.493 65.3529C335.808 61.1062 333.291 56.7021 327.629 53.3991Z" fill="url(#paint7_radial_87_6008)"/>
<path d="M348.706 33.4235L353.739 21.1551C353.582 21.1551 353.425 20.9978 353.11 20.9978L348.077 33.1089C348.234 33.2662 348.391 33.2662 348.706 33.4235Z" fill="url(#paint8_radial_87_6008)"/>
<path d="M375.288 60.0051L395.42 52.9272C395.263 52.4553 394.949 51.9835 394.791 51.5116L374.973 58.4322C375.13 59.0614 375.13 59.5332 375.288 60.0051Z" fill="url(#paint9_radial_87_6008)"/>
<path d="M241.908 58.2749L222.09 51.197C221.933 51.6689 221.618 52.1407 221.461 52.6126L241.751 59.8478C241.751 59.3759 241.908 58.9041 241.908 58.2749Z" fill="url(#paint10_radial_87_6008)"/>
<path d="M331.719 114.741L319.136 102.787C312.373 103.416 305.295 103.416 298.532 102.787L285.949 114.584C278.399 113.483 271.007 111.752 264.086 109.393L263.457 110.809C270.535 113.168 278.085 115.055 285.949 116.157L298.532 104.36C305.295 104.989 312.373 104.989 319.136 104.36L331.719 116.314C339.426 115.213 346.976 113.325 354.211 110.966L353.582 109.55C346.662 111.91 339.269 113.64 331.719 114.741Z" fill="url(#paint11_radial_87_6008)"/>
<path d="M241.279 65.0382C241.279 66.7684 241.436 68.6558 241.751 70.386L242.065 70.2287C241.594 68.4985 241.279 66.7684 241.279 65.0382Z" fill="url(#paint12_radial_87_6008)"/>
<path d="M386.455 90.676L363.019 87.373C360.974 88.9459 358.772 90.5188 356.413 91.9343C353.896 93.3499 351.222 94.6082 348.549 95.7092L349.178 96.9675C351.694 95.8665 354.211 94.7655 356.57 93.3499C359.087 91.9343 361.289 90.3615 363.176 88.7886L386.612 92.0916C390.701 88.0022 393.847 83.5981 395.892 79.1941L395.263 78.8795C392.903 83.1263 390.072 87.0584 386.455 90.676Z" fill="url(#paint13_radial_87_6008)"/>
<path d="M268.962 95.7091C266.131 94.6081 263.457 93.3498 261.097 91.777C258.581 90.3614 256.379 88.7885 254.334 87.2157L230.898 90.3614C227.123 86.5865 224.292 82.8116 222.248 78.7222L221.618 79.0367C223.663 83.5981 226.809 87.8448 230.898 92.0916L254.334 88.9458C256.379 90.5187 258.581 92.0916 261.097 93.5071C263.457 94.9227 265.973 96.0237 268.49 97.1247L268.962 95.7091Z" fill="url(#paint14_radial_87_6008)"/>
<path d="M347.29 42.2315C325.742 29.8058 290.824 29.6486 269.433 42.0742C248.042 54.4999 248.042 74.6326 269.747 87.0583C291.296 99.484 326.213 99.6413 347.605 87.2156C368.996 74.7899 368.838 54.6572 347.29 42.2315ZM281.387 80.295C266.287 71.6442 266.287 57.4884 281.229 48.8376C296.172 40.1868 320.551 40.1868 335.651 48.9949C350.75 57.6457 350.75 71.8015 335.808 80.4523C320.866 89.1031 296.486 89.1031 281.387 80.295Z" fill="white"/>
<path d="M347.29 43.1754C325.742 30.7497 290.824 30.5924 269.433 43.0181C248.042 55.4438 248.042 75.5765 269.747 88.0022C291.296 100.428 326.213 100.585 347.605 88.1595C368.996 75.7338 368.838 55.6011 347.29 43.1754ZM281.387 81.2388C266.287 72.5881 266.287 58.4322 281.229 49.7814C296.172 41.1306 320.551 41.1307 335.651 49.9387C350.75 58.5895 350.75 72.7453 335.808 81.3961C320.866 90.0469 296.486 90.0469 281.387 81.2388Z" fill="url(#paint15_linear_87_6008)"/>
<path d="M269.433 45.0629C290.824 32.6372 325.742 32.7945 347.29 45.2202C357.671 51.1971 363.176 59.0614 363.491 66.9258C363.963 58.4323 358.615 49.7815 347.29 43.3327C325.742 30.9071 290.824 30.7498 269.433 43.1754C258.423 49.6242 253.075 57.9604 253.547 66.4539C253.862 58.5896 259.21 50.8825 269.433 45.0629Z" fill="url(#paint16_linear_87_6008)"/>
<path d="M281.387 83.2837C296.487 91.9345 320.866 92.0918 335.808 83.441C343.673 78.8797 347.447 72.9027 346.976 66.7685C346.661 72.1163 342.886 77.4641 335.808 81.3962C320.866 90.047 296.487 90.047 281.387 81.239C274.309 77.1495 270.534 71.8017 270.062 66.454C269.59 72.4309 273.365 78.5651 281.387 83.2837Z" fill="url(#paint17_linear_87_6008)"/>
<mask id="mask0_87_6008" style="mask-type:luminance" maskUnits="userSpaceOnUse" x="253" y="33" width="111" height="65">
<path d="M347.29 43.1754C325.742 30.7497 290.824 30.5924 269.433 43.0181C248.042 55.4438 248.042 75.5765 269.747 88.0022C291.296 100.428 326.213 100.585 347.605 88.1595C368.996 75.7338 368.838 55.6011 347.29 43.1754ZM281.387 81.2388C266.287 72.5881 266.287 58.4322 281.229 49.7814C296.172 41.1306 320.551 41.1307 335.651 49.9387C350.75 58.5895 350.75 72.7453 335.808 81.3961C320.866 90.0469 296.486 90.0469 281.387 81.2388Z" fill="white"/>
</mask>
<g mask="url(#mask0_87_6008)">
<path d="M347.133 63.6227H269.905V98.2258H347.133V63.6227Z" fill="url(#paint18_linear_87_6008)"/>
</g>
<path d="M174.746 100.742C176.161 99.9559 177.42 99.1695 178.678 98.2258L201.799 105.461C208.563 100.428 213.91 95.08 217.842 89.4177L195.508 81.396C196.766 79.194 197.867 77.1493 198.496 74.9473L224.606 74.6327C226.179 68.4985 226.021 62.207 224.449 56.0728L198.339 55.601C197.552 53.3989 196.451 51.1969 195.193 49.1522L217.528 41.2879C213.596 35.6255 208.091 30.1205 201.327 25.0873L178.363 32.1652C177.105 31.3788 175.847 30.435 174.431 29.6486C173.016 28.8622 171.6 28.0757 170.027 27.4466L182.453 14.0772C173.802 10.145 164.365 6.99927 154.456 4.63997L140.772 17.5375C136.997 16.7511 133.379 16.1219 129.447 15.8073L128.661 0.707792C117.965 -0.235931 107.112 -0.235931 96.4169 0.707792L95.7878 15.8073C92.0129 16.2792 88.238 16.9084 84.4631 17.5375L70.6218 4.63997C60.7128 6.84199 51.4328 9.98773 42.782 13.9199L55.365 27.2893C53.9494 28.0757 52.3765 28.7049 51.1182 29.4913C49.7026 30.2778 48.4443 31.0642 47.186 32.0079L24.0649 24.7727C17.3015 29.8059 11.9537 35.1537 8.02157 40.816L30.3563 48.8376C29.0981 51.0397 27.9971 53.0844 27.3679 55.2864L1.25825 55.601C-0.314624 61.7352 -0.157328 68.0266 1.41554 74.1608L27.5252 74.6327C28.3116 76.8347 29.4126 79.0368 30.6709 81.0815L8.33616 88.9458C12.2683 94.6082 17.7734 100.113 24.5367 105.146L47.5006 98.0685C48.7589 98.8549 50.0172 99.7986 51.4328 100.585C52.8484 101.371 54.264 102.158 55.8368 102.787L43.4112 116.156C52.0619 120.089 61.4992 123.234 71.4083 125.594L85.0922 112.696C88.8671 113.483 92.4847 114.112 96.4169 114.426L97.2033 129.526C107.899 130.47 118.752 130.47 129.447 129.526L130.076 114.426C133.851 113.954 137.626 113.325 141.401 112.696L155.242 125.594C165.151 123.392 174.431 120.246 183.082 116.314L170.499 102.944C171.915 102.315 173.33 101.529 174.746 100.742ZM93.4285 76.2056C82.5757 69.9141 82.5756 59.8477 93.2712 53.7135C103.967 47.5793 121.426 47.5793 132.121 53.7135C142.974 60.005 142.974 70.0714 132.278 76.2056C121.74 82.4971 104.281 82.4971 93.4285 76.2056Z" fill="url(#paint19_linear_87_6008)"/>
<path d="M55.3654 26.1883L43.8835 13.9199C43.5689 14.0772 43.097 14.2345 42.7825 14.3918L54.2644 26.6602C54.7363 26.5029 55.0509 26.3456 55.3654 26.1883Z" fill="url(#paint20_radial_87_6008)"/>
<path d="M195.98 49.3095L217.528 41.6024C217.214 41.1306 216.899 40.816 216.584 40.3441L195.193 47.8939C195.508 48.3658 195.665 48.8376 195.98 49.3095Z" fill="url(#paint21_radial_87_6008)"/>
<path d="M30.3565 47.0287L8.96546 39.3217C8.65089 39.7935 8.3363 40.1081 8.02173 40.58L29.7274 48.287C29.8847 47.8152 30.1992 47.3433 30.3565 47.0287Z" fill="url(#paint22_radial_87_6008)"/>
<path d="M170.971 26.8174L182.296 14.549C181.981 14.3917 181.509 14.2344 181.195 14.0771L169.87 26.1882C170.342 26.5028 170.657 26.6601 170.971 26.8174Z" fill="url(#paint23_radial_87_6008)"/>
<path d="M201.642 104.517L178.521 97.2821C177.263 98.0685 176.005 99.0122 174.589 99.7987C173.173 100.585 171.758 101.372 170.342 102.001L171.286 103.102C172.387 102.473 173.488 102.001 174.589 101.372C176.005 100.585 177.263 99.7987 178.521 98.8549L201.642 106.09C208.406 101.057 213.754 95.7092 217.686 90.0469L216.742 89.7323C212.967 94.9228 207.934 99.9559 201.642 104.517Z" fill="url(#paint24_radial_87_6008)"/>
<path d="M29.8849 79.7438L30.6713 79.4292C29.413 77.2272 28.312 75.1824 27.5256 72.9804L1.41597 72.5086C0.629535 69.6774 0.314941 66.689 0.314941 63.8578C0.314941 67.3181 0.629535 70.6211 1.41597 74.0814L27.5256 74.5533C27.9974 76.2834 28.9412 78.0136 29.8849 79.7438Z" fill="url(#paint25_radial_87_6008)"/>
<path d="M224.606 73.5317L198.497 73.8462C197.71 76.0482 196.609 78.2503 195.508 80.295L196.295 80.6096C197.238 78.8794 198.025 77.1492 198.654 75.4191L224.764 75.1045C225.55 71.8015 225.865 68.4985 225.865 65.1954C225.55 68.0266 225.236 70.8578 224.606 73.5317Z" fill="url(#paint26_radial_87_6008)"/>
<path d="M155.085 124.65L141.244 111.752C137.469 112.539 133.851 113.168 129.919 113.483L129.29 128.582C118.594 129.526 107.742 129.369 97.0461 128.582L96.2597 113.483C92.4848 113.011 88.7099 112.382 84.935 111.752L71.251 124.65C61.8138 122.448 52.6911 119.46 44.3549 115.685L43.2539 116.786C51.9047 120.718 61.3419 123.864 71.251 126.223L84.935 113.325C88.7099 114.112 92.3275 114.741 96.2597 115.055L97.0461 130.155C107.742 131.099 118.594 131.099 129.29 130.155L129.919 115.055C133.694 114.584 137.469 113.954 141.244 113.325L155.085 126.223C164.994 124.021 174.274 120.875 182.925 116.943L181.824 115.842C173.488 119.459 164.522 122.448 155.085 124.65Z" fill="url(#paint27_radial_87_6008)"/>
<path d="M51.4331 101.057C52.5341 101.687 53.6352 102.316 54.7362 102.788L55.6799 101.687C54.2643 100.9 52.6914 100.271 51.2758 99.4846C49.8603 98.6982 48.602 97.7544 47.3437 96.968L24.3797 104.046C18.0883 99.4846 12.8978 94.4514 9.12293 89.1036L8.1792 89.4182C12.1114 95.0805 17.6164 100.586 24.3797 105.619L47.3437 98.5409C48.7592 99.4846 50.0175 100.271 51.4331 101.057Z" fill="url(#paint28_radial_87_6008)"/>
<path d="M163.264 34.9963C135.267 18.7958 89.9679 18.7958 62.1281 34.839C34.2883 50.8823 34.4456 77.1493 62.4427 93.1925C90.4398 109.393 135.738 109.393 163.578 93.3498C191.575 77.3065 191.418 51.1969 163.264 34.9963ZM78.0141 84.2272C58.6678 73.0598 58.5105 54.9718 77.8568 43.8044C97.2031 32.637 128.503 32.7943 147.85 43.9617C167.196 55.1291 167.353 73.2171 148.007 84.3845C128.818 95.5518 97.3604 95.5518 78.0141 84.2272Z" fill="url(#paint29_radial_87_6008)"/>
<path d="M163.264 35.94C135.267 19.7395 89.9679 19.7395 62.1281 35.7828C34.2883 51.8261 34.4456 78.093 62.4427 94.1363C90.4398 110.337 135.738 110.337 163.578 94.2935C191.575 78.2503 191.418 52.1406 163.264 35.94ZM78.0141 85.1709C58.6678 74.0035 58.5105 55.9155 77.8568 44.7481C97.2031 33.5808 128.503 33.738 147.85 44.9054C167.196 56.0728 167.353 74.1608 148.007 85.3282C128.818 96.4956 97.3604 96.4956 78.0141 85.1709Z" fill="url(#paint30_linear_87_6008)"/>
<path d="M62.1284 37.8276C89.9683 21.7843 135.267 21.7843 163.264 37.9848C176.948 45.8492 183.869 56.0728 184.34 66.2965C184.812 55.2864 177.734 44.2763 163.264 35.7828C135.267 19.5823 89.9683 19.5823 62.1284 35.6255C47.8153 43.9617 40.8947 54.8146 41.3666 65.6674C41.8384 55.7583 48.759 45.5346 62.1284 37.8276Z" fill="url(#paint31_linear_87_6008)"/>
<path d="M78.0149 87.373C97.3612 98.5404 128.819 98.6976 148.008 87.5303C158.074 81.7106 162.793 74.0036 162.321 66.4538C161.849 73.3744 157.13 80.1378 148.008 85.4855C128.661 96.6529 97.3612 96.4956 78.0149 85.3282C68.7349 79.9805 63.859 73.0599 63.3872 65.9819C62.9153 73.5317 67.7912 81.3961 78.0149 87.373Z" fill="url(#paint32_linear_87_6008)"/>
<path d="M132.279 52.298C121.426 46.0065 104.125 46.0065 93.4291 52.298C87.6095 55.601 85.0929 60.005 85.5648 64.4091C85.8793 60.6342 88.5532 57.0166 93.4291 54.1854C104.125 48.0512 121.583 48.0512 132.279 54.1854C137.312 57.0166 139.986 60.7915 140.301 64.5664C140.772 60.1623 138.099 55.7583 132.279 52.298Z" fill="url(#paint33_radial_87_6008)"/>
<path d="M148.008 83.9126C128.661 95.08 97.3612 94.9227 78.0149 83.7554C68.7349 78.4076 63.859 71.3297 63.3872 64.4091C62.9153 72.1161 67.7912 79.8232 78.0149 85.8001C97.3612 96.9675 128.819 97.1248 148.008 85.9574C158.074 80.1378 162.793 72.588 162.321 64.8809C162.006 71.6443 157.13 78.5649 148.008 83.9126Z" fill="url(#paint34_radial_87_6008)"/>
<path d="M383.308 198.732C361.76 186.307 326.842 186.149 305.451 198.575C290.352 207.226 285.948 219.809 292.239 230.819C294.756 226.258 299.16 222.011 305.451 218.236C326.842 205.81 361.76 205.968 383.308 218.393C389.757 222.168 394.161 226.415 396.835 231.134C402.969 220.281 398.565 207.54 383.308 198.732Z" fill="url(#paint35_linear_87_6008)"/>
<path d="M412.406 299.553C406.115 301.441 399.509 302.856 392.903 304.115L398.565 322.517C403.284 321.574 407.845 320.473 412.249 319.057L432.539 335.729C443.235 332.426 453.301 328.494 462.896 323.933V304.272C453.301 308.833 443.077 312.765 432.539 316.068L412.406 299.553Z" fill="#CED3F4"/>
<path d="M488.847 289.644L459.12 278.634C456.761 280.207 454.402 281.623 452.042 283.038C449.526 284.454 447.009 285.869 444.335 287.128L457.705 299.239C458.176 298.924 458.648 298.61 459.277 298.295L489.005 309.305C496.869 303.8 503.632 297.823 509.295 291.689V272.028C503.475 278.32 496.712 284.139 488.847 289.644Z" fill="#CED3F4"/>
<path d="M363.175 328.337L355.468 308.361C348.39 308.676 341.469 308.676 334.391 308.361L326.841 328.18C314.73 327.55 302.619 326.135 290.823 323.933V343.594C302.619 345.638 314.73 347.054 326.841 347.84L334.391 328.022C341.469 328.337 348.547 328.337 355.468 328.022L363.175 347.998C375.286 347.368 387.397 345.953 399.193 343.908V324.247C387.397 326.292 375.443 327.55 363.175 328.337Z" fill="#CED3F4"/>
<path d="M529.9 232.077C528.799 239.155 526.439 246.076 522.822 252.839L488.061 249.221C485.859 252.996 483.185 256.771 480.04 260.546L505.205 270.77L522.664 272.657C526.125 265.894 528.484 258.973 529.742 251.895V232.077H529.9Z" fill="#CED3F4"/>
<path d="M296.957 303.957C290.351 302.699 283.745 301.126 277.454 299.239L257.321 315.911C246.626 312.608 236.402 308.676 226.807 304.115V323.775C236.402 328.337 246.626 332.269 257.321 335.572L277.454 318.9C282.015 320.158 286.734 321.416 291.452 322.36L296.957 303.957Z" fill="#CED3F4"/>
<path d="M209.191 259.917C206.045 256.299 203.214 252.525 201.012 248.592L166.252 252.053C162.634 245.289 160.275 238.369 159.017 231.291V250.952C160.275 258.03 162.634 264.95 166.252 271.714L184.025 269.983L209.191 259.917Z" fill="#CED3F4"/>
<path d="M232.155 299.081L245.525 286.97C242.851 285.712 240.334 284.296 237.817 282.881C235.301 281.465 232.942 279.892 230.582 278.319L200.855 289.172C192.991 283.667 186.07 277.69 180.408 271.556V291.217C186.07 297.351 192.991 303.328 200.855 308.833L230.582 297.98C231.054 298.295 231.683 298.767 232.155 299.081Z" fill="#CED3F4"/>
<path d="M529.742 211.001V230.662L496.083 235.695L495.453 215.405L529.742 211.001Z" fill="#AFB6E5"/>
<path d="M508.508 170.893V190.553L479.725 202.193V182.375L508.508 170.893Z" fill="#AFB6E5"/>
<path d="M462.266 138.334V157.995L443.391 175.139V155.479L462.266 138.334Z" fill="#AFB6E5"/>
<path d="M398.093 118.359V138.02L392.116 158.152V138.492L398.093 118.359Z" fill="#AFB6E5"/>
<path d="M289.722 118.201V137.862L296.014 157.995V138.177L289.722 118.201Z" fill="#AFB6E5"/>
<path d="M225.864 137.862V157.523L244.895 174.825V155.007L225.864 137.862Z" fill="#AFB6E5"/>
<path d="M179.936 170.263V189.924L208.876 201.721V181.903L179.936 170.263Z" fill="#AFB6E5"/>
<path d="M159.017 210.372V230.033L193.462 234.594V214.776L159.017 210.372Z" fill="#AFB6E5"/>
<path d="M166.409 252.21V271.871L201.17 268.411V248.592L166.409 252.21Z" fill="#AFB6E5"/>
<path d="M230.582 278.32V297.981L200.855 308.833V289.172L230.582 278.32Z" fill="#AFB6E5"/>
<path d="M277.296 299.239V318.9L257.164 335.572V315.911L277.296 299.239Z" fill="#AFB6E5"/>
<path d="M355.468 328.022V308.361L363.175 328.337V347.998L355.468 328.022Z" fill="#AFB6E5"/>
<path d="M334.392 308.361V328.022L326.842 347.841V328.18L334.392 308.361Z" fill="#AFB6E5"/>
<path d="M412.406 299.553V319.214L432.696 335.887V316.226L412.406 299.553Z" fill="#AFB6E5"/>
<path d="M458.963 278.792V298.453L488.848 309.463V289.644L458.963 278.792Z" fill="#AFB6E5"/>
<path d="M488.218 249.222V268.882L522.821 272.5V252.839L488.218 249.222Z" fill="#AFB6E5"/>
<path d="M451.885 283.196C454.402 281.78 456.761 280.207 458.963 278.791L488.69 289.802C496.555 284.297 503.318 278.32 508.98 272.185L480.04 260.389C483.185 256.771 485.859 252.996 488.061 249.064L522.822 252.682C526.282 245.919 528.641 238.998 529.9 231.92L495.454 227.516C495.926 223.426 495.926 219.337 495.454 215.405L529.9 211.001C528.641 203.923 526.282 197.002 522.664 190.239L487.904 193.699C485.702 189.924 482.871 186.149 479.725 182.375L508.509 170.735C502.846 164.601 495.926 158.624 488.061 153.119L458.334 163.972C455.975 162.399 453.615 160.984 451.099 159.411C448.582 157.995 445.908 156.58 443.392 155.321L462.266 138.177C452.672 133.616 442.448 129.683 431.753 126.38L411.62 143.053C405.328 141.165 398.722 139.592 392.116 138.334L398.093 118.359C386.297 116.314 374.185 114.898 362.074 114.112L354.525 133.93C347.447 133.616 340.369 133.616 333.448 133.93L325.741 113.955C313.63 114.584 301.519 115.999 289.722 118.044L296.014 138.177C289.408 139.435 282.802 141.008 276.51 142.738L256.22 126.066C245.525 129.369 235.458 133.301 225.864 137.862L244.896 155.007C242.222 156.265 239.705 157.681 237.188 159.096C234.672 160.512 232.313 162.085 230.111 163.5L200.383 152.49C192.519 157.995 185.756 163.972 180.093 170.106L209.034 181.903C205.888 185.52 203.214 189.295 201.012 193.227L166.252 189.61C162.792 196.373 160.432 203.294 159.174 210.372L193.62 214.776C193.148 218.865 193.148 222.955 193.62 226.887L159.174 231.291C160.432 238.369 162.792 245.289 166.409 252.053L201.17 248.592C203.372 252.367 206.203 256.142 209.349 259.917L180.565 271.556C186.227 277.691 193.148 283.667 201.012 289.172L230.74 278.32C233.099 279.893 235.458 281.308 237.975 282.881C240.491 284.297 243.165 285.712 245.682 286.97L226.807 304.115C236.402 308.676 246.626 312.608 257.321 315.911L277.454 299.239C283.745 301.126 290.351 302.699 296.958 303.957L290.981 323.933C302.777 325.978 314.888 327.393 326.999 328.18L334.549 308.361C341.627 308.676 348.705 308.676 355.626 308.361L363.333 328.337C375.444 327.708 387.555 326.292 399.351 324.247L393.06 304.115C399.666 302.856 406.272 301.284 412.563 299.553L432.854 316.226C443.549 312.923 453.615 308.991 463.21 304.429L444.178 287.285C446.695 286.027 449.369 284.611 451.885 283.196ZM305.608 243.559C284.06 231.134 283.903 211.001 305.294 198.575C326.685 186.149 361.603 186.307 383.151 198.732C404.699 211.158 404.856 231.291 383.465 243.717C362.074 256.142 327.157 255.985 305.608 243.559Z" fill="url(#paint36_linear_87_6008)"/>
<path d="M437.572 165.859C385.824 135.975 302.148 135.818 250.715 165.545C199.282 195.272 199.596 243.559 251.344 273.444C303.091 303.328 386.768 303.486 438.201 273.758C489.634 244.031 489.319 195.744 437.572 165.859ZM270.69 262.119C229.796 238.526 229.481 200.305 270.218 176.712C310.956 153.276 377.174 153.276 418.068 177.027C458.963 200.62 459.277 238.841 418.54 262.434C377.96 285.869 311.742 285.869 270.69 262.119Z" fill="white"/>
<path d="M437.572 167.432C385.824 137.548 302.148 137.39 250.715 167.118C199.282 196.845 199.596 245.132 251.344 275.017C303.091 304.901 386.768 305.058 438.201 275.331C489.634 245.604 489.319 197.317 437.572 167.432ZM270.69 263.692C229.796 240.099 229.481 201.878 270.218 178.285C310.956 154.849 377.174 154.849 418.068 178.6C458.963 202.193 459.277 240.413 418.54 264.006C377.96 287.6 311.742 287.442 270.69 263.692Z" fill="url(#paint37_linear_87_6008)"/>
<path d="M250.715 170.893C302.148 141.165 385.825 141.323 437.572 171.207C462.738 185.678 475.636 204.552 476.422 223.584C477.366 203.294 464.311 182.846 437.572 167.432C385.825 137.548 302.148 137.39 250.715 167.118C224.291 182.374 211.551 202.507 212.337 222.64C213.281 203.766 226.021 185.206 250.715 170.893Z" fill="url(#paint38_linear_87_6008)"/>
<path d="M270.691 267.624C311.586 291.217 377.804 291.374 418.541 267.939C439.618 255.827 449.684 239.627 448.897 223.584C448.111 238.369 438.045 252.839 418.541 264.006C377.804 287.442 311.586 287.442 270.691 263.692C250.873 252.21 240.649 237.425 239.863 222.64C239.076 238.84 249.3 255.198 270.691 267.624Z" fill="url(#paint39_linear_87_6008)"/>
<path d="M402.654 187.565C370.253 168.848 318.034 168.848 285.947 187.408C253.861 205.968 254.018 236.167 286.262 254.884C318.663 273.601 370.882 273.601 402.969 255.041C435.213 236.481 435.055 206.282 402.654 187.565ZM383.465 243.717C362.074 256.142 327.157 255.985 305.608 243.559C284.06 231.134 283.903 211.001 305.294 198.575C326.685 186.149 361.603 186.307 383.151 198.732C404.856 211.315 405.014 231.291 383.465 243.717Z" fill="url(#paint40_linear_87_6008)"/>
<path d="M285.947 191.497C318.034 172.937 370.41 173.095 402.654 191.654C418.068 200.62 426.09 212.102 426.876 223.584C427.82 210.686 419.798 197.474 402.654 187.565C370.253 168.848 318.034 168.848 285.947 187.408C269.118 197.16 261.096 210.057 262.04 222.797C262.826 211.315 270.848 200.148 285.947 191.497Z" fill="#AFB6E5"/>
<path d="M418.226 178.6C377.331 155.007 311.113 154.849 270.376 178.285C229.638 201.721 229.796 240.099 270.848 263.692C311.742 287.285 377.96 287.442 418.697 264.007C459.435 240.571 459.12 202.35 418.226 178.6ZM286.262 254.727C253.861 236.009 253.703 205.81 285.947 187.25C318.034 168.691 370.41 168.848 402.654 187.408C435.055 206.125 435.212 236.324 402.969 254.884C370.882 273.601 318.663 273.444 286.262 254.727Z" fill="url(#paint41_linear_87_6008)"/>
<path d="M495.768 221.224C495.768 222.797 495.611 224.37 495.453 225.786H495.611C495.768 224.37 495.768 222.797 495.768 221.224Z" fill="url(#paint42_radial_87_6008)"/>
<path d="M296.014 136.604L290.509 118.831C290.194 118.831 290.037 118.831 289.722 118.988L295.227 136.761C295.542 136.604 295.699 136.604 296.014 136.604Z" fill="url(#paint43_radial_87_6008)"/>
<path d="M244.895 153.434L227.751 137.862C227.122 138.177 226.493 138.334 225.864 138.649L243.165 154.22C243.637 153.906 244.266 153.591 244.895 153.434Z" fill="url(#paint44_radial_87_6008)"/>
<path d="M495.61 216.034L529.742 211.787C529.584 211.001 529.427 210.214 529.27 209.428L495.296 213.675C495.453 214.461 495.61 215.247 495.61 216.034Z" fill="url(#paint45_radial_87_6008)"/>
<path d="M383.308 197.002C361.759 184.576 326.842 184.419 305.451 196.845C294.283 203.294 288.935 211.944 289.565 220.438C290.036 212.731 295.384 205.181 305.451 199.361C326.842 186.936 361.759 187.093 383.308 199.519C393.689 205.496 399.036 213.203 399.508 220.91C400.137 212.416 394.632 203.608 383.308 197.002Z" fill="url(#paint46_radial_87_6008)"/>
<path d="M392.745 136.919L398.093 119.145C397.936 119.145 397.621 119.145 397.307 118.988L391.959 136.604C392.273 136.761 392.431 136.761 392.745 136.919Z" fill="url(#paint47_radial_87_6008)"/>
<path d="M445.121 154.692L462.266 139.121C461.636 138.806 461.007 138.649 460.378 138.334L443.391 153.748C444.02 154.063 444.492 154.377 445.121 154.692Z" fill="url(#paint48_radial_87_6008)"/>
<path d="M481.297 182.532L508.508 171.522C507.879 170.893 507.407 170.263 506.778 169.792L479.725 180.644C480.196 181.274 480.668 181.903 481.297 182.532Z" fill="url(#paint49_radial_87_6008)"/>
<path d="M208.876 180.172L181.666 169.162C181.037 169.792 180.407 170.263 179.936 170.892L207.303 182.06C207.775 181.431 208.247 180.802 208.876 180.172Z" fill="url(#paint50_radial_87_6008)"/>
<path d="M488.847 288.071L459.12 277.061C456.761 278.634 454.402 280.05 452.042 281.465C449.526 282.881 447.009 284.297 444.335 285.555L446.065 287.128C448.11 286.027 450.155 285.083 452.042 283.825C454.559 282.409 456.918 280.836 459.12 279.421L488.847 290.431C496.712 284.926 503.475 278.949 509.137 272.815L507.407 272.185C502.06 277.69 495.925 283.038 488.847 288.071Z" fill="url(#paint51_radial_87_6008)"/>
<path d="M432.697 314.496L412.406 297.823C406.115 299.711 399.509 301.126 392.903 302.384L393.689 304.744C400.138 303.485 406.272 302.07 412.406 300.34L432.697 317.012C443.392 313.709 453.458 309.777 463.053 305.216L461.165 303.485C452.2 307.732 442.763 311.507 432.697 314.496Z" fill="url(#paint52_radial_87_6008)"/>
<path d="M363.175 326.607L355.468 306.631C348.39 306.946 341.469 306.946 334.391 306.631L326.841 326.45C314.888 325.82 303.091 324.405 291.609 322.36L290.823 324.719C302.619 326.764 314.73 328.18 326.841 328.966L334.391 309.148C341.469 309.463 348.547 309.463 355.468 309.148L363.175 329.123C375.286 328.494 387.397 327.079 399.193 325.034L398.407 322.675C386.925 324.562 375.129 325.82 363.175 326.607Z" fill="url(#paint53_radial_87_6008)"/>
<path d="M522.822 251.109L488.061 247.491C485.859 251.266 483.185 255.041 480.04 258.816L481.612 259.445C484.129 256.299 486.331 253.311 488.061 250.008L522.822 253.626C526.282 246.862 528.641 239.942 529.9 232.864H529.428C528.169 238.998 525.967 245.132 522.822 251.109Z" fill="url(#paint54_radial_87_6008)"/>
<path d="M237.817 283.51C239.705 284.611 241.75 285.712 243.794 286.813L245.525 285.24C242.851 283.982 240.334 282.566 237.817 281.151C235.301 279.735 232.942 278.162 230.582 276.589L200.855 287.442C193.62 282.409 187.486 277.061 182.138 271.556L180.408 272.185C186.07 278.32 192.991 284.296 200.855 289.802L230.582 278.949C232.942 280.522 235.301 282.094 237.817 283.51Z" fill="url(#paint55_radial_87_6008)"/>
<path d="M296.957 302.227C290.351 300.969 283.745 299.396 277.454 297.509L257.321 314.181C247.255 311.035 237.66 307.418 228.537 303.171L226.65 304.901C236.244 309.462 246.468 313.395 257.164 316.698L277.296 300.025C283.431 301.755 289.722 303.328 296.171 304.586L296.957 302.227Z" fill="url(#paint56_radial_87_6008)"/>
<path d="M207.776 258.816L209.349 258.187C206.203 254.569 203.372 250.794 201.17 246.862L166.409 250.323C163.264 244.346 160.904 238.211 159.646 231.92H159.174C160.432 238.998 162.792 245.918 166.409 252.682L201.17 249.221C202.9 252.682 205.102 255.828 207.776 258.816Z" fill="url(#paint57_radial_87_6008)"/>
<path d="M193.462 213.045L159.488 208.641C159.331 209.428 159.174 210.214 159.017 211.001L193.305 215.405C193.305 214.776 193.462 213.989 193.462 213.045Z" fill="url(#paint58_radial_87_6008)"/>
<path d="M193.148 220.281C193.148 222.011 193.148 223.741 193.305 225.314H193.463C193.305 223.584 193.305 221.854 193.148 220.281Z" fill="url(#paint59_radial_87_6008)"/>
<defs>
<linearGradient id="paint0_linear_87_6008" x1="51.8166" y1="24.8869" x2="24.9073" y2="73.7046" gradientUnits="userSpaceOnUse">
<stop stop-color="#AFB6E5"/>
<stop offset="0.1449" stop-color="#B6BCE8"/>
<stop offset="0.3485" stop-color="#C8CDF1"/>
<stop offset="0.5808" stop-color="#E5E9FF"/>
<stop offset="0.8551" stop-color="#F5F6FF"/>
<stop offset="1" stop-color="white"/>
</linearGradient>
<linearGradient id="paint1_linear_87_6008" x1="21.8337" y1="47.2857" x2="3.73533" y2="93.7222" gradientUnits="userSpaceOnUse">
<stop stop-color="#AFB6E5"/>
<stop offset="0.1449" stop-color="#B6BCE8"/>
<stop offset="0.3485" stop-color="#C8CDF1"/>
<stop offset="0.5808" stop-color="#E5E9FF"/>
<stop offset="0.8551" stop-color="#F5F6FF"/>
<stop offset="1" stop-color="white"/>
</linearGradient>
<linearGradient id="paint2_linear_87_6008" x1="141.03" y1="61.7747" x2="84.4903" y2="61.7747" gradientUnits="userSpaceOnUse">
<stop stop-color="#B9BFEA"/>
<stop offset="0.2475" stop-color="#E5E9FF"/>
<stop offset="0.702" stop-color="#AFB6E5"/>
<stop offset="0.9464" stop-color="#BAC0EA"/>
<stop offset="1" stop-color="#BDC3EC"/>
</linearGradient>
<linearGradient id="paint3_linear_87_6008" x1="334.555" y1="61.8208" x2="281.053" y2="61.8208" gradientUnits="userSpaceOnUse">
<stop stop-color="#B9BFEA"/>
<stop offset="0.2475" stop-color="#E5E9FF"/>
<stop offset="0.702" stop-color="#AFB6E5"/>
<stop offset="0.9464" stop-color="#BAC0EA"/>
<stop offset="1" stop-color="#BDC3EC"/>
</linearGradient>
<linearGradient id="paint4_linear_87_6008" x1="300.35" y1="-86.9726" x2="312.934" y2="148.171" gradientUnits="userSpaceOnUse">
<stop offset="0.020202" stop-color="#E5E9FF"/>
<stop offset="0.6613" stop-color="#F5F6FF"/>
<stop offset="1" stop-color="white"/>
</linearGradient>
<radialGradient id="paint5_radial_87_6008" cx="0" cy="0" r="1" gradientUnits="userSpaceOnUse" gradientTransform="translate(265.763 27.0385) scale(4.82353 4.82352)">
<stop stop-color="white"/>
<stop offset="1" stop-color="#AEAEAE"/>
</radialGradient>
<radialGradient id="paint6_radial_87_6008" cx="0" cy="0" r="1" gradientUnits="userSpaceOnUse" gradientTransform="translate(375.418 67.992) scale(1.85421 1.85409)">
<stop stop-color="white"/>
<stop offset="1"/>
</radialGradient>
<radialGradient id="paint7_radial_87_6008" cx="0" cy="0" r="1" gradientUnits="userSpaceOnUse" gradientTransform="translate(308.516 57.0505) scale(19.9851 19.9851)">
<stop stop-color="white"/>
<stop offset="1" stop-color="#C3CBFF"/>
</radialGradient>
<radialGradient id="paint8_radial_87_6008" cx="0" cy="0" r="1" gradientUnits="userSpaceOnUse" gradientTransform="translate(350.857 27.1913) scale(4.79349 4.79348)">
<stop stop-color="white"/>
<stop offset="1" stop-color="#AEAEAE"/>
</radialGradient>
<radialGradient id="paint9_radial_87_6008" cx="0" cy="0" r="1" gradientUnits="userSpaceOnUse" gradientTransform="translate(385.24 55.8288) scale(7.83982 7.83981)">
<stop stop-color="white"/>
<stop offset="1" stop-color="#AEAEAE"/>
</radialGradient>
<radialGradient id="paint10_radial_87_6008" cx="0" cy="0" r="1" gradientUnits="userSpaceOnUse" gradientTransform="translate(231.689 55.5523) scale(7.87662)">
<stop stop-color="white"/>
<stop offset="1" stop-color="#AEAEAE"/>
</radialGradient>
<radialGradient id="paint11_radial_87_6008" cx="0" cy="0" r="1" gradientUnits="userSpaceOnUse" gradientTransform="translate(308.76 109.546) scale(32.4257 32.4257)">
<stop stop-color="white"/>
<stop offset="1" stop-color="#AEAEAE"/>
</radialGradient>
<radialGradient id="paint12_radial_87_6008" cx="0" cy="0" r="1" gradientUnits="userSpaceOnUse" gradientTransform="translate(241.649 67.6872) scale(1.90569 1.90569)">
<stop stop-color="white"/>
<stop offset="1"/>
</radialGradient>
<radialGradient id="paint13_radial_87_6008" cx="0" cy="0" r="1" gradientUnits="userSpaceOnUse" gradientTransform="translate(372.027 88.159) scale(17.8673 17.8673)">
<stop stop-color="white"/>
<stop offset="1" stop-color="#AEAEAE"/>
</radialGradient>
<radialGradient id="paint14_radial_87_6008" cx="0" cy="0" r="1" gradientUnits="userSpaceOnUse" gradientTransform="translate(245.248 87.9308) scale(17.9545 17.9545)">
<stop stop-color="white"/>
<stop offset="1" stop-color="#AEAEAE"/>
</radialGradient>
<linearGradient id="paint15_linear_87_6008" x1="253.473" y1="65.6212" x2="363.558" y2="65.6212" gradientUnits="userSpaceOnUse">
<stop stop-color="#2BE9A3"/>
<stop offset="0.2806" stop-color="#07CDBF"/>
<stop offset="0.3333" stop-color="#00C7C5"/>
<stop offset="0.4046" stop-color="#19C8D3"/>
<stop offset="0.5744" stop-color="#50CBF3"/>
<stop offset="0.6566" stop-color="#66CCFF"/>
<stop offset="0.9949" stop-color="#5277F7"/>
</linearGradient>
<linearGradient id="paint16_linear_87_6008" x1="253.489" y1="50.3202" x2="363.546" y2="50.3202" gradientUnits="userSpaceOnUse">
<stop stop-color="#2BE9A3"/>
<stop offset="0.2806" stop-color="#07CDBF"/>
<stop offset="0.3333" stop-color="#00C7C5"/>
<stop offset="0.4046" stop-color="#19C8D3"/>
<stop offset="0.5744" stop-color="#50CBF3"/>
<stop offset="0.6566" stop-color="#66CCFF"/>
<stop offset="0.9949" stop-color="#5277F7"/>
</linearGradient>
<linearGradient id="paint17_linear_87_6008" x1="270.03" y1="78.1067" x2="347.003" y2="78.1067" gradientUnits="userSpaceOnUse">
<stop stop-color="#2BE9A3"/>
<stop offset="0.2806" stop-color="#07CDBF"/>
<stop offset="0.3333" stop-color="#00C7C5"/>
<stop offset="0.4046" stop-color="#19C8D3"/>
<stop offset="0.5744" stop-color="#50CBF3"/>
<stop offset="0.6566" stop-color="#66CCFF"/>
<stop offset="0.9949" stop-color="#5277F7"/>
</linearGradient>
<linearGradient id="paint18_linear_87_6008" x1="269.861" y1="80.8706" x2="347.017" y2="80.8706" gradientUnits="userSpaceOnUse">
<stop stop-color="#2BE9A3"/>
<stop offset="0.2806" stop-color="#07CDBF"/>
<stop offset="0.3333" stop-color="#00C7C5"/>
<stop offset="0.4046" stop-color="#19C8D3"/>
<stop offset="0.5744" stop-color="#50CBF3"/>
<stop offset="0.6566" stop-color="#66CCFF"/>
<stop offset="0.9949" stop-color="#5277F7"/>
</linearGradient>
<linearGradient id="paint19_linear_87_6008" x1="215.511" y1="-78.9973" x2="59.7976" y2="139.631" gradientUnits="userSpaceOnUse">
<stop offset="0.020202" stop-color="#E5E9FF"/>
<stop offset="0.6613" stop-color="#F5F6FF"/>
<stop offset="1" stop-color="white"/>
</linearGradient>
<radialGradient id="paint20_radial_87_6008" cx="0" cy="0" r="1" gradientUnits="userSpaceOnUse" gradientTransform="translate(49.1334 20.276) scale(6.30925)">
<stop stop-color="white"/>
<stop offset="1" stop-color="#AEAEAE"/>
</radialGradient>
<radialGradient id="paint21_radial_87_6008" cx="0" cy="0" r="1" gradientUnits="userSpaceOnUse" gradientTransform="translate(206.357 44.8507) scale(8.4847 8.48469)">
<stop stop-color="white"/>
<stop offset="1" stop-color="#AEAEAE"/>
</radialGradient>
<radialGradient id="paint22_radial_87_6008" cx="0" cy="0" r="1" gradientUnits="userSpaceOnUse" gradientTransform="translate(19.2204 43.8048) scale(8.52386 8.52385)">
<stop stop-color="white"/>
<stop offset="1" stop-color="#AEAEAE"/>
</radialGradient>
<radialGradient id="paint23_radial_87_6008" cx="0" cy="0" r="1" gradientUnits="userSpaceOnUse" gradientTransform="translate(176.181 20.5055) scale(6.26114 6.26112)">
<stop stop-color="white"/>
<stop offset="1" stop-color="#AEAEAE"/>
</radialGradient>
<radialGradient id="paint24_radial_87_6008" cx="0" cy="0" r="1" gradientUnits="userSpaceOnUse" gradientTransform="translate(194.083 97.8809) scale(17.7195 17.7195)">
<stop stop-color="white"/>
<stop offset="1" stop-color="#AEAEAE"/>
</radialGradient>
<radialGradient id="paint25_radial_87_6008" cx="0" cy="0" r="1" gradientUnits="userSpaceOnUse" gradientTransform="translate(15.3613 71.7506) scale(12.1427 12.1427)">
<stop stop-color="white"/>
<stop offset="1" stop-color="#AEAEAE"/>
</radialGradient>
<radialGradient id="paint26_radial_87_6008" cx="0" cy="0" r="1" gradientUnits="userSpaceOnUse" gradientTransform="translate(210.525 72.9502) scale(12.0249 12.0249)">
<stop stop-color="white"/>
<stop offset="1" stop-color="#AEAEAE"/>
</radialGradient>
<radialGradient id="paint27_radial_87_6008" cx="0" cy="0" r="1" gradientUnits="userSpaceOnUse" gradientTransform="translate(113.176 121.171) scale(49.7839 49.7838)">
<stop stop-color="white"/>
<stop offset="1" stop-color="#AEAEAE"/>
</radialGradient>
<radialGradient id="paint28_radial_87_6008" cx="0" cy="0" r="1" gradientUnits="userSpaceOnUse" gradientTransform="translate(32.0507 97.5314) scale(17.7756 17.7756)">
<stop stop-color="white"/>
<stop offset="1" stop-color="#AEAEAE"/>
</radialGradient>
<radialGradient id="paint29_radial_87_6008" cx="0" cy="0" r="1" gradientUnits="userSpaceOnUse" gradientTransform="translate(120.391 22.9637) scale(74.9761 74.9761)">
<stop stop-color="white"/>
<stop offset="1"/>
</radialGradient>
<linearGradient id="paint30_linear_87_6008" x1="57.2005" y1="15.0511" x2="160.075" y2="107.448" gradientUnits="userSpaceOnUse">
<stop stop-color="#FF9E6E"/>
<stop offset="0.2002" stop-color="#FFC27A"/>
<stop offset="0.3788" stop-color="#FFE585"/>
<stop offset="0.5614" stop-color="#DBEE70"/>
<stop offset="0.7424" stop-color="#B4F759"/>
<stop offset="0.777" stop-color="#ADF65D"/>
<stop offset="0.827" stop-color="#9AF467"/>
<stop offset="0.8863" stop-color="#7AF178"/>
<stop offset="0.9523" stop-color="#4FED90"/>
<stop offset="1" stop-color="#2BE9A3"/>
</linearGradient>
<linearGradient id="paint31_linear_87_6008" x1="60.5364" y1="12.4543" x2="158.229" y2="100.197" gradientUnits="userSpaceOnUse">
<stop stop-color="#FF9E6E"/>
<stop offset="0.2002" stop-color="#FFC27A"/>
<stop offset="0.3788" stop-color="#FFE585"/>
<stop offset="0.5614" stop-color="#DBEE70"/>
<stop offset="0.7424" stop-color="#B4F759"/>
<stop offset="0.777" stop-color="#ADF65D"/>
<stop offset="0.827" stop-color="#9AF467"/>
<stop offset="0.8863" stop-color="#7AF178"/>
<stop offset="0.9523" stop-color="#4FED90"/>
<stop offset="1" stop-color="#2BE9A3"/>
</linearGradient>
<linearGradient id="paint32_linear_87_6008" x1="75.7856" y1="37.5767" x2="143.619" y2="98.5012" gradientUnits="userSpaceOnUse">
<stop stop-color="#FF9E6E"/>
<stop offset="0.2002" stop-color="#FFC27A"/>
<stop offset="0.3788" stop-color="#FFE585"/>
<stop offset="0.5614" stop-color="#DBEE70"/>
<stop offset="0.7424" stop-color="#B4F759"/>
<stop offset="0.777" stop-color="#ADF65D"/>
<stop offset="0.827" stop-color="#9AF467"/>
<stop offset="0.8863" stop-color="#7AF178"/>
<stop offset="0.9523" stop-color="#4FED90"/>
<stop offset="1" stop-color="#2BE9A3"/>
</linearGradient>
<radialGradient id="paint33_radial_87_6008" cx="0" cy="0" r="1" gradientUnits="userSpaceOnUse" gradientTransform="translate(112.9 56.1392) scale(20.3433 20.3434)">
<stop stop-color="white"/>
<stop offset="1" stop-color="#D1CDFF"/>
</radialGradient>
<radialGradient id="paint34_radial_87_6008" cx="0" cy="0" r="1" gradientUnits="userSpaceOnUse" gradientTransform="translate(112.897 79.1738) scale(36.5683 36.5683)">
<stop stop-color="white"/>
<stop offset="1" stop-color="#E0E0E0"/>
</radialGradient>
<linearGradient id="paint35_linear_87_6008" x1="391.548" y1="210.322" x2="290.577" y2="210.322" gradientUnits="userSpaceOnUse">
<stop stop-color="#B9BFEA"/>
<stop offset="0.2475" stop-color="#E5E9FF"/>
<stop offset="0.702" stop-color="#AFB6E5"/>
<stop offset="0.9464" stop-color="#BAC0EA"/>
<stop offset="1" stop-color="#BDC3EC"/>
</linearGradient>
<linearGradient id="paint36_linear_87_6008" x1="686.65" y1="-371.833" x2="264.69" y2="359.461" gradientUnits="userSpaceOnUse">
<stop stop-color="#AFB6E5"/>
<stop offset="0.1449" stop-color="#B6BCE8"/>
<stop offset="0.3485" stop-color="#C8CDF1"/>
<stop offset="0.5808" stop-color="#E5E9FF"/>
<stop offset="0.8551" stop-color="#F5F6FF"/>
<stop offset="1" stop-color="white"/>
</linearGradient>
<linearGradient id="paint37_linear_87_6008" x1="253.274" y1="164.673" x2="436.162" y2="278.025" gradientUnits="userSpaceOnUse">
<stop stop-color="#66CCFF"/>
<stop offset="0.0561182" stop-color="#64C5FE"/>
<stop offset="0.135" stop-color="#60B3FD"/>
<stop offset="0.2269" stop-color="#5995FA"/>
<stop offset="0.303" stop-color="#5277F7"/>
<stop offset="0.5818" stop-color="#7670F4"/>
<stop offset="0.6768" stop-color="#836DF3"/>
<stop offset="0.8897" stop-color="#A76DF3"/>
<stop offset="1" stop-color="#BB6DF3"/>
</linearGradient>
<linearGradient id="paint38_linear_87_6008" x1="451.241" y1="184.257" x2="215.937" y2="184.257" gradientUnits="userSpaceOnUse">
<stop stop-color="#66CCFF"/>
<stop offset="0.0561182" stop-color="#64C5FE"/>
<stop offset="0.135" stop-color="#60B3FD"/>
<stop offset="0.2269" stop-color="#5995FA"/>
<stop offset="0.303" stop-color="#5277F7"/>
<stop offset="0.5818" stop-color="#7670F4"/>
<stop offset="0.6768" stop-color="#836DF3"/>
<stop offset="0.8897" stop-color="#A76DF3"/>
<stop offset="1" stop-color="#BB6DF3"/>
</linearGradient>
<linearGradient id="paint39_linear_87_6008" x1="451.241" y1="254.023" x2="215.937" y2="254.023" gradientUnits="userSpaceOnUse">
<stop stop-color="#66CCFF"/>
<stop offset="0.0561182" stop-color="#64C5FE"/>
<stop offset="0.135" stop-color="#60B3FD"/>
<stop offset="0.2269" stop-color="#5995FA"/>
<stop offset="0.303" stop-color="#5277F7"/>
<stop offset="0.5818" stop-color="#7670F4"/>
<stop offset="0.6768" stop-color="#836DF3"/>
<stop offset="0.8897" stop-color="#A76DF3"/>
<stop offset="1" stop-color="#BB6DF3"/>
</linearGradient>
<linearGradient id="paint40_linear_87_6008" x1="487.834" y1="9.63831" x2="207.863" y2="422.779" gradientUnits="userSpaceOnUse">
<stop stop-color="#AFB6E5"/>
<stop offset="0.1449" stop-color="#B6BCE8"/>
<stop offset="0.3485" stop-color="#C8CDF1"/>
<stop offset="0.5808" stop-color="#E5E9FF"/>
<stop offset="0.8551" stop-color="#F5F6FF"/>
<stop offset="1" stop-color="white"/>
</linearGradient>
<linearGradient id="paint41_linear_87_6008" x1="441.961" y1="76.6379" x2="305.122" y2="279.537" gradientUnits="userSpaceOnUse">
<stop offset="0.020202" stop-color="#E5E9FF"/>
<stop offset="0.6613" stop-color="#F5F6FF"/>
<stop offset="1" stop-color="white"/>
</linearGradient>
<radialGradient id="paint42_radial_87_6008" cx="0" cy="0" r="1" gradientUnits="userSpaceOnUse" gradientTransform="translate(495.6 223.544) scale(1.65036 1.65026)">
<stop stop-color="white"/>
<stop offset="1"/>
</radialGradient>
<radialGradient id="paint43_radial_87_6008" cx="0" cy="0" r="1" gradientUnits="userSpaceOnUse" gradientTransform="translate(292.883 127.758) scale(6.68517 6.68517)">
<stop stop-color="white"/>
<stop offset="1" stop-color="#AEAEAE"/>
</radialGradient>
<radialGradient id="paint44_radial_87_6008" cx="0" cy="0" r="1" gradientUnits="userSpaceOnUse" gradientTransform="translate(235.317 146.043) scale(8.90025 8.90025)">
<stop stop-color="white"/>
<stop offset="1" stop-color="#AEAEAE"/>
</radialGradient>
<radialGradient id="paint45_radial_87_6008" cx="0" cy="0" r="1" gradientUnits="userSpaceOnUse" gradientTransform="translate(512.587 212.742) scale(12.3999 12.3999)">
<stop stop-color="white"/>
<stop offset="1" stop-color="#AEAEAE"/>
</radialGradient>
<radialGradient id="paint46_radial_87_6008" cx="0" cy="0" r="1" gradientUnits="userSpaceOnUse" gradientTransform="translate(344.474 204.341) scale(40.6548 40.6548)">
<stop stop-color="white"/>
<stop offset="1" stop-color="#EAE5FF"/>
</radialGradient>
<radialGradient id="paint47_radial_87_6008" cx="0" cy="0" r="1" gradientUnits="userSpaceOnUse" gradientTransform="translate(395.05 127.942) scale(6.6514 6.65136)">
<stop stop-color="white"/>
<stop offset="1" stop-color="#AEAEAE"/>
</radialGradient>
<radialGradient id="paint48_radial_87_6008" cx="0" cy="0" r="1" gradientUnits="userSpaceOnUse" gradientTransform="translate(452.814 146.436) scale(8.83371 8.83371)">
<stop stop-color="white"/>
<stop offset="1" stop-color="#AEAEAE"/>
</radialGradient>
<radialGradient id="paint49_radial_87_6008" cx="0" cy="0" r="1" gradientUnits="userSpaceOnUse" gradientTransform="translate(494.115 176.203) scale(11.1485 11.1485)">
<stop stop-color="white"/>
<stop offset="1" stop-color="#AEAEAE"/>
</radialGradient>
<radialGradient id="paint50_radial_87_6008" cx="0" cy="0" r="1" gradientUnits="userSpaceOnUse" gradientTransform="translate(194.338 175.661) scale(11.205)">
<stop stop-color="white"/>
<stop offset="1" stop-color="#AEAEAE"/>
</radialGradient>
<radialGradient id="paint51_radial_87_6008" cx="0" cy="0" r="1" gradientUnits="userSpaceOnUse" gradientTransform="translate(476.588 281.346) scale(23.8645 23.8645)">
<stop stop-color="white"/>
<stop offset="1" stop-color="#AEAEAE"/>
</radialGradient>
<radialGradient id="paint52_radial_87_6008" cx="0" cy="0" r="1" gradientUnits="userSpaceOnUse" gradientTransform="translate(428.043 307.397) scale(25.7338 25.7338)">
<stop stop-color="white"/>
<stop offset="1" stop-color="#AEAEAE"/>
</radialGradient>
<radialGradient id="paint53_radial_87_6008" cx="0" cy="0" r="1" gradientUnits="userSpaceOnUse" gradientTransform="translate(345.028 317.814) scale(39.0995 39.0995)">
<stop stop-color="white"/>
<stop offset="1" stop-color="#AEAEAE"/>
</radialGradient>
<radialGradient id="paint54_radial_87_6008" cx="0" cy="0" r="1" gradientUnits="userSpaceOnUse" gradientTransform="translate(505.017 246.033) scale(19.9578 19.9578)">
<stop stop-color="white"/>
<stop offset="1" stop-color="#AEAEAE"/>
</radialGradient>
<radialGradient id="paint55_radial_87_6008" cx="0" cy="0" r="1" gradientUnits="userSpaceOnUse" gradientTransform="translate(212.984 280.789) scale(23.9279 23.9279)">
<stop stop-color="white"/>
<stop offset="1" stop-color="#AEAEAE"/>
</radialGradient>
<radialGradient id="paint56_radial_87_6008" cx="0" cy="0" r="1" gradientUnits="userSpaceOnUse" gradientTransform="translate(261.796 307.116) scale(25.7259 25.7258)">
<stop stop-color="white"/>
<stop offset="1" stop-color="#AEAEAE"/>
</radialGradient>
<radialGradient id="paint57_radial_87_6008" cx="0" cy="0" r="1" gradientUnits="userSpaceOnUse" gradientTransform="translate(184.191 245.453) scale(20.0849 20.0849)">
<stop stop-color="white"/>
<stop offset="1" stop-color="#AEAEAE"/>
</radialGradient>
<radialGradient id="paint58_radial_87_6008" cx="0" cy="0" r="1" gradientUnits="userSpaceOnUse" gradientTransform="translate(176.263 212.135) scale(12.4255 12.4255)">
<stop stop-color="white"/>
<stop offset="1" stop-color="#AEAEAE"/>
</radialGradient>
<radialGradient id="paint59_radial_87_6008" cx="0" cy="0" r="1" gradientUnits="userSpaceOnUse" gradientTransform="translate(193.374 222.776) scale(1.81005 1.81021)">
<stop stop-color="white"/>
<stop offset="1"/>
</radialGradient>
</defs>
</svg>
