<svg width="51" height="51" viewBox="0 0 51 51" fill="none" xmlns="http://www.w3.org/2000/svg">
<path d="M14.875 16.49V34.5312H23.545L24.82 32.5975C27.285 28.7938 31.7262 27.0938 34.9987 27.0938C36.125 27.0938 37.0812 27.285 37.8037 27.625C39.7375 28.4963 40.2687 30.1325 40.375 31.3225C40.545 33.7237 39.3125 36.1887 37.1875 37.6337C35.275 38.9512 30.685 40.375 25.2237 40.375C21.505 40.375 16.1712 39.7162 10.88 36.7625C11.4962 31.5562 12.75 23.12 14.875 16.49ZM14.875 6.375C8.5 15.0662 6.375 38.9725 6.375 38.9725C12.5375 43.1587 19.295 44.625 25.2237 44.625C31.5775 44.625 36.9537 42.9463 39.61 41.14C45.985 36.805 46.6225 27.0088 39.61 23.7575C38.25 23.1413 36.6775 22.8438 34.9987 22.8438C30.1112 22.8438 24.4375 25.415 21.25 30.2812H19.125V15.0662H23.375L25.5 8.5L14.875 6.375Z" fill="#0096C1"/>
</svg>
