<svg width="80" height="81" viewBox="0 0 80 81" fill="none" xmlns="http://www.w3.org/2000/svg">
<path d="M34.24 12.85C34.588 13.4068 34.8229 14.0267 34.9314 14.6743C35.0398 15.3219 35.0196 15.9845 34.872 16.6243C34.7243 17.2641 34.4521 17.8686 34.0709 18.4032C33.6896 18.9377 33.2068 19.392 32.65 19.74C26.5645 23.5305 21.73 29.0292 18.75 35.55C21.7594 35.2984 24.7748 35.9609 27.4015 37.4511C30.0282 38.9412 32.1439 41.1895 33.4719 43.9018C34.7999 46.614 35.2782 49.664 34.8444 52.6526C34.4106 55.6412 33.0848 58.4293 31.0404 60.6521C28.9961 62.8749 26.3284 64.4288 23.3864 65.1106C20.4445 65.7924 17.3652 65.5703 14.5515 64.4733C11.7379 63.3764 9.32081 61.4557 7.61661 58.9626C5.91241 56.4694 5.00044 53.52 5 50.5V50.365C5.00544 49.9779 5.02211 49.5911 5.05 49.205C5.095 48.455 5.185 47.405 5.36 46.115C5.71 43.55 6.395 40.015 7.78 36.045C10.54 28.095 16.13 18.27 27.35 11.26C27.9068 10.912 28.5267 10.6771 29.1743 10.5687C29.8219 10.4602 30.4845 10.4804 31.1243 10.628C31.7641 10.7757 32.3685 11.0479 32.9031 11.4292C33.4377 11.8104 33.892 12.2932 34.24 12.85ZM69.24 12.85C69.588 13.4068 69.8229 14.0267 69.9314 14.6743C70.0398 15.3219 70.0196 15.9845 69.872 16.6243C69.7243 17.2641 69.4521 17.8686 69.0709 18.4032C68.6896 18.9377 68.2068 19.392 67.65 19.74C61.5645 23.5305 56.73 29.0292 53.75 35.55C56.7594 35.2984 59.7747 35.9609 62.4014 37.4511C65.0281 38.9412 67.1439 41.1895 68.4719 43.9018C69.7999 46.614 70.2782 49.664 69.8444 52.6526C69.4106 55.6412 68.0848 58.4293 66.0404 60.6521C63.9961 62.8749 61.3284 64.4288 58.3864 65.1106C55.4445 65.7924 52.3652 65.5703 49.5515 64.4733C46.7379 63.3764 44.3208 61.4557 42.6166 58.9626C40.9124 56.4694 40.0004 53.52 40 50.5V50.365C40.0054 49.9779 40.0221 49.5911 40.05 49.205C40.095 48.455 40.185 47.405 40.36 46.115C40.71 43.55 41.395 40.015 42.78 36.045C45.54 28.095 51.13 18.27 62.35 11.26C62.9068 10.912 63.5267 10.6771 64.1743 10.5687C64.8219 10.4602 65.4845 10.4804 66.1243 10.628C66.7641 10.7757 67.3685 11.0479 67.9031 11.4292C68.4377 11.8104 68.892 12.2932 69.24 12.85Z" fill="#0096C1"/>
</svg>
