<svg width="49" height="49" viewBox="0 0 49 49" fill="none" xmlns="http://www.w3.org/2000/svg">
<path d="M24.4998 25.521C22.6046 25.521 20.7871 26.2739 19.447 27.614C18.1069 28.9541 17.354 30.7716 17.354 32.6668C17.354 34.562 18.1069 36.3796 19.447 37.7197C20.7871 39.0598 22.6046 39.8127 24.4998 39.8127C26.395 39.8127 28.2126 39.0598 29.5527 37.7197C30.8928 36.3796 31.6457 34.562 31.6457 32.6668C31.6457 30.7716 30.8928 28.9541 29.5527 27.614C28.2126 26.2739 26.395 25.521 24.4998 25.521ZM21.4373 32.6668C21.4373 31.8546 21.76 31.0756 22.3343 30.5013C22.9087 29.927 23.6876 29.6043 24.4998 29.6043C25.3121 29.6043 26.091 29.927 26.6654 30.5013C27.2397 31.0756 27.5623 31.8546 27.5623 32.6668C27.5623 33.4791 27.2397 34.258 26.6654 34.8323C26.091 35.4067 25.3121 35.7293 24.4998 35.7293C23.6876 35.7293 22.9087 35.4067 22.3343 34.8323C21.76 34.258 21.4373 33.4791 21.4373 32.6668Z" fill="#0096C1"/>
<path d="M35.7822 10.4452L29.2918 1.34546L5.42675 20.4105L4.10375 20.3962V20.4167H3.0625V44.9167H45.9375V20.4167H43.9734L40.0657 8.98538L35.7822 10.4452ZM39.6594 20.4167H19.1855L34.4347 15.2186L37.5422 14.2243L39.6594 20.4167ZM31.7479 11.8213L16.0067 17.1868L28.4731 7.2275L31.7479 11.8213ZM7.14583 37.095V28.2342C8.00777 27.93 8.7907 27.4367 9.43721 26.7906C10.0837 26.1444 10.5774 25.3618 10.8821 24.5H38.1179C38.4223 25.3622 38.9159 26.1452 39.5624 26.7917C40.209 27.4383 40.992 27.9318 41.8542 28.2362V37.0971C40.992 37.4015 40.209 37.8951 39.5624 38.5416C38.9159 39.1881 38.4223 39.9712 38.1179 40.8333H10.8862C10.5803 39.9711 10.0858 39.188 9.43867 38.5413C8.79157 37.8946 8.00824 37.4004 7.14583 37.095Z" fill="#0096C1"/>
</svg>
