<svg width="128" height="41" viewBox="0 0 128 41" fill="none" xmlns="http://www.w3.org/2000/svg">
<path d="M23.6475 29.3826C23.1487 29.6801 22.5828 29.8468 22.0024 29.8673C20.5686 29.9662 19.2417 29.5445 17.926 29.0497C15.7895 28.248 13.6315 27.5418 11.3746 27.1617C9.09751 26.7782 6.835 26.7906 4.58935 27.3562C4.25987 27.4394 4.16091 27.3562 4.05633 27.0425C3.13875 24.3549 2.74259 21.5168 2.88909 18.6806C3.04203 15.6692 3.93264 12.8759 5.43835 10.2671C7.32528 6.99024 9.80033 4.30042 13.1435 2.46634C15.4915 1.17766 18.0149 0.456845 20.6665 0.147605C26.6905 -0.554089 31.9116 1.26537 36.4501 5.19328C36.5389 5.27087 36.6289 5.34734 36.7121 5.43055C37.1619 5.88035 37.1877 6.45273 36.7436 6.90478C34.6497 9.03535 32.5506 11.1603 30.4463 13.2796C30.091 13.6361 29.5737 13.6069 29.1486 13.2256C28.222 12.4014 27.21 11.7244 26.027 11.3578C19.6758 9.34834 14.6548 13.6327 13.8362 18.5963C13.0389 23.4317 16.2213 28.1085 20.9881 29.1161C21.8393 29.296 22.7119 29.2836 23.6475 29.3826Z" fill="#0095C0"/>
<path d="M8.39557 28.1647C10.7705 28.1332 12.9959 28.7404 15.2 29.4714C16.7361 29.9796 18.2362 30.6094 19.8206 30.9546C21.3117 31.2796 22.7825 31.2728 24.1916 30.5801C25.541 29.9167 26.2831 28.8461 26.399 27.3427C26.4766 26.3385 26.5699 26.2811 27.5145 26.623L35.53 29.5107C36.2587 29.7739 36.4836 30.0966 36.4746 30.8838C36.4465 33.1395 35.8808 35.203 34.3099 36.9033C32.9605 38.3651 31.258 39.186 29.3722 39.6752C26.7858 40.3499 24.1994 40.1655 21.6254 39.5695C19.2415 39.0173 16.9778 38.0919 14.6816 37.271C10.1086 35.6359 5.53782 33.9956 0.969312 32.3501C0.778483 32.2906 0.599047 32.1994 0.438543 32.0802C-0.123711 31.6304 -0.143952 31.3583 0.369948 30.877C1.78795 29.5512 3.50508 28.8405 5.37851 28.4593C6.37012 28.2493 7.38206 28.1504 8.39557 28.1647Z" fill="#0095C0"/>
<path d="M36.1585 22.025C36.2148 23.9974 36.3396 25.9676 36.3283 27.9433C36.3283 28.3852 36.1304 28.5461 35.6964 28.3931C34.501 27.977 33.3113 27.543 32.1204 27.1146L27.3874 25.4143C26.5271 25.1039 26.3281 24.8037 26.3393 23.8962C26.3719 21.3155 27.2243 19.0957 29.1944 17.3628C30.6484 16.0842 32.3723 15.3972 34.2547 15.0463C34.5171 14.9792 34.7888 14.956 35.0588 14.9777C35.5176 15.0429 35.901 15.5096 35.9246 16.0359C35.9674 17.0345 36.0225 18.0319 36.0371 19.0305C36.0517 20.029 36.0371 21.0265 36.0371 22.0239L36.1585 22.025Z" fill="#0095C0"/>
<path d="M58.5115 19.9052C57.7756 19.8458 57.1373 19.7822 56.4968 19.7504C55.2243 19.6867 55.1056 18.7366 55.0441 17.7971C54.9571 16.4568 55.3749 15.6573 56.3568 15.6106C58.2655 15.5236 60.1742 15.5448 62.083 15.6106C62.2689 15.6139 62.4524 15.6539 62.6228 15.7284C62.7932 15.8029 62.9472 15.9104 63.0759 16.0446C63.2046 16.1788 63.3055 16.3372 63.3728 16.5106C63.44 16.684 63.4723 16.8689 63.4678 17.0548C63.5272 19.235 63.6375 21.4322 63.4318 23.5932C63.3597 24.3482 62.5516 25.1902 61.8624 25.7013C59.0015 27.8221 54.0876 27.6397 51.0782 25.4171C47.2268 22.5774 45.9671 17.2478 48.1727 13.1081C50.3147 9.08918 55.3007 7.1423 59.5825 8.69471C60.4713 9.04283 61.3151 9.49638 62.0957 10.0457C63.1221 10.7349 63.2515 11.5302 62.6662 12.6266C61.6482 14.5205 60.5454 14.8577 58.7618 13.8228C56.8743 12.7327 54.832 12.9978 53.305 14.5332C51.952 15.8948 51.7314 18.2276 52.796 19.9412C53.9158 21.7397 56.0323 22.624 57.9474 21.9878C59.1075 21.6039 58.3716 20.6687 58.5115 19.9052Z" fill="#002D3A"/>
<path d="M107.88 13.9605C107.88 12.5396 107.861 11.1611 107.88 9.78683C107.91 8.03082 108.517 7.51335 110.425 7.51971C112.245 7.51971 112.807 8.04354 112.811 9.8038C112.824 14.5925 112.824 19.3806 112.811 24.1679C112.811 25.0735 113 26.1317 111.946 26.5856C110.833 27.0649 109.656 27.1052 108.527 26.4817C108.296 26.3398 108.02 26.2877 107.753 26.3353C104.186 27.576 100.967 26.0363 99.7048 22.467C98.1948 18.1767 101.457 13.3264 105.753 13.5152C106.432 13.5449 107.092 13.7888 107.88 13.9605ZM107.832 20.1957C107.807 19.7367 107.612 19.3035 107.284 18.9818C106.955 18.6602 106.518 18.4735 106.059 18.4587C105.83 18.4584 105.603 18.5036 105.392 18.5917C105.18 18.6797 104.989 18.8089 104.828 18.9717C104.667 19.1345 104.54 19.3276 104.454 19.5399C104.368 19.7522 104.325 19.9794 104.328 20.2084C104.344 20.6682 104.534 21.1048 104.859 21.4306C105.184 21.7563 105.62 21.947 106.08 21.9644C106.54 21.9405 106.974 21.746 107.298 21.4189C107.622 21.0918 107.812 20.6556 107.832 20.1957Z" fill="#002D3A"/>
<path d="M92.6508 18.1704C93.1111 16.9467 93.4546 15.9881 93.8342 15.0422C94.4705 13.458 95.4651 12.9702 96.8797 13.5153C98.6209 14.1876 99.1065 15.1589 98.447 16.811C97.3123 19.6486 96.148 22.4756 94.9773 25.2941C94.5532 26.3227 93.8258 27.0247 92.6445 27.0035C91.5141 26.9865 90.8164 26.3079 90.3964 25.3259C89.9935 24.3864 89.6308 23.4278 89.1728 22.2847C88.7656 23.3642 88.4496 24.2486 88.0996 25.1181C87.6755 26.1785 87.0096 26.9971 85.7668 27.0035C84.4816 27.0035 83.7753 26.223 83.3236 25.0948C82.2081 22.3377 81.0544 19.5807 79.9304 16.8237C79.2411 15.1059 79.6313 14.2257 81.2983 13.5874C82.9652 12.949 83.8093 13.3159 84.5028 15.0486C84.8866 16.003 85.2472 16.9679 85.6968 18.128C86.087 17.0676 86.4009 16.1938 86.7381 15.3243C87.1622 14.2469 87.8642 13.5047 89.0922 13.4538C90.2289 13.4092 91.0942 14.0391 91.5904 15.2819C91.9255 16.1429 92.2224 17.0103 92.6508 18.1704Z" fill="#002D3A"/>
<path d="M120.1 21.9708C121.277 23.1245 122.581 22.9103 123.871 22.5116C125.61 21.9729 126.443 22.3293 126.986 23.9283C127.455 25.3132 126.87 26.3651 125.226 26.8317C123.207 27.4043 121.144 27.4997 119.108 26.9059C116.096 26.0279 114.073 22.9125 114.389 19.7355C114.747 16.109 117.146 13.5322 120.539 13.2905C121.681 13.1948 122.83 13.2836 123.943 13.5534C126.263 14.1557 127.76 16.2871 127.76 18.6879C127.76 20.8765 126.619 21.9942 124.422 21.973C122.989 21.9581 121.553 21.9708 120.1 21.9708ZM122.726 18.9551L122.967 18.5818C122.645 18.3188 122.357 17.8968 121.998 17.8226C121.069 17.6359 120.34 18.0241 119.805 18.9551H122.726Z" fill="#002D3A"/>
<path d="M71.9103 19.3919C72.6802 17.7123 73.3546 16.2108 74.0502 14.7262C74.7882 13.1462 75.5984 12.8854 77.2929 13.6552C78.8453 14.3614 79.1889 15.2225 78.5039 16.76C76.3916 21.5064 74.2708 26.2506 72.1415 30.9926C71.8001 31.7561 71.4353 32.7656 70.4343 32.5578C69.4333 32.3499 68.4195 31.8028 67.533 31.2196C67.2743 31.0499 67.2595 30.1952 67.4185 29.7583C67.9254 28.3607 68.6146 27.031 69.13 25.6355C69.287 25.1665 69.2559 24.6548 69.043 24.2082C67.6497 21.746 66.1736 19.3304 64.74 16.8937C63.8916 15.4642 64.161 14.6477 65.7113 13.7125C67.1789 12.8345 68.1396 13.0381 68.9837 14.442C69.9359 16.0284 70.8648 17.6105 71.9103 19.3919Z" fill="#002D3A"/>
</svg>
